v -0.64 0.2 7.55
v -0.64 0.224 7.526
v -1.112662 0.2 7.55
v -0.82 0.289515 7.460485
v -1.111369 0.202704 7.547296
v -1.100213 0.223044 7.526956
v -1.064028 0.268285 7.481715
v -1.082885 0.247575 7.502425
v -1.098436 0.225889 7.52411
v -0.82 0.3 7.45
v -1.02339 0.3 7.45
v -1.044356 0.285436 7.464565
v -1.335 -4.785 7.1
v -1.3 -4.82 7.1
v -1.335 -4.785 7.465
v -1.3 -4.82 7.5
v -1.3 -5.8 7.419706
v -1.3 -5.8 7.5
v -1.3 -5.480294 7.1
v -1.25 -5.8 7.55
v -1.25 -4.65 7.55
v -1.335 -4.735 7.465
v -0.45 -5.8 7.55
v -0.4 -5.8 7.5
v -0.45 -4.99 7.55
v -0.4 -5.04 7.5
v -1.06 -5.405 7.15
v -1.11 -5.405 7.1
v -1.06 -4.995 7.15
v -1.11 -4.995 7.1
v -0.64 -4.995 7.15
v -0.59 -4.995 7.1
v -0.64 -5.405 7.15
v -0.59 -5.405 7.1
v -1.16 -5.405 7.55
v -1.06 -5.405 7.45
v -1.16 -4.995 7.55
v -1.06 -4.995 7.45
v -0.54 -4.995 7.55
v -0.64 -4.995 7.45
v -0.54 -5.405 7.55
v -0.64 -5.405 7.45
v -0.4 -5.04 7.1
v -0.64 -4.8 7.1
v -0.64 -4.8 7.55
v -1.02339 0.3 7.39
v -1.045175 0.284795 7.39
v -1.065106 0.267228 7.39
v -1.082926 0.247524 7.39
v -1.098408 0.225934 7.39
v -1.111354 0.202734 7.39
v -1.121599 0.178222 7.39
v -1.121599 0.178222 7.55
v -1.129012 0.15271 7.39
v -1.129012 0.15271 7.55
v -1.133498 0.126525 7.39
v -1.133498 0.126525 7.55
v -1.135 0.1 7.39
v -1.135 0.1 7.55
v -1.22339 0.3 7.39
v -1.22339 0.3 7.1
v -1.245175 0.284795 7.1
v -1.245175 0.284795 7.39
v -1.265106 0.267228 7.1
v -1.265106 0.267228 7.39
v -1.282926 0.247524 7.1
v -1.282926 0.247524 7.39
v -1.298408 0.225934 7.1
v -1.298408 0.225934 7.39
v -1.311354 0.202734 7.1
v -1.311354 0.202734 7.39
v -1.321599 0.178222 7.1
v -1.321599 0.178222 7.39
v -1.329012 0.15271 7.1
v -1.329012 0.15271 7.39
v -1.333498 0.126525 7.1
v -1.333498 0.126525 7.39
v -1.335 0.1 7.1
v -1.335 0.1 7.39
v -1.335 -4.735 7.39
v -1.135 -4.535 7.39
v -1.135 -4.535 7.55
v -0.64 -4.599 7.1
v -0.64 -4.5488 7.1
v -0.64 -4.599 7.55
v -0.64 -4.5488 7.55
v -0.64 -4.2976 7.55
v -0.64 -4.3478 7.55
v -0.64 -4.2976 7.1
v -0.64 -4.3478 7.1
v -0.64 -4.0464 7.55
v -0.64 -4.0966 7.55
v -0.64 -4.0464 7.1
v -0.64 -4.0966 7.1
v -0.64 -3.7952 7.55
v -0.64 -3.8454 7.55
v -0.64 -3.7952 7.1
v -0.64 -3.8454 7.1
v -0.64 -3.544 7.55
v -0.64 -3.5942 7.55
v -0.64 -3.544 7.1
v -0.64 -3.5942 7.1
v -0.64 -3.2928 7.55
v -0.64 -3.343 7.55
v -0.64 -3.2928 7.1
v -0.64 -3.343 7.1
v -0.64 -3.0416 7.55
v -0.64 -3.0918 7.55
v -0.64 -3.0416 7.1
v -0.64 -3.0918 7.1
v -0.64 -2.7904 7.55
v -0.64 -2.8406 7.55
v -0.64 -2.7904 7.1
v -0.64 -2.8406 7.1
v -0.64 -2.5392 7.55
v -0.64 -2.5894 7.55
v -0.64 -2.5392 7.1
v -0.64 -2.5894 7.1
v -0.64 -2.288 7.55
v -0.64 -2.3382 7.55
v -0.64 -2.288 7.1
v -0.64 -2.3382 7.1
v -0.64 -2.0368 7.55
v -0.64 -2.087 7.55
v -0.64 -2.0368 7.1
v -0.64 -2.087 7.1
v -0.64 -1.7856 7.55
v -0.64 -1.8358 7.55
v -0.64 -1.7856 7.1
v -0.64 -1.8358 7.1
v -0.64 -1.5344 7.55
v -0.64 -1.5846 7.55
v -0.64 -1.5344 7.1
v -0.64 -1.5846 7.1
v -0.64 -1.2832 7.55
v -0.64 -1.3334 7.55
v -0.64 -1.2832 7.1
v -0.64 -1.3334 7.1
v -0.64 -1.032 7.55
v -0.64 -1.0822 7.55
v -0.64 -1.032 7.1
v -0.64 -1.0822 7.1
v -0.64 -0.7808 7.55
v -0.64 -0.831 7.55
v -0.64 -0.7808 7.1
v -0.64 -0.831 7.1
v -0.64 -0.5296 7.55
v -0.64 -0.5798 7.55
v -0.64 -0.5296 7.1
v -0.64 -0.5798 7.1
v -0.64 -0.2784 7.55
v -0.64 -0.3286 7.55
v -0.64 -0.2784 7.1
v -0.64 -0.3286 7.1
v -0.64 -0.0272 7.55
v -0.64 -0.0774 7.55
v -0.64 -0.0272 7.1
v -0.64 -0.0774 7.1
v -0.64 0.224 7.1
v -0.64 0.1738 7.1
v -0.64 0.1738 7.55
v -0.4 -5.480294 7.1
v -0.4 -5.8 7.419706
v -0.82 0.289515 7.1
v -0.82 0.3 7.1
v -0.82 0.108285 7.1
v -0.82 0.108285 7.55
v -0.82 0.038315 7.1
v -0.82 0.038315 7.55
v -0.82 -0.142915 7.1
v -0.82 -0.142915 7.55
v -0.82 -0.212885 7.1
v -0.82 -0.212885 7.55
v -0.82 -0.394115 7.1
v -0.82 -0.394115 7.55
v -0.82 -0.464085 7.1
v -0.82 -0.464085 7.55
v -0.82 -0.645315 7.1
v -0.82 -0.645315 7.55
v -0.82 -0.715285 7.1
v -0.82 -0.715285 7.55
v -0.82 -0.896515 7.1
v -0.82 -0.896515 7.55
v -0.82 -0.966485 7.1
v -0.82 -0.966485 7.55
v -0.82 -1.147715 7.1
v -0.82 -1.147715 7.55
v -0.82 -1.217685 7.1
v -0.82 -1.217685 7.55
v -0.82 -1.398915 7.1
v -0.82 -1.398915 7.55
v -0.82 -1.468885 7.1
v -0.82 -1.468885 7.55
v -0.82 -1.650115 7.1
v -0.82 -1.650115 7.55
v -0.82 -1.720085 7.1
v -0.82 -1.720085 7.55
v -0.82 -1.901315 7.1
v -0.82 -1.901315 7.55
v -0.82 -1.971285 7.1
v -0.82 -1.971285 7.55
v -0.82 -2.152515 7.1
v -0.82 -2.152515 7.55
v -0.82 -2.222485 7.1
v -0.82 -2.222485 7.55
v -0.82 -2.403715 7.1
v -0.82 -2.403715 7.55
v -0.82 -2.473685 7.1
v -0.82 -2.473685 7.55
v -0.82 -2.654914 7.1
v -0.82 -2.654914 7.55
v -0.82 -2.724886 7.1
v -0.82 -2.724886 7.55
v -0.82 -2.906115 7.1
v -0.82 -2.906115 7.55
v -0.82 -2.976085 7.1
v -0.82 -2.976085 7.55
v -0.82 -3.157315 7.1
v -0.82 -3.157315 7.55
v -0.82 -3.227285 7.1
v -0.82 -3.227285 7.55
v -0.82 -3.408515 7.1
v -0.82 -3.408515 7.55
v -0.82 -3.478485 7.1
v -0.82 -3.478485 7.55
v -0.82 -3.729685 7.55
v -0.82 -3.729685 7.1
v -0.82 -3.659715 7.55
v -0.82 -3.659715 7.1
v -0.82 -3.980885 7.55
v -0.82 -3.980885 7.1
v -0.82 -3.910915 7.55
v -0.82 -3.910915 7.1
v -0.82 -4.232085 7.55
v -0.82 -4.232085 7.1
v -0.82 -4.162115 7.55
v -0.82 -4.162115 7.1
v -0.82 -4.483285 7.55
v -0.82 -4.483285 7.1
v -0.82 -4.413315 7.55
v -0.82 -4.413315 7.1
v -0.82 -4.734485 7.55
v -0.82 -4.734485 7.1
v -0.82 -4.664515 7.55
v -0.82 -4.664515 7.1
v -0.45 -5 7.65
v -0.4 -5.05 7.65
v -0.45 -5 7.55
v -0.4 -5.05 7.55
v -0.3 -5.05 7.05
v -0.4 -5.05 7.05
v 0.3 -5.05 7.65
v -2.3 -4.2 8.03
v -1.92 -4.2 7.65
v -2.3 -5 8.03
v -1.92 -5 7.65
v -0.7 -5.8 8.8
v -0.9 -5.8 8.6
v -0.7 -4.2 8.8
v -0.9 -4.2 8.6
v -0.9 -5.8 8
v -0.7 -5.8 7.8
v -0.9 -4.2 8
v -0.7 -4.2 7.8
v 0.9 -5.8 8.6
v 0.7 -5.8 8.8
v 0.9 -4.2 8.6
v 0.7 -4.2 8.8
v 0.7 -5.8 7.8
v 0.9 -5.8 8
v 0.7 -4.2 7.8
v 0.9 -4.2 8
v -0.65 -5 7.16
v -0.65 -5.4 7.16
v -0.56 -5 7.07
v -0.56 -5.4 7.07
v -0.56 -5 7.05
v -0.56 -5.4 7.05
v -1.14 -5 7.05
v -1.14 -5.4 7.05
v -1.14 -5 7.07
v -1.14 -5.4 7.07
v -1.05 -5 7.16
v -1.05 -5.4 7.16
v -0.95 -5.4 7.05
v -0.95 -5 7.05
v -0.95 -5.4 7.55
v -0.95 -5 7.55
v -0.75 -5 7.55
v -0.75 -5 7.05
v -0.75 -5.4 7.55
v -0.75 -5.4 7.05
v -1.05 -5.4 7.55
v -1.05 -5 7.55
v -0.65 -5 7.55
v -0.65 -5.4 7.55
v 0.791589 -4.929615 12.65
v 0.791589 -5.073087 12.843771
v -0.791589 -4.929615 12.65
v -0.791589 -5.073087 12.843771
v 0.977428 -4.996935 12.52391
v 0.980702 -5.001647 12.515083
v 1.016161 -5.037515 12.538229
v 1.123859 -5.146312 12.603757
v 1.112004 -5.136905 12.634589
v 1.043344 -5.065169 12.582528
v 1.108228 -5.134374 12.642884
v 1.033355 -5.057248 12.602929
v 1.099291 -5.128984 12.660553
v 1.088268 -5.123215 12.679462
v 1.021718 -5.049673 12.622437
v 1.084481 -5.121409 12.685381
v 1.008508 -5.042498 12.640915
v 1.064344 -5.112953 12.713097
v 0.993818 -5.035771 12.658241
v 0.966242 -4.999903 12.621886
v 0.952363 -4.99367 12.635751
v 0.932576 -4.960659 12.591854
v 0.948691 -4.970314 12.573769
v 0.978928 -5.00663 12.606923
v 0.938665 -4.964035 12.585531
v 0.936483 -4.962791 12.587861
v 0.990337 -5.013805 12.590964
v 0.962501 -4.98094 12.553868
v 1.000387 -5.02138 12.574117
v 0.966304 -4.984429 12.547334
v 1.009013 -5.029301 12.556498
v 0.973801 -4.992377 12.532446
v 0.974683 -4.993433 12.530467
v 0.949348 -4.970763 12.57293
v 0.952448 -4.972943 12.568845
v 0.958956 -4.977938 12.559492
v 0.797966 -4.929669 12.649899
v 0.836824 -5.002808 12.743135
v 0.824487 -4.931071 12.647272
v 0.826672 -4.931273 12.646895
v 0.859056 -5.004616 12.738477
v 0.814284 -5.001715 12.745947
v 0.808094 -4.92998 12.649317
v 0.818881 -4.930616 12.648126
v 0.860378 -4.93613 12.637798
v 0.871881 -4.938598 12.633175
v 0.880828 -5.00713 12.732003
v 0.886936 -4.974466 12.678462
v 0.901991 -5.010334 12.72375
v 0.904563 -4.978337 12.669852
v 0.922401 -5.014205 12.71378
v 0.921418 -4.98285 12.659816
v 0.941918 -5.018718 12.702159
v 0.937388 -4.987972 12.648423
v 0.960409 -5.02384 12.688968
v 0.977749 -5.029538 12.674294
v 0.89441 -4.944807 12.621545
v 0.872916 -4.938842 12.632718
v 0.880727 -4.940807 12.629037
v 0.886725 -4.942469 12.625924
v 0.839679 -4.93275 12.644129
v 0.850226 -4.934308 12.64121
v 0.85649 -4.935394 12.639177
v 0.943566 -5.083679 12.809053
v 0.932101 -5.08207 12.814326
v 0.90705 -5.079064 12.824178
v 0.869072 -5.075738 12.83508
v 0.84916 -5.074543 12.838997
v 0.830508 -5.07375 12.841597
v 0.985429 -5.010098 12.499255
v 1.021774 -5.045966 12.519433
v 1.05162 -5.073383 12.561375
v 1.058119 -5.081834 12.53961
v 1.130809 -5.153569 12.579966
v 0.900492 -4.946833 12.61775
v 0.914367 -4.952104 12.607878
v 0.918799 -4.953999 12.604329
v 0.926978 -4.957802 12.597206
v 1.048972 -5.107507 12.73095
v 1.03691 -5.103707 12.743405
v 1.028519 -5.101273 12.751382
v 1.006451 -5.095576 12.770058
v 0.978405 -5.08957 12.789743
v 0.958077 -5.085941 12.801637
v -1.016161 -5.037515 12.538229
v -0.979688 -5.000113 12.517958
v -0.974683 -4.993433 12.530467
v -0.886936 -4.974466 12.678462
v -0.871593 -4.938531 12.633301
v -0.85649 -4.935394 12.639177
v -0.941918 -5.018718 12.702159
v -0.922401 -5.014205 12.71378
v -0.958077 -5.085941 12.801637
v -0.95554 -5.085527 12.802995
v -0.880828 -5.00713 12.732003
v -0.918929 -5.080405 12.819783
v -0.901991 -5.010334 12.72375
v -0.932101 -5.08207 12.814326
v -0.904563 -4.978337 12.669852
v -0.921418 -4.98285 12.659816
v -0.914367 -4.952104 12.607878
v -0.909112 -4.949995 12.611828
v -0.900919 -4.946982 12.617472
v -0.894402 -4.944805 12.62155
v -0.890725 -4.943656 12.623701
v -0.886725 -4.942469 12.625924
v -0.872897 -4.938837 12.632726
v -0.831606 -4.931776 12.645952
v -0.836824 -5.002808 12.743135
v -0.840656 -4.93288 12.643885
v -0.859056 -5.004616 12.738477
v -0.850209 -4.934305 12.641216
v -0.826667 -4.931273 12.646896
v -0.824487 -4.931071 12.647272
v -0.814284 -5.001715 12.745947
v -0.811232 -4.930132 12.649032
v -0.851837 -4.934576 12.64071
v -0.985429 -5.010098 12.499255
v -1.021774 -5.045966 12.519433
v -1.058119 -5.081834 12.53961
v -1.043344 -5.065169 12.582528
v -1.000387 -5.02138 12.574117
v -1.033355 -5.057248 12.602929
v -0.990337 -5.013805 12.590964
v -1.021718 -5.049673 12.622437
v -1.009013 -5.029301 12.556498
v -0.9738 -4.992376 12.532449
v -0.978928 -5.00663 12.606923
v -1.008508 -5.042498 12.640915
v -0.966242 -4.999903 12.621886
v -0.993818 -5.035771 12.658241
v -0.958956 -4.977938 12.559492
v -0.957308 -4.976615 12.561969
v -0.952363 -4.99367 12.635751
v -0.977749 -5.029538 12.674294
v -0.937388 -4.987972 12.648423
v -0.960409 -5.02384 12.688968
v -0.938665 -4.964035 12.585531
v -0.932579 -4.960661 12.591851
v -0.949348 -4.970763 12.57293
v -0.948694 -4.970317 12.573766
v -0.94288 -4.966556 12.580809
v -0.969719 -4.987847 12.540931
v -0.967419 -4.985512 12.545304
v -0.962502 -4.98094 12.553868
v -1.05162 -5.073383 12.561375
v -1.122538 -5.145118 12.607668
v -1.130809 -5.153569 12.579966
v -1.11793 -5.141277 12.620258
v -1.077998 -5.118493 12.694942
v -1.084481 -5.121409 12.685381
v -1.100234 -5.129519 12.658801
v -1.112004 -5.136905 12.634589
v -0.802792 -5.073141 12.843593
v -0.842193 -5.07421 12.840088
v -0.880955 -5.076627 12.832166
v -0.905167 -5.078865 12.824831
v -0.990288 -5.091963 12.7819
v -0.926817 -4.957723 12.597354
v -1.006451 -5.095576 12.770058
v -1.022379 -5.099591 12.756897
v -1.028519 -5.101273 12.751382
v -1.051929 -5.108498 12.727701
v -1.067667 -5.114234 12.7089
v 1.342581 -5.438915 11.093687
v 1.487961 -5.582387 11.1744
v -1.487961 -5.582387 11.1744
v -1.342581 -5.438915 11.093687
v 1.531828 -5.633103 10.996423
v 1.386448 -5.48811 10.92105
v 1.576128 -5.677197 10.816692
v 1.430748 -5.530881 10.746711
v 1.620798 -5.714613 10.635452
v 1.475419 -5.567174 10.570908
v 1.66578 -5.745297 10.452953
v 1.5204 -5.596938 10.393884
v 1.711011 -5.769203 10.269441
v 1.565631 -5.620127 10.215878
v 1.756429 -5.786302 10.085172
v 1.611049 -5.636713 10.037137
v 1.801972 -5.796575 9.900396
v 1.656592 -5.646677 9.857904
v 1.847577 -5.8 9.715366
v 1.702197 -5.65 9.678425
v -1.847577 -5.8 9.715366
v -1.702197 -5.65 9.678425
v -1.801972 -5.796575 9.900396
v -1.656592 -5.646677 9.857904
v -1.756429 -5.786302 10.085172
v -1.611049 -5.636713 10.037137
v -1.711011 -5.769203 10.269441
v -1.565631 -5.620127 10.215878
v -1.66578 -5.745297 10.452953
v -1.5204 -5.596938 10.393884
v -1.620798 -5.714613 10.635452
v -1.475419 -5.567174 10.570908
v -1.576128 -5.677197 10.816692
v -1.430748 -5.530881 10.746711
v -1.531828 -5.633103 10.996423
v -1.386448 -5.48811 10.92105
v 1.854989 -5.8 9.686195
v 1.709609 -5.65 9.649255
v -1.709609 -5.65 9.649255
v -1.854989 -5.8 9.686195
v 1.515769 -5.65 9.4
v 1.515769 -5.8 9.25
v 1.539877 -5.65 9.401458
v 1.557957 -5.8 9.252552
v 1.563632 -5.65 9.405811
v 1.59953 -5.8 9.260171
v 1.58669 -5.65 9.412997
v 1.639881 -5.8 9.272744
v 1.608714 -5.65 9.422909
v 1.678422 -5.8 9.29009
v 1.629382 -5.65 9.435403
v 1.714592 -5.8 9.311956
v 1.648394 -5.65 9.450298
v 1.747862 -5.8 9.338021
v 1.665471 -5.65 9.467375
v 1.777748 -5.8 9.367907
v 1.680366 -5.65 9.486387
v 1.803814 -5.8 9.401177
v 1.69286 -5.65 9.507056
v 1.825679 -5.8 9.437347
v 1.702773 -5.65 9.529079
v 1.843025 -5.8 9.475888
v 1.709958 -5.65 9.552137
v 1.855599 -5.8 9.516239
v 1.714311 -5.65 9.575893
v 1.863217 -5.8 9.557812
v 1.715769 -5.65 9.6
v 1.865769 -5.8 9.6
v -1.714145 -5.65 9.625436
v -1.862927 -5.8 9.644512
v -1.715765 -5.65 9.601243
v -1.865763 -5.8 9.602175
v -1.714446 -5.65 9.577032
v -1.863454 -5.8 9.559806
v -1.710207 -5.65 9.553159
v -1.856035 -5.8 9.518027
v -1.703109 -5.65 9.529974
v -1.843615 -5.8 9.477454
v -1.693259 -5.65 9.507818
v -1.826376 -5.8 9.438682
v -1.680799 -5.65 9.487017
v -1.804572 -5.8 9.40228
v -1.665914 -5.65 9.467877
v -1.778523 -5.8 9.368785
v -1.648823 -5.65 9.450679
v -1.748613 -5.8 9.338688
v -1.629775 -5.65 9.435675
v -1.71528 -5.8 9.312432
v -1.609052 -5.65 9.423087
v -1.679015 -5.8 9.290402
v -1.586958 -5.65 9.413099
v -1.64035 -5.8 9.272923
v -1.563818 -5.65 9.405857
v -1.599855 -5.8 9.260251
v -1.539971 -5.65 9.40147
v -1.558123 -5.8 9.252572
v -1.515769 -5.65 9.4
v -1.515769 -5.8 9.25
v -2.3 -5.75 7.55
v -2.25 -5.8 7.5
v -2.3 -5.75 8.920515
v -2.25 -5.8 8.927415
v -2.3 -5.742236 8.95
v -2.049783 -5.8 9.715366
v -2.102141 -5.742236 9.728671
v -1.683328 -5.582387 11.1744
v -1.735686 -5.527136 11.170847
v -1.728029 -5.633104 10.996423
v -1.780387 -5.577267 10.994927
v -1.773171 -5.6772 10.816692
v -1.825529 -5.620854 10.817273
v -1.818692 -5.714614 10.635452
v -1.87105 -5.657837 10.638127
v -1.864529 -5.745297 10.452953
v -1.916887 -5.688165 10.457735
v -1.91062 -5.769205 10.269441
v -1.962978 -5.711796 10.276344
v -1.956902 -5.786306 10.085172
v -2.00926 -5.728699 10.094204
v -2.003311 -5.796575 9.900396
v -2.055669 -5.73885 9.911562
v -0.762314 -4.35845 15.00154
v -0.716827 -4.421951 14.978049
v -0.680837 -4.35 15.05
v 0.7 -4.35 15.05
v 0.716827 -4.421951 14.978049
v -0.762314 -4.2 15.00154
v -0.680837 -4.2 15.05
v 0.767033 -4.364117 14.982968
v 1.735686 -5.527136 11.170847
v 1.683328 -5.582387 11.1744
v 0.7 -4.2 15.05
v 0.767033 -4.2 14.982968
v 2.049783 -5.8 9.715366
v 2.102141 -5.742236 9.728671
v 2.003311 -5.796575 9.900396
v 2.055669 -5.73885 9.911562
v 1.956902 -5.786306 10.085172
v 2.00926 -5.728699 10.094204
v 1.91062 -5.769205 10.269441
v 1.962978 -5.711796 10.276344
v 1.864529 -5.745297 10.452953
v 1.916887 -5.688165 10.457735
v 1.818692 -5.714614 10.635452
v 1.87105 -5.657837 10.638127
v 1.773171 -5.6772 10.816692
v 1.825529 -5.620854 10.817273
v 1.728029 -5.633104 10.996423
v 1.780387 -5.577267 10.994927
v 2.3 -5.742236 8.95
v 2.25 -5.8 8.927415
v 2.3 -5.75 8.920515
v 2.3 -5.75 8.032843
v 2.25 -5.8 7.982843
v -2.17 -5.8 7.42
v -1.8 -5.43 7.05
v -1.3 -5.8 7.42
v -1.3 -5.43 7.05
v -0.3 -5.43 7.05
v 0.07 -5.8 7.42
v -0.4 -5.43 7.05
v -0.4 -5.8 7.42
v 2.033898 -5.8 8.553442
v 1.856383 -5.8 8.42447
v 1.866721 -5.8 8.400423
v -1.325191 -5.8 8.37553
v -1.31942 -5.8 8.35
v -1.1 -5.8 8.35
v 1.443246 -5.8 8.538019
v 1.465743 -5.8 8.551396
v 1.397939 -5.8 8.760078
v 2.1 -5.8 8.35
v 1.866721 -5.8 8.199577
v 1.856383 -5.8 8.17553
v 2.033898 -5.8 8.046558
v -1.443246 -5.8 8.061981
v -1.465743 -5.8 8.048604
v -1.397939 -5.8 7.839922
v -0.4 -5.8 7.55
v 1.874809 -5.8 8.37553
v 1.88058 -5.8 8.35
v 2.1 -5.8 8.25
v 1.88058 -5.8 8.25
v 1.874809 -5.8 8.22447
v 1.42207 -5.8 8.522634
v 1.917157 -5.8 7.65
v 1.975119 -5.8 7.965656
v 1.797605 -5.8 8.094628
v 0.3 -5.8 7.65
v 1.706956 -5.8 7.809021
v 1.802061 -5.8 7.839922
v 1.586913 -5.8 8.015301
v 1.560849 -5.8 8.017702
v 1.493044 -5.8 7.809021
v 1.224881 -5.8 8.634344
v 1.166102 -5.8 8.553442
v 1.42207 -5.8 8.077366
v 1.402396 -5.8 8.094628
v 1.224881 -5.8 7.965656
v 1.333279 -5.8 8.400423
v 1.343617 -5.8 8.42447
v -1.493044 -5.8 7.809021
v -1.560849 -5.8 8.017702
v -1.586913 -5.8 8.015301
v -1.3 -5.8 7.55
v -1.706956 -5.8 7.809021
v -1.586913 -5.8 8.584699
v -1.560849 -5.8 8.582298
v -1.493044 -5.8 8.790979
v -1.343617 -5.8 8.42447
v -1.333279 -5.8 8.400423
v 1.77793 -5.8 8.077366
v 1.756754 -5.8 8.061981
v 1.734257 -5.8 8.048604
v 1.166102 -5.8 8.046558
v -1.802061 -5.8 7.839922
v -1.734257 -5.8 8.048604
v -1.975119 -5.8 7.965656
v -2.033898 -5.8 8.046558
v -1.856383 -5.8 8.17553
v -1.866721 -5.8 8.199577
v -1.866721 -5.8 8.400423
v -1.856383 -5.8 8.42447
v -2.033898 -5.8 8.553442
v -1.224881 -5.8 8.634344
v -1.166102 -5.8 8.553442
v 1.613087 -5.8 8.015301
v 1.397939 -5.8 7.839922
v 1.465743 -5.8 8.048604
v 1.443246 -5.8 8.061981
v -1.613087 -5.8 8.015301
v -1.639151 -5.8 8.017702
v -1.797605 -5.8 8.094628
v -1.77793 -5.8 8.077366
v -1.756754 -5.8 8.061981
v -1.706956 -5.8 8.790979
v -1.639151 -5.8 8.582298
v -1.613087 -5.8 8.584699
v 1.77793 -5.8 8.522634
v 1.797605 -5.8 8.505372
v 1.975119 -5.8 8.634344
v 1.639151 -5.8 8.017702
v -1.333279 -5.8 8.199577
v -1.343617 -5.8 8.17553
v -1.166102 -5.8 8.046558
v 1.325191 -5.8 8.37553
v -2.1 -5.8 8.25
v -1.874809 -5.8 8.22447
v -1.88058 -5.8 8.25
v -2.1 -5.8 8.35
v -1.88058 -5.8 8.35
v -1.874809 -5.8 8.37553
v -1.975119 -5.8 8.634344
v -1.734257 -5.8 8.551396
v -1.802061 -5.8 8.760078
v -1.756754 -5.8 8.538019
v -1.77793 -5.8 8.522634
v -1.797605 -5.8 8.505372
v -1.397939 -5.8 8.760078
v 1.493044 -5.8 8.790979
v 1.560849 -5.8 8.582298
v 1.802061 -5.8 8.760078
v 1.734257 -5.8 8.551396
v 1.756754 -5.8 8.538019
v 1.1 -5.8 8.35
v 1.31942 -5.8 8.35
v -1.42207 -5.8 8.077366
v -1.224881 -5.8 7.965656
v -1.402396 -5.8 8.094628
v -1.42207 -5.8 8.522634
v -1.402396 -5.8 8.505372
v -1.465743 -5.8 8.551396
v -1.443246 -5.8 8.538019
v 1.639151 -5.8 8.582298
v 1.706956 -5.8 8.790979
v 1.613087 -5.8 8.584699
v 1.586913 -5.8 8.584699
v 1.864566 -5.8 9.628997
v -1.1 -5.8 8.25
v -1.31942 -5.8 8.25
v -1.325191 -5.8 8.22447
v 1.343617 -5.8 8.17553
v 1.333279 -5.8 8.199577
v 1.325191 -5.8 8.22447
v 1.402396 -5.8 8.505372
v 1.1 -5.8 8.25
v 1.31942 -5.8 8.25
v 1.860964 -5.8 9.657795
v -2.1 -4.2 8.25
v -2.1 -4.2 8.35
v -1.88058 -4.2 8.25
v -1.88058 -4.2 8.35
v -2.033898 -4.2 8.553442
v -1.975119 -4.2 8.634344
v -1.797605 -4.2 8.505372
v -1.856383 -4.2 8.42447
v -1.802061 -4.2 8.760078
v -1.706956 -4.2 8.790979
v -1.639151 -4.2 8.582298
v -1.734257 -4.2 8.551396
v -1.493044 -4.2 8.790979
v -1.397939 -4.2 8.760078
v -1.465743 -4.2 8.551396
v -1.560849 -4.2 8.582298
v -1.224881 -4.2 8.634344
v -1.166102 -4.2 8.553442
v -1.343617 -4.2 8.42447
v -1.402396 -4.2 8.505372
v -1.1 -4.2 8.35
v -1.1 -4.2 8.25
v -1.31942 -4.2 8.25
v -1.31942 -4.2 8.35
v -1.166102 -4.2 8.046558
v -1.224881 -4.2 7.965656
v -1.402396 -4.2 8.094628
v -1.343617 -4.2 8.17553
v -1.397939 -4.2 7.839922
v -1.493044 -4.2 7.809021
v -1.560849 -4.2 8.017702
v -1.465743 -4.2 8.048604
v -1.706956 -4.2 7.809021
v -1.802061 -4.2 7.839922
v -1.734257 -4.2 8.048604
v -1.639151 -4.2 8.017702
v -1.975119 -4.2 7.965656
v -2.033898 -4.2 8.046558
v -1.856383 -4.2 8.17553
v -1.797605 -4.2 8.094628
v 1.166102 -4.2 8.553442
v 1.224881 -4.2 8.634344
v 1.343617 -4.2 8.42447
v 1.402396 -4.2 8.505372
v 1.397939 -4.2 8.760078
v 1.493044 -4.2 8.790979
v 1.560849 -4.2 8.582298
v 1.465743 -4.2 8.551396
v 1.706956 -4.2 8.790979
v 1.802061 -4.2 8.760078
v 1.734257 -4.2 8.551396
v 1.639151 -4.2 8.582298
v 1.975119 -4.2 8.634344
v 2.033898 -4.2 8.553442
v 1.856383 -4.2 8.42447
v 1.797605 -4.2 8.505372
v 2.1 -4.2 8.35
v 2.1 -4.2 8.25
v 1.88058 -4.2 8.25
v 1.88058 -4.2 8.35
v 2.033898 -4.2 8.046558
v 1.975119 -4.2 7.965656
v 1.797605 -4.2 8.094628
v 1.856383 -4.2 8.17553
v 1.802061 -4.2 7.839922
v 1.706956 -4.2 7.809021
v 1.639151 -4.2 8.017702
v 1.734257 -4.2 8.048604
v 1.493044 -4.2 7.809021
v 1.397939 -4.2 7.839922
v 1.465743 -4.2 8.048604
v 1.560849 -4.2 8.017702
v 1.224881 -4.2 7.965656
v 1.166102 -4.2 8.046558
v 1.343617 -4.2 8.17553
v 1.402396 -4.2 8.094628
v 1.1 -4.2 8.25
v 1.1 -4.2 8.35
v 1.31942 -4.2 8.25
v 1.31942 -4.2 8.35
v -1.874809 -4.2 8.22447
v -1.866721 -4.2 8.199577
v 1.333279 -4.2 8.400423
v 1.325191 -4.2 8.37553
v -1.392333 -4.5 11.71
v -2.007669 -5.137275 9.288354
v -2.068235 -4.5 9.05
v -2.068235 -4.953531 9.05
v -1.598689 -4.5 11.71
v -2.27459 -4.5 9.05
v 1.392333 -4.5 11.71
v 2.068235 -4.5 9.05
v 2.007669 -5.137275 9.288354
v 2.068235 -4.953531 9.05
v 2.27459 -4.5 9.05
v 1.598689 -4.5 11.71
v -1.3 -5 7.55
v -1.3 -5 7.05
v -1.8 -5 7.05
v -2.3 -5 7.55
v 1.917157 -4.2 7.65
v 2.3 -4.2 8.032843
v 1.515769 -5.107895 9.4
v 1.536911 -5.1076 9.401121
v 1.539878 -5.107511 9.401459
v 1.560198 -5.10658 9.404997
v 1.563635 -5.106365 9.405812
v 1.582796 -5.104851 9.411566
v 1.586695 -5.104474 9.412998
v 1.60438 -5.102447 9.420702
v 1.60872 -5.101865 9.422912
v 1.624705 -5.099402 9.432271
v 1.629389 -5.098577 9.435408
v 1.643527 -5.095757 9.446124
v 1.648401 -5.094657 9.450304
v 1.660621 -5.091554 9.462094
v 1.665478 -5.090162 9.467383
v 1.675734 -5.086855 9.479954
v 1.680371 -5.085159 9.486395
v 1.688669 -5.081718 9.499473
v 1.692864 -5.07972 9.507063
v 1.699237 -5.076216 9.52038
v 1.702775 -5.073925 9.529086
v 1.707286 -5.070429 9.542371
v 1.709959 -5.067857 9.552142
v 1.712703 -5.064444 9.565113
v 1.714311 -5.061607 9.575895
v 1.715424 -5.058353 9.58826
v 1.715769 -5.055263 9.6
v 0.985429 -4.292302 12.499255
v 0.979041 -4.286914 12.519725
v 0.973793 -4.28356 12.532473
v 0.968918 -4.280924 12.54249
v 0.962488 -4.277923 12.553892
v 0.956182 -4.275364 12.563618
v 0.948676 -4.272687 12.573788
v 0.941183 -4.27033 12.582747
v 0.93256 -4.267929 12.591869
v 0.924251 -4.265876 12.599669
v 0.914376 -4.263718 12.607871
v 0.905941 -4.262083 12.614084
v 0.894391 -4.260117 12.621557
v 0.886145 -4.258885 12.626236
v 0.872896 -4.257177 12.632727
v 0.865375 -4.256344 12.635892
v 0.850209 -4.254943 12.641216
v 0.843923 -4.254465 12.643031
v 0.826662 -4.253447 12.646901
v 0.822064 -4.253246 12.647665
v 0.802601 -4.252711 12.649696
v 0.800051 -4.252679 12.649821
v 0.791589 -4.252632 12.65
v -0.826663 -4.253447 12.6469
v -0.812652 -4.252924 12.648888
v -0.791589 -4.252632 12.65
v -0.83576 -4.253931 12.645061
v -0.85021 -4.254943 12.641216
v -0.85819 -4.255635 12.638585
v -0.872896 -4.257177 12.632727
v -0.879633 -4.258006 12.629578
v -0.894389 -4.260116 12.621558
v -0.899847 -4.261008 12.618167
v -0.914373 -4.263718 12.607874
v -0.918597 -4.264606 12.604496
v -0.932557 -4.267928 12.591873
v -0.935638 -4.268752 12.588744
v -0.948672 -4.272686 12.573794
v -0.950752 -4.273393 12.571108
v -0.962484 -4.277922 12.553898
v -0.963729 -4.278468 12.551822
v -0.97379 -4.283558 12.532479
v -0.974385 -4.283908 12.531151
v -0.982567 -4.289634 12.509393
v -0.985429 -4.292302 12.499255
v -1.67992 -5.085331 9.485744
v -1.680801 -5.084995 9.487019
v -1.709609 -5.042302 9.649255
v -1.713792 -5.047882 9.62805
v -1.714145 -5.04857 9.625435
v -1.715751 -5.054552 9.602704
v -1.715765 -5.054936 9.601243
v -1.714485 -5.061219 9.577367
v -1.710207 -5.06759 9.553159
v -1.70311 -5.073691 9.529975
v -1.710074 -5.067733 9.552613
v -1.692546 -5.079879 9.50646
v -1.69326 -5.079521 9.50782
v -1.702687 -5.073986 9.528854
v -1.648825 -5.094558 9.450681
v -1.650462 -5.09417 9.452155
v -1.665916 -5.090032 9.467879
v -1.666932 -5.089725 9.469043
v -1.609057 -5.101818 9.42309
v -1.61301 -5.101255 9.425231
v -1.629779 -5.098506 9.435678
v -1.632378 -5.098023 9.437512
v -1.563822 -5.106353 9.405859
v -1.571599 -5.105803 9.407951
v -1.586963 -5.104447 9.4131
v -1.592656 -5.10385 9.415369
v -1.515769 -5.107895 9.4
v -1.528428 -5.107789 9.400401
v -1.539974 -5.107508 9.40147
v -1.550107 -5.107113 9.402969
v 1.709609 -5.042302 9.649255
v 2.3 -4.2 8.95
v 2.27459 -4.2 9.05
v 1.309016 -4.2 12.85
v -2.27459 -4.2 9.05
v -2.3 -4.2 8.95
v -1.309016 -4.2 12.85
v 1.866721 -4.2 8.400423
v 1.77793 -4.2 8.077366
v -1.874809 -4.2 8.37553
v 1.874809 -4.2 8.22447
v 1.42207 -4.2 8.522634
v 1.613087 -4.2 8.015301
v 1.443246 -4.2 8.538019
v -1.866721 -4.2 8.400423
v 1.756754 -4.2 8.061981
v 1.874809 -4.2 8.37553
v 1.613087 -4.2 8.584699
v 1.443246 -4.2 8.061981
v -1.586913 -4.2 8.015301
v 1.866721 -4.2 8.199577
v -1.613087 -4.2 8.015301
v -1.42207 -4.2 8.077366
v 1.756754 -4.2 8.538019
v 1.77793 -4.2 8.522634
v 1.586913 -4.2 8.584699
v -1.443246 -4.2 8.061981
v -1.325191 -4.2 8.22447
v -1.613087 -4.2 8.584699
v -1.42207 -4.2 8.522634
v 1.42207 -4.2 8.077366
v 1.586913 -4.2 8.015301
v -1.586913 -4.2 8.584699
v -1.333279 -4.2 8.199577
v -1.443246 -4.2 8.538019
v -1.333279 -4.2 8.400423
v -1.325191 -4.2 8.37553
v -1.77793 -4.2 8.522634
v -1.756754 -4.2 8.538019
v 1.333279 -4.2 8.199577
v 1.325191 -4.2 8.22447
v -1.77793 -4.2 8.077366
v -1.756754 -4.2 8.061981
v 1.714651 -5.049706 9.621119
v 1.713024 -5.046573 9.633022
v 1.710917 -5.04374 9.643788
v 1.715082 -5.65 9.61657
v 1.713024 -5.65 9.633025
f 1 2 3
f 3 2 4
f 3 4 5
f 5 4 6
f 7 8 4
f 4 8 9
f 4 9 6
f 10 11 4
f 4 11 12
f 4 12 7
f 13 14 15
f 15 14 16
f 17 18 19
f 19 18 16
f 19 16 14
f 18 20 16
f 16 20 21
f 16 21 15
f 15 21 22
f 23 24 25
f 25 24 26
f 27 28 29
f 29 28 30
f 31 32 33
f 33 32 34
f 35 36 37
f 37 36 38
f 39 40 41
f 41 40 42
f 36 27 38
f 38 27 29
f 34 28 27
f 35 41 36
f 36 41 42
f 36 42 27
f 27 42 33
f 27 33 34
f 40 31 42
f 42 31 33
f 39 37 40
f 40 37 38
f 40 38 31
f 31 38 29
f 31 29 32
f 32 29 30
f 26 43 25
f 25 43 44
f 25 44 45
f 11 46 47
f 11 47 12
f 12 47 48
f 12 48 7
f 7 48 49
f 7 49 8
f 8 49 50
f 8 50 9
f 9 50 6
f 6 50 51
f 6 51 5
f 5 51 3
f 3 51 52
f 3 52 53
f 53 52 54
f 53 54 55
f 55 54 56
f 55 56 57
f 57 56 58
f 57 58 59
f 60 61 62
f 60 62 63
f 63 62 64
f 63 64 65
f 65 64 66
f 65 66 67
f 67 66 68
f 67 68 69
f 69 68 70
f 69 70 71
f 71 70 72
f 71 72 73
f 73 72 74
f 73 74 75
f 75 74 76
f 75 76 77
f 77 76 78
f 77 78 79
f 80 22 81
f 81 22 21
f 81 21 82
f 46 60 47
f 47 60 48
f 80 81 79
f 79 81 58
f 79 58 77
f 77 58 56
f 77 56 75
f 75 56 73
f 73 56 54
f 73 54 71
f 71 54 69
f 69 54 52
f 69 52 67
f 67 52 65
f 65 52 51
f 65 51 63
f 63 51 50
f 63 50 60
f 60 50 49
f 60 49 48
f 58 81 59
f 59 81 82
f 83 84 85
f 85 84 86
f 87 88 89
f 89 88 90
f 91 92 93
f 93 92 94
f 95 96 97
f 97 96 98
f 99 100 101
f 101 100 102
f 103 104 105
f 105 104 106
f 107 108 109
f 109 108 110
f 111 112 113
f 113 112 114
f 115 116 117
f 117 116 118
f 119 120 121
f 121 120 122
f 123 124 125
f 125 124 126
f 127 128 129
f 129 128 130
f 131 132 133
f 133 132 134
f 135 136 137
f 137 136 138
f 139 140 141
f 141 140 142
f 143 144 145
f 145 144 146
f 147 148 149
f 149 148 150
f 151 152 153
f 153 152 154
f 155 156 157
f 157 156 158
f 159 2 160
f 160 2 1
f 160 1 161
f 162 163 19
f 19 163 17
f 24 163 26
f 26 163 162
f 26 162 43
f 4 164 10
f 10 164 165
f 2 159 4
f 4 159 164
f 160 161 166
f 166 161 167
f 166 167 168
f 168 167 169
f 168 169 157
f 157 169 155
f 158 156 170
f 170 156 171
f 170 171 172
f 172 171 173
f 172 173 153
f 153 173 151
f 154 152 174
f 174 152 175
f 174 175 176
f 176 175 177
f 176 177 149
f 149 177 147
f 150 148 178
f 178 148 179
f 178 179 180
f 180 179 181
f 180 181 145
f 145 181 143
f 146 144 182
f 182 144 183
f 182 183 184
f 184 183 185
f 184 185 141
f 141 185 139
f 142 140 186
f 186 140 187
f 186 187 188
f 188 187 189
f 188 189 137
f 137 189 135
f 138 136 190
f 190 136 191
f 190 191 192
f 192 191 193
f 192 193 133
f 133 193 131
f 134 132 194
f 194 132 195
f 194 195 196
f 196 195 197
f 196 197 129
f 129 197 127
f 130 128 198
f 198 128 199
f 198 199 200
f 200 199 201
f 200 201 125
f 125 201 123
f 126 124 202
f 202 124 203
f 202 203 204
f 204 203 205
f 204 205 121
f 121 205 119
f 122 120 206
f 206 120 207
f 206 207 208
f 208 207 209
f 208 209 117
f 117 209 115
f 118 116 210
f 210 116 211
f 210 211 212
f 212 211 213
f 212 213 113
f 113 213 111
f 114 112 214
f 214 112 215
f 214 215 216
f 216 215 217
f 216 217 109
f 109 217 107
f 110 108 218
f 218 108 219
f 218 219 220
f 220 219 221
f 220 221 105
f 105 221 103
f 106 104 222
f 222 104 223
f 222 223 224
f 224 223 225
f 224 225 101
f 101 225 99
f 95 97 226
f 226 97 227
f 226 227 228
f 228 227 229
f 228 229 100
f 100 229 102
f 91 93 230
f 230 93 231
f 230 231 232
f 232 231 233
f 232 233 96
f 96 233 98
f 87 89 234
f 234 89 235
f 234 235 236
f 236 235 237
f 236 237 92
f 92 237 94
f 86 84 238
f 238 84 239
f 238 239 240
f 240 239 241
f 240 241 88
f 88 241 90
f 45 44 242
f 242 44 243
f 242 243 244
f 244 243 245
f 244 245 85
f 85 245 83
f 20 18 17
f 23 20 24
f 24 20 17
f 24 17 163
f 11 10 46
f 46 10 165
f 46 165 60
f 60 165 61
f 242 37 45
f 45 37 39
f 45 39 25
f 25 39 41
f 25 41 23
f 92 91 236
f 236 91 230
f 221 219 59
f 23 41 20
f 20 41 35
f 20 35 21
f 21 35 37
f 21 37 82
f 82 37 242
f 82 242 244
f 85 86 238
f 223 104 103
f 240 82 238
f 238 82 244
f 238 244 85
f 228 59 226
f 226 59 232
f 226 232 95
f 95 232 96
f 103 221 223
f 223 221 59
f 223 59 225
f 225 59 228
f 225 228 99
f 99 228 100
f 213 211 59
f 88 87 240
f 240 87 234
f 240 234 82
f 82 234 236
f 82 236 59
f 59 236 230
f 59 230 232
f 215 112 111
f 111 213 215
f 215 213 59
f 215 59 217
f 217 59 219
f 217 219 107
f 107 219 108
f 205 203 59
f 207 120 119
f 119 205 207
f 207 205 59
f 207 59 209
f 209 59 211
f 209 211 115
f 115 211 116
f 197 195 59
f 199 128 127
f 127 197 199
f 199 197 59
f 199 59 201
f 201 59 203
f 201 203 123
f 123 203 124
f 191 136 135
f 189 187 59
f 135 189 191
f 191 189 59
f 191 59 193
f 193 59 195
f 193 195 131
f 131 195 132
f 183 144 143
f 181 179 59
f 143 181 183
f 183 181 59
f 183 59 185
f 185 59 187
f 185 187 139
f 139 187 140
f 175 152 151
f 151 173 175
f 175 173 59
f 175 59 177
f 177 59 179
f 177 179 147
f 147 179 148
f 155 169 156
f 156 169 171
f 161 1 167
f 167 1 3
f 167 3 169
f 169 3 53
f 169 53 55
f 173 171 59
f 59 171 169
f 59 169 57
f 57 169 55
f 15 22 80
f 79 78 80
f 80 78 13
f 80 13 15
f 243 44 32
f 32 44 43
f 32 43 34
f 34 43 162
f 34 162 28
f 28 162 19
f 28 19 30
f 30 19 14
f 30 14 13
f 159 160 166
f 78 166 168
f 78 190 192
f 159 166 164
f 164 166 78
f 164 78 76
f 61 165 62
f 62 165 164
f 62 164 64
f 133 134 192
f 192 134 194
f 192 194 78
f 78 194 196
f 76 74 164
f 164 74 72
f 164 72 70
f 70 68 164
f 164 68 66
f 164 66 64
f 129 130 196
f 196 130 198
f 196 198 78
f 78 198 200
f 125 126 200
f 200 126 202
f 200 202 78
f 78 202 204
f 121 122 204
f 204 122 206
f 204 206 78
f 78 206 208
f 188 137 138
f 117 118 208
f 208 118 210
f 208 210 78
f 78 210 212
f 113 114 212
f 212 114 214
f 212 214 78
f 78 214 216
f 157 158 168
f 168 158 170
f 168 170 78
f 78 170 172
f 109 110 216
f 216 110 218
f 216 218 78
f 78 218 220
f 227 97 98
f 105 106 220
f 220 106 222
f 220 222 78
f 78 222 224
f 153 154 172
f 172 154 174
f 172 174 78
f 78 174 176
f 101 102 224
f 224 102 229
f 224 229 78
f 78 229 227
f 78 227 233
f 233 227 98
f 93 94 231
f 231 94 237
f 235 89 90
f 149 150 176
f 176 150 178
f 176 178 78
f 78 178 180
f 241 239 13
f 90 241 235
f 235 241 13
f 235 13 237
f 237 13 78
f 237 78 231
f 231 78 233
f 145 146 180
f 180 146 182
f 180 182 78
f 78 182 184
f 84 83 245
f 32 30 243
f 243 30 13
f 243 13 245
f 245 13 239
f 245 239 84
f 141 142 184
f 184 142 186
f 184 186 78
f 78 186 188
f 78 188 190
f 190 188 138
f 246 247 248
f 248 247 249
f 250 251 252
f 252 251 249
f 252 249 247
f 253 254 255
f 255 254 256
f 257 258 259
f 259 258 260
f 261 262 263
f 263 262 264
f 265 266 267
f 267 266 268
f 269 270 271
f 271 270 272
f 273 274 275
f 275 274 276
f 275 276 277
f 277 276 278
f 279 280 281
f 281 280 282
f 281 282 283
f 283 282 284
f 285 286 287
f 287 286 288
f 289 290 291
f 291 290 292
f 284 293 283
f 283 293 294
f 273 295 274
f 274 295 296
f 282 280 284
f 284 280 285
f 284 285 293
f 293 285 287
f 280 279 285
f 285 279 286
f 297 298 299
f 299 298 300
f 301 302 303
f 304 305 306
f 306 305 307
f 306 307 308
f 307 309 308
f 308 309 310
f 308 310 311
f 311 310 312
f 311 312 313
f 313 312 314
f 313 314 315
f 316 317 318
f 319 320 321
f 321 320 316
f 321 316 322
f 322 316 318
f 323 324 325
f 325 324 326
f 325 326 327
f 327 326 328
f 327 328 329
f 319 330 320
f 320 330 331
f 320 331 323
f 323 331 332
f 323 332 324
f 298 297 333
f 334 335 336
f 334 336 337
f 298 333 338
f 338 333 339
f 338 339 334
f 334 339 340
f 334 340 335
f 341 342 343
f 343 342 344
f 343 344 345
f 345 344 346
f 347 348 349
f 349 348 350
f 349 350 351
f 351 350 317
f 351 317 352
f 352 317 316
f 352 316 315
f 315 316 320
f 315 320 313
f 313 320 323
f 313 323 311
f 311 323 325
f 311 325 308
f 308 325 327
f 308 327 306
f 353 348 346
f 346 348 347
f 346 347 345
f 342 354 344
f 344 354 355
f 344 355 346
f 346 355 356
f 346 356 353
f 336 357 337
f 337 357 358
f 337 358 343
f 343 358 359
f 343 359 341
f 347 360 345
f 345 360 361
f 345 361 343
f 343 361 362
f 343 362 337
f 337 362 363
f 337 363 334
f 334 363 364
f 334 364 338
f 338 364 365
f 338 365 298
f 302 366 303
f 303 366 367
f 303 367 368
f 368 367 369
f 368 369 370
f 329 301 327
f 327 301 303
f 327 303 306
f 306 303 368
f 306 368 304
f 304 368 370
f 353 371 348
f 348 371 372
f 348 372 350
f 350 372 373
f 350 373 317
f 317 373 374
f 317 374 318
f 314 375 315
f 315 375 376
f 315 376 352
f 352 376 377
f 352 377 351
f 351 377 378
f 351 378 349
f 349 378 379
f 349 379 347
f 347 379 380
f 347 380 360
f 381 382 383
f 384 385 386
f 387 388 389
f 389 388 390
f 391 392 393
f 393 392 394
f 393 394 390
f 384 388 395
f 395 388 387
f 395 387 396
f 397 398 396
f 396 398 399
f 396 399 395
f 395 399 400
f 400 401 395
f 395 401 402
f 395 402 384
f 384 402 403
f 384 403 385
f 404 405 406
f 406 405 407
f 406 407 408
f 404 409 405
f 405 409 410
f 405 410 411
f 411 410 412
f 411 412 299
f 390 388 393
f 393 388 384
f 393 384 391
f 391 384 386
f 391 386 407
f 407 386 413
f 407 413 408
f 414 382 415
f 415 382 381
f 415 381 416
f 417 418 419
f 419 418 420
f 419 420 421
f 422 383 423
f 421 424 425
f 425 424 426
f 425 426 427
f 421 420 424
f 424 420 428
f 424 428 429
f 427 430 431
f 431 430 432
f 431 432 433
f 427 426 430
f 430 426 434
f 430 434 435
f 429 436 424
f 424 436 437
f 424 437 426
f 426 437 438
f 426 438 434
f 423 439 418
f 418 439 440
f 418 440 420
f 420 440 441
f 420 441 428
f 383 422 381
f 381 422 442
f 381 442 416
f 416 442 443
f 416 443 444
f 423 418 422
f 422 418 417
f 422 417 442
f 442 417 445
f 442 445 443
f 425 446 421
f 421 446 447
f 421 447 419
f 419 447 448
f 419 448 417
f 417 448 449
f 417 449 445
f 299 300 411
f 411 300 450
f 411 450 405
f 405 450 451
f 405 451 407
f 407 451 452
f 407 452 391
f 391 452 453
f 391 453 392
f 389 454 387
f 387 454 433
f 387 433 396
f 396 433 432
f 396 432 397
f 397 432 430
f 397 430 455
f 455 430 435
f 454 456 433
f 433 456 457
f 433 457 431
f 431 457 458
f 431 458 427
f 427 458 459
f 427 459 425
f 425 459 460
f 425 460 446
f 367 366 461
f 367 461 369
f 369 461 462
f 369 462 370
f 444 463 416
f 416 463 464
f 416 464 415
f 415 464 414
f 462 461 465
f 465 461 466
f 465 466 467
f 467 466 468
f 467 468 469
f 469 468 470
f 469 470 471
f 471 470 472
f 471 472 473
f 473 472 474
f 473 474 475
f 475 474 476
f 475 476 477
f 477 476 478
f 477 478 479
f 479 478 480
f 481 482 483
f 483 482 484
f 483 484 485
f 485 484 486
f 485 486 487
f 487 486 488
f 487 488 489
f 489 488 490
f 489 490 491
f 491 490 492
f 491 492 493
f 493 492 494
f 493 494 495
f 495 494 496
f 495 496 463
f 463 496 464
f 479 480 497
f 497 480 498
f 482 481 499
f 499 481 500
f 501 502 503
f 503 502 504
f 503 504 505
f 505 504 506
f 505 506 507
f 507 506 508
f 507 508 509
f 509 508 510
f 509 510 511
f 511 510 512
f 511 512 513
f 513 512 514
f 513 514 515
f 515 514 516
f 515 516 517
f 517 516 518
f 517 518 519
f 519 518 520
f 519 520 521
f 521 520 522
f 521 522 523
f 523 522 524
f 523 524 525
f 525 524 526
f 525 526 527
f 527 526 528
f 499 500 529
f 529 500 530
f 529 530 531
f 531 530 532
f 531 532 533
f 533 532 534
f 533 534 535
f 535 534 536
f 535 536 537
f 537 536 538
f 537 538 539
f 539 538 540
f 539 540 541
f 541 540 542
f 541 542 543
f 543 542 544
f 543 544 545
f 545 544 546
f 545 546 547
f 547 546 548
f 547 548 549
f 549 548 550
f 549 550 551
f 551 550 552
f 551 552 553
f 553 552 554
f 553 554 555
f 555 554 556
f 555 556 557
f 557 556 558
f 557 558 501
f 501 558 502
f 559 560 561
f 561 560 562
f 561 562 563
f 563 562 564
f 563 564 565
f 566 567 568
f 568 567 569
f 568 569 570
f 570 569 571
f 570 571 572
f 572 571 573
f 572 573 574
f 574 573 575
f 574 575 576
f 576 575 577
f 576 577 578
f 578 577 579
f 578 579 580
f 580 579 581
f 580 581 564
f 564 581 565
f 567 566 582
f 582 566 583
f 584 582 583
f 584 583 585
f 585 583 586
f 582 584 587
f 587 584 588
f 589 585 586
f 589 586 590
f 590 586 591
f 585 589 592
f 592 589 593
f 594 595 596
f 596 595 597
f 596 597 598
f 598 597 599
f 598 599 600
f 600 599 601
f 600 601 602
f 602 601 603
f 602 603 604
f 604 603 605
f 604 605 606
f 606 605 607
f 606 607 608
f 608 607 609
f 608 609 591
f 591 609 590
f 595 594 610
f 610 594 611
f 610 611 612
f 612 611 613
f 613 611 614
f 591 462 608
f 608 462 465
f 608 465 606
f 606 465 467
f 606 467 604
f 604 467 469
f 604 469 602
f 602 469 471
f 602 471 600
f 600 471 473
f 600 473 598
f 598 473 475
f 598 475 596
f 596 475 477
f 596 477 594
f 594 477 479
f 564 481 580
f 580 481 483
f 580 483 578
f 578 483 485
f 578 485 576
f 576 485 487
f 576 487 574
f 574 487 489
f 574 489 572
f 572 489 491
f 572 491 570
f 570 491 493
f 570 493 568
f 568 493 495
f 568 495 566
f 566 495 463
f 615 616 617
f 617 616 618
f 619 620 621
f 621 620 622
f 623 624 625
f 626 627 628
f 629 630 631
f 614 611 632
f 633 634 635
f 636 637 638
f 639 622 620
f 640 641 632
f 632 642 614
f 614 642 643
f 614 643 644
f 629 631 645
f 644 633 614
f 614 633 635
f 614 635 646
f 646 635 647
f 646 647 648
f 649 646 650
f 650 646 651
f 652 653 654
f 655 265 656
f 656 265 270
f 657 658 659
f 660 661 656
f 662 663 664
f 638 662 665
f 665 662 666
f 665 666 617
f 667 668 669
f 670 671 258
f 648 672 646
f 646 672 673
f 646 673 651
f 651 673 674
f 270 269 675
f 617 666 615
f 615 666 676
f 615 676 677
f 560 615 678
f 679 680 681
f 682 683 684
f 257 685 258
f 258 685 686
f 258 686 670
f 652 654 687
f 688 689 690
f 671 626 258
f 258 626 628
f 258 628 261
f 662 664 666
f 666 664 691
f 666 691 692
f 693 678 694
f 694 678 615
f 694 615 695
f 695 615 677
f 534 532 564
f 696 697 558
f 558 697 698
f 699 700 701
f 702 687 650
f 650 687 654
f 650 654 649
f 649 654 688
f 649 688 659
f 659 688 690
f 659 690 657
f 703 704 705
f 660 656 706
f 679 681 707
f 707 681 708
f 707 708 709
f 710 711 712
f 713 564 684
f 684 564 562
f 714 715 716
f 716 715 564
f 716 564 717
f 717 564 713
f 717 713 718
f 698 667 558
f 558 667 669
f 558 669 502
f 502 669 719
f 502 719 504
f 504 720 721
f 722 723 611
f 611 723 724
f 611 724 699
f 725 726 706
f 636 638 727
f 727 638 728
f 727 728 729
f 678 679 560
f 560 679 707
f 560 707 562
f 562 707 710
f 562 710 684
f 684 710 712
f 684 712 682
f 550 548 715
f 532 530 564
f 564 530 500
f 564 500 481
f 730 731 685
f 699 701 611
f 611 701 623
f 611 623 632
f 632 623 625
f 632 625 640
f 548 546 715
f 715 546 544
f 715 544 542
f 542 540 715
f 715 540 538
f 715 538 564
f 564 538 536
f 564 536 534
f 719 732 733
f 734 735 736
f 736 735 504
f 736 504 737
f 737 504 721
f 738 528 594
f 594 528 526
f 594 526 611
f 611 526 524
f 611 524 522
f 516 514 611
f 611 514 512
f 611 512 722
f 628 739 261
f 261 739 740
f 261 740 741
f 675 269 659
f 522 520 611
f 611 520 518
f 611 518 516
f 512 510 722
f 722 510 508
f 722 508 735
f 735 508 506
f 735 506 504
f 659 269 649
f 649 269 262
f 649 262 620
f 665 639 638
f 638 639 620
f 638 620 728
f 728 620 262
f 728 262 705
f 705 262 261
f 705 261 703
f 703 261 741
f 675 742 270
f 270 742 743
f 270 743 744
f 558 556 696
f 696 556 554
f 696 554 715
f 715 554 552
f 715 552 550
f 745 645 655
f 655 645 631
f 655 631 265
f 265 631 720
f 265 720 266
f 266 720 504
f 266 504 257
f 257 504 719
f 257 719 685
f 685 719 733
f 685 733 730
f 706 656 725
f 725 656 270
f 725 270 746
f 746 270 744
f 746 744 747
f 479 497 594
f 594 497 748
f 594 748 738
f 707 749 710
f 710 749 750
f 709 751 707
f 707 751 749
f 710 750 711
f 711 750 752
f 684 753 713
f 713 753 754
f 713 754 718
f 718 754 755
f 683 756 684
f 684 756 753
f 715 757 696
f 696 757 758
f 696 758 697
f 697 758 759
f 714 760 715
f 715 760 757
f 669 761 719
f 719 761 762
f 719 762 732
f 732 762 763
f 668 764 669
f 669 764 761
f 685 765 686
f 686 765 766
f 686 766 670
f 670 766 767
f 731 768 685
f 685 768 765
f 628 769 739
f 739 769 770
f 739 770 740
f 740 770 771
f 627 772 628
f 628 772 769
f 705 773 728
f 728 773 774
f 728 774 729
f 729 774 775
f 704 776 705
f 705 776 773
f 638 777 662
f 662 777 778
f 662 778 663
f 663 778 779
f 637 780 638
f 638 780 777
f 666 781 676
f 676 781 782
f 676 782 677
f 677 782 783
f 692 784 666
f 666 784 781
f 678 785 679
f 679 785 786
f 679 786 680
f 680 786 787
f 693 788 678
f 678 788 785
f 656 789 655
f 655 789 790
f 661 791 656
f 656 791 789
f 655 790 745
f 745 790 792
f 631 793 720
f 720 793 794
f 720 794 721
f 721 794 795
f 630 796 631
f 631 796 793
f 735 797 722
f 722 797 798
f 722 798 723
f 723 798 799
f 734 800 735
f 735 800 797
f 701 801 623
f 623 801 802
f 623 802 624
f 624 802 803
f 700 804 701
f 701 804 801
f 632 805 642
f 642 805 806
f 642 806 643
f 643 806 807
f 641 808 632
f 632 808 805
f 635 809 647
f 647 809 810
f 647 810 648
f 648 810 811
f 634 812 635
f 635 812 809
f 651 813 650
f 650 813 814
f 650 814 702
f 702 814 815
f 674 816 651
f 651 816 813
f 654 817 688
f 688 817 818
f 688 818 689
f 689 818 819
f 653 820 654
f 654 820 817
f 659 821 675
f 675 821 822
f 675 822 742
f 742 822 823
f 658 824 659
f 659 824 821
f 746 825 725
f 725 825 826
f 747 827 746
f 746 827 825
f 725 826 726
f 726 826 828
f 751 709 829
f 829 709 708
f 829 708 830
f 830 708 681
f 830 681 787
f 787 681 680
f 791 661 831
f 831 661 660
f 831 660 832
f 832 660 706
f 832 706 828
f 828 706 726
f 271 264 269
f 269 264 262
f 270 265 272
f 272 265 267
f 266 257 268
f 268 257 259
f 263 260 261
f 261 260 258
f 833 834 835
f 835 834 836
f 837 833 838
f 838 833 835
f 839 840 841
f 841 840 842
f 843 840 844
f 844 840 839
f 296 295 248
f 845 294 665
f 665 294 293
f 665 293 639
f 639 293 287
f 288 289 287
f 287 289 291
f 287 291 639
f 639 291 296
f 639 296 249
f 249 296 248
f 256 246 295
f 295 246 248
f 294 845 256
f 279 281 286
f 286 281 283
f 286 283 288
f 283 294 288
f 288 294 256
f 288 256 289
f 289 256 295
f 289 295 290
f 290 295 273
f 290 273 277
f 277 273 275
f 845 846 256
f 256 846 847
f 256 847 255
f 255 847 848
f 646 649 849
f 849 649 252
f 256 254 246
f 246 254 849
f 246 849 247
f 247 849 252
f 850 613 849
f 849 613 614
f 849 614 646
f 559 848 560
f 560 848 847
f 560 847 615
f 615 847 616
f 847 846 616
f 616 846 618
f 665 617 845
f 845 617 618
f 845 618 846
f 851 501 852
f 852 501 503
f 852 503 853
f 853 503 854
f 854 503 505
f 854 505 855
f 855 505 856
f 856 505 507
f 856 507 857
f 857 507 858
f 858 507 509
f 858 509 859
f 859 509 860
f 860 509 511
f 860 511 861
f 861 511 862
f 862 511 513
f 862 513 863
f 863 513 864
f 864 513 515
f 864 515 865
f 865 515 866
f 866 515 517
f 866 517 867
f 867 517 868
f 868 517 519
f 868 519 869
f 869 519 870
f 870 519 521
f 870 521 871
f 871 521 872
f 872 521 523
f 872 523 873
f 873 523 874
f 874 523 525
f 874 525 875
f 875 525 876
f 876 525 527
f 876 527 877
f 366 302 878
f 878 302 879
f 302 301 879
f 879 301 329
f 879 329 880
f 329 328 880
f 880 328 326
f 880 326 881
f 881 326 324
f 881 324 882
f 882 324 332
f 332 331 882
f 882 331 330
f 882 330 883
f 883 330 319
f 883 319 884
f 884 319 321
f 884 321 885
f 885 321 322
f 885 322 886
f 886 322 318
f 318 374 886
f 886 374 373
f 886 373 887
f 887 373 372
f 887 372 888
f 888 372 371
f 888 371 889
f 889 371 353
f 889 353 890
f 353 356 890
f 890 356 355
f 890 355 891
f 891 355 354
f 891 354 892
f 892 354 342
f 342 341 892
f 892 341 359
f 892 359 893
f 893 359 358
f 893 358 894
f 894 358 357
f 894 357 895
f 895 357 336
f 895 336 896
f 336 335 896
f 896 335 340
f 896 340 897
f 897 340 339
f 897 339 898
f 898 339 333
f 898 333 899
f 899 333 297
f 899 297 900
f 901 902 412
f 412 902 903
f 412 903 299
f 412 410 901
f 901 410 409
f 901 409 904
f 904 409 404
f 904 404 905
f 404 406 905
f 905 406 408
f 905 408 906
f 906 408 413
f 906 413 907
f 907 413 386
f 386 385 907
f 907 385 403
f 907 403 908
f 908 403 402
f 908 402 909
f 402 401 909
f 909 401 400
f 909 400 910
f 910 400 399
f 910 399 911
f 399 398 911
f 911 398 397
f 911 397 912
f 912 397 455
f 912 455 913
f 913 455 435
f 913 435 914
f 914 435 434
f 914 434 915
f 434 438 915
f 915 438 437
f 915 437 916
f 916 437 436
f 916 436 917
f 917 436 429
f 429 428 917
f 917 428 441
f 917 441 918
f 918 441 440
f 918 440 919
f 440 439 919
f 919 439 423
f 919 423 920
f 920 423 383
f 920 383 921
f 383 382 921
f 921 382 414
f 921 414 922
f 923 924 541
f 925 499 926
f 926 499 529
f 926 529 927
f 927 529 928
f 928 529 531
f 928 531 929
f 929 531 533
f 929 533 930
f 930 533 535
f 930 535 931
f 537 932 535
f 535 932 933
f 535 933 931
f 541 924 539
f 924 934 539
f 539 934 935
f 539 935 537
f 537 935 936
f 537 936 932
f 543 545 937
f 937 938 543
f 543 938 939
f 543 939 541
f 541 939 940
f 541 940 923
f 547 549 941
f 941 942 547
f 547 942 943
f 547 943 545
f 545 943 944
f 545 944 937
f 551 553 945
f 945 946 551
f 551 946 947
f 551 947 549
f 549 947 948
f 549 948 941
f 555 557 949
f 949 950 555
f 555 950 951
f 555 951 553
f 553 951 952
f 553 952 945
f 922 414 925
f 925 414 464
f 486 484 925
f 925 484 482
f 925 482 499
f 492 490 925
f 925 490 488
f 925 488 486
f 464 496 925
f 925 496 494
f 925 494 492
f 299 903 297
f 297 903 900
f 953 498 480
f 480 478 953
f 953 478 476
f 953 476 474
f 474 472 953
f 953 472 470
f 953 470 468
f 366 878 461
f 461 878 953
f 461 953 466
f 466 953 468
f 501 851 557
f 557 851 949
f 452 451 583
f 586 365 364
f 364 363 586
f 586 363 362
f 586 362 361
f 462 591 370
f 370 591 586
f 446 583 447
f 447 583 448
f 446 460 583
f 583 460 459
f 583 459 458
f 458 457 583
f 583 457 456
f 583 456 454
f 454 389 583
f 583 389 390
f 583 390 394
f 394 392 583
f 583 392 453
f 583 453 452
f 361 360 586
f 586 360 380
f 586 380 379
f 379 378 586
f 586 378 377
f 586 377 376
f 376 375 586
f 586 375 314
f 586 314 312
f 443 445 583
f 583 445 449
f 583 449 448
f 451 450 583
f 583 450 300
f 583 300 586
f 586 300 298
f 586 298 365
f 307 305 586
f 586 305 304
f 586 304 370
f 443 583 444
f 444 583 566
f 444 566 463
f 312 310 586
f 586 310 309
f 586 309 307
f 595 610 843
f 843 610 954
f 843 954 955
f 593 589 956
f 956 589 590
f 956 590 844
f 601 599 843
f 843 599 597
f 843 597 595
f 607 605 843
f 843 605 603
f 843 603 601
f 844 590 843
f 843 590 609
f 843 609 607
f 957 958 838
f 838 958 563
f 567 582 587
f 563 565 838
f 838 565 581
f 838 581 579
f 579 577 838
f 838 577 575
f 838 575 573
f 587 959 567
f 567 959 837
f 567 837 569
f 569 837 838
f 569 838 571
f 571 838 573
f 592 588 585
f 585 588 584
f 592 593 588
f 588 593 956
f 588 956 587
f 587 956 959
f 613 850 612
f 612 850 954
f 612 954 610
f 848 559 255
f 255 559 561
f 561 563 255
f 255 563 958
f 255 958 253
f 832 828 826
f 960 803 802
f 961 811 810
f 962 752 750
f 963 807 806
f 964 792 790
f 791 831 267
f 965 815 814
f 793 796 966
f 778 777 264
f 753 756 967
f 968 961 849
f 849 961 810
f 849 810 850
f 850 810 809
f 805 808 969
f 954 850 802
f 797 800 970
f 253 958 750
f 971 819 818
f 972 779 778
f 809 812 850
f 850 812 973
f 850 973 963
f 963 806 850
f 850 806 805
f 850 805 802
f 802 805 969
f 802 969 960
f 954 802 955
f 955 802 801
f 955 801 804
f 268 790 267
f 267 790 789
f 267 789 791
f 955 268 957
f 957 268 259
f 957 259 260
f 830 787 786
f 781 784 974
f 975 775 774
f 957 754 958
f 958 754 753
f 958 753 750
f 750 753 967
f 750 967 962
f 799 798 976
f 976 798 955
f 976 955 977
f 977 955 804
f 797 970 794
f 794 970 978
f 794 978 795
f 798 797 955
f 955 797 794
f 955 794 268
f 268 794 793
f 268 793 790
f 790 793 966
f 790 966 964
f 816 968 813
f 813 968 849
f 813 849 814
f 814 849 254
f 814 254 817
f 817 254 818
f 777 780 979
f 980 771 770
f 981 759 758
f 765 768 982
f 750 749 253
f 253 749 751
f 253 751 829
f 971 818 983
f 965 814 984
f 984 814 817
f 984 817 820
f 975 774 979
f 761 764 985
f 829 830 253
f 253 830 786
f 253 786 254
f 254 786 785
f 254 785 788
f 980 770 986
f 986 770 773
f 986 773 776
f 765 982 762
f 762 982 987
f 762 987 763
f 758 757 957
f 957 757 760
f 831 832 267
f 267 832 826
f 267 826 272
f 272 826 825
f 272 825 827
f 254 782 781
f 272 822 271
f 271 822 821
f 979 774 777
f 777 774 263
f 777 263 264
f 767 766 988
f 988 766 260
f 988 260 989
f 989 260 772
f 766 765 260
f 260 765 762
f 260 762 957
f 957 762 761
f 957 761 758
f 758 761 985
f 758 985 981
f 755 754 990
f 990 754 957
f 990 957 991
f 991 957 760
f 823 822 992
f 992 822 272
f 992 272 993
f 993 272 827
f 788 994 254
f 254 994 995
f 254 995 782
f 782 995 783
f 824 983 821
f 821 983 818
f 821 818 271
f 271 818 254
f 271 254 264
f 264 254 781
f 264 781 778
f 778 781 974
f 778 974 972
f 774 773 263
f 263 773 770
f 263 770 260
f 260 770 769
f 260 769 772
f 841 842 834
f 834 842 836
f 840 843 955
f 957 838 835
f 836 842 835
f 835 842 840
f 835 840 957
f 957 840 955
f 903 902 959
f 877 996 841
f 841 996 997
f 951 950 834
f 878 879 956
f 896 897 956
f 947 946 834
f 902 901 959
f 959 901 904
f 959 904 905
f 950 949 834
f 834 949 851
f 834 851 841
f 841 851 852
f 841 852 853
f 997 998 841
f 841 998 953
f 841 953 839
f 839 953 878
f 839 878 844
f 844 878 956
f 925 926 834
f 834 926 927
f 834 927 928
f 946 945 834
f 834 945 952
f 834 952 951
f 892 893 956
f 905 906 959
f 959 906 907
f 959 907 908
f 853 854 841
f 841 854 855
f 841 855 856
f 919 920 833
f 833 920 921
f 833 921 834
f 834 921 922
f 834 922 925
f 943 942 834
f 893 894 956
f 956 894 895
f 956 895 896
f 942 941 834
f 834 941 948
f 834 948 947
f 888 889 956
f 897 898 956
f 956 898 899
f 956 899 959
f 959 899 900
f 959 900 903
f 908 909 959
f 959 909 910
f 959 910 911
f 856 857 841
f 841 857 858
f 841 858 859
f 928 929 834
f 834 929 930
f 834 930 931
f 889 890 956
f 956 890 891
f 956 891 892
f 911 912 959
f 959 912 913
f 959 913 914
f 859 860 841
f 841 860 861
f 841 861 862
f 939 938 834
f 938 937 834
f 834 937 944
f 834 944 943
f 914 915 959
f 959 915 916
f 959 916 917
f 862 863 841
f 841 863 864
f 841 864 865
f 879 880 956
f 956 880 881
f 956 881 882
f 833 837 919
f 919 837 959
f 919 959 918
f 918 959 917
f 865 866 841
f 841 866 867
f 841 867 868
f 931 933 834
f 834 933 932
f 834 932 936
f 885 886 956
f 956 886 887
f 956 887 888
f 936 935 834
f 834 935 934
f 834 934 924
f 882 883 956
f 956 883 884
f 956 884 885
f 868 869 841
f 841 869 870
f 841 870 871
f 871 872 841
f 841 872 873
f 841 873 874
f 924 923 834
f 834 923 940
f 834 940 939
f 874 875 841
f 841 875 876
f 841 876 877
f 827 747 993
f 993 747 744
f 993 744 992
f 992 744 743
f 992 743 823
f 823 743 742
f 824 658 983
f 983 658 657
f 983 657 971
f 971 657 690
f 971 690 819
f 819 690 689
f 820 653 984
f 984 653 652
f 984 652 965
f 965 652 687
f 965 687 815
f 815 687 702
f 816 674 968
f 968 674 673
f 968 673 961
f 961 673 672
f 961 672 811
f 811 672 648
f 812 634 973
f 973 634 633
f 973 633 963
f 963 633 644
f 963 644 807
f 807 644 643
f 808 641 969
f 969 641 640
f 969 640 960
f 960 640 625
f 960 625 803
f 803 625 624
f 804 700 977
f 977 700 699
f 977 699 976
f 976 699 724
f 976 724 799
f 799 724 723
f 800 734 970
f 970 734 736
f 970 736 978
f 978 736 737
f 978 737 795
f 795 737 721
f 796 630 966
f 966 630 629
f 966 629 964
f 964 629 645
f 964 645 792
f 792 645 745
f 788 693 994
f 994 693 694
f 994 694 995
f 995 694 695
f 995 695 783
f 783 695 677
f 784 692 974
f 974 692 691
f 974 691 972
f 972 691 664
f 972 664 779
f 779 664 663
f 780 637 979
f 979 637 636
f 979 636 975
f 975 636 727
f 975 727 775
f 775 727 729
f 776 704 986
f 986 704 703
f 986 703 980
f 980 703 741
f 980 741 771
f 771 741 740
f 772 627 989
f 989 627 626
f 989 626 988
f 988 626 671
f 988 671 767
f 767 671 670
f 768 731 982
f 982 731 730
f 982 730 987
f 987 730 733
f 987 733 763
f 763 733 732
f 764 668 985
f 985 668 667
f 985 667 981
f 981 667 698
f 981 698 759
f 759 698 697
f 760 714 991
f 991 714 716
f 991 716 990
f 990 716 717
f 990 717 755
f 755 717 718
f 756 683 967
f 967 683 682
f 967 682 962
f 962 682 712
f 962 712 752
f 752 712 711
f 296 291 274
f 274 291 292
f 274 292 276
f 276 292 278
f 277 278 290
f 290 278 292
f 619 250 620
f 620 250 252
f 620 252 649
f 250 619 251
f 251 619 621
f 622 639 621
f 621 639 249
f 621 249 251
f 877 527 999
f 877 999 996
f 996 999 1000
f 996 1000 997
f 997 1000 998
f 998 1000 498
f 998 498 953
f 527 528 999
f 999 528 738
f 999 738 1000
f 1000 738 748
f 1000 748 498
f 498 748 497

