v 0.06594059 -0.01886889 0.01092421
v 0.05113050 -0.04545850 0.01051222
v 0.03553765 0.05846616 0.01033001
v 0.06796509 0.00831218 0.01051485
v 0.05841854 0.03620574 0.01052486
v -0.01736430 0.06657327 0.01056319
v 0.01512135 0.06677733 0.01038205
v -0.04941035 0.04753071 0.01060878
v 0.06765226 0.00203192 0.03353184
v 0.02720670 0.06250890 0.02657758
v -0.02959803 0.06064172 0.02736287
v -0.06395551 0.01816448 0.03596061
v -0.06204971 0.02819070 0.01050787
v -0.06864465 0.00220023 0.01050501
v -0.06736042 -0.01175751 0.02818065
v -0.06271257 -0.02703524 0.01050298
v -0.02328959 -0.06505129 0.03800755
v -0.01721372 -0.06581923 0.01033061
v 0.00589442 -0.06680951 0.01138013
v 0.03451343 -0.05993685 0.03957181
v 0.03248734 -0.06044016 0.01011037
v 0.01354576 -0.09900513 0.17455112
v -0.01114184 -0.09838942 0.15511083
v 0.01237452 -0.09232315 0.11671006
v -0.00495094 -0.09262067 0.11227404
v -0.03717955 -0.08730695 0.14799701
v -0.04219326 -0.05557689 0.04534172
v -0.02337682 -0.08530150 0.10546886
v -0.04836627 -0.05050479 0.05681716
v -0.05205554 -0.04434983 0.01053499
v -0.03573198 -0.05775310 0.00976895
v 0.02231332 -0.09269565 0.13062798
v 0.04868868 -0.08361146 0.18848180
v 0.04787058 -0.05085467 0.05301105
v 0.03924140 -0.07873823 0.12403463
v 0.02971010 -0.08919899 0.21232735
v 0.00420651 -0.09474430 0.21028446
v -0.04922627 -0.08135766 0.20100903
v -0.04493979 -0.08462305 0.16920339
v -0.02526355 -0.09492178 0.19179129
v 0.00551560 -0.07162873 0.04553526
v -0.03817857 -0.06488103 0.10066222
v -0.03968639 -0.04170537 0.07916521
v -0.05779934 0.03047053 0.03917794
v 0.05896902 -0.03345632 0.04513060
v 0.04522899 -0.04382187 0.07233118
v 0.06165046 -0.01152769 0.05051630
v 0.05818711 0.03552436 0.02512168
v -0.00245442 0.06593967 0.03108089
v 0.02460972 -0.06378451 0.12086128
v 0.03412167 -0.05826459 0.09961962
v -0.03806409 -0.07591085 0.13201033
v -0.01107412 -0.05580760 0.11281668
v 0.04179764 0.04651639 0.03986459
v 0.02143302 0.05592497 0.04216342
v -0.03418986 0.05004793 0.04248046
v 0.05413792 0.02736436 0.04579251
v -0.00357496 0.05518356 0.04704057
v 0.05590161 0.00726868 0.05538391
v 0.02963300 -0.03148769 0.08392428
v 0.00656942 -0.04253985 0.10015272
v 0.03213644 0.03445733 0.05654668
v -0.03478836 0.03363405 0.05580520
v -0.00407287 0.03728084 0.06163930
v 0.01103981 0.02282876 0.06793379
v -0.01597330 0.01680928 0.07001685
v -0.05148920 0.00860530 0.05881785
v 0.00607421 -0.02008080 0.08576583
v -0.02344191 -0.03086375 0.08648407
v -0.06383942 -0.00988326 0.04708164
v -0.04807258 -0.03936838 0.06695723
v 0.04316185 -0.07803772 0.16194128
v -0.04123286 -0.07606941 0.15770232
v -0.00410281 -0.06558541 0.13847648
v -0.01973446 -0.06086997 0.14534794
v 0.02379191 -0.06069924 0.14516591
v -0.02780626 -0.06927533 0.13810741
v 0.03306082 -0.06589448 0.15214561
v 0.02719568 -0.06926180 0.13984179
v 0.05195094 -0.06072422 0.18326460
v -0.02644758 -0.08746059 0.21958732
v -0.03864519 -0.07899404 0.22467207
v -0.01848301 -0.07766923 0.23997818
v 0.00574020 -0.07940406 0.24232279
v 0.02694729 -0.07842451 0.23528062
v 0.04313813 -0.08014677 0.21712469
v 0.04957972 -0.06073724 0.20883881
v 0.03433707 -0.06070096 0.23304819
v -0.00764826 -0.06071892 0.24591218
v -0.04107250 -0.06070872 0.22521042
v -0.05295209 -0.06071613 0.19230949
v -0.04219071 -0.06070232 0.16288172
v -0.00083196 -0.06070000 0.16695725
v -0.02603614 -0.06070000 0.18549632
v -0.01837933 -0.06070000 0.21045147
v 0.00083203 -0.06070000 0.21904265
v 0.02458568 -0.06070000 0.20298873
v 0.02029374 -0.06070000 0.17730175
v 0.00083196 -0.07070000 0.16695725
v -0.00083203 -0.07070000 0.21904265
v 0.02603614 -0.07070000 0.18549632
v 0.01837933 -0.07070000 0.21045147
v -0.02458568 -0.07070000 0.20298873
v -0.02029374 -0.07070000 0.17730175
v 0.04873685 -0.04820804 -0.02247180
v 0.06430959 -0.02414783 0.01050042
v 0.06738329 -0.01535444 -0.02250005
v 0.06788390 0.01051928 0.01050054
v 0.06445253 0.02376426 -0.02249999
v 0.05449689 0.04169236 0.01050418
v 0.04515291 0.05155318 -0.02249260
v 0.01647012 0.06622970 -0.02242816
v -0.00089462 0.06821809 -0.02242656
v -0.01406315 0.06684826 0.00816100
v -0.02570635 0.06323387 -0.02247126
v -0.03761235 0.05687267 0.00754659
v -0.05168179 0.04500760 -0.02249093
v -0.06556521 0.01938234 -0.02249999
v -0.06780700 -0.01100256 -0.02249999
v -0.05819276 -0.03544652 -0.02249999
v -0.04234709 -0.05386098 -0.02249301
v -0.01751320 -0.06601896 -0.02228225
v 0.02418636 -0.06403532 -0.02238835
v -0.00100218 -0.06823063 -0.02244181
v 0.00750368 -0.02603613 -0.02249999
v -0.01745156 -0.01837929 -0.02249999
v -0.02604263 0.00083199 -0.02249999
v -0.00750368 0.02603613 -0.02249999
v 0.01745156 0.01837929 -0.02249999
v 0.02604263 -0.00083199 -0.02249999
v 0.01102600 -0.06699900 -0.00382597
v 0.01102600 -0.06699900 0.00215100
v 0.01102600 -0.06699900 -0.00787003
v -0.02604263 -0.00083199 -0.03249998
v 0.02604263 0.00083199 -0.03249998
v -0.00750368 -0.02603613 -0.03249998
v 0.01745156 -0.01837929 -0.03249998
v 0.00750368 0.02603613 -0.03249998
v -0.01745156 0.01837929 -0.03249998
f 1 2 3
f 1 3 4
f 4 3 5
f 6 7 8
f 1 4 9
f 10 3 7
f 11 6 8
f 12 13 14
f 15 14 16
f 17 18 19
f 20 19 21
f 20 21 2
f 22 23 24
f 24 23 25
f 26 27 28
f 28 27 17
f 26 29 27
f 27 30 31
f 27 31 17
f 17 31 18
f 32 33 22
f 20 2 34
f 34 35 20
f 20 35 32
f 35 33 32
f 33 36 22
f 36 37 22
f 38 39 40
f 19 20 41
f 41 20 32
f 26 28 25
f 23 26 25
f 39 26 40
f 28 17 25
f 25 17 41
f 40 26 23
f 17 19 41
f 40 23 22
f 40 22 37
f 25 41 24
f 24 41 32
f 22 24 32
f 42 43 29
f 13 44 8
f 34 45 46
f 45 47 46
f 11 8 44
f 45 2 1
f 9 4 48
f 48 4 5
f 5 3 48
f 48 3 10
f 10 7 49
f 7 6 49
f 49 6 11
f 44 13 12
f 15 16 29
f 15 12 14
f 50 35 51
f 52 53 42
f 54 48 10
f 54 10 55
f 55 10 49
f 56 11 44
f 45 34 2
f 57 9 48
f 57 48 54
f 55 49 58
f 58 49 11
f 58 11 56
f 34 46 51
f 45 1 9
f 59 9 57
f 51 60 61
f 46 60 51
f 45 9 47
f 47 9 59
f 57 54 62
f 62 54 55
f 63 56 44
f 47 59 46
f 62 55 64
f 64 55 58
f 64 58 56
f 64 56 63
f 46 59 60
f 59 57 62
f 65 62 64
f 60 59 62
f 60 62 65
f 66 65 64
f 66 64 63
f 66 63 67
f 60 68 61
f 69 66 67
f 51 61 50
f 68 60 65
f 68 65 66
f 68 66 69
f 50 61 53
f 61 68 69
f 53 61 69
f 44 12 67
f 67 12 70
f 67 63 44
f 43 67 70
f 71 43 70
f 69 67 43
f 43 71 29
f 42 69 43
f 53 69 42
f 71 70 29
f 70 12 15
f 70 15 29
f 29 16 30
f 29 30 27
f 34 51 35
f 33 35 72
f 39 73 52
f 52 26 39
f 42 26 52
f 26 42 29
f 74 75 76
f 77 53 52
f 77 74 53
f 77 52 73
f 77 75 74
f 53 74 50
f 76 78 74
f 72 35 50
f 79 50 74
f 72 50 79
f 79 74 78
f 78 76 80
f 80 72 78
f 72 79 78
f 33 72 80
f 40 81 38
f 38 81 82
f 82 81 83
f 83 81 84
f 85 84 36
f 85 36 86
f 86 36 33
f 37 36 84
f 81 40 37
f 37 84 81
f 86 87 88
f 85 88 84
f 84 88 89
f 84 89 83
f 83 89 90
f 83 90 82
f 82 90 38
f 38 90 91
f 88 85 86
f 87 86 33
f 87 33 80
f 73 39 91
f 91 92 73
f 73 92 75
f 73 75 77
f 39 38 91
f 93 76 75
f 93 75 94
f 94 75 92
f 94 92 91
f 94 91 90
f 94 90 95
f 95 90 89
f 95 89 96
f 96 89 88
f 96 88 97
f 97 88 87
f 97 87 80
f 97 80 98
f 98 80 76
f 98 76 93
f 99 100 101
f 101 100 102
f 100 99 103
f 103 99 104
f 99 93 104
f 104 93 94
f 104 94 103
f 103 94 95
f 103 95 100
f 100 95 96
f 100 96 102
f 102 96 97
f 102 97 101
f 101 97 98
f 101 98 99
f 99 98 93
f 2 105 106
f 106 105 107
f 106 107 108
f 108 107 109
f 108 109 110
f 110 109 111
f 110 111 3
f 3 111 112
f 113 114 7
f 113 115 114
f 114 115 116
f 116 115 117
f 8 117 13
f 13 117 118
f 13 118 14
f 14 118 119
f 14 119 16
f 16 119 120
f 16 120 30
f 30 120 121
f 30 121 31
f 121 122 31
f 8 116 117
f 2 21 105
f 123 21 19
f 122 18 31
f 18 122 124
f 18 124 19
f 112 7 3
f 7 112 113
f 116 8 7
f 116 7 114
f 110 3 108
f 108 3 106
f 106 3 2
f 123 124 125
f 125 124 122
f 125 122 121
f 125 121 126
f 126 121 120
f 126 120 127
f 127 120 119
f 127 119 118
f 127 118 117
f 127 117 128
f 128 117 115
f 128 115 113
f 128 113 112
f 128 112 129
f 129 112 111
f 129 111 109
f 129 109 130
f 130 109 107
f 130 107 125
f 125 107 105
f 125 105 123
f 131 123 132
f 123 131 133
f 133 131 132
f 123 132 133
f 19 132 123
f 123 19 124
f 21 123 105
f 134 135 136
f 136 135 137
f 135 134 138
f 138 134 139
f 134 127 139
f 139 127 128
f 139 128 138
f 138 128 129
f 138 129 135
f 135 129 130
f 135 130 137
f 137 130 125
f 137 125 136
f 136 125 126
f 136 126 134
f 134 126 127

