v -1.20659 -6.705566 1.00916
v -4.098398 -5.506045 1.082315
v -5.844389 -3.464547 1.012861
v -6.876238 1.090112 1.013427
v -6.729884 -1.265918 1.052884
v -6.283575 2.914046 1.013713
v -4.879932 4.974556 1.201051
v -1.398553 6.714015 1.007497
v 6.868075 1.163415 1.011447
v 6.736094 -1.253643 1.057649
v 5.67877 -3.714646 1.010036
v 4.273055 -5.367167 1.060108
v 1.831852 -6.527392 1.010927
v -3.570369 -6.539116 5.064125
v -0.762148 -7.508261 4.717297
v -0.456689 -10.851251 13.624836
v 1.128832 -10.445376 12.687836
v 2.899247 -10.316574 13.974495
v 2.04989 -7.300805 4.983813
v 3.932437 -9.484634 13.404227
v 4.677141 -5.905843 5.934914
v 4.047605 -10.196906 19.258846
v 0.739462 -11.56713 18.202416
v -2.031646 -10.364691 13.099776
v -4.08804 -10.13446 19.274814
v -2.531673 -10.508691 21.18556
v -4.091533 -8.198933 23.021168
v 4.315648 -3.155175 24.587182
v 2.661372 -4.11407 25.399429
v 4.153893 -7.615922 23.483677
v 2.251631 -10.006139 22.298364
v 3.003118 -0.050642 25.539313
v -1.154953 -0.050743 26.123918
v 0.378072 -3.460929 25.997708
v -1.937662 -3.276196 25.739796
v -4.21346 -0.051618 24.849106
v -4.201179 -5.624309 24.33242
v -0.657187 -10.499605 22.237379
v 2.338468 -10.805269 20.312948
v -3.866044 -9.700339 13.736067
v -2.184946 -11.165249 17.476089
v -1.247999 -7.380749 24.848233
v 1.740949 -7.521416 24.705718
v 5.445009 -3.200649 9.754088
v 4.893742 -1.59296 9.830362
v 2.269432 -0.154294 10.479126
v 0.059647 1.395823 9.01707
v -1.827421 -0.507129 11.235852
v 5.16 4.634253 1.010311
v 5.470244 2.748409 3.973437
v 4.36096 3.106431 5.677617
v 2.864665 5.754377 3.862599
v 2.101228 5.299091 5.314925
v -0.645689 5.072598 5.988305
v 1.680419 6.632642 1.00658
v -0.358226 6.688212 3.387212
v 5.557374 -5.112903 9.302875
v 1.59636 -0.543588 12.131084
v -0.539542 -0.050305 12.291423
v 3.253586 -0.724422 12.915395
v 5.102194 -0.050382 14.640848
v 6.667911 -2.573618 18.675936
v 6.60825 -0.049915 17.574848
v 6.757256 -0.055651 20.790035
v 5.829314 -4.227914 14.77674
v 3.303358 -0.294632 9.996926
v 4.973378 -1.87335 13.840003
v -3.009411 5.743767 3.307218
v -5.43086 -2.079985 8.995787
v -5.664445 -4.583143 8.608329
v -5.432113 -3.560794 11.991323
v -5.426185 -7.043455 13.571299
v -4.478123 3.11223 5.514816
v -6.768348 -0.055938 20.902152
v -6.6328 -0.049757 17.60904
v -6.49693 -3.979924 19.031084
v -3.019431 0.903757 8.909192
v -5.552024 -3.41042 14.304213
v -3.884698 -1.366189 11.631019
v -5.012655 -1.228997 14.234579
v -5.027797 -0.05008 14.638079
v -2.270864 -0.503661 12.568421
v -2.578198 4.75926 5.547171
v -4.482232 -0.056343 8.766318
v 5.4674 -3.966726 22.948805
v 5.642381 -6.68253 20.438895
v 5.777145 -0.050658 23.061238
v 4.849406 -8.410396 13.921372
v 5.60981 -7.225435 17.430241
v -5.360717 -2.884381 23.407898
v -5.066651 -8.536524 17.792852
v -5.226319 -5.360531 6.584384
v -5.387553 -6.508794 21.753372
v -1.837932 -0.05 21.045152
v 0.0832 -0.05 21.904264
v 2.603613 -0.05 20.050369
v 1.83793 -0.05 17.554847
v -0.0832 -0.05 16.695736
v -2.603614 -0.05 18.549634
v 0.0832 -1.05 16.695736
v -0.0832 -1.05 21.904264
v 2.603614 -1.05 18.549634
v 1.837932 -1.05 21.045152
v -2.603613 -1.05 20.050369
v -1.83793 -1.05 17.554847
v -2.664171 -0.766397 1
v -0.750368 2.603613 1
v 2.664171 0.766397 1
v 0.750368 -2.603613 1
v -2.664171 0.766397 -1e-06
v 2.604263 0.083199 -1e-06
v -0.750368 -2.603613 -1e-06
v 1.745156 -1.837929 -1e-06
v 0.750368 2.603613 -1e-06
f 1 2 3
f 4 3 5
f 6 7 8
f 9 10 11
f 11 12 13
f 14 2 15
f 16 15 17
f 2 1 15
f 1 13 15
f 18 19 20
f 19 21 20
f 13 21 19
f 20 22 18
f 18 22 23
f 16 24 15
f 25 26 27
f 28 29 30
f 31 22 30
f 32 33 34
f 35 33 36
f 35 36 37
f 38 23 39
f 25 40 41
f 23 41 16
f 23 16 17
f 23 17 18
f 25 41 26
f 26 41 23
f 27 26 38
f 42 27 38
f 43 38 31
f 42 38 43
f 37 27 42
f 40 14 24
f 24 14 15
f 40 24 41
f 41 24 16
f 38 26 23
f 39 23 22
f 42 35 37
f 35 42 34
f 17 19 18
f 35 34 33
f 34 42 43
f 34 43 29
f 29 43 30
f 17 15 19
f 31 38 39
f 31 39 22
f 19 15 13
f 43 31 30
f 32 34 29
f 32 29 28
f 13 12 21
f 44 9 45
f 46 47 48
f 9 49 50
f 51 50 52
f 47 53 54
f 51 52 53
f 50 49 52
f 52 49 55
f 52 55 56
f 55 8 56
f 53 56 54
f 44 57 9
f 58 46 48
f 58 59 60
f 59 61 60
f 62 63 64
f 44 65 57
f 65 44 45
f 65 45 66
f 62 65 63
f 63 65 67
f 9 50 45
f 61 63 67
f 50 51 45
f 65 66 67
f 67 66 46
f 53 52 56
f 45 51 66
f 67 46 60
f 61 67 60
f 66 51 53
f 60 46 58
f 46 66 47
f 66 53 47
f 8 7 68
f 69 70 71
f 71 70 72
f 73 6 69
f 7 6 73
f 4 70 69
f 74 75 76
f 77 48 47
f 71 78 77
f 77 78 79
f 79 48 77
f 71 72 78
f 72 76 75
f 80 81 82
f 81 59 82
f 82 59 58
f 82 58 48
f 47 54 77
f 83 68 73
f 73 68 7
f 54 56 83
f 83 56 68
f 84 83 73
f 84 73 69
f 80 78 75
f 8 68 56
f 77 54 83
f 84 77 83
f 48 80 82
f 48 79 80
f 81 80 75
f 71 77 84
f 71 84 69
f 80 79 78
f 75 78 72
f 4 69 6
f 3 2 14
f 64 85 86
f 86 85 30
f 28 87 32
f 85 28 30
f 30 22 86
f 22 20 88
f 21 12 11
f 57 11 10
f 10 9 57
f 89 86 22
f 65 62 89
f 86 62 64
f 89 62 86
f 57 65 89
f 88 89 22
f 57 89 88
f 57 21 11
f 57 88 21
f 64 87 85
f 87 28 85
f 88 20 21
f 90 36 74
f 76 72 91
f 40 92 14
f 5 3 92
f 70 92 72
f 70 4 5
f 3 14 92
f 25 93 91
f 91 93 76
f 25 27 93
f 37 90 93
f 37 36 90
f 40 25 91
f 72 40 91
f 92 40 72
f 27 37 93
f 90 74 93
f 5 92 70
f 76 93 74
f 94 36 33
f 94 33 95
f 95 33 32
f 95 32 96
f 32 87 96
f 96 87 64
f 96 64 63
f 96 63 97
f 97 63 61
f 97 61 98
f 98 61 59
f 98 59 99
f 99 59 81
f 99 81 75
f 99 75 74
f 99 74 94
f 94 74 36
f 100 101 102
f 102 101 103
f 101 100 104
f 104 100 105
f 100 98 105
f 105 98 99
f 105 99 104
f 104 99 94
f 104 94 101
f 101 94 95
f 101 95 103
f 103 95 96
f 103 96 102
f 102 96 97
f 102 97 100
f 100 97 98
f 106 4 6
f 106 6 107
f 107 6 8
f 107 8 55
f 107 55 108
f 108 55 49
f 108 49 9
f 108 9 11
f 108 11 109
f 109 11 13
f 109 13 1
f 109 1 106
f 106 1 3
f 106 3 4
f 110 111 112
f 112 111 113
f 111 110 114
f 110 106 107
f 110 107 114
f 114 107 108
f 114 108 111
f 111 108 113
f 113 108 109
f 113 109 112
f 112 109 106
f 112 106 110

