v -0.04873529 0.02047273 -0.00949221
v -0.02418680 0.00921656 -0.00949996
v -0.05182924 -0.00701735 -0.00949233
v -0.02048452 -0.01661845 -0.00949996
v -0.04035999 -0.03491931 -0.00949197
v -0.00962001 -0.05199154 -0.00949209
v 0.00212854 -0.02580750 -0.00949996
v 0.01544744 -0.05014076 -0.00949233
v 0.02289648 -0.01304268 -0.00949996
v 0.03516819 -0.03912164 -0.00949197
v 0.04803036 -0.02080242 -0.00948125
v 0.05252097 0.00375089 -0.00949042
v 0.02231191 0.01306121 -0.00949996
v 0.04163830 0.03208813 -0.00949698
v 0.00324094 0.02529072 -0.00949996
v 0.02155808 0.04742306 -0.00949174
v -0.00561684 0.05243957 -0.00949221
v -0.01219089 0.02180385 -0.00949996
v -0.03114881 0.04178200 -0.00949233
v -0.04764138 0.01987821 -0.00298243
v -0.05196903 -0.00573540 -0.00299602
v -0.04359445 -0.02774790 -0.00295120
v -0.03101360 -0.04145087 -0.00299936
v -0.01442448 -0.04849904 -0.00292986
v -0.00828670 -0.05154075 -0.00299769
v 0.02120405 -0.04768676 -0.00299781
v 0.01966590 -0.04509748 -0.00293737
v 0.03996375 -0.02920227 -0.00293093
v 0.04215839 -0.03027681 -0.00299876
v 0.05084777 -0.00755876 -0.00301509
v 0.04870190 0.01740914 -0.00299876
v 0.04513723 0.01972605 -0.00294834
v 0.03317014 0.03985432 -0.00299781
v 0.02947050 0.03916217 -0.00291257
v 0.00444040 0.04904124 -0.00294703
v 0.00076500 0.05235409 -0.00299340
v -0.02511039 0.04225038 -0.00293511
v -0.03195197 0.04083271 -0.00299781
v 0.01477288 -0.04104188 0.01254577
v 0.01646810 -0.04649678 0.01002902
v 0.02196537 -0.04250799 0.01177699
v -0.02052417 -0.04439910 0.01204557
v -0.01419501 -0.04591606 0.01167638
v -0.01809129 -0.03942292 0.01177735
v -0.04335501 0.02216322 0.01240916
v -0.04577027 0.01400889 0.01168317
v -0.03922292 0.01789129 0.01177735
v -0.01477288 0.04064188 0.01254577
v -0.01650997 0.04599050 0.01003820
v -0.02280164 0.04271702 0.01227290
v 0.02053491 0.04397191 0.01209814
v 0.01416945 0.04579199 0.01165397
v 0.01809129 0.03902292 0.01177735
v 0.04306743 0.02231529 0.01165790
v 0.03965935 0.01621242 0.01277728
v 0.04522233 0.01415631 0.01179726
v 0.04450863 -0.02016953 0.01189095
v 0.04659202 -0.01416342 0.01191396
v 0.03922292 -0.01829129 0.01177735
v 0.00353992 0.01592124 0.03538079
v 0.01320668 0.00859885 0.03052742
v 0.01652940 -0.00509476 0.03535909
v -0.04295156 -0.00754331 0.02487940
v -0.04215643 0.00704761 0.02653462
v -0.04462505 0.00323162 0.01892156
v -0.04281934 0.00703694 0.01025385
v -0.04281707 -0.00739478 0.01057739
v -0.04893557 -0.00772474 0.01021130
v -0.04844905 0.00748670 0.01258511
v 0.04422466 0.00599883 0.02207870
v 0.04275874 0.00680709 0.01046938
v 0.04858762 0.00734035 0.01158733
v 0.04268338 -0.00725683 0.01037282
v 0.04910216 -0.00776770 0.01031179
v 0.04284439 -0.00711469 0.02515859
v -0.03535553 0.02530973 0.02469308
v -0.02570407 0.03498500 0.01010699
v -0.03572605 0.02496731 0.01003212
v -0.03969079 0.02863727 0.01294476
v -0.02932122 0.03980461 0.01052303
v -0.02706808 0.03504946 0.02314908
v -0.03512542 -0.02597604 0.01012403
v -0.02515807 -0.03592344 0.01003296
v -0.02547088 -0.03575224 0.02376861
v -0.02936818 -0.04010496 0.01032550
v -0.03987070 -0.02934550 0.01138765
v -0.03473942 -0.02605727 0.02509148
v 0.03572344 -0.02535807 0.01003296
v 0.03550801 -0.02571283 0.02416057
v 0.02578753 -0.03532065 0.01012427
v 0.03968564 -0.02924364 0.01143164
v 0.02947602 -0.03992003 0.01007385
v 0.02533691 -0.03566151 0.02433497
v 0.02516793 0.03497494 0.01029045
v 0.02901507 0.03966657 0.01265962
v 0.02591886 0.03462603 0.02466423
v 0.03523404 0.02526468 0.01019925
v 0.03970841 0.02924353 0.01005895
v 0.03542395 0.02501630 0.02476949
v -0.04008825 0.01538866 0.02603025
v -0.03871084 -0.01652726 0.02691621
v -0.04724769 -0.01415630 0.01063246
v -0.04084188 -0.01497288 0.01254577
v -0.04320594 -0.02238314 0.01150746
v -0.04210380 -0.02228363 0.01939637
v -0.01698426 -0.03913537 0.02684135
v -0.01424794 -0.04506596 0.02048988
v 0.01464776 -0.04131130 0.02637405
v 0.02066014 -0.04105238 0.02274639
v 0.03934488 -0.01698709 0.02636177
v 0.04098889 0.02067543 0.02235371
v 0.04021215 0.01466537 0.02691419
v 0.02206704 0.04190777 0.01941962
v 0.01631104 0.03859408 0.02703292
v 0.01386263 0.04591226 0.01841874
v -0.01314447 0.04616606 0.01957673
v -0.01652840 0.03834900 0.02753872
v -0.02206152 0.00205814 0.03550000
v -0.02793848 -0.00245814 0.03550000
v -0.02206152 -0.00245814 0.02849943
v -0.02793848 0.00205814 0.02849824
v 0.03030285 -0.02748249 0.02744002
v 0.00708445 -0.03225885 0.02860362
v 0.02957001 -0.01381646 0.02853698
v 0.03080421 0.00817285 0.02856619
v 0.02092058 0.02436672 0.02849991
v -0.00505176 0.03226723 0.02859134
v 0.00042774 0.04180412 0.02693362
v -0.02761085 0.01655155 0.02853329
v -0.03179443 -0.00269377 0.02855534
v -0.02280320 -0.02380011 0.02851195
v 0.02285752 -0.02233165 0.03520340
v 0.03186108 -0.00337213 0.03534884
v 0.02457988 0.02071624 0.03539450
v 0.00334596 0.03088823 0.03546209
v -0.01506883 0.02780904 0.03538389
v -0.02266463 0.02120645 0.03545064
v -0.03202917 0.00076734 0.03532404
v -0.02803941 -0.01463135 0.03542740
v -0.01336252 -0.02954206 0.03534216
v 0.00777659 -0.03083618 0.03535063
v 0.01722554 -0.02089089 0.03550000
v 0.01813105 -0.01484067 0.03550000
v 0.02518656 -0.00326408 0.03550000
v 0.02481719 0.00284127 0.03550000
v 0.01971761 0.01890056 0.03550000
v 0.01533354 0.01582615 0.03550000
v -0.00248611 0.02484794 0.03550000
v -0.01746588 0.01500000 0.03550000
v -0.00991070 0.01284949 0.03530461
v -0.01554001 -0.01570610 0.03550000
v -0.00938114 -0.01382835 0.03538699
v -0.01983035 -0.02006674 0.03550000
v -0.00018281 -0.02215873 0.03550000
v 0.00018656 -0.02826408 0.03550000
v -0.01673708 -0.00190068 0.03533704
v 0.00373428 -0.01602928 0.03536505
v 0.01386940 -0.01051196 0.02949995
v -0.01031196 -0.01406940 0.02949995
v -0.01386940 0.01011196 0.02949995
v 0.00460976 0.01534637 0.02949995
v 0.02697897 -0.04451883 -0.00289147
v 0.04544260 -0.02483946 -0.00289577
v 0.05052007 0.01160865 -0.00289219
v 0.04192825 0.02942831 -0.00289946
v 0.03524735 0.03711644 -0.00289994
v 0.01865888 0.04835199 -0.00289124
v -0.00511864 0.05109720 -0.00289767
v -0.02923068 0.04278196 -0.00288885
v -0.05114167 -0.00952892 -0.00288849
v -0.02070342 -0.04795723 -0.00288659
v 0.00330840 -0.05163914 -0.00289803
v -0.00051704 -0.04775116 0.02072770
v -0.01447662 -0.01839931 0.02878673
v -0.02070904 -0.01722301 0.02876062
v 0.00076214 -0.02207060 0.02875215
v -0.00070815 -0.02824069 0.02878959
v 0.01706318 -0.02088998 0.02878625
v 0.01827376 -0.01470439 0.02875239
v 0.02300649 -0.00285930 0.02876479
v 0.02697884 0.00244869 0.02877814
v 0.01863675 0.01447773 0.02872557
v 0.01666213 0.02005965 0.02880556
v 0.00225157 0.02341672 0.02885003
v -0.00265154 0.02644035 0.02867848
v -0.02088475 0.01679014 0.02874536
v -0.01450264 0.01826802 0.02880079
v 0.03195805 -0.03215802 0.01749999
v -0.03195802 -0.03215805 0.01749999
v 0.03199810 0.03179808 0.01749999
v 0.02289648 0.01264268 0.00040001
v 0.02231191 -0.01346121 0.00040001
v 0.00324094 -0.02569073 0.00040001
v -0.01219089 -0.02220385 0.00040001
v -0.02418680 -0.00961656 0.00040001
v -0.02048452 0.01621846 0.00040001
v 0.00212855 0.02540750 0.00040001
f 1 2 3
f 3 2 4
f 3 4 5
f 5 4 6
f 6 4 7
f 6 7 8
f 8 7 9
f 8 9 10
f 10 9 11
f 11 9 12
f 12 9 13
f 12 13 14
f 14 13 15
f 14 15 16
f 16 15 17
f 17 15 18
f 17 18 19
f 19 18 2
f 19 2 1
f 20 21 22
f 22 23 24
f 24 23 25
f 24 25 26
f 24 26 27
f 27 26 28
f 28 26 29
f 28 29 30
f 30 31 32
f 32 31 33
f 32 33 34
f 34 33 35
f 35 33 36
f 35 36 37
f 37 36 38
f 37 38 20
f 1 20 38
f 1 38 19
f 19 38 17
f 17 38 36
f 17 36 16
f 16 36 33
f 16 33 14
f 14 33 31
f 14 31 12
f 12 31 30
f 12 30 11
f 11 30 29
f 11 29 10
f 10 29 26
f 10 26 8
f 8 26 25
f 8 25 6
f 6 25 23
f 6 23 5
f 5 23 22
f 5 22 21
f 5 21 3
f 3 21 1
f 1 21 20
f 39 40 41
f 42 43 44
f 45 46 47
f 48 49 50
f 51 52 53
f 54 55 56
f 57 58 59
f 60 61 62
f 63 64 65
f 65 64 66
f 63 67 68
f 69 68 66
f 66 68 67
f 69 66 64
f 70 71 72
f 73 74 71
f 71 74 72
f 74 73 75
f 76 77 78
f 76 78 79
f 77 80 78
f 78 80 79
f 80 77 81
f 82 83 84
f 84 83 85
f 86 85 82
f 82 85 83
f 86 82 87
f 88 89 90
f 89 88 91
f 90 92 88
f 88 92 91
f 92 90 93
f 94 95 96
f 97 98 94
f 94 98 95
f 98 97 99
f 100 45 47
f 46 100 47
f 101 102 103
f 104 105 101
f 104 101 103
f 106 42 44
f 107 106 43
f 43 106 44
f 108 40 39
f 41 109 39
f 39 109 108
f 110 57 59
f 58 110 59
f 54 111 55
f 55 111 112
f 55 112 56
f 113 51 53
f 114 113 53
f 115 114 52
f 52 114 53
f 116 49 48
f 117 116 48
f 50 117 48
f 118 119 120
f 121 118 120
f 121 118 119
f 120 119 121
f 122 110 75
f 122 75 112
f 117 100 64
f 117 76 100
f 64 63 101
f 101 87 106
f 123 122 124
f 122 112 124
f 124 112 125
f 125 112 126
f 112 114 126
f 126 114 127
f 127 114 128
f 128 117 127
f 127 117 129
f 129 117 64
f 129 64 130
f 64 101 130
f 131 101 106
f 130 101 131
f 131 106 123
f 106 108 123
f 108 122 123
f 132 124 133
f 133 124 125
f 133 125 134
f 134 125 126
f 134 126 135
f 135 126 127
f 135 127 136
f 136 127 129
f 136 129 137
f 137 129 138
f 138 129 130
f 138 130 131
f 138 131 139
f 139 131 140
f 140 131 123
f 140 123 141
f 141 123 132
f 132 123 124
f 142 132 143
f 143 132 133
f 143 133 144
f 144 133 145
f 145 133 134
f 145 134 62
f 62 134 146
f 62 146 147
f 146 134 135
f 148 135 136
f 148 136 60
f 60 136 149
f 60 149 150
f 149 136 137
f 149 137 138
f 149 138 118
f 118 138 119
f 119 138 139
f 119 139 151
f 119 151 152
f 151 139 153
f 153 139 140
f 153 140 151
f 151 140 152
f 152 140 154
f 154 140 155
f 155 140 141
f 155 141 154
f 154 141 142
f 142 141 132
f 119 152 118
f 118 152 156
f 118 156 149
f 152 154 157
f 145 62 144
f 144 62 143
f 143 62 157
f 143 157 142
f 142 157 154
f 62 147 60
f 60 147 146
f 148 60 135
f 135 60 146
f 156 150 149
f 62 158 157
f 157 158 159
f 157 159 152
f 152 159 156
f 156 159 160
f 156 160 150
f 150 160 60
f 60 160 161
f 60 161 61
f 62 61 158
f 158 160 159
f 160 158 161
f 161 158 61
f 162 28 163
f 163 28 30
f 164 30 32
f 164 32 165
f 165 32 34
f 165 34 166
f 166 34 167
f 167 34 35
f 167 35 168
f 168 35 37
f 168 37 169
f 169 37 20
f 170 20 22
f 171 22 24
f 171 24 172
f 172 24 27
f 172 27 162
f 162 27 28
f 163 91 92
f 163 92 162
f 162 92 41
f 162 41 40
f 92 109 41
f 162 40 172
f 172 40 173
f 172 173 171
f 171 173 43
f 171 43 42
f 173 40 108
f 173 107 43
f 171 42 85
f 85 42 106
f 171 85 22
f 22 85 86
f 86 105 22
f 22 105 104
f 22 104 170
f 170 104 102
f 170 102 68
f 170 68 69
f 170 69 20
f 20 69 46
f 46 69 100
f 20 46 45
f 20 45 79
f 20 79 169
f 169 79 80
f 169 80 50
f 49 169 50
f 169 49 168
f 168 49 116
f 168 116 115
f 168 115 167
f 167 115 52
f 167 52 51
f 51 113 167
f 167 113 95
f 167 95 166
f 166 95 98
f 166 98 165
f 165 98 54
f 165 54 164
f 164 54 56
f 164 56 72
f 72 56 112
f 98 111 54
f 164 72 74
f 164 74 30
f 30 74 58
f 57 163 58
f 58 163 30
f 163 57 91
f 91 57 110
f 45 100 79
f 79 100 76
f 68 102 101
f 101 63 68
f 101 105 87
f 87 105 86
f 87 84 106
f 84 85 106
f 106 173 108
f 173 106 107
f 108 109 122
f 93 109 92
f 93 122 109
f 93 89 122
f 110 89 91
f 89 110 122
f 74 110 58
f 110 74 75
f 112 75 70
f 112 70 72
f 112 111 99
f 98 99 111
f 112 99 114
f 114 99 96
f 114 96 95
f 114 95 113
f 76 117 81
f 128 116 117
f 115 128 114
f 81 117 80
f 117 50 80
f 69 64 100
f 116 128 115
f 103 102 104
f 174 153 175
f 151 153 174
f 175 151 174
f 175 151 153
f 176 154 177
f 177 154 155
f 178 143 179
f 142 143 178
f 180 145 181
f 144 145 180
f 181 144 180
f 181 144 145
f 147 182 146
f 183 182 147
f 147 183 146
f 182 183 146
f 148 184 135
f 185 184 148
f 186 187 149
f 137 186 149
f 187 186 137
f 137 187 149
f 188 93 90
f 89 93 188
f 89 188 90
f 189 87 82
f 84 87 189
f 84 189 82
f 66 67 65
f 65 67 63
f 77 76 81
f 190 94 96
f 99 97 190
f 97 94 190
f 99 190 96
f 75 73 70
f 73 71 70
f 191 13 9
f 191 9 192
f 192 9 193
f 193 9 7
f 193 7 194
f 194 7 4
f 194 4 195
f 195 4 2
f 195 2 196
f 196 2 18
f 196 18 197
f 197 18 15
f 197 15 191
f 191 15 13
f 192 195 191
f 191 195 196
f 191 196 197
f 195 192 194
f 194 192 193

