v 0.05909605 -0.06296806 0.00466950
v 0.06189460 -0.06240117 0.00527317
v 0.04941091 -0.08125766 0.07306010
v 0.04924669 -0.08370171 0.08436913
v -0.03029076 -0.01050042 -0.06111681
v -0.03777779 -0.04534114 -0.05613719
v -0.04716793 -0.01050142 -0.04993968
v -0.01706723 -0.04361752 -0.06430840
v 0.00614484 -0.04295694 -0.06640386
v -0.00816341 -0.01050077 -0.06753354
v 0.02338693 -0.01050029 -0.06406157
v 0.04285450 -0.01050027 -0.05354266
v 0.04305103 -0.04677458 -0.05202239
v 0.02944076 -0.04287199 -0.06042307
v 0.04137406 -0.06521464 0.18447281
v 0.01668891 -0.07636584 0.18447609
v 0.02802199 -0.07697468 0.15508456
v 0.00241814 -0.09411424 0.12327010
v 0.00898800 -0.08275543 0.15405370
v -0.01122948 -0.08373460 0.15017159
v -0.02022104 -0.09279947 0.11836458
v -0.02860562 -0.07467543 0.16234601
v -0.03684612 -0.08944526 0.10269124
v -0.04027987 -0.07109021 0.14616014
v -0.00671471 -0.07774911 0.18442977
v -0.03689326 -0.06835574 0.18449111
v 0.02118013 -0.09295321 0.11503131
v 0.03957669 -0.07295459 0.14287795
v 0.03739572 -0.08937095 0.10306723
v -0.05696832 -0.05274934 0.13362450
v -0.06752078 -0.02256208 0.18449111
v -0.05647719 -0.05340470 0.09919066
v -0.05573624 -0.06588033 0.06617660
v -0.05657241 -0.07188247 0.04656167
v -0.06190339 -0.06088462 -0.00116550
v -0.06562951 -0.04203465 0.00797910
v -0.06725075 -0.02861976 -0.00635081
v -0.06772555 -0.01049837 0.01167894
v -0.06472664 -0.01049978 -0.02305113
v -0.04910669 -0.04876426 -0.04501610
v -0.05886190 -0.04300310 -0.03026711
v -0.04954060 -0.06540164 0.13416881
v -0.04922440 -0.08371092 0.08426405
v -0.05218887 -0.05517732 0.16665221
v -0.06912262 -0.00455054 0.18442334
v -0.05678708 -0.04919123 0.18449987
v 0.06735696 -0.02316506 0.18449516
v 0.05742174 -0.04648734 0.18443275
v 0.05938093 -0.04663221 0.12875135
v 0.05984680 -0.01052516 -0.03399914
v 0.06530926 -0.01050025 -0.02073221
v 0.06645206 -0.02976509 -0.01202302
v 0.06854235 -0.01054502 0.00841464
v 0.05470849 -0.06606380 0.10167451
v 0.05078609 -0.06262219 0.13796617
v 0.05688703 -0.04225848 0.10761631
v 0.06896780 -0.00221886 0.18437053
v 0.05614887 -0.07303769 0.04907365
v 0.05717609 -0.05309095 -0.02982902
v -0.05666580 -0.03549433 0.11096228
v -0.06477302 0.00553287 0.17114497
v -0.03399574 -0.00887452 0.09876783
v -0.00819056 0.00467894 0.10504378
v -0.00190263 -0.00676258 0.09289236
v -0.01982275 -0.01613718 0.07745160
v -0.03720190 -0.02241571 0.07649107
v -0.05977356 0.02508572 0.18441827
v -0.04406327 0.04256820 0.18446154
v -0.01363157 0.05670470 0.18449933
v -0.02051845 0.05307380 0.16659654
v -0.00116015 0.05553593 0.15710301
v -0.03806074 0.03245753 0.14357490
v -0.05198431 0.00960396 0.13871528
v -0.02124632 0.04702442 0.14943219
v -0.01894030 0.03746450 0.13442005
v -0.04918132 -0.02134457 0.10146702
v 0.00702052 0.03934237 0.13290704
v -0.05724905 -0.03515803 0.04261471
v -0.04341387 -0.02301193 0.05917634
v -0.05715908 -0.01050573 0.03743328
v -0.02812033 -0.01548384 0.06488449
v -0.03560915 -0.01050508 0.05942626
v -0.04890554 -0.03410534 0.06410194
v -0.05514587 -0.04918214 0.06035233
v -0.05069921 -0.03270885 0.08803190
v -0.00061097 -0.01497155 0.07327778
v 0.00071020 -0.01054013 0.06874187
v 0.04702238 -0.02230575 0.05438871
v 0.01803259 -0.01663778 0.07612450
v 0.03638255 -0.02260887 0.07467754
v 0.04370263 -0.01173238 0.10409660
v 0.02102647 0.00503777 0.10708256
v 0.02578315 0.03709270 0.13802899
v 0.03586737 0.03947970 0.15385819
v 0.02077079 0.05297029 0.16649986
v 0.04419888 0.04245544 0.18445105
v 0.03433049 -0.01060252 0.05901463
v 0.03035971 -0.01085878 0.09351594
v 0.01540843 0.04884475 0.14831806
v 0.01605426 0.05601050 0.18449939
v 0.05860129 0.02538796 0.18449933
v 0.05571200 0.02375480 0.16797246
v 0.06239142 0.00449250 0.16184879
v 0.05295144 -0.03710828 0.09379102
v 0.04662551 0.01707020 0.13676674
v 0.05841324 -0.05901274 0.04158110
v 0.04567333 -0.02515330 0.08848352
v 0.05363984 -0.04331354 0.06004340
v 0.04684766 -0.03194866 0.06899614
v 0.05909568 -0.03247391 0.03728361
v 0.05731907 -0.01051055 0.03737677
v -0.04849584 -0.08240050 0.07760424
v -0.05993976 -0.05949909 -0.00864207
v -0.00775660 -0.09438923 0.11995376
v -0.04010373 -0.04760317 -0.05220448
v 0.00842871 -0.04435373 -0.06421744
v 0.04132044 -0.04817450 -0.04974495
v 0.05674159 -0.05546415 -0.02316242
v -0.01962080 -0.01050000 -0.01550852
v -0.00442586 -0.01050000 -0.02473097
v 0.01752900 -0.01050000 -0.01868944
v -0.02561015 -0.01050000 0.00105346
v -0.01879520 -0.01050000 0.01747037
v -0.00333250 -0.01050000 0.02589799
v 0.01611128 -0.01050000 0.02041496
v 0.02553460 -0.01050000 0.00254298
v -0.00055347 0.01511015 0.18449999
v -0.01697038 0.00829523 0.18449999
v -0.02539798 -0.00716745 0.18449999
v -0.01991495 -0.02661127 0.18449999
v -0.00204298 -0.03603460 0.18449999
v 0.01918907 -0.02802950 0.18449999
v 0.02525121 -0.00859043 0.18449999
v 0.01818324 0.00754292 0.18449999
v -0.05078254 -0.08264105 0.07871188
v -0.03577010 -0.09013227 0.10633172
v 0.01868513 -0.09349741 0.11868418
v 0.05019469 -0.08336906 0.08141370
v 0.06198784 -0.06163043 -0.00046956
v 0.05443051 -0.05212110 -0.03593694
v 0.03942027 -0.04695179 -0.05474632
v 0.02133193 -0.04501449 -0.06310390
v -0.00261991 -0.04388444 -0.06627553
v -0.02910963 -0.04573956 -0.06031691
v -0.04536180 -0.04822785 -0.05022823
v -0.06049669 -0.05711940 -0.01706021
v -0.06160513 -0.06216211 0.00184680
v -0.05759529 -0.07746858 0.01639689
v -0.05140392 -0.08884475 -0.01220839
v -0.05050062 -0.09470387 0.03368397
v -0.03869941 -0.07129989 -0.05013334
v -0.04318962 -0.08877301 -0.03672712
v -0.04129460 -0.10741785 -0.01325004
v -0.04110388 -0.11195883 0.00761087
v -0.03955327 -0.10785489 0.05086655
v -0.00415745 -0.06723685 -0.06207447
v -0.02317525 -0.09210885 -0.04728400
v -0.02007774 -0.12186708 -0.00146924
v -0.02760537 -0.10706389 -0.03057419
v -0.00973559 -0.11994138 -0.01694505
v 0.00591549 -0.12503374 0.00476373
v 0.03080963 -0.10860746 0.06509549
v 0.03949657 -0.10937885 0.04540069
v 0.01863235 -0.12100733 0.03697170
v 0.00196460 -0.12512304 0.02535034
v 0.00595091 -0.11831176 -0.02173995
v 0.03922653 -0.06620140 -0.05111938
v 0.02195249 -0.07735271 -0.05499267
v 0.04154081 -0.08535302 -0.04065346
v 0.00518821 -0.09201215 -0.05089479
v 0.02779230 -0.09933812 -0.03923022
v 0.04112478 -0.10275281 -0.02411567
v 0.00153421 -0.10815356 -0.03770327
v 0.02607963 -0.11455973 -0.01804911
v 0.03967200 -0.11282759 0.00545264
v 0.01695234 -0.10981533 0.07693178
v 0.00066451 -0.11632928 0.06548769
v -0.01666412 -0.10803395 0.08208037
v -0.01328203 -0.12006850 0.04621668
v -0.02957743 -0.11046742 0.06067986
v -0.02741914 -0.11951173 0.02452214
v 0.02617395 -0.12000071 0.00436730
v 0.05607579 -0.08252268 0.01762063
v 0.04986944 -0.09658617 0.03133715
v 0.04891446 -0.09481720 -0.01052444
v 0.05438236 -0.07051223 -0.02431886
v 0.00333250 -0.00000000 0.02589799
v 0.00442586 -0.00000000 -0.02473097
v -0.01752900 -0.00000000 -0.01868944
v -0.01611128 -0.00000000 0.02041496
v -0.02553460 -0.00000000 0.00254298
v 0.01879520 -0.00000000 0.01747037
v 0.01962080 -0.00000000 -0.01550852
v 0.02561015 -0.00000000 0.00105346
v -0.02539798 -0.01383255 0.17500002
v 0.02525121 -0.01240957 0.17500002
v 0.01918907 0.00702950 0.17500002
v -0.01991495 0.00561127 0.17500002
v -0.00204298 0.01503460 0.17500002
v 0.01818324 -0.02854292 0.17500002
v -0.01697038 -0.02929523 0.17500002
v -0.00055347 -0.03611015 0.17500002
f 1 2 3
f 3 2 4
f 5 6 7
f 6 5 8
f 9 10 11
f 12 13 14
f 5 10 8
f 8 10 9
f 9 11 14
f 14 11 12
f 15 16 17
f 18 19 20
f 18 20 21
f 20 22 21
f 23 21 24
f 20 25 22
f 25 26 22
f 20 19 16
f 27 28 17
f 27 29 28
f 15 17 28
f 16 19 17
f 17 19 27
f 19 18 27
f 16 25 20
f 21 22 24
f 22 26 24
f 30 31 32
f 30 33 34
f 35 36 37
f 38 39 37
f 6 40 7
f 7 40 41
f 35 34 36
f 42 43 23
f 42 23 24
f 42 24 44
f 42 44 30
f 30 32 33
f 37 39 41
f 35 37 41
f 7 41 39
f 45 32 31
f 34 43 30
f 30 43 42
f 24 26 44
f 44 26 46
f 46 31 30
f 46 30 44
f 47 48 49
f 13 12 50
f 50 51 52
f 51 53 52
f 4 54 55
f 54 56 49
f 54 49 55
f 49 57 47
f 15 55 48
f 55 15 28
f 55 28 29
f 55 29 4
f 4 58 54
f 59 52 2
f 52 59 50
f 50 59 13
f 58 56 54
f 49 48 55
f 60 45 61
f 62 63 64
f 64 65 66
f 37 36 38
f 45 67 61
f 68 69 70
f 69 71 70
f 72 73 67
f 70 71 74
f 74 71 75
f 73 76 61
f 71 77 75
f 78 79 80
f 81 82 79
f 83 84 85
f 83 85 66
f 66 85 62
f 84 33 85
f 33 32 85
f 60 61 76
f 60 32 45
f 72 67 68
f 32 60 85
f 34 33 84
f 34 84 78
f 66 62 64
f 78 84 83
f 38 36 34
f 38 34 78
f 38 78 80
f 85 76 62
f 79 83 66
f 85 60 76
f 73 61 67
f 72 68 74
f 74 68 70
f 75 72 74
f 78 83 79
f 79 66 65
f 81 79 65
f 82 80 79
f 76 73 72
f 76 72 62
f 62 72 75
f 81 65 86
f 87 81 86
f 82 81 87
f 63 62 75
f 63 75 77
f 88 89 90
f 91 92 93
f 94 95 96
f 97 86 89
f 86 65 89
f 65 64 89
f 89 64 90
f 64 63 98
f 92 77 93
f 77 92 63
f 63 92 98
f 99 77 71
f 95 71 100
f 95 100 96
f 100 71 69
f 96 101 102
f 57 49 56
f 103 56 104
f 103 104 105
f 105 91 93
f 102 101 103
f 105 104 91
f 104 58 106
f 106 58 53
f 53 58 2
f 2 52 53
f 99 71 95
f 99 95 94
f 77 99 93
f 93 99 94
f 90 64 98
f 97 87 86
f 94 96 102
f 105 94 102
f 93 94 105
f 105 102 103
f 107 92 91
f 107 91 104
f 98 92 107
f 98 107 108
f 109 98 108
f 108 107 104
f 90 98 109
f 106 108 104
f 88 90 109
f 110 88 109
f 111 88 110
f 97 89 88
f 97 88 111
f 110 109 108
f 106 110 108
f 53 110 106
f 101 57 103
f 104 56 58
f 110 53 111
f 56 103 57
f 112 43 35
f 112 35 113
f 3 4 29
f 27 18 114
f 114 18 21
f 114 21 23
f 23 43 112
f 113 35 40
f 113 40 115
f 115 40 6
f 115 6 8
f 115 8 116
f 116 8 9
f 116 9 13
f 116 13 117
f 117 13 59
f 117 59 118
f 118 59 2
f 118 2 1
f 14 13 9
f 58 4 2
f 35 41 40
f 35 43 34
f 7 119 5
f 5 119 120
f 5 120 10
f 10 120 11
f 11 120 121
f 11 121 12
f 119 7 39
f 119 39 122
f 122 39 38
f 122 38 80
f 122 80 123
f 123 80 82
f 123 82 124
f 124 82 87
f 124 87 97
f 124 97 125
f 125 97 111
f 125 111 126
f 126 111 53
f 126 53 51
f 126 51 121
f 121 51 50
f 121 50 12
f 100 69 127
f 127 69 68
f 127 68 128
f 128 68 67
f 128 67 129
f 129 67 45
f 129 45 31
f 129 31 130
f 130 31 46
f 130 46 26
f 130 26 131
f 131 26 25
f 131 25 16
f 131 16 132
f 132 16 15
f 132 15 48
f 132 48 47
f 132 47 133
f 133 47 57
f 133 57 101
f 133 101 134
f 134 101 96
f 134 96 100
f 134 100 127
f 112 135 136
f 112 136 23
f 23 136 114
f 114 137 27
f 27 137 29
f 29 138 3
f 3 138 1
f 1 138 139
f 1 139 118
f 118 139 140
f 118 140 141
f 118 141 117
f 117 141 116
f 116 141 142
f 116 142 143
f 143 115 116
f 115 143 144
f 115 144 145
f 115 145 113
f 113 145 146
f 113 146 147
f 147 135 112
f 148 146 149
f 148 149 150
f 145 151 152
f 149 152 153
f 149 153 154
f 149 154 150
f 154 155 150
f 155 136 135
f 155 135 150
f 135 147 148
f 148 147 146
f 152 149 146
f 148 150 135
f 142 156 143
f 151 157 152
f 158 159 160
f 158 160 161
f 137 162 29
f 29 162 163
f 164 165 161
f 166 161 160
f 141 167 142
f 142 167 168
f 142 168 156
f 167 169 168
f 168 170 156
f 168 169 171
f 168 171 170
f 169 172 171
f 170 171 173
f 174 172 175
f 162 137 176
f 176 137 177
f 177 178 179
f 179 180 181
f 137 114 177
f 179 178 180
f 177 114 178
f 181 180 155
f 178 114 136
f 180 136 155
f 155 154 181
f 159 153 152
f 151 144 156
f 151 145 144
f 156 144 143
f 162 164 163
f 163 164 182
f 163 182 175
f 175 182 174
f 172 174 171
f 161 165 158
f 162 176 164
f 164 176 177
f 165 164 177
f 157 159 152
f 182 164 161
f 174 182 166
f 166 182 161
f 171 174 173
f 173 174 166
f 165 177 179
f 159 158 153
f 165 179 181
f 165 181 158
f 158 154 153
f 158 181 154
f 166 160 173
f 173 157 170
f 170 157 156
f 160 159 173
f 173 159 157
f 157 151 156
f 180 178 136
f 183 184 185
f 183 185 139
f 139 185 186
f 141 140 167
f 138 29 163
f 138 163 184
f 184 163 175
f 184 175 185
f 185 175 172
f 140 169 167
f 139 186 140
f 138 183 139
f 185 172 169
f 185 169 186
f 186 169 140
f 184 183 138
f 146 145 152
f 112 113 147
f 187 188 189
f 187 189 190
f 190 189 191
f 188 187 192
f 188 192 193
f 193 192 194
f 187 124 125
f 187 125 192
f 192 125 126
f 192 126 194
f 194 126 121
f 194 121 193
f 193 121 188
f 188 121 120
f 188 120 189
f 189 120 119
f 189 119 122
f 189 122 191
f 191 122 123
f 191 123 190
f 190 123 124
f 190 124 187
f 195 196 197
f 195 197 198
f 198 197 199
f 196 195 200
f 200 195 201
f 200 201 202
f 195 129 130
f 195 130 201
f 201 130 131
f 201 131 202
f 202 131 132
f 202 132 200
f 200 132 196
f 196 132 133
f 196 133 197
f 197 133 134
f 197 134 127
f 197 127 199
f 199 127 128
f 199 128 198
f 198 128 129
f 198 129 195

