v 0.03490695 0.11276337 0.04929684
v 0.01535767 0.12142069 0.06037222
v 0.04421798 0.10605149 0.04790030
v 0.01204254 0.12140649 0.06609021
v -0.01327172 0.12293548 0.06426190
v -0.02011130 0.11928831 0.06381880
v -0.01676998 0.12090536 0.05968772
v -0.03383987 0.11376207 0.05046247
v -0.04552434 0.10262575 0.04349946
v -0.05078552 0.09901694 0.03167032
v -0.06428342 0.07231249 -0.00248589
v -0.05862773 0.08256864 0.01823555
v -0.06424637 0.06355408 -0.00585987
v -0.06110055 0.05357719 -0.02449705
v -0.05758895 0.04626534 -0.02824701
v -0.04167256 0.03531596 -0.04778506
v -0.03772856 0.03142547 -0.04807939
v 0.05886629 0.05178624 -0.02880229
v 0.04819482 0.03528115 -0.04224028
v 0.05163101 0.04163884 -0.03858592
v 0.03901877 0.03276242 -0.04822363
v 0.06399751 0.05851294 -0.01226307
v 0.06387968 0.06331330 -0.01406802
v 0.06238538 0.07730250 0.00372301
v 0.06150947 0.07586692 0.00979076
v 0.05127490 0.09830278 0.03069113
v 0.04834553 0.09946688 0.03953610
v -0.01657416 0.02968009 -0.05711545
v -0.01378926 0.02665511 -0.05513848
v 0.01409661 0.02658672 -0.05530824
v 0.01936315 0.03021832 -0.05649854
v -0.04267179 0.10294492 0.06644379
v -0.05190005 0.08712401 0.06047820
v -0.04604938 0.09492828 0.08089899
v -0.05645858 0.07786726 0.04416715
v -0.06111053 0.08203545 0.01811181
v -0.05345571 0.06246364 0.05621515
v -0.06540731 0.05933486 0.01078938
v -0.06255292 0.05066640 0.02009784
v -0.05064531 0.04625495 0.04955362
v -0.04843957 0.10257342 0.04376863
v -0.03689757 0.03131175 0.06149088
v -0.04821021 0.03451276 0.03891908
v -0.03333280 0.02011071 0.04471873
v -0.06651843 0.06332395 -0.00540043
v -0.05757029 0.03686019 0.02160810
v -0.06226762 0.04981853 -0.02304830
v -0.06290530 0.04043348 -0.00788988
v -0.03623101 0.01518520 -0.03933205
v -0.05223864 0.03744361 -0.03842081
v -0.03034920 0.02768532 -0.05287398
v -0.04613099 0.04432457 0.06416045
v -0.03657761 0.03269897 0.08089767
v -0.05055665 0.05682755 0.08089350
v -0.05168636 0.07709381 0.08089386
v -0.05056750 0.01050438 -0.00902952
v -0.05038105 0.01050492 0.01312254
v -0.06049779 0.03476112 0.00690816
v -0.04653294 0.02087492 0.02875648
v -0.04480292 0.01051025 -0.02494253
v -0.03660253 0.01050005 0.03714369
v 0.03239521 0.01053531 -0.03957809
v 0.03219771 0.02786332 -0.05256523
v 0.06293936 0.05583766 0.02081536
v 0.06548294 0.07096058 0.00534163
v 0.05418048 0.08008288 0.05475794
v 0.05961294 0.04601308 -0.02791704
v 0.06620246 0.05948092 -0.01047589
v 0.06200892 0.03779671 -0.00739850
v 0.06501299 0.04907044 0.00409423
v 0.06156067 0.04120435 0.01508246
v 0.05570332 0.09211390 0.03079270
v 0.03599936 0.03006836 0.06073247
v 0.04632562 0.04227758 0.05611943
v 0.03482234 0.03135452 0.08089982
v 0.04747518 0.04888219 0.08088802
v 0.05328956 0.06151632 0.05591928
v 0.05175189 0.06486155 0.08089839
v 0.04901926 0.09277560 0.06362735
v 0.04082110 0.10334182 0.08089887
v 0.03933681 0.10687138 0.06745111
v 0.05074038 0.08278262 0.08089589
v 0.03453492 0.02274138 0.04651474
v 0.04912957 0.02725349 0.02853094
v 0.05443097 0.02551430 0.01630424
v 0.04693841 0.01052829 -0.02107705
v 0.05112593 0.01050385 -0.00551380
v 0.05769128 0.02965679 -0.01418795
v 0.04974062 0.01050121 0.01599287
v 0.03769387 0.01055710 0.03505753
v 0.02046126 0.12142844 0.06666897
v -0.00007114 0.12256701 0.08089732
v 0.02112425 0.11829023 0.08089791
v -0.01832695 0.11920772 0.08089815
v -0.00683035 0.12370092 0.06887589
v -0.02766300 0.11759590 0.06201147
v -0.03110566 0.11182360 0.08089064
v -0.02635404 0.01052963 -0.04357983
v -0.00775494 0.01050297 -0.05048956
v -0.00370383 0.02455396 -0.05783369
v 0.00943817 0.01054872 -0.04992725
v -0.01099451 0.01916055 0.08089779
v -0.02744098 0.02431632 0.06257616
v -0.01416116 0.01798887 0.05938588
v -0.00260822 0.01737963 0.06642710
v 0.02047111 0.02109117 0.06715964
v 0.02076146 0.01800712 0.05365680
v -0.01884030 0.01062165 0.04802905
v 0.01227601 0.01971518 0.08089696
v 0.00291758 0.01052034 0.05197106
v 0.00648759 0.01567073 0.05645321
v 0.02381103 0.01051243 0.04620825
v -0.01730227 0.08961282 0.08090006
v -0.00055759 0.09574865 0.08090006
v 0.01247123 0.09246045 0.08090006
v 0.02437534 0.07889659 0.08090006
v 0.02266980 0.05885661 0.08090006
v 0.01348401 0.04934021 0.08090006
v 0.00048842 0.04501919 0.08090006
v -0.01438923 0.04974593 0.08090006
v -0.02299698 0.06006363 0.08090006
v -0.02509449 0.07333579 0.08090006
v 0.01911280 0.01050000 0.01780222
v 0.00283571 0.01050000 0.02559446
v -0.01043654 0.01050000 0.02349685
v -0.02075416 0.01050000 0.01488911
v -0.02548081 0.01050000 0.00001143
v -0.02115965 0.01050000 -0.01298417
v -0.01164335 0.01050000 -0.02216972
v 0.00614527 0.01050000 -0.02423324
v 0.02090077 0.01050000 -0.01408304
v 0.02524864 0.01050000 0.00105749
v 0.02266980 0.08214339 0.09140001
v -0.02509449 0.06766421 0.09140001
v 0.02437534 0.06210341 0.09140001
v -0.01730227 0.05138718 0.09140001
v 0.01247123 0.04853955 0.09140001
v -0.00055758 0.04525136 0.09140001
v -0.02299698 0.08093638 0.09140001
v -0.01438923 0.09125407 0.09140001
v 0.01348401 0.09165979 0.09140001
v 0.00048842 0.09598082 0.09140001
v 0.01164335 0.00000000 -0.02216972
v -0.00283571 0.00000000 0.02559446
v -0.00614527 0.00000000 -0.02423324
v -0.01911280 0.00000000 0.01780222
v -0.02090077 0.00000000 -0.01408304
v -0.02524864 0.00000000 0.00105749
v 0.01043654 0.00000000 0.02349685
v 0.02075416 0.00000000 0.01488911
v 0.02115965 0.00000000 -0.01298417
v 0.02548081 0.00000000 0.00001143
v 0.03735116 0.03142496 -0.05156280
v 0.04918969 0.03754880 -0.04289438
v 0.06343722 0.05322762 -0.02220990
v 0.06625725 0.06576076 -0.00603463
v 0.06149508 0.08323485 0.01546501
v 0.04793745 0.10225507 0.03893171
v 0.05185308 0.09896234 0.03586446
v 0.03827466 0.11193438 0.05183230
v 0.02531059 0.11898886 0.06002520
v 0.01381093 0.12285095 0.06479035
v 0.00015162 0.12437270 0.06618021
v 0.01564160 0.02714129 -0.05779256
v -0.02175366 0.12029955 0.06194519
v -0.03640717 0.11343652 0.05368780
v -0.04809027 0.10260118 0.04041420
v -0.05701324 0.09118619 0.02612244
v -0.06595845 0.06877116 -0.00220074
v -0.06383131 0.05374665 -0.02203168
v -0.05144092 0.03978489 -0.03988554
v -0.03904814 0.03177687 -0.05069722
v -0.01355330 0.02688559 -0.05821873
v -0.04737333 0.11839061 -0.04675390
v -0.04138117 0.11572695 -0.06595744
v -0.05235299 0.10074149 -0.05392171
v -0.04089507 0.10075726 -0.07337786
v -0.05167335 0.08646954 -0.05902375
v -0.04635724 0.07302262 -0.06474449
v -0.04013411 0.12605281 0.00016509
v -0.04573879 0.11658727 0.01239799
v -0.04035139 0.12583847 -0.05106558
v -0.03738533 0.06306684 -0.06965484
v -0.05068757 0.05153373 -0.05004097
v -0.03586400 0.04656524 -0.06253029
v -0.06303383 0.07824404 -0.03034569
v -0.05730896 0.07174674 -0.04676510
v -0.06363989 0.08279057 -0.00261714
v -0.05655929 0.10252267 -0.03382637
v -0.05519280 0.10386425 0.00586401
v -0.03554634 0.08252931 -0.07670559
v -0.04038074 0.12912800 -0.03006376
v -0.04886696 0.11955485 -0.02830590
v -0.04923697 0.11762442 -0.01047338
v -0.06163131 0.09124823 -0.01881196
v 0.04081500 0.05648828 -0.06447186
v 0.05541620 0.05880618 -0.04572369
v 0.04698817 0.08064420 -0.06559886
v 0.05765679 0.07631499 -0.04671444
v 0.05396717 0.09184366 -0.05407490
v 0.04650853 0.10866767 -0.06207515
v 0.05233808 0.10666237 -0.04799046
v 0.05203569 0.11353533 -0.03225495
v 0.04211061 0.12831730 -0.02856006
v 0.05488092 0.10510426 0.00318252
v 0.04644244 0.11869523 0.00282417
v 0.06503406 0.07768442 -0.01087595
v 0.05990028 0.09611919 -0.01930012
v 0.06106886 0.08692928 -0.03257026
v 0.06341413 0.06516010 -0.02872647
v 0.04016202 0.12640902 -0.00190355
v 0.04240473 0.12390234 -0.05110003
v 0.04003394 0.11800437 -0.06445779
v 0.03806926 0.10424697 -0.07470788
v 0.04069391 0.09360999 -0.07419039
v 0.03807220 0.07377741 -0.07294299
v -0.03102414 0.12648623 0.01776181
v -0.00745472 0.13668977 -0.03673173
v -0.00760206 0.13720592 -0.01618983
v 0.00684078 0.13753309 -0.02103926
v 0.01249557 0.13619845 -0.03897227
v 0.00127639 0.13103362 -0.06221057
v 0.02659359 0.13248828 -0.04596998
v 0.02844660 0.12782040 -0.05900623
v 0.01813478 0.12333690 -0.07139231
v 0.02849251 0.11329726 -0.07568599
v -0.02323487 0.13171804 0.00824843
v -0.00881725 0.13412463 0.01363908
v 0.01269635 0.13333539 0.01497315
v 0.02426179 0.13468464 -0.02016212
v 0.03413554 0.12947053 -0.00148632
v -0.01464105 0.04465676 -0.06846644
v -0.01961312 0.06446893 -0.07748844
v 0.02052854 0.07210450 -0.08005191
v 0.01994980 0.05221778 -0.07186498
v -0.00861579 0.07465203 -0.08305205
v 0.00138609 0.05318662 -0.07450665
v -0.02547004 0.11657338 -0.07524277
v -0.02677263 0.13365405 -0.03677167
v -0.02547581 0.13420220 -0.01853777
v -0.01802170 0.13347969 -0.05016722
v -0.02300404 0.12733658 -0.06322814
v 0.00244269 0.11889936 -0.07835461
v -0.01057608 0.11296385 -0.08125378
v 0.01288592 0.10385544 -0.08425762
v -0.02266160 0.10083273 -0.08254243
v -0.00378586 0.10291861 -0.08532561
v 0.02455006 0.09097766 -0.08230604
v -0.01050848 0.08807291 -0.08542658
v 0.00986767 0.08543311 -0.08501007
f 1 2 3
f 3 2 4
f 4 2 5
f 4 5 6
f 6 5 7
f 6 7 8
f 6 8 9
f 8 10 9
f 10 11 12
f 11 13 12
f 11 14 13
f 13 14 15
f 15 14 16
f 17 15 16
f 12 9 10
f 18 19 20
f 20 19 21
f 19 18 22
f 22 18 23
f 22 23 24
f 22 24 25
f 1 3 26
f 26 3 27
f 27 25 24
f 24 26 27
f 17 16 28
f 28 29 17
f 29 28 30
f 30 28 31
f 21 30 31
f 32 33 34
f 35 33 36
f 37 35 38
f 37 38 39
f 37 39 40
f 32 41 33
f 42 43 44
f 45 38 36
f 40 46 43
f 45 47 48
f 49 50 51
f 42 40 43
f 40 52 37
f 42 53 52
f 52 53 54
f 37 55 35
f 35 55 33
f 37 54 55
f 34 33 55
f 33 41 36
f 35 36 38
f 56 57 48
f 48 57 58
f 46 58 57
f 46 57 59
f 43 46 59
f 52 40 42
f 47 50 48
f 48 50 56
f 50 60 56
f 50 49 60
f 48 38 45
f 39 38 48
f 39 48 58
f 54 37 52
f 39 58 46
f 43 59 44
f 46 40 39
f 59 57 61
f 62 63 19
f 64 65 66
f 67 68 69
f 69 70 71
f 68 65 70
f 72 66 65
f 73 74 75
f 75 74 76
f 76 77 78
f 78 77 66
f 3 79 72
f 80 79 81
f 79 80 82
f 66 82 78
f 73 83 74
f 77 74 71
f 77 71 64
f 77 64 66
f 74 84 85
f 74 85 71
f 86 62 19
f 87 86 88
f 88 86 67
f 67 86 19
f 88 67 69
f 87 88 89
f 89 88 69
f 77 76 74
f 69 68 70
f 79 66 72
f 79 3 81
f 79 82 66
f 70 64 71
f 70 65 64
f 89 69 71
f 89 71 85
f 84 74 83
f 89 85 84
f 90 84 83
f 89 84 90
f 91 92 93
f 94 95 96
f 94 96 97
f 97 96 41
f 97 41 32
f 94 92 95
f 95 92 91
f 93 80 81
f 93 81 91
f 91 81 3
f 98 60 49
f 99 98 100
f 63 62 101
f 49 51 98
f 98 51 100
f 100 63 101
f 100 101 99
f 102 103 104
f 102 104 105
f 106 107 73
f 73 107 83
f 90 83 107
f 61 108 44
f 61 44 59
f 42 44 103
f 103 44 104
f 106 75 109
f 108 110 111
f 111 110 112
f 53 42 103
f 44 108 104
f 104 108 111
f 111 112 107
f 102 53 103
f 105 104 111
f 105 111 106
f 111 107 106
f 109 102 105
f 109 105 106
f 107 112 90
f 75 106 73
f 100 30 63
f 63 30 21
f 63 21 19
f 67 19 22
f 67 22 68
f 68 22 65
f 65 22 25
f 65 25 72
f 72 25 27
f 72 27 3
f 91 3 4
f 91 4 95
f 9 41 6
f 6 41 96
f 6 96 95
f 41 9 36
f 36 9 12
f 36 12 13
f 36 13 45
f 45 13 47
f 47 15 50
f 50 15 17
f 50 17 51
f 51 17 29
f 51 29 100
f 100 29 30
f 34 97 32
f 95 4 6
f 13 15 47
f 34 113 97
f 97 113 94
f 94 113 114
f 94 114 92
f 92 114 93
f 93 114 115
f 93 115 80
f 80 115 116
f 80 116 82
f 82 116 78
f 78 116 117
f 78 117 76
f 76 117 75
f 75 117 118
f 75 118 119
f 75 119 109
f 109 119 102
f 102 119 120
f 102 120 53
f 53 120 121
f 53 121 54
f 54 121 122
f 54 122 55
f 55 122 34
f 34 122 113
f 123 90 112
f 123 112 124
f 124 112 110
f 124 110 108
f 124 108 125
f 125 108 61
f 125 61 126
f 126 61 57
f 126 57 127
f 127 57 56
f 127 56 60
f 127 60 128
f 128 60 129
f 129 60 98
f 129 98 99
f 129 99 130
f 130 99 101
f 130 101 62
f 130 62 131
f 62 86 131
f 131 86 87
f 131 87 132
f 132 87 89
f 132 89 123
f 123 89 90
f 133 134 135
f 135 134 136
f 135 136 137
f 137 136 138
f 134 133 139
f 139 133 140
f 140 133 141
f 140 141 142
f 135 116 133
f 133 116 115
f 133 115 141
f 141 115 142
f 142 115 114
f 142 114 113
f 142 113 140
f 140 113 139
f 139 113 122
f 139 122 134
f 134 122 121
f 134 121 136
f 136 121 120
f 136 120 119
f 136 119 138
f 138 119 137
f 137 119 118
f 137 118 117
f 137 117 135
f 135 117 116
f 143 144 145
f 145 144 146
f 145 146 147
f 147 146 148
f 144 143 149
f 149 143 150
f 150 143 151
f 150 151 152
f 145 130 143
f 143 130 131
f 143 131 151
f 151 131 152
f 152 131 132
f 152 132 123
f 152 123 150
f 150 123 149
f 149 123 124
f 149 124 144
f 144 124 125
f 144 125 146
f 146 125 126
f 146 126 127
f 146 127 148
f 148 127 147
f 147 127 128
f 147 128 129
f 147 129 145
f 145 129 130
f 21 153 154
f 21 154 20
f 20 154 155
f 155 156 20
f 156 157 158
f 158 157 159
f 158 159 160
f 158 160 161
f 161 162 163
f 161 163 5
f 153 21 164
f 165 166 167
f 167 168 169
f 14 169 170
f 14 170 171
f 171 172 16
f 172 173 164
f 174 175 176
f 176 175 177
f 176 177 178
f 178 177 179
f 166 180 181
f 182 175 174
f 179 183 184
f 183 185 184
f 184 185 172
f 184 172 171
f 184 171 170
f 170 186 187
f 170 169 186
f 168 188 169
f 189 174 176
f 167 181 190
f 191 183 179
f 177 191 179
f 192 182 193
f 193 182 174
f 180 192 194
f 194 192 193
f 181 180 194
f 181 167 166
f 181 194 190
f 193 174 189
f 193 189 195
f 178 179 187
f 187 179 184
f 176 178 186
f 176 186 189
f 190 195 188
f 168 190 188
f 194 193 190
f 190 193 195
f 190 168 167
f 178 187 186
f 195 186 188
f 195 189 186
f 170 187 184
f 188 186 169
f 154 196 197
f 197 196 198
f 197 198 199
f 199 198 200
f 200 201 202
f 203 204 205
f 205 204 206
f 205 206 159
f 153 196 154
f 157 207 208
f 208 207 209
f 209 210 199
f 197 210 155
f 156 155 210
f 155 154 197
f 206 211 160
f 204 211 206
f 202 212 203
f 213 212 201
f 201 212 202
f 214 213 201
f 215 214 201
f 215 201 200
f 198 215 200
f 216 215 198
f 196 216 198
f 204 203 212
f 159 206 160
f 157 205 159
f 203 205 208
f 208 205 157
f 202 203 209
f 209 203 208
f 200 202 209
f 199 200 209
f 197 199 210
f 210 209 207
f 210 207 156
f 156 207 157
f 166 165 217
f 218 219 220
f 218 220 221
f 222 223 224
f 222 221 223
f 225 224 213
f 225 213 226
f 165 5 227
f 224 212 213
f 5 163 228
f 220 229 230
f 221 230 223
f 230 231 204
f 223 230 204
f 231 211 204
f 162 161 231
f 231 161 211
f 223 204 212
f 223 212 224
f 226 213 214
f 172 185 173
f 173 185 232
f 232 185 233
f 216 196 234
f 234 196 235
f 234 235 236
f 236 235 237
f 236 237 233
f 237 164 173
f 238 177 175
f 239 182 192
f 217 165 227
f 180 166 217
f 180 217 227
f 240 180 227
f 240 227 228
f 240 228 219
f 192 180 240
f 192 240 239
f 239 240 218
f 218 240 219
f 241 239 218
f 241 218 221
f 182 239 241
f 222 241 221
f 242 182 241
f 242 241 222
f 175 182 242
f 225 222 224
f 238 175 242
f 238 242 243
f 243 242 222
f 243 222 225
f 244 238 243
f 226 243 225
f 245 243 226
f 246 177 238
f 246 238 244
f 246 244 247
f 247 244 245
f 245 244 243
f 245 226 214
f 248 245 214
f 248 214 215
f 191 177 246
f 191 246 249
f 249 246 247
f 249 247 250
f 250 247 245
f 250 245 248
f 216 248 215
f 236 191 249
f 236 249 250
f 234 250 248
f 234 248 216
f 233 183 191
f 185 183 233
f 233 191 236
f 236 250 234
f 227 5 228
f 219 228 220
f 232 233 237
f 237 173 232
f 228 163 229
f 228 229 220
f 229 163 162
f 237 235 164
f 221 220 230
f 229 162 231
f 231 230 229
f 164 235 153
f 153 235 196
f 160 211 161
f 8 167 10
f 167 169 10
f 11 10 169
f 11 169 14
f 14 171 16
f 18 20 156
f 18 156 23
f 23 156 24
f 24 156 26
f 156 158 26
f 7 5 165
f 165 8 7
f 8 165 167
f 5 2 161
f 21 31 164
f 164 31 28
f 164 28 172
f 172 28 16
f 26 158 1
f 1 158 161
f 1 161 2

