v 0.262863 7.444985 4.484142
v -2.218661 7.32654 5.336727
v -1.30985 10.025013 11.481519
v 3.881931 5.644299 1.132514
v 1.904829 6.561048 1.078202
v -1.088248 6.778876 1.178707
v -3.816009 5.649802 0.595923
v -4.179511 5.974931 4.764403
v -3.750606 10.412097 16.552634
v -4.127588 9.155872 22.066124
v -1.567904 11.23132 20.07686
v 4.055705 10.175567 18.876131
v 2.172963 10.91177 20.320548
v 4.166065 8.839758 22.492738
v 2.265764 3.764509 25.617804
v -0.495749 3.494757 26.004811
v -1.603999 0.05053 26.099528
v -1.123455 6.36633 25.313695
v -1.191274 9.056653 23.727263
v -3.996367 6.938909 23.913528
v -4.091848 4.055572 24.738647
v -5.71152 0.050255 23.266579
v 3.897158 0.05064 25.081243
v 2.328393 7.357541 24.595596
v 4.136676 6.744856 23.980899
v 1.69642 11.327272 17.635782
v 2.805582 10.436007 14.195295
v 4.146436 9.335143 13.52907
v 3.593959 6.489629 4.853536
v 0.837791 10.662802 13.161571
v -1.023148 11.282859 15.883429
v -3.901883 9.4846 13.321789
v 0.330571 10.300428 22.485025
v -5.48592 3.362007 9.701051
v -6.75763 -0.955267 1.734509
v -4.893742 1.592959 9.830363
v -1.415872 0.400353 10.958667
v -0.05966 -1.395825 9.01707
v 1.827419 0.50713 11.235852
v -4.915853 -2.138379 6.004967
v -5.650458 -3.941352 1.348765
v -3.535289 -4.97754 4.183091
v -1.914758 -5.393968 5.300648
v 0.645684 -5.072602 5.988301
v -1.903261 -6.575439 1.77824
v 0.18646 -6.787597 3.062095
v -5.501958 5.475542 9.325905
v 0.813302 0.092362 12.310512
v -5.102199 0.050364 14.640857
v -4.497784 1.341183 13.375892
v -6.104154 5.573854 18.239333
v -5.515128 3.310082 13.897748
v -6.922047 0.063536 18.514837
v -3.215951 0.36091 10.12537
v -3.728746 -5.754748 0.788154
v 5.64525 4.786757 14.231421
v 5.448074 2.536132 9.230669
v 5.926423 5.943191 16.998883
v 5.626126 4.739448 9.110363
v 5.279577 -2.042236 5.259646
v 6.817038 -0.667208 1.692583
v 3.995895 0.983734 10.388799
v 4.622568 1.170267 9.77238
v 6.893536 0.052587 19.029064
v 4.776355 1.774189 13.58638
v 5.865423 0.050149 15.652259
v 3.326983 -4.444747 5.395628
v 3.291531 -5.989245 2.112348
v 5.484046 -4.155784 1.629938
v -5.611309 3.915689 1.176031
v 5.310374 4.817244 5.351002
v 5.800005 3.594009 1.133837
v -5.72212 4.505459 22.334053
v -5.21143 8.164117 19.105102
v -4.843247 8.636024 14.699246
v -6.698666 1.362212 1.295431
v -6.877308 0.053861 19.965436
v 6.573685 0.055845 21.537687
v 5.409303 3.289304 23.277606
v 5.814776 6.301544 20.253886
v 6.605245 1.746738 1.31249
v 5.115397 8.416428 16.566946
v 0.895951 0.05 21.708913
v -1.511518 0.05 21.431084
v -2.590862 0.05 18.962724
v -0.915608 0.05 16.853
v 1.733046 0.05 17.344804
v 2.539233 0.05 19.915403
v -0.895951 1.05 21.708913
v 0.915608 1.05 16.853
v 1.511518 1.05 21.431084
v 2.590862 1.05 18.962724
v -1.733046 1.05 17.344804
v -2.539233 1.05 19.915403
v 1.349172 6.71365 -2.246521
v -1.611307 6.643257 -2.232765
v 4.568993 5.117518 -2.249359
v -4.812139 4.882027 -2.249186
v -0.564086 -6.89092 -2.246998
v -4.531381 -5.143058 -2.249299
v 1.306806 -6.677914 -0.506865
v 3.551286 -5.873622 -2.23894
v 6.108985 -3.200442 -2.250074
v -6.662723 -1.860351 -2.25002
v -6.543285 2.084529 -2.25002
v 6.816423 1.413773 -2.250008
v -2.568883 0.476719 -2.250002
v -0.242114 2.712665 -2.250002
v 2.446999 0.915613 -2.250002
v 1.605873 -2.199586 -2.250002
v -1.624476 -2.046325 -2.250002
v 1.1026 -6.6999 0.215103
v 1.1026 -6.6999 -0.382601
v 1.1026 -6.6999 -0.787
v -2.568883 -0.476719 -3.250001
v 2.446999 -0.915613 -3.250001
v -0.242114 -2.712665 -3.250001
v 1.605873 2.199586 -3.250001
v -1.624476 2.046325 -3.250001
f 1 2 3
f 4 5 1
f 1 5 6
f 6 7 8
f 9 10 11
f 12 13 14
f 15 16 17
f 18 19 20
f 20 19 10
f 10 19 11
f 21 22 17
f 17 23 15
f 24 15 25
f 15 23 25
f 13 12 26
f 13 26 11
f 27 12 28
f 28 29 27
f 3 30 1
f 27 29 30
f 30 29 1
f 29 4 1
f 30 3 31
f 31 3 9
f 9 3 32
f 26 27 30
f 31 26 30
f 12 27 26
f 14 13 33
f 33 13 11
f 19 33 11
f 24 14 33
f 24 33 19
f 24 25 14
f 18 24 19
f 11 26 31
f 11 31 9
f 15 24 18
f 1 6 2
f 15 18 16
f 2 8 32
f 21 16 18
f 16 21 17
f 6 8 2
f 21 18 20
f 32 3 2
f 34 35 36
f 37 38 39
f 40 41 42
f 38 43 44
f 40 42 43
f 43 45 46
f 43 46 44
f 34 47 35
f 48 49 50
f 34 51 47
f 40 35 41
f 51 34 52
f 52 34 36
f 51 52 53
f 52 36 54
f 53 52 50
f 35 40 36
f 49 53 50
f 50 37 48
f 41 55 42
f 50 52 54
f 55 45 42
f 42 45 43
f 36 40 54
f 54 40 43
f 50 54 37
f 37 54 38
f 54 43 38
f 56 57 58
f 57 59 58
f 60 61 57
f 57 61 59
f 62 39 38
f 63 56 62
f 56 58 64
f 65 66 48
f 48 37 39
f 38 44 62
f 67 68 69
f 44 46 67
f 67 46 68
f 63 67 60
f 63 60 57
f 65 56 66
f 62 44 67
f 63 62 67
f 39 65 48
f 65 39 62
f 67 69 60
f 56 63 57
f 65 62 56
f 66 56 64
f 61 60 69
f 8 7 70
f 71 4 29
f 71 72 4
f 73 22 21
f 73 21 20
f 73 20 10
f 10 9 74
f 74 9 75
f 75 9 32
f 75 32 8
f 8 70 47
f 47 76 35
f 74 73 10
f 51 73 74
f 51 53 77
f 51 77 73
f 77 22 73
f 51 75 47
f 75 51 74
f 47 70 76
f 8 47 75
f 23 78 79
f 80 64 58
f 59 81 71
f 61 81 59
f 71 29 28
f 81 72 71
f 82 28 12
f 79 78 80
f 25 23 79
f 14 25 79
f 14 79 80
f 80 12 14
f 82 80 58
f 82 12 80
f 59 82 58
f 78 64 80
f 71 28 82
f 59 71 82
f 83 23 17
f 83 17 84
f 84 17 22
f 84 22 85
f 85 22 77
f 85 77 53
f 85 53 49
f 85 49 86
f 86 49 48
f 86 48 87
f 87 48 66
f 87 66 88
f 88 66 64
f 88 64 78
f 88 78 23
f 88 23 83
f 89 90 91
f 91 90 92
f 90 89 93
f 93 89 94
f 91 83 89
f 89 83 84
f 89 84 94
f 94 84 85
f 94 85 93
f 93 85 86
f 93 86 90
f 90 86 87
f 90 87 92
f 92 87 88
f 92 88 91
f 91 88 83
f 6 95 96
f 95 4 97
f 4 95 5
f 5 95 6
f 6 96 7
f 7 96 98
f 98 70 7
f 99 45 55
f 99 55 100
f 100 55 41
f 46 45 99
f 101 68 46
f 68 101 102
f 99 102 101
f 69 68 102
f 102 103 69
f 100 41 104
f 104 41 35
f 104 35 76
f 104 76 105
f 105 76 70
f 105 70 98
f 97 4 72
f 97 72 106
f 106 72 81
f 106 81 61
f 106 61 103
f 103 61 69
f 107 104 105
f 107 105 98
f 107 98 108
f 108 98 96
f 108 96 95
f 108 95 97
f 108 97 109
f 109 97 106
f 109 106 103
f 109 103 110
f 110 103 102
f 110 102 99
f 110 99 111
f 111 99 100
f 111 100 104
f 111 104 107
f 112 101 113
f 46 101 112
f 114 113 101
f 112 113 114
f 114 112 101
f 101 46 99
f 115 116 117
f 116 115 118
f 118 115 119
f 115 107 119
f 119 107 108
f 119 108 118
f 118 108 109
f 118 109 116
f 116 109 110
f 116 110 117
f 117 110 111
f 117 111 115
f 115 111 107

