v 0.08007333 0.06078916 0.01435182
v 0.08694772 0.05916367 0.00116147
v 0.07260194 0.07091489 0.01279758
v 0.06073183 0.08018286 0.01518604
v 0.05752354 0.08716360 0.00159466
v 0.01894505 0.06998412 0.11964221
v 0.00149986 0.08375283 0.07076465
v -0.00859206 0.07075904 0.12500986
v -0.00871644 0.06818566 0.15750027
v -0.03767020 0.05767705 0.15749948
v 0.05898582 0.05121911 0.09223858
v 0.07804731 0.03668716 0.06146616
v 0.08587129 -0.01067731 0.06064079
v 0.08353405 0.01357828 0.06604404
v 0.06988404 0.01615234 0.12282734
v 0.07167470 -0.00958217 0.11790410
v 0.07098682 -0.05182711 0.05500076
v 0.06473688 -0.03217052 0.11916186
v 0.05628971 -0.05360056 0.09422038
v 0.01876628 -0.08260614 0.06656960
v 0.03019800 -0.06681180 0.11351474
v 0.00525200 -0.06687089 0.15737297
v -0.01073485 -0.07472165 0.10330769
v 0.05602010 0.04564640 0.12356737
v 0.06733809 -0.07343166 0.01280421
v 0.05949628 -0.08621875 0.00182239
v 0.08105210 -0.06666729 0.00110213
v 0.05045801 -0.06846493 0.06356400
v 0.04315866 -0.09518982 0.00209096
v 0.00363156 -0.10512982 0.00218081
v -0.05902411 0.03778445 0.14764798
v -0.06971512 0.01522054 0.15750104
v -0.03197056 0.06314297 0.12923895
v 0.03382486 0.06099555 0.15750113
v 0.06799041 0.01720234 0.15750165
v 0.06240090 -0.02887562 0.15750018
v 0.05333415 -0.04710682 0.12787738
v 0.03943576 -0.05566174 0.15747936
v -0.03334268 -0.06253195 0.12837712
v -0.05483299 -0.04201412 0.15750055
v -0.05247957 -0.04747839 0.14388719
v -0.06955356 -0.00954582 0.15297683
v -0.02109197 -0.06481303 0.15746775
v -0.03469783 -0.07501139 0.07379540
v -0.01323382 -0.10359185 0.00258889
v -0.00002972 -0.09470329 0.03346629
v -0.05478337 -0.08909529 0.00144413
v -0.03965538 -0.09712207 0.00216541
v 0.09851477 -0.03757543 0.00204797
v 0.07739717 -0.03426796 0.06612728
v 0.10485182 0.00415121 0.00399985
v 0.09659248 0.04137234 0.00211884
v 0.03896943 0.09716560 0.00385095
v -0.03256494 0.09972464 0.00393220
v -0.00201234 0.10404160 0.00149795
v 0.00018199 0.09530354 0.03191710
v 0.00999234 0.10442234 0.00204688
v -0.03197652 0.07761671 0.06997088
v -0.05742780 0.08743276 0.00160823
v 0.05081501 0.06263717 0.08169138
v 0.03060252 0.07694790 0.07345587
v -0.00001003 0.08656968 0.00186836
v -0.00064322 0.09505101 -0.00000890
v 0.06325914 -0.06032138 0.01301543
v 0.05220024 -0.06872804 0.01169203
v 0.07169065 -0.05414580 0.01217687
v 0.04870019 -0.06654240 0.00009203
v 0.06438533 -0.07055815 -0.00000156
v 0.06571715 -0.05959045 -0.00000241
v 0.06339797 -0.04562385 0.00192953
v -0.06654628 0.05986214 0.01300000
v -0.08065526 0.06606279 0.01139822
v -0.06390891 0.07147957 0.01285729
v -0.07144454 0.05373461 0.01178117
v -0.05198535 0.06491219 0.01203259
v -0.04677936 0.05531719 0.00189158
v -0.06162876 0.06923100 0.00000000
v -0.08937500 0.06484025 0.00179973
v -0.06851234 0.06082368 -0.00000000
v 0.05322213 0.07066488 0.01180732
v 0.05473787 0.05702823 0.01150393
v 0.06325887 0.06978611 0.01301540
v 0.06858017 0.05216309 0.01189063
v 0.06695175 0.06004841 0.01300240
v 0.06571715 0.05959045 -0.00000241
v 0.05212614 0.05210658 0.00197025
v 0.06438533 0.07055815 -0.00000156
v -0.08165092 -0.06686506 0.01100610
v -0.08703606 -0.06603000 0.00122317
v -0.05936798 0.08274978 0.01138966
v -0.08922587 -0.05149821 0.06763308
v -0.11295791 -0.05058182 0.07227083
v -0.11295127 -0.06360620 0.00401601
v -0.07177477 -0.04451163 0.14219895
v -0.11295980 -0.04369973 0.14482197
v -0.07154097 0.05117300 0.08349622
v -0.10799830 0.06313364 0.00229082
v -0.11298063 0.04853457 0.09127981
v -0.06271400 0.04495192 0.14235672
v -0.11263186 0.04334703 0.14610699
v -0.05747662 0.05244813 0.10547907
v -0.05043619 0.06435723 0.07676864
v -0.05941749 -0.08272512 0.01138256
v -0.05162084 -0.06826472 0.06339872
v -0.05489965 -0.05345475 0.10684894
v -0.07207505 -0.05246384 0.07975531
v -0.10799998 -0.06308798 0.00200175
v -0.11290342 -0.00521073 0.15283281
v 0.05819977 -0.05362535 0.01105896
v -0.07140905 -0.05370480 0.01177851
v -0.05235664 -0.06642426 0.01150573
v -0.05714005 -0.05426074 0.01180514
v -0.06403574 -0.07141211 0.01281199
v -0.05864404 0.05361810 0.01116133
v -0.06571715 -0.05959048 0.01300934
v -0.06440428 -0.04433829 0.00193374
v 0.00001003 -0.08656968 0.00186836
v -0.02442533 0.01143495 0.15750000
v -0.01294579 -0.02433216 0.15750000
v 0.01918907 -0.01752950 0.15750000
v 0.02399419 0.01231444 0.15750000
v -0.00055347 0.02561015 0.15750000
v -0.02442533 -0.01143495 0.14749999
v 0.02399419 -0.01231444 0.14749999
v 0.01918907 0.01752950 0.14749999
v -0.01294579 0.02433216 0.14749999
v -0.00055347 -0.02561015 0.14749999
v 0.00062771 -0.09505397 -0.00000926
v -0.06325886 -0.06978615 -0.00000490
v -0.06695175 -0.06004841 -0.00000064
v -0.11299997 0.06356823 0.00401313
f 1 2 3
f 3 2 4
f 4 2 5
f 6 7 8
f 9 8 10
f 2 1 11
f 2 11 12
f 13 14 15
f 13 15 16
f 17 18 19
f 20 21 22
f 20 22 23
f 11 24 12
f 25 26 27
f 25 28 26
f 29 20 30
f 28 19 21
f 31 32 10
f 31 10 33
f 8 9 6
f 6 9 34
f 6 34 24
f 24 34 35
f 24 35 15
f 15 35 16
f 16 35 36
f 16 36 18
f 18 36 37
f 18 37 19
f 37 36 38
f 37 38 21
f 38 22 21
f 39 40 41
f 41 40 42
f 42 40 32
f 42 32 31
f 39 43 40
f 23 44 45
f 23 45 46
f 23 46 20
f 20 46 30
f 44 47 48
f 46 45 30
f 17 27 49
f 50 49 13
f 49 51 13
f 13 51 14
f 14 51 52
f 4 5 53
f 54 7 55
f 56 55 7
f 56 7 57
f 54 58 7
f 59 58 54
f 57 55 56
f 12 24 15
f 12 15 14
f 13 16 50
f 17 50 18
f 24 11 60
f 6 61 7
f 24 60 6
f 60 4 61
f 61 4 53
f 37 21 19
f 21 29 28
f 29 26 28
f 50 17 49
f 33 10 8
f 33 8 7
f 57 7 61
f 57 61 53
f 58 33 7
f 61 6 60
f 12 52 2
f 16 18 50
f 52 12 14
f 20 29 21
f 23 39 44
f 48 45 44
f 43 23 22
f 23 43 39
f 62 63 57
f 57 63 55
f 63 62 55
f 64 65 25
f 25 66 64
f 64 66 65
f 67 68 26
f 68 67 69
f 69 67 70
f 69 70 27
f 69 27 68
f 68 27 26
f 71 72 73
f 74 72 71
f 71 74 75
f 71 75 73
f 76 77 59
f 59 77 78
f 78 77 79
f 77 76 79
f 79 76 78
f 80 81 82
f 82 81 83
f 82 83 84
f 84 83 3
f 84 3 82
f 82 3 80
f 85 2 86
f 85 86 5
f 85 5 87
f 5 2 87
f 87 2 85
f 88 89 47
f 73 75 90
f 91 92 93
f 92 91 94
f 94 95 92
f 96 97 98
f 99 98 100
f 94 41 95
f 33 99 31
f 99 100 31
f 98 99 96
f 99 101 96
f 33 101 99
f 58 102 33
f 33 102 101
f 102 58 90
f 90 58 59
f 90 59 78
f 90 78 72
f 72 78 96
f 78 97 96
f 44 103 47
f 44 104 103
f 104 44 105
f 105 44 39
f 105 39 41
f 89 91 93
f 91 89 106
f 89 88 106
f 103 88 47
f 106 105 41
f 91 106 94
f 94 106 41
f 89 93 107
f 108 95 42
f 95 41 42
f 100 108 31
f 31 108 42
f 80 4 60
f 80 60 81
f 81 60 11
f 81 11 83
f 83 11 1
f 4 80 3
f 66 17 109
f 109 17 19
f 109 19 28
f 109 28 65
f 65 28 25
f 66 27 17
f 27 66 25
f 106 88 110
f 111 104 105
f 111 105 112
f 112 105 106
f 112 106 110
f 111 103 104
f 111 113 103
f 113 88 103
f 75 102 90
f 74 96 114
f 114 96 101
f 114 102 75
f 101 102 114
f 72 96 74
f 72 73 90
f 66 109 65
f 115 88 110
f 113 88 115
f 113 111 115
f 115 111 112
f 110 112 115
f 114 75 74
f 83 1 3
f 89 107 116
f 116 107 78
f 78 107 97
f 116 78 76
f 116 76 86
f 86 76 62
f 86 62 5
f 5 62 57
f 62 76 59
f 59 55 62
f 116 86 70
f 70 86 49
f 49 86 52
f 52 86 2
f 70 49 27
f 116 70 117
f 117 70 26
f 117 26 29
f 117 29 30
f 116 117 47
f 47 117 48
f 48 117 45
f 67 26 70
f 52 51 49
f 57 53 5
f 59 54 55
f 10 32 118
f 118 32 119
f 119 32 40
f 119 40 43
f 119 43 22
f 119 22 120
f 120 22 38
f 120 38 36
f 120 36 121
f 121 36 35
f 121 35 34
f 121 34 122
f 122 34 9
f 122 9 10
f 122 10 118
f 123 124 125
f 123 125 126
f 124 123 127
f 123 118 119
f 123 119 127
f 127 119 120
f 127 120 124
f 124 120 121
f 124 121 125
f 125 121 122
f 125 122 126
f 126 122 118
f 126 118 123
f 117 128 45
f 45 128 30
f 128 117 30
f 89 129 47
f 129 89 130
f 130 89 116
f 130 116 129
f 129 116 47
f 85 82 87
f 85 82 84
f 73 77 71
f 71 77 79
f 71 79 73
f 77 79 73
f 129 113 115
f 129 115 130
f 68 25 69
f 69 25 64
f 68 64 69
f 68 64 25
f 128 30 46
f 63 55 56
f 107 93 97
f 98 97 131
f 97 93 131
f 131 93 98
f 98 93 92
f 98 92 95
f 98 95 108
f 98 108 100

