v -5.909605 6.296808 0.466952
v -6.18946 6.240117 0.527317
v -4.941091 8.125766 7.306013
v -4.924669 8.37017 8.436913
v 3.029061 1.050042 -6.111687
v 3.777785 4.534117 -5.613714
v 4.716786 1.050142 -4.993978
v 1.706682 4.36175 -6.430852
v -0.614487 4.295695 -6.640383
v 0.816316 1.050077 -6.753358
v -2.338712 1.050029 -6.406152
v -4.285462 1.050027 -5.354258
v -4.305108 4.677462 -5.202233
v -2.944064 4.287193 -6.042316
v -4.137407 6.521462 18.447283
v -1.668889 7.636584 18.447611
v -2.802197 7.697469 15.508452
v -0.244527 9.40958 12.331415
v -0.898798 8.275543 15.405372
v 1.122954 8.373459 15.017161
v 2.021524 9.282145 11.831034
v 2.860564 7.467542 16.234604
v 3.684614 8.944526 10.269121
v 4.02799 7.10902 14.616007
v 0.67147 7.774911 18.44298
v 3.689323 6.835576 18.449113
v -2.118014 9.295321 11.503134
v -3.957677 7.295449 14.287809
v -3.739572 8.937095 10.306725
v 5.696832 5.274934 13.362447
v 6.752078 2.256209 18.449113
v 5.647718 5.34047 9.919063
v 5.573624 6.588033 6.617657
v 5.65724 7.18825 4.656169
v 6.190339 6.088461 -0.116551
v 6.56295 4.203468 0.797913
v 6.725074 2.861977 -0.635081
v 6.772555 1.049837 1.167897
v 6.472663 1.049978 -2.305114
v 4.910673 4.876428 -4.501605
v 5.88619 4.300303 -3.026712
v 4.954061 6.540163 13.416878
v 4.92244 8.371091 8.426404
v 5.218887 5.517732 16.665224
v 6.912263 0.455056 18.442336
v 5.678707 4.919124 18.449989
v -6.735696 2.316506 18.449518
v -5.742175 4.648733 18.443278
v -5.938093 4.66322 12.875137
v -5.984681 1.052516 -3.399911
v -6.530926 1.050025 -2.073222
v -6.645207 2.976503 -1.202297
v -6.854234 1.054502 0.841469
v -5.47085 6.606378 10.167453
v -5.078612 6.262215 13.796622
v -5.688703 4.225847 10.761628
v -6.89678 0.221884 18.437055
v -5.614887 7.303769 4.907364
v -5.717611 5.309096 -2.982893
v 5.666578 3.54944 11.096216
v 6.477303 -0.553291 17.114511
v 3.682201 1.651764 8.992145
v 4.918134 2.134452 10.146711
v 3.17222 0.318918 10.320792
v 0.819063 -0.467884 10.504365
v 0.190274 0.676262 9.289229
v 1.982281 1.613719 7.745153
v 3.720189 2.241571 7.649106
v 5.977355 -2.508575 18.441829
v 4.406326 -4.256821 18.446157
v 1.363158 -5.67047 18.449936
v 2.051841 -5.307381 16.659657
v -0.000157 -5.584566 15.885902
v 3.806075 -3.245753 14.35749
v 5.198435 -0.960398 13.871536
v 2.124638 -4.702439 14.943216
v 0.293432 -4.256542 13.570476
v 5.724906 3.515804 4.261467
v 4.341384 2.301189 5.917633
v 5.715906 1.050573 3.74333
v 2.81203 1.54838 6.488443
v 3.560923 1.050508 5.942616
v 4.890553 3.410534 6.410194
v 5.514587 4.918216 6.03523
v 5.069921 3.270885 8.803189
v 2.106109 -3.19518 13.024238
v 0.061103 1.497154 7.32778
v -0.071023 1.054013 6.874186
v -4.702243 2.230577 5.438862
v -1.803258 1.663777 7.612449
v -3.638256 2.260887 7.46775
v -4.370262 1.173232 10.409668
v -2.499692 0.419652 9.962052
v -2.57831 -3.709273 13.802901
v -3.586734 -3.947971 15.385813
v -2.077074 -5.297031 16.649989
v -4.419887 -4.245546 18.445108
v -3.433048 1.060253 5.901462
v -1.155126 -3.83878 13.326019
v -1.54084 -4.884478 14.831812
v -1.605426 -5.60105 18.449942
v -5.860129 -2.538796 18.449936
v -5.571199 -2.375482 16.797248
v -6.239136 -0.449258 16.18487
v -5.295144 3.710832 9.379101
v -4.662553 -1.707016 13.676674
v -5.841324 5.901272 4.15811
v -4.567331 2.515324 8.848358
v -5.363984 4.331353 6.00434
v -4.684766 3.194865 6.899616
v -5.909568 3.247389 3.728357
v -5.731906 1.051055 3.737679
v 4.849583 8.240051 7.760424
v 5.993975 5.949909 -0.86421
v 0.775661 9.438923 11.995376
v 4.410106 4.896352 -4.704457
v 1.759876 4.493164 -6.191161
v -1.546145 4.482131 -6.350562
v -4.132045 4.81745 -4.974493
v -5.674159 5.546416 -2.316242
v 2.003755 1.05 -1.500904
v 0.516142 1.050001 -2.460903
v -1.694105 1.050003 -1.923707
v 2.560093 1.050001 0.179941
v 1.836472 1.050001 1.795784
v 0.259407 1.050001 2.600178
v -1.669575 1.050001 1.995084
v -2.560093 1.050001 0.179941
v -1.145381 -1.285267 18.450001
v 1.128787 -1.25146 18.450001
v 2.633021 0.782125 18.450007
v 1.745788 2.886467 18.450001
v 0.129943 3.610093 18.450001
v -2.172242 2.56194 18.450007
v -2.417593 0.291277 18.450001
v 5.077383 8.264636 7.875774
v 3.577055 9.01473 10.629514
v -1.868526 9.34974 11.868415
v -5.019467 8.336908 8.141375
v -6.198784 6.163043 -0.046956
v -5.443048 5.212108 -3.593701
v -3.94203 4.695179 -5.47463
v 0.261994 4.388444 -6.627553
v 2.91097 4.573957 -6.031692
v 4.536179 4.822785 -5.022823
v 6.04967 5.711941 -1.706016
v 6.160513 6.21621 0.184679
v 5.75953 7.746856 1.639688
v 5.140391 8.884476 -1.220843
v 5.050061 9.470388 3.368396
v 3.869943 7.129986 -5.013331
v 4.318962 8.877307 -3.672704
v 4.129461 10.741786 -1.325002
v 4.110388 11.195884 0.761089
v 3.955328 10.785488 5.086658
v -1.138347 6.807175 -6.113404
v 2.959174 8.992262 -4.534125
v 2.007775 12.186708 -0.146919
v 2.923017 10.717727 -2.903667
v 0.208088 11.710163 -2.537807
v -0.064198 12.242643 -1.182836
v -0.591546 12.503374 0.476373
v -3.080961 10.860751 6.50954
v -3.949658 10.937885 4.540065
v -1.863237 12.100733 3.697169
v -0.196458 12.512304 2.535031
v -4.073648 6.68902 -4.961484
v -2.233248 8.618561 -5.073943
v -4.152686 8.903317 -3.849193
v -0.32707 9.824251 -4.677716
v 1.119903 7.510923 -5.890292
v -2.480553 10.197054 -3.830883
v -4.078424 10.516413 -1.972013
v -2.607966 11.455971 -1.804909
v -3.9672 11.282759 0.545267
v -1.695228 10.981535 7.693175
v -0.066449 11.63293 6.548763
v 1.666401 10.803404 8.208025
v 1.328198 12.006851 4.621664
v 2.957743 11.046735 6.068009
v 2.741913 11.951173 2.452213
v -2.617395 12.000071 0.436727
v 1.346547 10.254137 -4.143586
v -5.60758 8.252268 1.762063
v -4.986945 9.658616 3.133712
v -4.891447 9.481719 -1.052445
v -5.438237 7.051223 -2.431887
v -0.259392 -2e-06 -2.500179
v -0.516152 -2e-06 2.560902
v -1.836468 -1e-06 -1.695788
v -2.003755 -2e-06 1.600907
v -2.560093 -3.2e-05 -0.079941
v 1.694104 -7e-06 2.023709
v 1.669574 -3e-06 -1.895082
v 2.560093 -3.2e-05 -0.079941
v -2.633021 0.782125 17.499993
v 2.417593 0.291277 17.499999
v 2.172242 2.56194 17.499987
v -1.745788 2.886467 17.499999
v -0.129943 3.610093 17.499969
v 1.145381 -1.285267 17.499981
v -1.128787 -1.25146 17.499993
f 1 2 3
f 3 2 4
f 5 6 7
f 6 5 8
f 9 10 11
f 12 13 14
f 5 10 8
f 8 10 9
f 9 11 14
f 14 11 12
f 15 16 17
f 18 19 20
f 18 20 21
f 20 22 21
f 23 21 24
f 20 25 22
f 25 26 22
f 20 19 16
f 27 28 17
f 27 29 28
f 15 17 28
f 16 19 17
f 17 19 27
f 19 18 27
f 16 25 20
f 21 22 24
f 22 26 24
f 30 31 32
f 30 33 34
f 35 36 37
f 38 39 37
f 6 40 7
f 7 40 41
f 35 34 36
f 42 43 23
f 42 23 24
f 42 24 44
f 42 44 30
f 30 32 33
f 37 39 41
f 35 37 41
f 7 41 39
f 45 32 31
f 34 43 30
f 30 43 42
f 24 26 44
f 44 26 46
f 46 31 30
f 46 30 44
f 47 48 49
f 13 12 50
f 50 51 52
f 51 53 52
f 4 54 55
f 54 56 49
f 54 49 55
f 49 57 47
f 15 55 48
f 55 15 28
f 55 28 29
f 55 29 4
f 4 58 54
f 59 52 2
f 52 59 50
f 50 59 13
f 58 56 54
f 49 48 55
f 60 45 61
f 62 63 64
f 62 65 66
f 66 67 68
f 37 36 38
f 45 69 61
f 70 71 72
f 71 73 72
f 74 75 69
f 72 73 76
f 73 77 76
f 75 63 61
f 78 79 80
f 81 82 79
f 83 84 85
f 83 85 68
f 68 85 62
f 84 33 85
f 33 32 85
f 60 61 63
f 60 32 45
f 74 69 70
f 32 60 85
f 34 33 84
f 34 84 78
f 68 62 66
f 78 84 83
f 38 36 34
f 38 34 78
f 38 78 80
f 85 63 62
f 79 83 68
f 85 60 63
f 75 61 69
f 74 70 76
f 76 70 72
f 86 74 76
f 86 76 77
f 78 83 79
f 79 68 67
f 81 79 67
f 82 80 79
f 63 75 74
f 63 74 64
f 64 74 86
f 81 67 87
f 88 81 87
f 62 64 65
f 82 81 88
f 65 64 86
f 65 86 77
f 89 90 91
f 92 93 94
f 95 96 97
f 98 87 90
f 87 67 90
f 67 66 90
f 90 66 91
f 66 65 93
f 93 99 94
f 77 99 65
f 65 99 93
f 99 77 100
f 100 77 73
f 96 73 101
f 96 101 97
f 101 73 71
f 97 102 103
f 57 49 56
f 104 56 105
f 104 105 106
f 106 92 94
f 103 102 104
f 106 105 92
f 105 58 107
f 107 58 53
f 53 58 2
f 2 52 53
f 100 73 96
f 100 96 95
f 99 100 94
f 94 100 95
f 91 66 93
f 98 88 87
f 95 97 103
f 106 95 103
f 94 95 106
f 106 103 104
f 108 93 92
f 108 92 105
f 93 108 109
f 110 93 109
f 109 108 105
f 91 93 110
f 107 109 105
f 89 91 110
f 111 89 110
f 112 89 111
f 98 90 89
f 98 89 112
f 111 110 109
f 107 111 109
f 53 111 107
f 102 57 104
f 105 56 58
f 111 53 112
f 56 104 57
f 113 43 35
f 113 35 114
f 3 4 29
f 27 18 115
f 115 18 21
f 115 21 23
f 23 43 113
f 114 35 40
f 114 40 116
f 116 40 6
f 116 6 8
f 116 8 117
f 117 8 9
f 117 9 118
f 118 9 13
f 118 13 119
f 119 13 59
f 119 59 120
f 120 59 2
f 120 2 1
f 14 13 9
f 58 4 2
f 35 41 40
f 35 43 34
f 7 121 5
f 5 121 122
f 5 122 10
f 10 122 11
f 11 122 123
f 11 123 12
f 121 7 39
f 121 39 124
f 124 39 38
f 124 38 80
f 124 80 125
f 125 80 82
f 125 82 126
f 126 82 88
f 126 88 98
f 126 98 127
f 127 98 112
f 127 112 128
f 128 112 53
f 128 53 51
f 128 51 123
f 123 51 50
f 123 50 12
f 101 71 129
f 129 71 130
f 130 71 70
f 130 70 69
f 130 69 131
f 131 69 45
f 131 45 31
f 131 31 46
f 131 46 132
f 132 46 26
f 132 26 133
f 133 26 25
f 133 25 16
f 133 16 134
f 134 16 15
f 134 15 48
f 134 48 47
f 134 47 135
f 135 47 57
f 135 57 102
f 135 102 129
f 129 102 97
f 129 97 101
f 113 136 23
f 23 136 137
f 23 137 115
f 115 138 27
f 27 138 29
f 29 139 3
f 3 139 1
f 1 139 140
f 1 140 120
f 120 140 141
f 120 141 142
f 120 142 119
f 119 142 118
f 143 117 118
f 117 143 144
f 117 144 145
f 117 145 116
f 116 145 114
f 114 145 146
f 114 146 147
f 147 136 113
f 148 146 149
f 148 149 150
f 145 151 152
f 149 152 153
f 149 153 154
f 149 154 150
f 154 155 150
f 155 137 136
f 155 136 150
f 136 147 148
f 148 147 146
f 152 149 146
f 148 150 136
f 142 156 118
f 118 156 143
f 151 157 152
f 158 159 160
f 158 160 161
f 158 161 162
f 138 163 29
f 29 163 164
f 165 166 162
f 142 167 156
f 167 168 156
f 167 169 168
f 156 168 170
f 156 170 171
f 169 172 168
f 168 172 170
f 172 169 173
f 174 173 175
f 163 138 176
f 176 138 177
f 177 178 179
f 179 180 181
f 138 115 177
f 179 178 180
f 177 115 178
f 181 180 155
f 178 115 137
f 180 137 155
f 155 154 181
f 159 153 152
f 151 144 171
f 156 171 143
f 151 145 144
f 171 144 143
f 163 165 164
f 164 165 182
f 164 182 175
f 175 182 174
f 173 174 172
f 162 166 158
f 163 176 165
f 165 176 177
f 166 165 177
f 157 159 152
f 182 165 162
f 174 182 161
f 161 182 162
f 160 174 161
f 172 174 160
f 170 172 160
f 166 177 179
f 159 158 153
f 166 179 181
f 166 181 158
f 158 154 153
f 158 181 154
f 160 183 170
f 170 183 171
f 160 159 183
f 183 157 171
f 151 171 157
f 157 183 159
f 180 178 137
f 184 185 186
f 184 186 140
f 140 186 187
f 142 141 167
f 139 29 164
f 139 164 185
f 185 164 175
f 185 175 186
f 186 175 173
f 186 173 169
f 141 169 167
f 140 187 141
f 139 184 140
f 186 169 187
f 187 169 141
f 185 184 139
f 146 145 152
f 113 114 147
f 188 189 190
f 190 189 191
f 190 191 192
f 189 188 193
f 193 188 194
f 193 194 195
f 188 122 194
f 194 122 121
f 194 121 195
f 195 121 124
f 195 124 193
f 193 124 125
f 193 125 126
f 193 126 189
f 189 126 127
f 189 127 191
f 191 127 128
f 191 128 192
f 192 128 123
f 192 123 190
f 190 123 188
f 188 123 122
f 196 197 198
f 196 198 199
f 199 198 200
f 197 196 201
f 201 196 202
f 196 134 135
f 196 135 129
f 196 129 202
f 202 129 201
f 201 129 130
f 201 130 131
f 201 131 197
f 197 131 198
f 198 131 132
f 198 132 133
f 198 133 200
f 200 133 134
f 200 134 199
f 199 134 196

