v 0.45 5 7.65
v 0.4 5.05 7.65
v 0.45 5 7.55
v 0.4 5.05 7.55
v 0.3 5.05 7.05
v 0.4 5.05 7.05
v -0.3 5.05 7.65
v 2.3 4.2 8.03
v 1.92 4.2 7.65
v 2.3 5 8.03
v 1.92 5 7.65
v 0.7 5.8 8.8
v 0.9 5.8 8.6
v 0.7 4.2 8.8
v 0.9 4.2 8.6
v 0.9 5.8 8
v 0.7 5.8 7.8
v 0.9 4.2 8
v 0.7 4.2 7.8
v -0.9 5.8 8.6
v -0.7 5.8 8.8
v -0.9 4.2 8.6
v -0.7 4.2 8.8
v -0.7 5.8 7.8
v -0.9 5.8 8
v -0.7 4.2 7.8
v -0.9 4.2 8
v 0.65 5 7.16
v 0.65 5.4 7.16
v 0.56 5 7.07
v 0.56 5.4 7.07
v 0.56 5 7.05
v 0.56 5.4 7.05
v 1.14 5 7.05
v 1.14 5.4 7.05
v 1.14 5 7.07
v 1.14 5.4 7.07
v 1.05 5 7.16
v 1.05 5.4 7.16
v 0.95 5.4 7.05
v 0.95 5 7.05
v 0.95 5.4 7.55
v 0.95 5 7.55
v 0.75 5 7.55
v 0.75 5 7.05
v 0.75 5.4 7.55
v 0.75 5.4 7.05
v 1.05 5.4 7.55
v 1.05 5 7.55
v 0.65 5 7.55
v 0.65 5.4 7.55
v -0.791589 4.929615 12.65
v -0.791589 5.073087 12.843771
v 0.791589 4.929615 12.65
v 0.791589 5.073087 12.843771
v -0.977428 4.996935 12.52391
v -0.980702 5.001647 12.515083
v -1.016161 5.037515 12.538229
v -1.123859 5.146312 12.603757
v -1.112004 5.136905 12.634589
v -1.043344 5.065169 12.582528
v -1.108228 5.134374 12.642884
v -1.033355 5.057248 12.602929
v -1.099291 5.128984 12.660553
v -1.088268 5.123215 12.679462
v -1.021718 5.049673 12.622437
v -1.084481 5.121409 12.685381
v -1.008508 5.042498 12.640915
v -1.064344 5.112953 12.713097
v -0.993818 5.035771 12.658241
v -0.966242 4.999903 12.621886
v -0.952363 4.99367 12.635751
v -0.932576 4.960659 12.591854
v -0.948691 4.970314 12.573769
v -0.978928 5.00663 12.606923
v -0.938665 4.964035 12.585531
v -0.936483 4.962791 12.587861
v -0.990337 5.013805 12.590964
v -0.962501 4.98094 12.553868
v -1.000387 5.02138 12.574117
v -0.966304 4.984429 12.547334
v -1.009013 5.029301 12.556498
v -0.973801 4.992377 12.532446
v -0.974683 4.993433 12.530467
v -0.949348 4.970763 12.57293
v -0.952448 4.972943 12.568845
v -0.958956 4.977938 12.559492
v -0.797966 4.929669 12.649899
v -0.836824 5.002808 12.743135
v -0.824487 4.931071 12.647272
v -0.826672 4.931273 12.646895
v -0.859056 5.004616 12.738477
v -0.814284 5.001715 12.745947
v -0.808094 4.92998 12.649317
v -0.818881 4.930616 12.648126
v -0.860378 4.93613 12.637798
v -0.871881 4.938598 12.633175
v -0.880828 5.00713 12.732003
v -0.886936 4.974466 12.678462
v -0.901991 5.010334 12.72375
v -0.904563 4.978337 12.669852
v -0.922401 5.014205 12.71378
v -0.921418 4.98285 12.659816
v -0.941918 5.018718 12.702159
v -0.937388 4.987972 12.648423
v -0.960409 5.02384 12.688968
v -0.977749 5.029538 12.674294
v -0.89441 4.944807 12.621545
v -0.872916 4.938842 12.632718
v -0.880727 4.940807 12.629037
v -0.886725 4.942469 12.625924
v -0.839679 4.93275 12.644129
v -0.850226 4.934308 12.64121
v -0.85649 4.935394 12.639177
v -0.943566 5.083679 12.809053
v -0.932101 5.08207 12.814326
v -0.90705 5.079064 12.824178
v -0.869072 5.075738 12.83508
v -0.84916 5.074543 12.838997
v -0.830508 5.07375 12.841597
v -0.985429 5.010098 12.499255
v -1.021774 5.045966 12.519433
v -1.05162 5.073383 12.561375
v -1.058119 5.081834 12.53961
v -1.130809 5.153569 12.579966
v -0.900492 4.946833 12.61775
v -0.914367 4.952104 12.607878
v -0.918799 4.953999 12.604329
v -0.926978 4.957802 12.597206
v -1.048972 5.107507 12.73095
v -1.03691 5.103707 12.743405
v -1.028519 5.101273 12.751382
v -1.006451 5.095576 12.770058
v -0.978405 5.08957 12.789743
v -0.958077 5.085941 12.801637
v 1.016161 5.037515 12.538229
v 0.979688 5.000113 12.517958
v 0.974683 4.993433 12.530467
v 0.886936 4.974466 12.678462
v 0.871593 4.938531 12.633301
v 0.85649 4.935394 12.639177
v 0.941918 5.018718 12.702159
v 0.922401 5.014205 12.71378
v 0.958077 5.085941 12.801637
v 0.95554 5.085527 12.802995
v 0.880828 5.00713 12.732003
v 0.918929 5.080405 12.819783
v 0.901991 5.010334 12.72375
v 0.932101 5.08207 12.814326
v 0.904563 4.978337 12.669852
v 0.921418 4.98285 12.659816
v 0.914367 4.952104 12.607878
v 0.909112 4.949995 12.611828
v 0.900919 4.946982 12.617472
v 0.894402 4.944805 12.62155
v 0.890725 4.943656 12.623701
v 0.886725 4.942469 12.625924
v 0.872897 4.938837 12.632726
v 0.831606 4.931776 12.645952
v 0.836824 5.002808 12.743135
v 0.840656 4.93288 12.643885
v 0.859056 5.004616 12.738477
v 0.850209 4.934305 12.641216
v 0.826667 4.931273 12.646896
v 0.824487 4.931071 12.647272
v 0.814284 5.001715 12.745947
v 0.811232 4.930132 12.649032
v 0.851837 4.934576 12.64071
v 0.985429 5.010098 12.499255
v 1.021774 5.045966 12.519433
v 1.058119 5.081834 12.53961
v 1.043344 5.065169 12.582528
v 1.000387 5.02138 12.574117
v 1.033355 5.057248 12.602929
v 0.990337 5.013805 12.590964
v 1.021718 5.049673 12.622437
v 1.009013 5.029301 12.556498
v 0.9738 4.992376 12.532449
v 0.978928 5.00663 12.606923
v 1.008508 5.042498 12.640915
v 0.966242 4.999903 12.621886
v 0.993818 5.035771 12.658241
v 0.958956 4.977938 12.559492
v 0.957308 4.976615 12.561969
v 0.952363 4.99367 12.635751
v 0.977749 5.029538 12.674294
v 0.937388 4.987972 12.648423
v 0.960409 5.02384 12.688968
v 0.938665 4.964035 12.585531
v 0.932579 4.960661 12.591851
v 0.949348 4.970763 12.57293
v 0.948694 4.970317 12.573766
v 0.94288 4.966556 12.580809
v 0.969719 4.987847 12.540931
v 0.967419 4.985512 12.545304
v 0.962502 4.98094 12.553868
v 1.05162 5.073383 12.561375
v 1.122538 5.145118 12.607668
v 1.130809 5.153569 12.579966
v 1.11793 5.141277 12.620258
v 1.077998 5.118493 12.694942
v 1.084481 5.121409 12.685381
v 1.100234 5.129519 12.658801
v 1.112004 5.136905 12.634589
v 0.802792 5.073141 12.843593
v 0.842193 5.07421 12.840088
v 0.880955 5.076627 12.832166
v 0.905167 5.078865 12.824831
v 0.990288 5.091963 12.7819
v 0.926817 4.957723 12.597354
v 1.006451 5.095576 12.770058
v 1.022379 5.099591 12.756897
v 1.028519 5.101273 12.751382
v 1.051929 5.108498 12.727701
v 1.067667 5.114234 12.7089
v -1.342581 5.438915 11.093687
v -1.487961 5.582387 11.1744
v 1.487961 5.582387 11.1744
v 1.342581 5.438915 11.093687
v -1.531828 5.633103 10.996423
v -1.386448 5.48811 10.92105
v -1.576128 5.677197 10.816692
v -1.430748 5.530881 10.746711
v -1.620798 5.714613 10.635452
v -1.475419 5.567174 10.570908
v -1.66578 5.745297 10.452953
v -1.5204 5.596938 10.393884
v -1.711011 5.769203 10.269441
v -1.565631 5.620127 10.215878
v -1.756429 5.786302 10.085172
v -1.611049 5.636713 10.037137
v -1.801972 5.796575 9.900396
v -1.656592 5.646677 9.857904
v -1.847577 5.8 9.715366
v -1.702197 5.65 9.678425
v 1.847577 5.8 9.715366
v 1.702197 5.65 9.678425
v 1.801972 5.796575 9.900396
v 1.656592 5.646677 9.857904
v 1.756429 5.786302 10.085172
v 1.611049 5.636713 10.037137
v 1.711011 5.769203 10.269441
v 1.565631 5.620127 10.215878
v 1.66578 5.745297 10.452953
v 1.5204 5.596938 10.393884
v 1.620798 5.714613 10.635452
v 1.475419 5.567174 10.570908
v 1.576128 5.677197 10.816692
v 1.430748 5.530881 10.746711
v 1.531828 5.633103 10.996423
v 1.386448 5.48811 10.92105
v -1.854989 5.8 9.686195
v -1.709609 5.65 9.649255
v 1.709609 5.65 9.649255
v 1.854989 5.8 9.686195
v -1.515769 5.65 9.4
v -1.515769 5.8 9.25
v -1.539877 5.65 9.401458
v -1.557957 5.8 9.252552
v -1.563632 5.65 9.405811
v -1.59953 5.8 9.260171
v -1.58669 5.65 9.412997
v -1.639881 5.8 9.272744
v -1.608714 5.65 9.422909
v -1.678422 5.8 9.29009
v -1.629382 5.65 9.435403
v -1.714592 5.8 9.311956
v -1.648394 5.65 9.450298
v -1.747862 5.8 9.338021
v -1.665471 5.65 9.467375
v -1.777748 5.8 9.367907
v -1.680366 5.65 9.486387
v -1.803814 5.8 9.401177
v -1.69286 5.65 9.507056
v -1.825679 5.8 9.437347
v -1.702773 5.65 9.529079
v -1.843025 5.8 9.475888
v -1.709958 5.65 9.552137
v -1.855599 5.8 9.516239
v -1.714311 5.65 9.575893
v -1.863217 5.8 9.557812
v -1.715769 5.65 9.6
v -1.865769 5.8 9.6
v 1.714145 5.65 9.625436
v 1.862927 5.8 9.644512
v 1.715765 5.65 9.601243
v 1.865763 5.8 9.602175
v 1.714446 5.65 9.577032
v 1.863454 5.8 9.559806
v 1.710207 5.65 9.553159
v 1.856035 5.8 9.518027
v 1.703109 5.65 9.529974
v 1.843615 5.8 9.477454
v 1.693259 5.65 9.507818
v 1.826376 5.8 9.438682
v 1.680799 5.65 9.487017
v 1.804572 5.8 9.40228
v 1.665914 5.65 9.467877
v 1.778523 5.8 9.368785
v 1.648823 5.65 9.450679
v 1.748613 5.8 9.338688
v 1.629775 5.65 9.435675
v 1.71528 5.8 9.312432
v 1.609052 5.65 9.423087
v 1.679015 5.8 9.290402
v 1.586958 5.65 9.413099
v 1.64035 5.8 9.272923
v 1.563818 5.65 9.405857
v 1.599855 5.8 9.260251
v 1.539971 5.65 9.40147
v 1.558123 5.8 9.252572
v 1.515769 5.65 9.4
v 1.515769 5.8 9.25
v 2.3 5.75 7.55
v 2.25 5.8 7.5
v 2.3 5.75 8.920515
v 2.25 5.8 8.927415
v 2.3 5.742236 8.95
v 2.049783 5.8 9.715366
v 2.102141 5.742236 9.728671
v 1.683328 5.582387 11.1744
v 1.735686 5.527136 11.170847
v 1.728029 5.633104 10.996423
v 1.780387 5.577267 10.994927
v 1.773171 5.6772 10.816692
v 1.825529 5.620854 10.817273
v 1.818692 5.714614 10.635452
v 1.87105 5.657837 10.638127
v 1.864529 5.745297 10.452953
v 1.916887 5.688165 10.457735
v 1.91062 5.769205 10.269441
v 1.962978 5.711796 10.276344
v 1.956902 5.786306 10.085172
v 2.00926 5.728699 10.094204
v 2.003311 5.796575 9.900396
v 2.055669 5.73885 9.911562
v 0.762314 4.35845 15.00154
v 0.716827 4.421951 14.978049
v 0.680837 4.35 15.05
v -0.7 4.35 15.05
v -0.716827 4.421951 14.978049
v 0.762314 4.2 15.00154
v 0.680837 4.2 15.05
v -0.767033 4.364117 14.982968
v -1.735686 5.527136 11.170847
v -1.683328 5.582387 11.1744
v -0.7 4.2 15.05
v -0.767033 4.2 14.982968
v -2.049783 5.8 9.715366
v -2.102141 5.742236 9.728671
v -2.003311 5.796575 9.900396
v -2.055669 5.73885 9.911562
v -1.956902 5.786306 10.085172
v -2.00926 5.728699 10.094204
v -1.91062 5.769205 10.269441
v -1.962978 5.711796 10.276344
v -1.864529 5.745297 10.452953
v -1.916887 5.688165 10.457735
v -1.818692 5.714614 10.635452
v -1.87105 5.657837 10.638127
v -1.773171 5.6772 10.816692
v -1.825529 5.620854 10.817273
v -1.728029 5.633104 10.996423
v -1.780387 5.577267 10.994927
v -2.3 5.742236 8.95
v -2.25 5.8 8.927415
v -2.3 5.75 8.920515
v -2.3 5.75 8.032843
v -2.25 5.8 7.982843
v 2.17 5.8 7.42
v 1.8 5.43 7.05
v 1.3 5.8 7.42
v 1.3 5.43 7.05
v 0.3 5.43 7.05
v -0.07 5.8 7.42
v 0.4 5.43 7.05
v 0.4 5.8 7.42
v -2.033898 5.8 8.553442
v -1.856383 5.8 8.42447
v -1.866721 5.8 8.400423
v 1.325191 5.8 8.37553
v 1.31942 5.8 8.35
v 1.1 5.8 8.35
v -1.443246 5.8 8.538019
v -1.465743 5.8 8.551396
v -1.397939 5.8 8.760078
v -2.1 5.8 8.35
v -1.866721 5.8 8.199577
v -1.856383 5.8 8.17553
v -2.033898 5.8 8.046558
v 1.443246 5.8 8.061981
v 1.465743 5.8 8.048604
v 1.397939 5.8 7.839922
v 0.4 5.8 7.55
v -1.874809 5.8 8.37553
v -1.88058 5.8 8.35
v -2.1 5.8 8.25
v -1.88058 5.8 8.25
v -1.874809 5.8 8.22447
v -1.42207 5.8 8.522634
v -1.917157 5.8 7.65
v -1.975119 5.8 7.965656
v -1.797605 5.8 8.094628
v -0.3 5.8 7.65
v -1.706956 5.8 7.809021
v -1.802061 5.8 7.839922
v -1.586913 5.8 8.015301
v -1.560849 5.8 8.017702
v -1.493044 5.8 7.809021
v -1.224881 5.8 8.634344
v -1.166102 5.8 8.553442
v -1.42207 5.8 8.077366
v -1.402396 5.8 8.094628
v -1.224881 5.8 7.965656
v -1.333279 5.8 8.400423
v -1.343617 5.8 8.42447
v 1.493044 5.8 7.809021
v 1.560849 5.8 8.017702
v 1.586913 5.8 8.015301
v 1.3 5.8 7.55
v 1.706956 5.8 7.809021
v 1.586913 5.8 8.584699
v 1.560849 5.8 8.582298
v 1.493044 5.8 8.790979
v 1.343617 5.8 8.42447
v 1.333279 5.8 8.400423
v -1.77793 5.8 8.077366
v -1.756754 5.8 8.061981
v -1.734257 5.8 8.048604
v -1.166102 5.8 8.046558
v 1.802061 5.8 7.839922
v 1.734257 5.8 8.048604
v 1.975119 5.8 7.965656
v 2.033898 5.8 8.046558
v 1.856383 5.8 8.17553
v 1.866721 5.8 8.199577
v 1.866721 5.8 8.400423
v 1.856383 5.8 8.42447
v 2.033898 5.8 8.553442
v 1.224881 5.8 8.634344
v 1.166102 5.8 8.553442
v -1.613087 5.8 8.015301
v -1.397939 5.8 7.839922
v -1.465743 5.8 8.048604
v -1.443246 5.8 8.061981
v 1.613087 5.8 8.015301
v 1.639151 5.8 8.017702
v 1.797605 5.8 8.094628
v 1.77793 5.8 8.077366
v 1.756754 5.8 8.061981
v 1.706956 5.8 8.790979
v 1.639151 5.8 8.582298
v 1.613087 5.8 8.584699
v -1.77793 5.8 8.522634
v -1.797605 5.8 8.505372
v -1.975119 5.8 8.634344
v -1.639151 5.8 8.017702
v 1.333279 5.8 8.199577
v 1.343617 5.8 8.17553
v 1.166102 5.8 8.046558
v -1.325191 5.8 8.37553
v 2.1 5.8 8.25
v 1.874809 5.8 8.22447
v 1.88058 5.8 8.25
v 2.1 5.8 8.35
v 1.88058 5.8 8.35
v 1.874809 5.8 8.37553
v 1.975119 5.8 8.634344
v 1.734257 5.8 8.551396
v 1.802061 5.8 8.760078
v 1.756754 5.8 8.538019
v 1.77793 5.8 8.522634
v 1.797605 5.8 8.505372
v 1.397939 5.8 8.760078
v -1.493044 5.8 8.790979
v -1.560849 5.8 8.582298
v -1.802061 5.8 8.760078
v -1.734257 5.8 8.551396
v -1.756754 5.8 8.538019
v -1.1 5.8 8.35
v -1.31942 5.8 8.35
v 1.42207 5.8 8.077366
v 1.224881 5.8 7.965656
v 1.402396 5.8 8.094628
v 1.42207 5.8 8.522634
v 1.402396 5.8 8.505372
v 1.465743 5.8 8.551396
v 1.443246 5.8 8.538019
v -1.639151 5.8 8.582298
v -1.706956 5.8 8.790979
v -1.613087 5.8 8.584699
v -1.586913 5.8 8.584699
v -1.864566 5.8 9.628997
v 1.1 5.8 8.25
v 1.31942 5.8 8.25
v 1.325191 5.8 8.22447
v -1.343617 5.8 8.17553
v -1.333279 5.8 8.199577
v -1.325191 5.8 8.22447
v -1.402396 5.8 8.505372
v -1.1 5.8 8.25
v -1.31942 5.8 8.25
v -1.860964 5.8 9.657795
v 2.1 4.2 8.25
v 2.1 4.2 8.35
v 1.88058 4.2 8.25
v 1.88058 4.2 8.35
v 2.033898 4.2 8.553442
v 1.975119 4.2 8.634344
v 1.797605 4.2 8.505372
v 1.856383 4.2 8.42447
v 1.802061 4.2 8.760078
v 1.706956 4.2 8.790979
v 1.639151 4.2 8.582298
v 1.734257 4.2 8.551396
v 1.493044 4.2 8.790979
v 1.397939 4.2 8.760078
v 1.465743 4.2 8.551396
v 1.560849 4.2 8.582298
v 1.224881 4.2 8.634344
v 1.166102 4.2 8.553442
v 1.343617 4.2 8.42447
v 1.402396 4.2 8.505372
v 1.1 4.2 8.35
v 1.1 4.2 8.25
v 1.31942 4.2 8.25
v 1.31942 4.2 8.35
v 1.166102 4.2 8.046558
v 1.224881 4.2 7.965656
v 1.402396 4.2 8.094628
v 1.343617 4.2 8.17553
v 1.397939 4.2 7.839922
v 1.493044 4.2 7.809021
v 1.560849 4.2 8.017702
v 1.465743 4.2 8.048604
v 1.706956 4.2 7.809021
v 1.802061 4.2 7.839922
v 1.734257 4.2 8.048604
v 1.639151 4.2 8.017702
v 1.975119 4.2 7.965656
v 2.033898 4.2 8.046558
v 1.856383 4.2 8.17553
v 1.797605 4.2 8.094628
v -1.166102 4.2 8.553442
v -1.224881 4.2 8.634344
v -1.343617 4.2 8.42447
v -1.402396 4.2 8.505372
v -1.397939 4.2 8.760078
v -1.493044 4.2 8.790979
v -1.560849 4.2 8.582298
v -1.465743 4.2 8.551396
v -1.706956 4.2 8.790979
v -1.802061 4.2 8.760078
v -1.734257 4.2 8.551396
v -1.639151 4.2 8.582298
v -1.975119 4.2 8.634344
v -2.033898 4.2 8.553442
v -1.856383 4.2 8.42447
v -1.797605 4.2 8.505372
v -2.1 4.2 8.35
v -2.1 4.2 8.25
v -1.88058 4.2 8.25
v -1.88058 4.2 8.35
v -2.033898 4.2 8.046558
v -1.975119 4.2 7.965656
v -1.797605 4.2 8.094628
v -1.856383 4.2 8.17553
v -1.802061 4.2 7.839922
v -1.706956 4.2 7.809021
v -1.639151 4.2 8.017702
v -1.734257 4.2 8.048604
v -1.493044 4.2 7.809021
v -1.397939 4.2 7.839922
v -1.465743 4.2 8.048604
v -1.560849 4.2 8.017702
v -1.224881 4.2 7.965656
v -1.166102 4.2 8.046558
v -1.343617 4.2 8.17553
v -1.402396 4.2 8.094628
v -1.1 4.2 8.25
v -1.1 4.2 8.35
v -1.31942 4.2 8.25
v -1.31942 4.2 8.35
v 1.874809 4.2 8.22447
v 1.866721 4.2 8.199577
v -1.333279 4.2 8.400423
v -1.325191 4.2 8.37553
v 1.392333 4.5 11.71
v 2.007669 5.137275 9.288354
v 2.068235 4.5 9.05
v 2.068235 4.953531 9.05
v 1.598689 4.5 11.71
v 2.27459 4.5 9.05
v -1.392333 4.5 11.71
v -2.068235 4.5 9.05
v -2.007669 5.137275 9.288354
v -2.068235 4.953531 9.05
v -2.27459 4.5 9.05
v -1.598689 4.5 11.71
v 1.3 5 7.55
v 1.3 5 7.05
v 1.8 5 7.05
v 2.3 5 7.55
v -1.917157 4.2 7.65
v -2.3 4.2 8.032843
v -1.515769 5.107895 9.4
v -1.536911 5.1076 9.401121
v -1.539878 5.107511 9.401459
v -1.560198 5.10658 9.404997
v -1.563635 5.106365 9.405812
v -1.582796 5.104851 9.411566
v -1.586695 5.104474 9.412998
v -1.60438 5.102447 9.420702
v -1.60872 5.101865 9.422912
v -1.624705 5.099402 9.432271
v -1.629389 5.098577 9.435408
v -1.643527 5.095757 9.446124
v -1.648401 5.094657 9.450304
v -1.660621 5.091554 9.462094
v -1.665478 5.090162 9.467383
v -1.675734 5.086855 9.479954
v -1.680371 5.085159 9.486395
v -1.688669 5.081718 9.499473
v -1.692864 5.07972 9.507063
v -1.699237 5.076216 9.52038
v -1.702775 5.073925 9.529086
v -1.707286 5.070429 9.542371
v -1.709959 5.067857 9.552142
v -1.712703 5.064444 9.565113
v -1.714311 5.061607 9.575895
v -1.715424 5.058353 9.58826
v -1.715769 5.055263 9.6
v -0.985429 4.292302 12.499255
v -0.979041 4.286914 12.519725
v -0.973793 4.28356 12.532473
v -0.968918 4.280924 12.54249
v -0.962488 4.277923 12.553892
v -0.956182 4.275364 12.563618
v -0.948676 4.272687 12.573788
v -0.941183 4.27033 12.582747
v -0.93256 4.267929 12.591869
v -0.924251 4.265876 12.599669
v -0.914376 4.263718 12.607871
v -0.905941 4.262083 12.614084
v -0.894391 4.260117 12.621557
v -0.886145 4.258885 12.626236
v -0.872896 4.257177 12.632727
v -0.865375 4.256344 12.635892
v -0.850209 4.254943 12.641216
v -0.843923 4.254465 12.643031
v -0.826662 4.253447 12.646901
v -0.822064 4.253246 12.647665
v -0.802601 4.252711 12.649696
v -0.800051 4.252679 12.649821
v -0.791589 4.252632 12.65
v 0.826663 4.253447 12.6469
v 0.812652 4.252924 12.648888
v 0.791589 4.252632 12.65
v 0.83576 4.253931 12.645061
v 0.85021 4.254943 12.641216
v 0.85819 4.255635 12.638585
v 0.872896 4.257177 12.632727
v 0.879633 4.258006 12.629578
v 0.894389 4.260116 12.621558
v 0.899847 4.261008 12.618167
v 0.914373 4.263718 12.607874
v 0.918597 4.264606 12.604496
v 0.932557 4.267928 12.591873
v 0.935638 4.268752 12.588744
v 0.948672 4.272686 12.573794
v 0.950752 4.273393 12.571108
v 0.962484 4.277922 12.553898
v 0.963729 4.278468 12.551822
v 0.97379 4.283558 12.532479
v 0.974385 4.283908 12.531151
v 0.982567 4.289634 12.509393
v 0.985429 4.292302 12.499255
v 1.67992 5.085331 9.485744
v 1.680801 5.084995 9.487019
v 1.709609 5.042302 9.649255
v 1.713792 5.047882 9.62805
v 1.714145 5.04857 9.625435
v 1.715751 5.054552 9.602704
v 1.715765 5.054936 9.601243
v 1.714485 5.061219 9.577367
v 1.710207 5.06759 9.553159
v 1.70311 5.073691 9.529975
v 1.710074 5.067733 9.552613
v 1.692546 5.079879 9.50646
v 1.69326 5.079521 9.50782
v 1.702687 5.073986 9.528854
v 1.648825 5.094558 9.450681
v 1.650462 5.09417 9.452155
v 1.665916 5.090032 9.467879
v 1.666932 5.089725 9.469043
v 1.609057 5.101818 9.42309
v 1.61301 5.101255 9.425231
v 1.629779 5.098506 9.435678
v 1.632378 5.098023 9.437512
v 1.563822 5.106353 9.405859
v 1.571599 5.105803 9.407951
v 1.586963 5.104447 9.4131
v 1.592656 5.10385 9.415369
v 1.515769 5.107895 9.4
v 1.528428 5.107789 9.400401
v 1.539974 5.107508 9.40147
v 1.550107 5.107113 9.402969
v -1.709609 5.042302 9.649255
v -2.3 4.2 8.95
v -2.27459 4.2 9.05
v -1.309016 4.2 12.85
v 2.27459 4.2 9.05
v 2.3 4.2 8.95
v 1.309016 4.2 12.85
v -1.866721 4.2 8.400423
v -1.77793 4.2 8.077366
v 1.874809 4.2 8.37553
v -1.874809 4.2 8.22447
v -1.42207 4.2 8.522634
v -1.613087 4.2 8.015301
v -1.443246 4.2 8.538019
v 1.866721 4.2 8.400423
v -1.756754 4.2 8.061981
v -1.874809 4.2 8.37553
v -1.613087 4.2 8.584699
v -1.443246 4.2 8.061981
v 1.586913 4.2 8.015301
v -1.866721 4.2 8.199577
v 1.613087 4.2 8.015301
v 1.42207 4.2 8.077366
v -1.756754 4.2 8.538019
v -1.77793 4.2 8.522634
v -1.586913 4.2 8.584699
v 1.443246 4.2 8.061981
v 1.325191 4.2 8.22447
v 1.613087 4.2 8.584699
v 1.42207 4.2 8.522634
v -1.42207 4.2 8.077366
v -1.586913 4.2 8.015301
v 1.586913 4.2 8.584699
v 1.333279 4.2 8.199577
v 1.443246 4.2 8.538019
v 1.333279 4.2 8.400423
v 1.325191 4.2 8.37553
v 1.77793 4.2 8.522634
v 1.756754 4.2 8.538019
v -1.333279 4.2 8.199577
v -1.325191 4.2 8.22447
v 1.77793 4.2 8.077366
v 1.756754 4.2 8.061981
v -1.714651 5.049706 9.621119
v -1.713024 5.046573 9.633022
v -1.710917 5.04374 9.643788
v -1.715082 5.65 9.61657
v -1.713024 5.65 9.633025
v 0.64 -0.2 7.55
v 0.64 -0.224 7.526
v 1.112662 -0.2 7.55
v 0.82 -0.289515 7.460485
v 1.111369 -0.202704 7.547296
v 1.100213 -0.223044 7.526956
v 1.064028 -0.268285 7.481715
v 1.082885 -0.247575 7.502425
v 1.098436 -0.225889 7.52411
v 0.82 -0.3 7.45
v 1.02339 -0.3 7.45
v 1.044356 -0.285436 7.464565
v 1.335 4.785 7.1
v 1.3 4.82 7.1
v 1.335 4.785 7.465
v 1.3 4.82 7.5
v 1.3 5.8 7.419706
v 1.3 5.8 7.5
v 1.3 5.480294 7.1
v 1.25 5.8 7.55
v 1.25 4.65 7.55
v 1.335 4.735 7.465
v 0.45 5.8 7.55
v 0.4 5.8 7.5
v 0.45 4.99 7.55
v 0.4 5.04 7.5
v 1.06 5.405 7.15
v 1.11 5.405 7.1
v 1.06 4.995 7.15
v 1.11 4.995 7.1
v 0.64 4.995 7.15
v 0.59 4.995 7.1
v 0.64 5.405 7.15
v 0.59 5.405 7.1
v 1.16 5.405 7.55
v 1.06 5.405 7.45
v 1.16 4.995 7.55
v 1.06 4.995 7.45
v 0.54 4.995 7.55
v 0.64 4.995 7.45
v 0.54 5.405 7.55
v 0.64 5.405 7.45
v 0.4 5.04 7.1
v 0.64 4.8 7.1
v 0.64 4.8 7.55
v 1.02339 -0.3 7.39
v 1.045175 -0.284795 7.39
v 1.065106 -0.267228 7.39
v 1.082926 -0.247524 7.39
v 1.098408 -0.225934 7.39
v 1.111354 -0.202734 7.39
v 1.121599 -0.178222 7.39
v 1.121599 -0.178222 7.55
v 1.129012 -0.15271 7.39
v 1.129012 -0.15271 7.55
v 1.133498 -0.126525 7.39
v 1.133498 -0.126525 7.55
v 1.135 -0.1 7.39
v 1.135 -0.1 7.55
v 1.22339 -0.3 7.39
v 1.22339 -0.3 7.1
v 1.245175 -0.284795 7.1
v 1.245175 -0.284795 7.39
v 1.265106 -0.267228 7.1
v 1.265106 -0.267228 7.39
v 1.282926 -0.247524 7.1
v 1.282926 -0.247524 7.39
v 1.298408 -0.225934 7.1
v 1.298408 -0.225934 7.39
v 1.311354 -0.202734 7.1
v 1.311354 -0.202734 7.39
v 1.321599 -0.178222 7.1
v 1.321599 -0.178222 7.39
v 1.329012 -0.15271 7.1
v 1.329012 -0.15271 7.39
v 1.333498 -0.126525 7.1
v 1.333498 -0.126525 7.39
v 1.335 -0.1 7.1
v 1.335 -0.1 7.39
v 1.335 4.735 7.39
v 1.135 4.535 7.39
v 1.135 4.535 7.55
v 0.64 4.599 7.1
v 0.64 4.5488 7.1
v 0.64 4.599 7.55
v 0.64 4.5488 7.55
v 0.64 4.2976 7.55
v 0.64 4.3478 7.55
v 0.64 4.2976 7.1
v 0.64 4.3478 7.1
v 0.64 4.0464 7.55
v 0.64 4.0966 7.55
v 0.64 4.0464 7.1
v 0.64 4.0966 7.1
v 0.64 3.7952 7.55
v 0.64 3.8454 7.55
v 0.64 3.7952 7.1
v 0.64 3.8454 7.1
v 0.64 3.544 7.55
v 0.64 3.5942 7.55
v 0.64 3.544 7.1
v 0.64 3.5942 7.1
v 0.64 3.2928 7.55
v 0.64 3.343 7.55
v 0.64 3.2928 7.1
v 0.64 3.343 7.1
v 0.64 3.0416 7.55
v 0.64 3.0918 7.55
v 0.64 3.0416 7.1
v 0.64 3.0918 7.1
v 0.64 2.7904 7.55
v 0.64 2.8406 7.55
v 0.64 2.7904 7.1
v 0.64 2.8406 7.1
v 0.64 2.5392 7.55
v 0.64 2.5894 7.55
v 0.64 2.5392 7.1
v 0.64 2.5894 7.1
v 0.64 2.288 7.55
v 0.64 2.3382 7.55
v 0.64 2.288 7.1
v 0.64 2.3382 7.1
v 0.64 2.0368 7.55
v 0.64 2.087 7.55
v 0.64 2.0368 7.1
v 0.64 2.087 7.1
v 0.64 1.7856 7.55
v 0.64 1.8358 7.55
v 0.64 1.7856 7.1
v 0.64 1.8358 7.1
v 0.64 1.5344 7.55
v 0.64 1.5846 7.55
v 0.64 1.5344 7.1
v 0.64 1.5846 7.1
v 0.64 1.2832 7.55
v 0.64 1.3334 7.55
v 0.64 1.2832 7.1
v 0.64 1.3334 7.1
v 0.64 1.032 7.55
v 0.64 1.0822 7.55
v 0.64 1.032 7.1
v 0.64 1.0822 7.1
v 0.64 0.7808 7.55
v 0.64 0.831 7.55
v 0.64 0.7808 7.1
v 0.64 0.831 7.1
v 0.64 0.5296 7.55
v 0.64 0.5798 7.55
v 0.64 0.5296 7.1
v 0.64 0.5798 7.1
v 0.64 0.2784 7.55
v 0.64 0.3286 7.55
v 0.64 0.2784 7.1
v 0.64 0.3286 7.1
v 0.64 0.0272 7.55
v 0.64 0.0774 7.55
v 0.64 0.0272 7.1
v 0.64 0.0774 7.1
v 0.64 -0.224 7.1
v 0.64 -0.1738 7.1
v 0.64 -0.1738 7.55
v 0.4 5.480294 7.1
v 0.4 5.8 7.419706
v 0.82 -0.289515 7.1
v 0.82 -0.3 7.1
v 0.82 -0.108285 7.1
v 0.82 -0.108285 7.55
v 0.82 -0.038315 7.1
v 0.82 -0.038315 7.55
v 0.82 0.142915 7.1
v 0.82 0.142915 7.55
v 0.82 0.212885 7.1
v 0.82 0.212885 7.55
v 0.82 0.394115 7.1
v 0.82 0.394115 7.55
v 0.82 0.464085 7.1
v 0.82 0.464085 7.55
v 0.82 0.645315 7.1
v 0.82 0.645315 7.55
v 0.82 0.715285 7.1
v 0.82 0.715285 7.55
v 0.82 0.896515 7.1
v 0.82 0.896515 7.55
v 0.82 0.966485 7.1
v 0.82 0.966485 7.55
v 0.82 1.147715 7.1
v 0.82 1.147715 7.55
v 0.82 1.217685 7.1
v 0.82 1.217685 7.55
v 0.82 1.398915 7.1
v 0.82 1.398915 7.55
v 0.82 1.468885 7.1
v 0.82 1.468885 7.55
v 0.82 1.650115 7.1
v 0.82 1.650115 7.55
v 0.82 1.720085 7.1
v 0.82 1.720085 7.55
v 0.82 1.901315 7.1
v 0.82 1.901315 7.55
v 0.82 1.971285 7.1
v 0.82 1.971285 7.55
v 0.82 2.152515 7.1
v 0.82 2.152515 7.55
v 0.82 2.222485 7.1
v 0.82 2.222485 7.55
v 0.82 2.403715 7.1
v 0.82 2.403715 7.55
v 0.82 2.473685 7.1
v 0.82 2.473685 7.55
v 0.82 2.654914 7.1
v 0.82 2.654914 7.55
v 0.82 2.724886 7.1
v 0.82 2.724886 7.55
v 0.82 2.906115 7.1
v 0.82 2.906115 7.55
v 0.82 2.976085 7.1
v 0.82 2.976085 7.55
v 0.82 3.157315 7.1
v 0.82 3.157315 7.55
v 0.82 3.227285 7.1
v 0.82 3.227285 7.55
v 0.82 3.408515 7.1
v 0.82 3.408515 7.55
v 0.82 3.478485 7.1
v 0.82 3.478485 7.55
v 0.82 3.729685 7.55
v 0.82 3.729685 7.1
v 0.82 3.659715 7.55
v 0.82 3.659715 7.1
v 0.82 3.980885 7.55
v 0.82 3.980885 7.1
v 0.82 3.910915 7.55
v 0.82 3.910915 7.1
v 0.82 4.232085 7.55
v 0.82 4.232085 7.1
v 0.82 4.162115 7.55
v 0.82 4.162115 7.1
v 0.82 4.483285 7.55
v 0.82 4.483285 7.1
v 0.82 4.413315 7.55
v 0.82 4.413315 7.1
v 0.82 4.734485 7.55
v 0.82 4.734485 7.1
v 0.82 4.664515 7.55
v 0.82 4.664515 7.1
f 1 2 3
f 3 2 4
f 5 6 7
f 7 6 4
f 7 4 2
f 8 9 10
f 10 9 11
f 12 13 14
f 14 13 15
f 16 17 18
f 18 17 19
f 20 21 22
f 22 21 23
f 24 25 26
f 26 25 27
f 28 29 30
f 30 29 31
f 30 31 32
f 32 31 33
f 34 35 36
f 36 35 37
f 36 37 38
f 38 37 39
f 40 41 42
f 42 41 43
f 44 45 46
f 46 45 47
f 39 48 38
f 38 48 49
f 28 50 29
f 29 50 51
f 37 35 39
f 39 35 40
f 39 40 48
f 48 40 42
f 35 34 40
f 40 34 41
f 52 53 54
f 54 53 55
f 56 57 58
f 59 60 61
f 61 60 62
f 61 62 63
f 62 64 63
f 63 64 65
f 63 65 66
f 66 65 67
f 66 67 68
f 68 67 69
f 68 69 70
f 71 72 73
f 74 75 76
f 76 75 71
f 76 71 77
f 77 71 73
f 78 79 80
f 80 79 81
f 80 81 82
f 82 81 83
f 82 83 84
f 74 85 75
f 75 85 86
f 75 86 78
f 78 86 87
f 78 87 79
f 53 52 88
f 89 90 91
f 89 91 92
f 53 88 93
f 93 88 94
f 93 94 89
f 89 94 95
f 89 95 90
f 96 97 98
f 98 97 99
f 98 99 100
f 100 99 101
f 102 103 104
f 104 103 105
f 104 105 106
f 106 105 72
f 106 72 107
f 107 72 71
f 107 71 70
f 70 71 75
f 70 75 68
f 68 75 78
f 68 78 66
f 66 78 80
f 66 80 63
f 63 80 82
f 63 82 61
f 108 103 101
f 101 103 102
f 101 102 100
f 97 109 99
f 99 109 110
f 99 110 101
f 101 110 111
f 101 111 108
f 91 112 92
f 92 112 113
f 92 113 98
f 98 113 114
f 98 114 96
f 102 115 100
f 100 115 116
f 100 116 98
f 98 116 117
f 98 117 92
f 92 117 118
f 92 118 89
f 89 118 119
f 89 119 93
f 93 119 120
f 93 120 53
f 57 121 58
f 58 121 122
f 58 122 123
f 123 122 124
f 123 124 125
f 84 56 82
f 82 56 58
f 82 58 61
f 61 58 123
f 61 123 59
f 59 123 125
f 108 126 103
f 103 126 127
f 103 127 105
f 105 127 128
f 105 128 72
f 72 128 129
f 72 129 73
f 69 130 70
f 70 130 131
f 70 131 107
f 107 131 132
f 107 132 106
f 106 132 133
f 106 133 104
f 104 133 134
f 104 134 102
f 102 134 135
f 102 135 115
f 136 137 138
f 139 140 141
f 142 143 144
f 144 143 145
f 146 147 148
f 148 147 149
f 148 149 145
f 139 143 150
f 150 143 142
f 150 142 151
f 152 153 151
f 151 153 154
f 151 154 150
f 150 154 155
f 155 156 150
f 150 156 157
f 150 157 139
f 139 157 158
f 139 158 140
f 159 160 161
f 161 160 162
f 161 162 163
f 159 164 160
f 160 164 165
f 160 165 166
f 166 165 167
f 166 167 54
f 145 143 148
f 148 143 139
f 148 139 146
f 146 139 141
f 146 141 162
f 162 141 168
f 162 168 163
f 169 137 170
f 170 137 136
f 170 136 171
f 172 173 174
f 174 173 175
f 174 175 176
f 177 138 178
f 176 179 180
f 180 179 181
f 180 181 182
f 176 175 179
f 179 175 183
f 179 183 184
f 182 185 186
f 186 185 187
f 186 187 188
f 182 181 185
f 185 181 189
f 185 189 190
f 184 191 179
f 179 191 192
f 179 192 181
f 181 192 193
f 181 193 189
f 178 194 173
f 173 194 195
f 173 195 175
f 175 195 196
f 175 196 183
f 138 177 136
f 136 177 197
f 136 197 171
f 171 197 198
f 171 198 199
f 178 173 177
f 177 173 172
f 177 172 197
f 197 172 200
f 197 200 198
f 180 201 176
f 176 201 202
f 176 202 174
f 174 202 203
f 174 203 172
f 172 203 204
f 172 204 200
f 54 55 166
f 166 55 205
f 166 205 160
f 160 205 206
f 160 206 162
f 162 206 207
f 162 207 146
f 146 207 208
f 146 208 147
f 144 209 142
f 142 209 188
f 142 188 151
f 151 188 187
f 151 187 152
f 152 187 185
f 152 185 210
f 210 185 190
f 209 211 188
f 188 211 212
f 188 212 186
f 186 212 213
f 186 213 182
f 182 213 214
f 182 214 180
f 180 214 215
f 180 215 201
f 122 121 216
f 122 216 124
f 124 216 217
f 124 217 125
f 199 218 171
f 171 218 219
f 171 219 170
f 170 219 169
f 217 216 220
f 220 216 221
f 220 221 222
f 222 221 223
f 222 223 224
f 224 223 225
f 224 225 226
f 226 225 227
f 226 227 228
f 228 227 229
f 228 229 230
f 230 229 231
f 230 231 232
f 232 231 233
f 232 233 234
f 234 233 235
f 236 237 238
f 238 237 239
f 238 239 240
f 240 239 241
f 240 241 242
f 242 241 243
f 242 243 244
f 244 243 245
f 244 245 246
f 246 245 247
f 246 247 248
f 248 247 249
f 248 249 250
f 250 249 251
f 250 251 218
f 218 251 219
f 234 235 252
f 252 235 253
f 237 236 254
f 254 236 255
f 256 257 258
f 258 257 259
f 258 259 260
f 260 259 261
f 260 261 262
f 262 261 263
f 262 263 264
f 264 263 265
f 264 265 266
f 266 265 267
f 266 267 268
f 268 267 269
f 268 269 270
f 270 269 271
f 270 271 272
f 272 271 273
f 272 273 274
f 274 273 275
f 274 275 276
f 276 275 277
f 276 277 278
f 278 277 279
f 278 279 280
f 280 279 281
f 280 281 282
f 282 281 283
f 254 255 284
f 284 255 285
f 284 285 286
f 286 285 287
f 286 287 288
f 288 287 289
f 288 289 290
f 290 289 291
f 290 291 292
f 292 291 293
f 292 293 294
f 294 293 295
f 294 295 296
f 296 295 297
f 296 297 298
f 298 297 299
f 298 299 300
f 300 299 301
f 300 301 302
f 302 301 303
f 302 303 304
f 304 303 305
f 304 305 306
f 306 305 307
f 306 307 308
f 308 307 309
f 308 309 310
f 310 309 311
f 310 311 312
f 312 311 313
f 312 313 256
f 256 313 257
f 314 315 316
f 316 315 317
f 316 317 318
f 318 317 319
f 318 319 320
f 321 322 323
f 323 322 324
f 323 324 325
f 325 324 326
f 325 326 327
f 327 326 328
f 327 328 329
f 329 328 330
f 329 330 331
f 331 330 332
f 331 332 333
f 333 332 334
f 333 334 335
f 335 334 336
f 335 336 319
f 319 336 320
f 322 321 337
f 337 321 338
f 339 337 338
f 339 338 340
f 340 338 341
f 337 339 342
f 342 339 343
f 344 340 341
f 344 341 345
f 345 341 346
f 340 344 347
f 347 344 348
f 349 350 351
f 351 350 352
f 351 352 353
f 353 352 354
f 353 354 355
f 355 354 356
f 355 356 357
f 357 356 358
f 357 358 359
f 359 358 360
f 359 360 361
f 361 360 362
f 361 362 363
f 363 362 364
f 363 364 346
f 346 364 345
f 350 349 365
f 365 349 366
f 365 366 367
f 367 366 368
f 368 366 369
f 346 217 363
f 363 217 220
f 363 220 361
f 361 220 222
f 361 222 359
f 359 222 224
f 359 224 357
f 357 224 226
f 357 226 355
f 355 226 228
f 355 228 353
f 353 228 230
f 353 230 351
f 351 230 232
f 351 232 349
f 349 232 234
f 319 236 335
f 335 236 238
f 335 238 333
f 333 238 240
f 333 240 331
f 331 240 242
f 331 242 329
f 329 242 244
f 329 244 327
f 327 244 246
f 327 246 325
f 325 246 248
f 325 248 323
f 323 248 250
f 323 250 321
f 321 250 218
f 370 371 372
f 372 371 373
f 374 375 376
f 376 375 377
f 378 379 380
f 381 382 383
f 384 385 386
f 369 366 387
f 388 389 390
f 391 392 393
f 394 377 375
f 395 396 387
f 387 397 369
f 369 397 398
f 369 398 399
f 384 386 400
f 399 388 369
f 369 388 390
f 369 390 401
f 401 390 402
f 401 402 403
f 404 401 405
f 405 401 406
f 407 408 409
f 410 20 411
f 411 20 25
f 412 413 414
f 415 416 411
f 417 418 419
f 393 417 420
f 420 417 421
f 420 421 372
f 422 423 424
f 425 426 13
f 403 427 401
f 401 427 428
f 401 428 406
f 406 428 429
f 25 24 430
f 372 421 370
f 370 421 431
f 370 431 432
f 315 370 433
f 434 435 436
f 437 438 439
f 12 440 13
f 13 440 441
f 13 441 425
f 407 409 442
f 443 444 445
f 426 381 13
f 13 381 383
f 13 383 16
f 417 419 421
f 421 419 446
f 421 446 447
f 448 433 449
f 449 433 370
f 449 370 450
f 450 370 432
f 289 287 319
f 451 452 313
f 313 452 453
f 454 455 456
f 457 442 405
f 405 442 409
f 405 409 404
f 404 409 443
f 404 443 414
f 414 443 445
f 414 445 412
f 458 459 460
f 415 411 461
f 434 436 462
f 462 436 463
f 462 463 464
f 465 466 467
f 468 319 439
f 439 319 317
f 469 470 471
f 471 470 319
f 471 319 472
f 472 319 468
f 472 468 473
f 453 422 313
f 313 422 424
f 313 424 257
f 257 424 474
f 257 474 259
f 259 475 476
f 477 478 366
f 366 478 479
f 366 479 454
f 480 481 461
f 391 393 482
f 482 393 483
f 482 483 484
f 433 434 315
f 315 434 462
f 315 462 317
f 317 462 465
f 317 465 439
f 439 465 467
f 439 467 437
f 305 303 470
f 287 285 319
f 319 285 255
f 319 255 236
f 485 486 440
f 454 456 366
f 366 456 378
f 366 378 387
f 387 378 380
f 387 380 395
f 303 301 470
f 470 301 299
f 470 299 297
f 297 295 470
f 470 295 293
f 470 293 319
f 319 293 291
f 319 291 289
f 474 487 488
f 489 490 491
f 491 490 259
f 491 259 492
f 492 259 476
f 493 283 349
f 349 283 281
f 349 281 366
f 366 281 279
f 366 279 277
f 271 269 366
f 366 269 267
f 366 267 477
f 383 494 16
f 16 494 495
f 16 495 496
f 430 24 414
f 277 275 366
f 366 275 273
f 366 273 271
f 267 265 477
f 477 265 263
f 477 263 490
f 490 263 261
f 490 261 259
f 414 24 404
f 404 24 17
f 404 17 375
f 420 394 393
f 393 394 375
f 393 375 483
f 483 375 17
f 483 17 460
f 460 17 16
f 460 16 458
f 458 16 496
f 430 497 25
f 25 497 498
f 25 498 499
f 313 311 451
f 451 311 309
f 451 309 470
f 470 309 307
f 470 307 305
f 500 400 410
f 410 400 386
f 410 386 20
f 20 386 475
f 20 475 21
f 21 475 259
f 21 259 12
f 12 259 474
f 12 474 440
f 440 474 488
f 440 488 485
f 461 411 480
f 480 411 25
f 480 25 501
f 501 25 499
f 501 499 502
f 234 252 349
f 349 252 503
f 349 503 493
f 462 504 465
f 465 504 505
f 464 506 462
f 462 506 504
f 465 505 466
f 466 505 507
f 439 508 468
f 468 508 509
f 468 509 473
f 473 509 510
f 438 511 439
f 439 511 508
f 470 512 451
f 451 512 513
f 451 513 452
f 452 513 514
f 469 515 470
f 470 515 512
f 424 516 474
f 474 516 517
f 474 517 487
f 487 517 518
f 423 519 424
f 424 519 516
f 440 520 441
f 441 520 521
f 441 521 425
f 425 521 522
f 486 523 440
f 440 523 520
f 383 524 494
f 494 524 525
f 494 525 495
f 495 525 526
f 382 527 383
f 383 527 524
f 460 528 483
f 483 528 529
f 483 529 484
f 484 529 530
f 459 531 460
f 460 531 528
f 393 532 417
f 417 532 533
f 417 533 418
f 418 533 534
f 392 535 393
f 393 535 532
f 421 536 431
f 431 536 537
f 431 537 432
f 432 537 538
f 447 539 421
f 421 539 536
f 433 540 434
f 434 540 541
f 434 541 435
f 435 541 542
f 448 543 433
f 433 543 540
f 411 544 410
f 410 544 545
f 416 546 411
f 411 546 544
f 410 545 500
f 500 545 547
f 386 548 475
f 475 548 549
f 475 549 476
f 476 549 550
f 385 551 386
f 386 551 548
f 490 552 477
f 477 552 553
f 477 553 478
f 478 553 554
f 489 555 490
f 490 555 552
f 456 556 378
f 378 556 557
f 378 557 379
f 379 557 558
f 455 559 456
f 456 559 556
f 387 560 397
f 397 560 561
f 397 561 398
f 398 561 562
f 396 563 387
f 387 563 560
f 390 564 402
f 402 564 565
f 402 565 403
f 403 565 566
f 389 567 390
f 390 567 564
f 406 568 405
f 405 568 569
f 405 569 457
f 457 569 570
f 429 571 406
f 406 571 568
f 409 572 443
f 443 572 573
f 443 573 444
f 444 573 574
f 408 575 409
f 409 575 572
f 414 576 430
f 430 576 577
f 430 577 497
f 497 577 578
f 413 579 414
f 414 579 576
f 501 580 480
f 480 580 581
f 502 582 501
f 501 582 580
f 480 581 481
f 481 581 583
f 506 464 584
f 584 464 463
f 584 463 585
f 585 463 436
f 585 436 542
f 542 436 435
f 546 416 586
f 586 416 415
f 586 415 587
f 587 415 461
f 587 461 583
f 583 461 481
f 26 19 24
f 24 19 17
f 25 20 27
f 27 20 22
f 21 12 23
f 23 12 14
f 18 15 16
f 16 15 13
f 588 589 590
f 590 589 591
f 592 588 593
f 593 588 590
f 594 595 596
f 596 595 597
f 598 595 599
f 599 595 594
f 51 50 3
f 600 49 420
f 420 49 48
f 420 48 394
f 394 48 42
f 43 44 42
f 42 44 46
f 42 46 394
f 394 46 51
f 394 51 4
f 4 51 3
f 11 1 50
f 50 1 3
f 49 600 11
f 34 36 41
f 41 36 38
f 41 38 43
f 38 49 43
f 43 49 11
f 43 11 44
f 44 11 50
f 44 50 45
f 45 50 28
f 45 28 32
f 32 28 30
f 600 601 11
f 11 601 602
f 11 602 10
f 10 602 603
f 401 404 604
f 604 404 7
f 11 9 1
f 1 9 604
f 1 604 2
f 2 604 7
f 605 368 604
f 604 368 369
f 604 369 401
f 314 603 315
f 315 603 602
f 315 602 370
f 370 602 371
f 602 601 371
f 371 601 373
f 420 372 600
f 600 372 373
f 600 373 601
f 606 256 607
f 607 256 258
f 607 258 608
f 608 258 609
f 609 258 260
f 609 260 610
f 610 260 611
f 611 260 262
f 611 262 612
f 612 262 613
f 613 262 264
f 613 264 614
f 614 264 615
f 615 264 266
f 615 266 616
f 616 266 617
f 617 266 268
f 617 268 618
f 618 268 619
f 619 268 270
f 619 270 620
f 620 270 621
f 621 270 272
f 621 272 622
f 622 272 623
f 623 272 274
f 623 274 624
f 624 274 625
f 625 274 276
f 625 276 626
f 626 276 627
f 627 276 278
f 627 278 628
f 628 278 629
f 629 278 280
f 629 280 630
f 630 280 631
f 631 280 282
f 631 282 632
f 121 57 633
f 633 57 634
f 57 56 634
f 634 56 84
f 634 84 635
f 84 83 635
f 635 83 81
f 635 81 636
f 636 81 79
f 636 79 637
f 637 79 87
f 87 86 637
f 637 86 85
f 637 85 638
f 638 85 74
f 638 74 639
f 639 74 76
f 639 76 640
f 640 76 77
f 640 77 641
f 641 77 73
f 73 129 641
f 641 129 128
f 641 128 642
f 642 128 127
f 642 127 643
f 643 127 126
f 643 126 644
f 644 126 108
f 644 108 645
f 108 111 645
f 645 111 110
f 645 110 646
f 646 110 109
f 646 109 647
f 647 109 97
f 97 96 647
f 647 96 114
f 647 114 648
f 648 114 113
f 648 113 649
f 649 113 112
f 649 112 650
f 650 112 91
f 650 91 651
f 91 90 651
f 651 90 95
f 651 95 652
f 652 95 94
f 652 94 653
f 653 94 88
f 653 88 654
f 654 88 52
f 654 52 655
f 656 657 167
f 167 657 658
f 167 658 54
f 167 165 656
f 656 165 164
f 656 164 659
f 659 164 159
f 659 159 660
f 159 161 660
f 660 161 163
f 660 163 661
f 661 163 168
f 661 168 662
f 662 168 141
f 141 140 662
f 662 140 158
f 662 158 663
f 663 158 157
f 663 157 664
f 157 156 664
f 664 156 155
f 664 155 665
f 665 155 154
f 665 154 666
f 154 153 666
f 666 153 152
f 666 152 667
f 667 152 210
f 667 210 668
f 668 210 190
f 668 190 669
f 669 190 189
f 669 189 670
f 189 193 670
f 670 193 192
f 670 192 671
f 671 192 191
f 671 191 672
f 672 191 184
f 184 183 672
f 672 183 196
f 672 196 673
f 673 196 195
f 673 195 674
f 195 194 674
f 674 194 178
f 674 178 675
f 675 178 138
f 675 138 676
f 138 137 676
f 676 137 169
f 676 169 677
f 678 679 296
f 680 254 681
f 681 254 284
f 681 284 682
f 682 284 683
f 683 284 286
f 683 286 684
f 684 286 288
f 684 288 685
f 685 288 290
f 685 290 686
f 292 687 290
f 290 687 688
f 290 688 686
f 296 679 294
f 679 689 294
f 294 689 690
f 294 690 292
f 292 690 691
f 292 691 687
f 298 300 692
f 692 693 298
f 298 693 694
f 298 694 296
f 296 694 695
f 296 695 678
f 302 304 696
f 696 697 302
f 302 697 698
f 302 698 300
f 300 698 699
f 300 699 692
f 306 308 700
f 700 701 306
f 306 701 702
f 306 702 304
f 304 702 703
f 304 703 696
f 310 312 704
f 704 705 310
f 310 705 706
f 310 706 308
f 308 706 707
f 308 707 700
f 677 169 680
f 680 169 219
f 241 239 680
f 680 239 237
f 680 237 254
f 247 245 680
f 680 245 243
f 680 243 241
f 219 251 680
f 680 251 249
f 680 249 247
f 54 658 52
f 52 658 655
f 708 253 235
f 235 233 708
f 708 233 231
f 708 231 229
f 229 227 708
f 708 227 225
f 708 225 223
f 121 633 216
f 216 633 708
f 216 708 221
f 221 708 223
f 256 606 312
f 312 606 704
f 207 206 338
f 341 120 119
f 119 118 341
f 341 118 117
f 341 117 116
f 217 346 125
f 125 346 341
f 201 338 202
f 202 338 203
f 201 215 338
f 338 215 214
f 338 214 213
f 213 212 338
f 338 212 211
f 338 211 209
f 209 144 338
f 338 144 145
f 338 145 149
f 149 147 338
f 338 147 208
f 338 208 207
f 116 115 341
f 341 115 135
f 341 135 134
f 134 133 341
f 341 133 132
f 341 132 131
f 131 130 341
f 341 130 69
f 341 69 67
f 198 200 338
f 338 200 204
f 338 204 203
f 206 205 338
f 338 205 55
f 338 55 341
f 341 55 53
f 341 53 120
f 62 60 341
f 341 60 59
f 341 59 125
f 198 338 199
f 199 338 321
f 199 321 218
f 67 65 341
f 341 65 64
f 341 64 62
f 350 365 598
f 598 365 709
f 598 709 710
f 348 344 711
f 711 344 345
f 711 345 599
f 356 354 598
f 598 354 352
f 598 352 350
f 362 360 598
f 598 360 358
f 598 358 356
f 599 345 598
f 598 345 364
f 598 364 362
f 712 713 593
f 593 713 318
f 322 337 342
f 318 320 593
f 593 320 336
f 593 336 334
f 334 332 593
f 593 332 330
f 593 330 328
f 342 714 322
f 322 714 592
f 322 592 324
f 324 592 593
f 324 593 326
f 326 593 328
f 347 343 340
f 340 343 339
f 347 348 343
f 343 348 711
f 343 711 342
f 342 711 714
f 368 605 367
f 367 605 709
f 367 709 365
f 603 314 10
f 10 314 316
f 316 318 10
f 10 318 713
f 10 713 8
f 587 583 581
f 715 558 557
f 716 566 565
f 717 507 505
f 718 562 561
f 719 547 545
f 546 586 22
f 720 570 569
f 548 551 721
f 533 532 19
f 508 511 722
f 723 716 604
f 604 716 565
f 604 565 605
f 605 565 564
f 560 563 724
f 709 605 557
f 552 555 725
f 8 713 505
f 726 574 573
f 727 534 533
f 564 567 605
f 605 567 728
f 605 728 718
f 718 561 605
f 605 561 560
f 605 560 557
f 557 560 724
f 557 724 715
f 709 557 710
f 710 557 556
f 710 556 559
f 23 545 22
f 22 545 544
f 22 544 546
f 710 23 712
f 712 23 14
f 712 14 15
f 585 542 541
f 536 539 729
f 730 530 529
f 712 509 713
f 713 509 508
f 713 508 505
f 505 508 722
f 505 722 717
f 554 553 731
f 731 553 710
f 731 710 732
f 732 710 559
f 552 725 549
f 549 725 733
f 549 733 550
f 553 552 710
f 710 552 549
f 710 549 23
f 23 549 548
f 23 548 545
f 545 548 721
f 545 721 719
f 571 723 568
f 568 723 604
f 568 604 569
f 569 604 9
f 569 9 572
f 572 9 573
f 532 535 734
f 735 526 525
f 736 514 513
f 520 523 737
f 505 504 8
f 8 504 506
f 8 506 584
f 726 573 738
f 720 569 739
f 739 569 572
f 739 572 575
f 730 529 734
f 516 519 740
f 584 585 8
f 8 585 541
f 8 541 9
f 9 541 540
f 9 540 543
f 735 525 741
f 741 525 528
f 741 528 531
f 520 737 517
f 517 737 742
f 517 742 518
f 513 512 712
f 712 512 515
f 586 587 22
f 22 587 581
f 22 581 27
f 27 581 580
f 27 580 582
f 9 537 536
f 27 577 26
f 26 577 576
f 734 529 532
f 532 529 18
f 532 18 19
f 522 521 743
f 743 521 15
f 743 15 744
f 744 15 527
f 521 520 15
f 15 520 517
f 15 517 712
f 712 517 516
f 712 516 513
f 513 516 740
f 513 740 736
f 510 509 745
f 745 509 712
f 745 712 746
f 746 712 515
f 578 577 747
f 747 577 27
f 747 27 748
f 748 27 582
f 543 749 9
f 9 749 750
f 9 750 537
f 537 750 538
f 579 738 576
f 576 738 573
f 576 573 26
f 26 573 9
f 26 9 19
f 19 9 536
f 19 536 533
f 533 536 729
f 533 729 727
f 529 528 18
f 18 528 525
f 18 525 15
f 15 525 524
f 15 524 527
f 596 597 589
f 589 597 591
f 595 598 710
f 712 593 590
f 591 597 590
f 590 597 595
f 590 595 712
f 712 595 710
f 658 657 714
f 632 751 596
f 596 751 752
f 706 705 589
f 633 634 711
f 651 652 711
f 702 701 589
f 657 656 714
f 714 656 659
f 714 659 660
f 705 704 589
f 589 704 606
f 589 606 596
f 596 606 607
f 596 607 608
f 752 753 596
f 596 753 708
f 596 708 594
f 594 708 633
f 594 633 599
f 599 633 711
f 680 681 589
f 589 681 682
f 589 682 683
f 701 700 589
f 589 700 707
f 589 707 706
f 647 648 711
f 660 661 714
f 714 661 662
f 714 662 663
f 608 609 596
f 596 609 610
f 596 610 611
f 674 675 588
f 588 675 676
f 588 676 589
f 589 676 677
f 589 677 680
f 698 697 589
f 648 649 711
f 711 649 650
f 711 650 651
f 697 696 589
f 589 696 703
f 589 703 702
f 643 644 711
f 652 653 711
f 711 653 654
f 711 654 714
f 714 654 655
f 714 655 658
f 663 664 714
f 714 664 665
f 714 665 666
f 611 612 596
f 596 612 613
f 596 613 614
f 683 684 589
f 589 684 685
f 589 685 686
f 644 645 711
f 711 645 646
f 711 646 647
f 666 667 714
f 714 667 668
f 714 668 669
f 614 615 596
f 596 615 616
f 596 616 617
f 694 693 589
f 693 692 589
f 589 692 699
f 589 699 698
f 669 670 714
f 714 670 671
f 714 671 672
f 617 618 596
f 596 618 619
f 596 619 620
f 634 635 711
f 711 635 636
f 711 636 637
f 588 592 674
f 674 592 714
f 674 714 673
f 673 714 672
f 620 621 596
f 596 621 622
f 596 622 623
f 686 688 589
f 589 688 687
f 589 687 691
f 640 641 711
f 711 641 642
f 711 642 643
f 691 690 589
f 589 690 689
f 589 689 679
f 637 638 711
f 711 638 639
f 711 639 640
f 623 624 596
f 596 624 625
f 596 625 626
f 626 627 596
f 596 627 628
f 596 628 629
f 679 678 589
f 589 678 695
f 589 695 694
f 629 630 596
f 596 630 631
f 596 631 632
f 582 502 748
f 748 502 499
f 748 499 747
f 747 499 498
f 747 498 578
f 578 498 497
f 579 413 738
f 738 413 412
f 738 412 726
f 726 412 445
f 726 445 574
f 574 445 444
f 575 408 739
f 739 408 407
f 739 407 720
f 720 407 442
f 720 442 570
f 570 442 457
f 571 429 723
f 723 429 428
f 723 428 716
f 716 428 427
f 716 427 566
f 566 427 403
f 567 389 728
f 728 389 388
f 728 388 718
f 718 388 399
f 718 399 562
f 562 399 398
f 563 396 724
f 724 396 395
f 724 395 715
f 715 395 380
f 715 380 558
f 558 380 379
f 559 455 732
f 732 455 454
f 732 454 731
f 731 454 479
f 731 479 554
f 554 479 478
f 555 489 725
f 725 489 491
f 725 491 733
f 733 491 492
f 733 492 550
f 550 492 476
f 551 385 721
f 721 385 384
f 721 384 719
f 719 384 400
f 719 400 547
f 547 400 500
f 543 448 749
f 749 448 449
f 749 449 750
f 750 449 450
f 750 450 538
f 538 450 432
f 539 447 729
f 729 447 446
f 729 446 727
f 727 446 419
f 727 419 534
f 534 419 418
f 535 392 734
f 734 392 391
f 734 391 730
f 730 391 482
f 730 482 530
f 530 482 484
f 531 459 741
f 741 459 458
f 741 458 735
f 735 458 496
f 735 496 526
f 526 496 495
f 527 382 744
f 744 382 381
f 744 381 743
f 743 381 426
f 743 426 522
f 522 426 425
f 523 486 737
f 737 486 485
f 737 485 742
f 742 485 488
f 742 488 518
f 518 488 487
f 519 423 740
f 740 423 422
f 740 422 736
f 736 422 453
f 736 453 514
f 514 453 452
f 515 469 746
f 746 469 471
f 746 471 745
f 745 471 472
f 745 472 510
f 510 472 473
f 511 438 722
f 722 438 437
f 722 437 717
f 717 437 467
f 717 467 507
f 507 467 466
f 51 46 29
f 29 46 47
f 29 47 31
f 31 47 33
f 32 33 45
f 45 33 47
f 374 5 375
f 375 5 7
f 375 7 404
f 5 374 6
f 6 374 376
f 377 394 376
f 376 394 4
f 376 4 6
f 632 282 754
f 632 754 751
f 751 754 755
f 751 755 752
f 752 755 753
f 753 755 253
f 753 253 708
f 282 283 754
f 754 283 493
f 754 493 755
f 755 493 503
f 755 503 253
f 253 503 252
f 756 757 758
f 758 757 759
f 758 759 760
f 760 759 761
f 762 763 759
f 759 763 764
f 759 764 761
f 765 766 759
f 759 766 767
f 759 767 762
f 768 769 770
f 770 769 771
f 772 773 774
f 774 773 771
f 774 771 769
f 773 775 771
f 771 775 776
f 771 776 770
f 770 776 777
f 778 779 780
f 780 779 781
f 782 783 784
f 784 783 785
f 786 787 788
f 788 787 789
f 790 791 792
f 792 791 793
f 794 795 796
f 796 795 797
f 791 782 793
f 793 782 784
f 789 783 782
f 790 796 791
f 791 796 797
f 791 797 782
f 782 797 788
f 782 788 789
f 795 786 797
f 797 786 788
f 794 792 795
f 795 792 793
f 795 793 786
f 786 793 784
f 786 784 787
f 787 784 785
f 781 798 780
f 780 798 799
f 780 799 800
f 766 801 802
f 766 802 767
f 767 802 803
f 767 803 762
f 762 803 804
f 762 804 763
f 763 804 805
f 763 805 764
f 764 805 761
f 761 805 806
f 761 806 760
f 760 806 758
f 758 806 807
f 758 807 808
f 808 807 809
f 808 809 810
f 810 809 811
f 810 811 812
f 812 811 813
f 812 813 814
f 815 816 817
f 815 817 818
f 818 817 819
f 818 819 820
f 820 819 821
f 820 821 822
f 822 821 823
f 822 823 824
f 824 823 825
f 824 825 826
f 826 825 827
f 826 827 828
f 828 827 829
f 828 829 830
f 830 829 831
f 830 831 832
f 832 831 833
f 832 833 834
f 835 777 836
f 836 777 776
f 836 776 837
f 801 815 802
f 802 815 803
f 835 836 834
f 834 836 813
f 834 813 832
f 832 813 811
f 832 811 830
f 830 811 828
f 828 811 809
f 828 809 826
f 826 809 824
f 824 809 807
f 824 807 822
f 822 807 820
f 820 807 806
f 820 806 818
f 818 806 805
f 818 805 815
f 815 805 804
f 815 804 803
f 813 836 814
f 814 836 837
f 838 839 840
f 840 839 841
f 842 843 844
f 844 843 845
f 846 847 848
f 848 847 849
f 850 851 852
f 852 851 853
f 854 855 856
f 856 855 857
f 858 859 860
f 860 859 861
f 862 863 864
f 864 863 865
f 866 867 868
f 868 867 869
f 870 871 872
f 872 871 873
f 874 875 876
f 876 875 877
f 878 879 880
f 880 879 881
f 882 883 884
f 884 883 885
f 886 887 888
f 888 887 889
f 890 891 892
f 892 891 893
f 894 895 896
f 896 895 897
f 898 899 900
f 900 899 901
f 902 903 904
f 904 903 905
f 906 907 908
f 908 907 909
f 910 911 912
f 912 911 913
f 914 757 915
f 915 757 756
f 915 756 916
f 917 918 774
f 774 918 772
f 779 918 781
f 781 918 917
f 781 917 798
f 759 919 765
f 765 919 920
f 757 914 759
f 759 914 919
f 915 916 921
f 921 916 922
f 921 922 923
f 923 922 924
f 923 924 912
f 912 924 910
f 913 911 925
f 925 911 926
f 925 926 927
f 927 926 928
f 927 928 908
f 908 928 906
f 909 907 929
f 929 907 930
f 929 930 931
f 931 930 932
f 931 932 904
f 904 932 902
f 905 903 933
f 933 903 934
f 933 934 935
f 935 934 936
f 935 936 900
f 900 936 898
f 901 899 937
f 937 899 938
f 937 938 939
f 939 938 940
f 939 940 896
f 896 940 894
f 897 895 941
f 941 895 942
f 941 942 943
f 943 942 944
f 943 944 892
f 892 944 890
f 893 891 945
f 945 891 946
f 945 946 947
f 947 946 948
f 947 948 888
f 888 948 886
f 889 887 949
f 949 887 950
f 949 950 951
f 951 950 952
f 951 952 884
f 884 952 882
f 885 883 953
f 953 883 954
f 953 954 955
f 955 954 956
f 955 956 880
f 880 956 878
f 881 879 957
f 957 879 958
f 957 958 959
f 959 958 960
f 959 960 876
f 876 960 874
f 877 875 961
f 961 875 962
f 961 962 963
f 963 962 964
f 963 964 872
f 872 964 870
f 873 871 965
f 965 871 966
f 965 966 967
f 967 966 968
f 967 968 868
f 868 968 866
f 869 867 969
f 969 867 970
f 969 970 971
f 971 970 972
f 971 972 864
f 864 972 862
f 865 863 973
f 973 863 974
f 973 974 975
f 975 974 976
f 975 976 860
f 860 976 858
f 861 859 977
f 977 859 978
f 977 978 979
f 979 978 980
f 979 980 856
f 856 980 854
f 850 852 981
f 981 852 982
f 981 982 983
f 983 982 984
f 983 984 855
f 855 984 857
f 846 848 985
f 985 848 986
f 985 986 987
f 987 986 988
f 987 988 851
f 851 988 853
f 842 844 989
f 989 844 990
f 989 990 991
f 991 990 992
f 991 992 847
f 847 992 849
f 841 839 993
f 993 839 994
f 993 994 995
f 995 994 996
f 995 996 843
f 843 996 845
f 800 799 997
f 997 799 998
f 997 998 999
f 999 998 1000
f 999 1000 840
f 840 1000 838
f 775 773 772
f 778 775 779
f 779 775 772
f 779 772 918
f 766 765 801
f 801 765 920
f 801 920 815
f 815 920 816
f 997 792 800
f 800 792 794
f 800 794 780
f 780 794 796
f 780 796 778
f 847 846 991
f 991 846 985
f 976 974 814
f 778 796 775
f 775 796 790
f 775 790 776
f 776 790 792
f 776 792 837
f 837 792 997
f 837 997 999
f 840 841 993
f 978 859 858
f 995 837 993
f 993 837 999
f 993 999 840
f 983 814 981
f 981 814 987
f 981 987 850
f 850 987 851
f 858 976 978
f 978 976 814
f 978 814 980
f 980 814 983
f 980 983 854
f 854 983 855
f 968 966 814
f 843 842 995
f 995 842 989
f 995 989 837
f 837 989 991
f 837 991 814
f 814 991 985
f 814 985 987
f 970 867 866
f 866 968 970
f 970 968 814
f 970 814 972
f 972 814 974
f 972 974 862
f 862 974 863
f 960 958 814
f 962 875 874
f 874 960 962
f 962 960 814
f 962 814 964
f 964 814 966
f 964 966 870
f 870 966 871
f 952 950 814
f 954 883 882
f 882 952 954
f 954 952 814
f 954 814 956
f 956 814 958
f 956 958 878
f 878 958 879
f 946 891 890
f 944 942 814
f 890 944 946
f 946 944 814
f 946 814 948
f 948 814 950
f 948 950 886
f 886 950 887
f 938 899 898
f 936 934 814
f 898 936 938
f 938 936 814
f 938 814 940
f 940 814 942
f 940 942 894
f 894 942 895
f 930 907 906
f 906 928 930
f 930 928 814
f 930 814 932
f 932 814 934
f 932 934 902
f 902 934 903
f 910 924 911
f 911 924 926
f 916 756 922
f 922 756 758
f 922 758 924
f 924 758 808
f 924 808 810
f 928 926 814
f 814 926 924
f 814 924 812
f 812 924 810
f 770 777 835
f 834 833 835
f 835 833 768
f 835 768 770
f 998 799 787
f 787 799 798
f 787 798 789
f 789 798 917
f 789 917 783
f 783 917 774
f 783 774 785
f 785 774 769
f 785 769 768
f 914 915 921
f 833 921 923
f 833 945 947
f 914 921 919
f 919 921 833
f 919 833 831
f 816 920 817
f 817 920 919
f 817 919 819
f 888 889 947
f 947 889 949
f 947 949 833
f 833 949 951
f 831 829 919
f 919 829 827
f 919 827 825
f 825 823 919
f 919 823 821
f 919 821 819
f 884 885 951
f 951 885 953
f 951 953 833
f 833 953 955
f 880 881 955
f 955 881 957
f 955 957 833
f 833 957 959
f 876 877 959
f 959 877 961
f 959 961 833
f 833 961 963
f 943 892 893
f 872 873 963
f 963 873 965
f 963 965 833
f 833 965 967
f 868 869 967
f 967 869 969
f 967 969 833
f 833 969 971
f 912 913 923
f 923 913 925
f 923 925 833
f 833 925 927
f 864 865 971
f 971 865 973
f 971 973 833
f 833 973 975
f 982 852 853
f 860 861 975
f 975 861 977
f 975 977 833
f 833 977 979
f 908 909 927
f 927 909 929
f 927 929 833
f 833 929 931
f 856 857 979
f 979 857 984
f 979 984 833
f 833 984 982
f 833 982 988
f 988 982 853
f 848 849 986
f 986 849 992
f 990 844 845
f 904 905 931
f 931 905 933
f 931 933 833
f 833 933 935
f 996 994 768
f 845 996 990
f 990 996 768
f 990 768 992
f 992 768 833
f 992 833 986
f 986 833 988
f 900 901 935
f 935 901 937
f 935 937 833
f 833 937 939
f 839 838 1000
f 787 785 998
f 998 785 768
f 998 768 1000
f 1000 768 994
f 1000 994 839
f 896 897 939
f 939 897 941
f 939 941 833
f 833 941 943
f 833 943 945
f 945 943 893

