# https://github.com/mikedh/trimesh
v -10.00000000 10.00000000 0.00000000
v -8.99944115 11.08332920 0.00000000
v -8.91667080 11.00055885 0.00000000
v -8.96213245 11.03786755 0.00000000
v -9.02716351 11.13519478 0.00000000
v -9.04423523 11.19147301 0.00000000
v -8.86480522 10.97283649 0.00000000
v -8.80852699 10.95576477 0.00000000
v -8.99944115 11.08332920 0.27499998
v -8.91667080 11.00055885 0.27500001
v -8.96213245 11.03786755 0.27500001
v -9.02716351 11.13519478 0.27500001
v -9.04423523 11.19147301 0.27500001
v -8.86480522 10.97283649 0.27500001
v -8.80852699 10.95576477 0.27500001
v -10.00000000 10.00000000 0.50000000
v -9.12123108 10.87876892 0.50000000
v -9.23503685 11.04909134 0.50000000
v -9.26491261 11.14757729 0.50000000
v -9.18652153 10.95832539 0.50000000
v -8.95090866 10.76496315 0.50000000
v -9.04167461 10.81347847 0.50000000
v -8.85242271 10.73508739 0.50000000
v -9.05000019 11.25000000 0.00000000
v -9.04423523 11.30852699 0.00000000
v -9.02716351 11.36480522 0.00000000
v -8.99944115 11.41667080 0.00000000
v -8.96213245 11.46213245 0.00000000
v -8.91667080 11.49944115 0.00000000
v -8.86480522 11.52716351 0.00000000
v -8.80852699 11.54423523 0.00000000
v -9.05000019 11.25000000 0.27500001
v -9.04423523 11.30852699 0.27500001
v -9.02716351 11.36480522 0.27500001
v -8.99944115 11.41667080 0.27499998
v -8.96213245 11.46213245 0.27500001
v -8.91667080 11.49944115 0.27500001
v -8.86480522 11.52716351 0.27500001
v -8.80852699 11.54423523 0.27500001
v -9.27499962 11.25000000 0.50000000
v -9.26491261 11.35242271 0.50000000
v -9.23503685 11.45090866 0.50000000
v -9.18652153 11.54167461 0.50000000
v -9.12123108 11.62123108 0.50000000
v -9.04167461 11.68652153 0.50000000
v -8.95090866 11.73503685 0.50000000
v -8.85242271 11.76491261 0.50000000
v -8.75000000 10.94999981 0.00000000
v -8.69147301 10.95576477 0.00000000
v -8.63519478 10.97283649 0.00000000
v -8.58332920 11.00055885 0.00000000
v -8.53786755 11.03786755 0.00000000
v -8.50055885 11.08332920 0.00000000
v -8.47283649 11.13519478 0.00000000
v -8.45576477 11.19147301 0.00000000
v -8.75000000 10.94999981 0.27500001
v -8.69147301 10.95576477 0.27500001
v -8.63519478 10.97283649 0.27500001
v -8.58332920 11.00055885 0.27500001
v -8.53786755 11.03786755 0.27500001
v -8.50055885 11.08332920 0.27499998
v -8.47283649 11.13519478 0.27500001
v -8.45576477 11.19147301 0.27500001
v -8.75000000 10.72500038 0.50000000
v -8.64757729 10.73508739 0.50000000
v -8.54909134 10.76496315 0.50000000
v -8.45832539 10.81347847 0.50000000
v -8.37876892 10.87876892 0.50000000
v -8.31347847 10.95832539 0.50000000
v -8.26496315 11.04909134 0.50000000
v -8.23508739 11.14757729 0.50000000
v -8.75000000 11.55000019 0.00000000
v -8.69147301 11.54423523 0.00000000
v -8.63519478 11.52716351 0.00000000
v -8.44999981 11.25000000 0.00000000
v -8.45576477 11.30852699 0.00000000
v -8.47283649 11.36480522 0.00000000
v -8.53786755 11.46213245 0.00000000
v -8.58332920 11.49944115 0.00000000
v -8.50055885 11.41667080 0.00000000
v -8.75000000 11.55000019 0.27500001
v -8.69147301 11.54423523 0.27500001
v -8.63519478 11.52716351 0.27500001
v -8.44999981 11.25000000 0.27500001
v -8.45576477 11.30852699 0.27500001
v -8.47283649 11.36480522 0.27500001
v -8.53786755 11.46213150 0.27500001
v -8.58332920 11.49944115 0.27500001
v -8.50055885 11.41667080 0.27499998
v -8.75000000 11.77499962 0.50000000
v -8.64757729 11.76491261 0.50000000
v -8.45832539 11.68652153 0.50000000
v -8.54909134 11.73503685 0.50000000
v -8.31347847 11.54167461 0.50000000
v -8.22500038 11.25000000 0.50000000
v -8.23508739 11.35242271 0.50000000
v -8.26496315 11.45090866 0.50000000
v -8.37876892 11.62123108 0.50000000
v -10.00000000 12.50000000 0.00000000
v -10.00000000 12.50000000 0.50000000
v -7.50000000 10.00000000 0.00000000
v -7.50000000 10.00000000 0.50000000
v -5.36021519 10.00000000 0.00000000
v -5.36021519 10.00000000 0.50000000
v -7.50000000 12.50000000 0.00000000
v -7.50000000 12.50000000 0.50000000
v -5.36021519 17.33841133 0.50000000
v -5.35928774 19.04065704 0.50000000
v -5.15241385 19.82247353 0.72797102
v -5.03430080 15.27078056 1.39751697
v -5.09487534 15.31661129 1.47394598
v -5.15441370 15.36460495 1.55255604
v -5.15263319 19.24065590 1.89448798
v -3.53657746 14.76243401 0.54984999
v -3.32357621 14.74333286 0.51799101
v -3.43047976 14.75170135 0.53194898
v -3.21605873 14.73734093 0.50800198
v -3.10812807 14.73374367 0.50200099
v -3.00000596 14.73254108 0.50000000
v -2.89187407 14.73374367 0.50200099
v -2.78395343 14.73734188 0.50800198
v -2.67642570 14.74333286 0.51799101
v -2.56952214 14.75170135 0.53194898
v -3.84802079 14.80860615 0.62683600
v -3.94891119 14.82855225 0.66009903
v -4.04799891 14.85072136 0.69706303
v -4.14512253 14.87506390 0.73765898
v -4.24008989 14.90154362 0.78181100
v -4.33272171 14.93010235 0.82943499
v -4.42284489 14.96069336 0.88044202
v -4.51028919 14.99325275 0.93473601
v -3.74554920 14.79091644 0.59733802
v -3.64166737 14.77551842 0.57165998
v -0.63978469 10.00000000 0.00000000
v -0.63978469 10.00000000 0.50000000
v -2.46342444 14.76243401 0.54984999
v -2.35833454 14.77551842 0.57165998
v -2.25445390 14.79091740 0.59733802
v -2.15197706 14.80860519 0.62683600
v -2.05109572 14.82855320 0.66009903
v -1.95200145 14.85072041 0.69706303
v -1.85487854 14.87506390 0.73765898
v -1.75991285 14.90154362 0.78181100
v -1.66728008 14.93010235 0.82943499
v -1.57715821 14.96069336 0.88044202
v -1.48971260 14.99325180 0.93473601
v -4.75493622 15.10212898 1.11628902
v -4.59489346 15.02772236 0.99221599
v -4.67649698 15.06403542 1.05277097
v -0.63978469 17.33841133 0.50000000
v -1.40511048 15.02772236 0.99221599
v -1.32350934 15.06403542 1.05277097
v -1.24506593 15.10212898 1.11628902
v -0.91300416 19.04065704 0.50000000
v -1.11987841 19.82247353 0.72797102
v -4.83007479 15.14192104 1.18265104
v -4.90177393 15.18335342 1.25173199
v -4.96989107 15.22632694 1.32339203
v -1.16992295 15.14192104 1.18265104
v -1.09823000 15.18335438 1.25173199
v -1.03011394 15.22632694 1.32339203
v -0.96570665 15.27078056 1.39751697
v -0.90512592 15.31661034 1.47394598
v -0.84558648 15.36460495 1.55255604
v -1.11965883 19.24065590 1.89448798
v -5.36021519 10.00000000 4.50000000
v -5.04240274 10.04206181 4.50000000
v -5.02642345 10.00000000 4.50000000
v -5.10287857 10.21655560 4.50000000
v -5.10307884 10.21716595 4.50000000
v -5.16019583 10.39827538 4.50000000
v -5.15377951 16.64827728 3.70062304
v -5.08865452 16.70143318 3.77922511
v -5.02795267 16.74716759 3.85565305
v -5.15417433 15.32620430 4.50000000
v -5.15379095 16.42030144 4.50000000
v -5.15476465 16.64712715 4.50000000
v -5.14315414 16.65709305 4.50000000
v -5.09059191 16.69998360 4.50000000
v -5.02966499 16.74594498 4.50000000
v -5.36021519 17.33841133 4.50000000
v -5.35928774 19.04065704 4.36396837
v -5.15282774 19.24068069 4.36396837
v -3.54001331 10.00000000 3.37423825
v -3.32574058 10.00000000 3.33079123
v -3.43330288 10.00000000 3.34983015
v -3.21752501 10.00000000 3.31715965
v -3.10886836 10.00000000 3.30896950
v -3.07646275 10.00000000 3.30815601
v -3.00000620 10.00000000 3.30623770
v -2.99784184 10.00000000 3.30631590
v -2.92354250 10.00000000 3.30815601
v -2.89113402 10.00000000 3.30896950
v -2.88893294 10.00000000 3.30915499
v -2.81467175 10.00000000 3.31473398
v -2.78248715 10.00000000 3.31716013
v -2.67426157 10.00000000 3.33079123
v -2.56669974 10.00000000 3.34983015
v -2.45999002 10.00000000 3.37423825
v -3.75005245 10.00000000 3.43894005
v -3.85297871 10.00000000 3.47910023
v -4.15116024 10.00000000 3.62982678
v -3.95427346 10.00000000 3.52436256
v -4.05372000 10.00000000 3.57463789
v -4.42963696 10.00000000 3.82377934
v -4.51728344 10.00000000 3.89747953
v -4.24640894 10.00000000 3.68982601
v -4.33928967 10.00000000 3.75451732
v -3.64566326 10.00000000 3.40396309
v -4.60207272 10.00000000 3.97548032
v -4.68384886 10.00000000 4.05763006
v -4.76245403 10.00000000 4.14377785
v -4.83775091 10.00000000 4.23375750
v -4.90961123 10.00000000 4.32740402
v -4.97789001 10.00000000 4.42452145
v -2.35433865 10.00000000 3.40396309
v -2.24995065 10.00000000 3.43894005
v -2.14701915 10.00000000 3.47910023
v -2.04573345 10.00000000 3.52436280
v -1.94628072 10.00000000 3.57463765
v -1.84884095 10.00000000 3.62982678
v -1.75359416 10.00000000 3.68982601
v -1.66071212 10.00000000 3.75451732
v -1.57036626 10.00000000 3.82377934
v -1.48271871 10.00000000 3.89747930
v -1.39793122 10.00000000 3.97548032
v -1.31615734 10.00000000 4.05763006
v -1.23754835 10.00000000 4.14377785
v -1.16224730 10.00000000 4.23375750
v -1.09039235 10.00000000 4.32740402
v -1.02211511 10.00000000 4.42452192
v -0.97358674 10.00000000 4.50000000
v -0.95760411 10.04206181 4.50000000
v -0.89712316 10.21655464 4.50000000
v -0.88215542 10.26387119 4.50000000
v -0.88195610 10.26447773 4.50000000
v -0.63978469 10.00000000 4.50000000
v -0.83980429 10.39827538 4.50000000
v -0.83986419 10.45885468 4.50000000
v -4.96346664 16.79150200 3.92977905
v -3.04907608 16.58924103 3.59229994
v -2.95092607 16.58924103 3.59229994
v -4.89532661 16.83435059 4.00144720
v -4.82365084 16.87563324 4.07051992
v -4.74859190 16.91528511 4.13688707
v -4.67026663 16.95322227 4.20040083
v -4.96495819 16.79048347 4.50000000
v -4.89660406 16.83351326 4.50000000
v -4.82472324 16.87495613 4.50000000
v -4.58882332 16.98938560 4.26095915
v -4.50441790 17.02370071 4.31843281
v -4.75642538 16.91105080 4.50000000
v -4.74947119 16.91474724 4.50000000
v -4.74244547 16.91817093 4.50000000
v -4.41720724 17.05611038 4.37272787
v -4.67096710 16.95280647 4.50000000
v -4.58935976 16.98907471 4.50000000
v -4.50480700 17.02347946 4.50000000
v -4.41746616 17.05596542 4.50000000
v -4.32735157 17.08655739 4.42373991
v -4.32749796 17.08647537 4.50000000
v -4.23501682 17.11497307 4.47135782
v -4.23506832 17.11494446 4.50000000
v -4.17272282 17.13234520 4.50000000
v -4.16855526 17.13242722 4.50000000
v -0.84622055 16.64827728 3.70062304
v -0.91134667 16.70143318 3.77922511
v -0.97205472 16.74716759 3.85565305
v -1.03653836 16.79150200 3.92977905
v -1.25141037 16.91528511 4.13688707
v -1.32973969 16.95322227 4.20040083
v -1.41118073 16.98938560 4.26095915
v -1.49558413 17.02370071 4.31843281
v -1.58279574 17.05611038 4.37272787
v -1.67265022 17.08655739 4.42373991
v -1.83144581 17.13242722 4.50000000
v -1.82727849 17.13234520 4.50000000
v -1.76498616 17.11497307 4.47135782
v -1.76493478 17.11494446 4.50000000
v -1.67250407 17.08647537 4.50000000
v -1.58253694 17.05596542 4.50000000
v -1.49519503 17.02347946 4.50000000
v -1.41064417 16.98907471 4.50000000
v -1.32903922 16.95280647 4.50000000
v -1.25755692 16.91817093 4.50000000
v -1.25053096 16.91474724 4.50000000
v -0.84611940 15.60914326 4.50000000
v -1.10467708 16.83435059 4.00144720
v -1.17634678 16.87563324 4.07051992
v -1.17527413 16.87495613 4.50000000
v -1.10339975 16.83351326 4.50000000
v -1.03504670 16.79048347 4.50000000
v -0.97034210 16.74594498 4.50000000
v -0.84620923 16.42030144 4.50000000
v -0.89850050 16.69062996 4.50000000
v -0.90940946 16.69998360 4.50000000
v -0.84523535 16.64712715 4.50000000
v -1.24357665 16.91105080 4.50000000
v -0.63978469 17.33841133 4.50000000
v -1.11946440 19.24068069 4.36396837
v -0.91300416 19.04065704 4.36396837
v -5.15924311 22.40742683 1.99233699
v -10.00000000 27.50000000 0.00000000
v -8.99944115 28.58332825 0.00000000
v -8.91667080 28.50055885 0.00000000
v -8.96213245 28.53786850 0.00000000
v -9.02716351 28.63519478 0.00000000
v -9.04423523 28.69147301 0.00000000
v -8.86480522 28.47283554 0.00000000
v -8.80852699 28.45576477 0.00000000
v -8.99944115 28.58332825 0.27499998
v -8.91667080 28.50055885 0.27500001
v -8.96213245 28.53786850 0.27500001
v -9.02716351 28.63519478 0.27500001
v -9.04423523 28.69147301 0.27500001
v -8.86480522 28.47283554 0.27500001
v -8.80852699 28.45576477 0.27500001
v -10.00000000 27.50000000 0.50000000
v -9.12123108 28.37876892 0.50000000
v -9.23503685 28.54909134 0.50000000
v -9.26491261 28.64757729 0.50000000
v -9.18652153 28.45832634 0.50000000
v -8.95090866 28.26496315 0.50000000
v -9.04167461 28.31347847 0.50000000
v -8.85242271 28.23508835 0.50000000
v -10.00000000 30.00000000 0.00000000
v -9.05000019 28.75000000 0.00000000
v -9.04423523 28.80852699 0.00000000
v -9.02716351 28.86480522 0.00000000
v -8.99944115 28.91667175 0.00000000
v -8.96213245 28.96213150 0.00000000
v -8.91667080 28.99944115 0.00000000
v -8.86480522 29.02716446 0.00000000
v -8.80852699 29.04423523 0.00000000
v -9.05000019 28.75000000 0.27500001
v -9.04423523 28.80852699 0.27500001
v -9.02716351 28.86480522 0.27500001
v -8.99944115 28.91667175 0.27499998
v -8.96213245 28.96213150 0.27500001
v -8.91667080 28.99944115 0.27500001
v -8.86480522 29.02716446 0.27500001
v -8.80852699 29.04423523 0.27500001
v -10.00000000 30.00000000 0.50000000
v -9.27499962 28.75000000 0.50000000
v -9.26491261 28.85242271 0.50000000
v -9.23503685 28.95090866 0.50000000
v -9.18652153 29.04167366 0.50000000
v -9.12123108 29.12123108 0.50000000
v -9.04167461 29.18652153 0.50000000
v -8.95090866 29.23503685 0.50000000
v -8.85242271 29.26491165 0.50000000
v -8.75000000 28.45000076 0.00000000
v -8.69147301 28.45576477 0.00000000
v -8.63519478 28.47283554 0.00000000
v -8.58332920 28.50055885 0.00000000
v -8.53786755 28.53786850 0.00000000
v -8.50055885 28.58332825 0.00000000
v -8.47283649 28.63519478 0.00000000
v -8.45576477 28.69147301 0.00000000
v -8.75000000 28.45000076 0.27500001
v -8.69147301 28.45576477 0.27500001
v -8.63519478 28.47283554 0.27500001
v -8.58332920 28.50055885 0.27500001
v -8.53786755 28.53786850 0.27500001
v -8.50055885 28.58332825 0.27499998
v -8.47283649 28.63519478 0.27500001
v -8.45576477 28.69147301 0.27500001
v -8.75000000 28.22500038 0.50000000
v -8.64757729 28.23508835 0.50000000
v -8.54909134 28.26496315 0.50000000
v -8.45832539 28.31347847 0.50000000
v -8.37876892 28.37876892 0.50000000
v -8.31347847 28.45832634 0.50000000
v -8.26496315 28.54909134 0.50000000
v -8.23508739 28.64757729 0.50000000
v -8.75000000 29.04999924 0.00000000
v -8.69147301 29.04423523 0.00000000
v -8.63519478 29.02716446 0.00000000
v -8.44999981 28.75000000 0.00000000
v -8.45576477 28.80852699 0.00000000
v -8.47283649 28.86480522 0.00000000
v -8.53786755 28.96213150 0.00000000
v -8.58332920 28.99944115 0.00000000
v -8.50055885 28.91667175 0.00000000
v -8.75000000 29.04999924 0.27500001
v -8.69147301 29.04423523 0.27500001
v -8.63519478 29.02716446 0.27500001
v -8.44999981 28.75000000 0.27500001
v -8.45576477 28.80852699 0.27500001
v -8.47283649 28.86480522 0.27500001
v -8.53786755 28.96213150 0.27500001
v -8.58332920 28.99944115 0.27500001
v -8.50055885 28.91667175 0.27499998
v -8.75000000 29.27499962 0.50000000
v -8.64757729 29.26491165 0.50000000
v -8.45832539 29.18652153 0.50000000
v -8.54909134 29.23503685 0.50000000
v -8.31347847 29.04167366 0.50000000
v -8.22500038 28.75000000 0.50000000
v -8.23508739 28.85242271 0.50000000
v -8.26496315 28.95090866 0.50000000
v -8.37876892 29.12123108 0.50000000
v -7.50000000 27.50000000 0.00000000
v -7.50000000 27.50000000 0.50000000
v -7.50000000 30.00000000 0.00000000
v -7.50000000 30.00000000 0.50000000
v -5.35928774 28.81037521 0.50000000
v -4.64365101 20.50535965 0.50000000
v -3.29065490 20.59944725 0.54245400
v -2.98163700 20.59944725 0.54245400
v -4.84635210 20.23421478 0.59118801
v -1.62864113 20.50535965 0.50000000
v -1.42593980 20.23421478 0.59118801
v -4.85382366 22.40355301 1.65434206
v -1.41846836 22.40355301 1.65434206
v -1.11304903 22.40742683 1.99233699
v -0.91300416 28.81037521 0.50000000
v -5.35928774 21.91092491 3.07518172
v -5.15775776 21.91092491 3.07518172
v -5.15804863 22.33730316 3.07251263
v -5.35928774 21.74541473 3.10242915
v -5.15761709 21.74541473 3.10242915
v -5.35928774 23.22832108 3.06693482
v -5.15844440 23.22832108 3.06693482
v -5.15844250 23.26217270 3.08249950
v -5.35928774 23.63574219 3.25426626
v -5.15846014 23.63574219 3.25426626
v -5.35928774 21.43167305 3.39505267
v -5.15709448 21.43167305 3.39505267
v -5.35928774 21.34612083 3.58523297
v -5.15683460 21.34612083 3.58523297
v -5.15507412 20.31821823 4.36396837
v -5.15542746 20.48768616 4.36396837
v -5.15544081 20.50734711 4.36396837
v -5.15545034 20.52160454 4.36396837
v -5.35928774 21.38762856 4.36396837
v -5.15603590 21.38762856 4.36396837
v -5.35928774 23.86013412 3.49502873
v -5.15830469 23.86013412 3.49502873
v -5.15788794 23.85379028 3.83706427
v -5.35928774 23.84401894 4.36396837
v -5.15731621 23.84401894 4.36396837
v -5.15750122 24.26691055 4.36396837
v -5.15900087 26.75780487 4.36396837
v -5.15915489 27.01383018 4.36396837
v -5.15919733 27.08474541 4.36396837
v -5.15920687 27.10012817 4.36396837
v -5.15928555 27.23087502 4.36396837
v -5.35928774 28.81037521 4.36396837
v -1.11453438 21.91092491 3.07518172
v -1.11424339 22.33730316 3.07251263
v -0.91300416 21.91092491 3.07518172
v -1.11467516 21.74541473 3.10242915
v -0.91300416 21.74541473 3.10242915
v -1.11384785 23.22832108 3.06693482
v -1.11384976 23.26217270 3.08249998
v -0.91300416 23.22832108 3.06693482
v -1.11383212 23.63574219 3.25426626
v -0.91300416 23.63574219 3.25426626
v -1.11519790 21.43167305 3.39505267
v -0.91300416 21.43167305 3.39505267
v -1.11545765 21.34612083 3.58523297
v -0.91300416 21.34612083 3.58523297
v -1.11721802 20.31821823 4.36396837
v -1.11686468 20.48768616 4.36396837
v -1.11685145 20.50734711 4.36396837
v -1.11684179 20.52160454 4.36396837
v -1.11625648 21.38762856 4.36396837
v -0.91300416 21.38762856 4.36396837
v -1.11398745 23.86013412 3.49502873
v -0.91300416 23.86013412 3.49502873
v -1.11440396 23.85379219 3.83706284
v -1.11497593 23.84401894 4.36396837
v -1.11479104 24.26691437 4.36396837
v -0.91300416 23.84401894 4.36396837
v -4.66619492 28.32418442 4.36396837
v -4.65173817 28.35648155 4.36396837
v -4.64931440 28.36112976 4.36396837
v -4.64365101 28.37389374 4.36396837
v -4.60631800 28.37410545 4.36396837
v -3.42878699 28.36857224 4.36396837
v -2.84350491 28.36857224 4.36396837
v -1.11329150 26.75780678 4.36396837
v -1.11313736 27.01383018 4.36396837
v -1.11309469 27.08474541 4.36396837
v -1.11308551 27.10012817 4.36396837
v -1.11300671 27.23087502 4.36396837
v -1.66597414 28.37410545 4.36396837
v -1.60609734 28.32418442 4.36396837
v -1.62055373 28.35648155 4.36396837
v -1.62864113 28.37389374 4.36396837
v -1.62297785 28.36112976 4.36396837
v -0.91300416 28.81037521 4.36396837
v 0.91855466 10.65643311 0.50000000
v 1.12171221 11.92162609 0.50000000
v 1.12038946 13.39409351 0.88242197
v 1.11855459 13.75382805 1.49337304
v 3.09257197 11.65229702 1.46879196
v 2.76751089 11.61142921 1.62379503
v 3.17972803 11.65229702 1.46879196
v 3.50478911 11.61142921 1.62379503
v 0.91855466 15.59204865 0.50000000
v 1.63885403 19.22855186 0.50000000
v 4.58565760 19.22855186 0.50000000
v 2.65134287 19.95691299 0.68629700
v 2.64438510 19.94068146 0.69802099
v 2.66784883 19.98858261 0.66342598
v 2.65916729 19.97288895 0.67475802
v 2.62160730 19.83966064 0.77100700
v 2.63314676 19.90757561 0.72194099
v 2.62888837 19.89075851 0.73408800
v 2.63831997 19.92422295 0.70991099
v 2.62553740 19.87381363 0.74633098
v 2.62310266 19.85677528 0.75864702
v 2.62104750 19.82251549 0.78339601
v 2.62278843 19.78821373 0.80815297
v 2.62142491 19.80536652 0.79578501
v 2.62822533 19.75416183 0.83272302
v 2.62504911 19.77113914 0.82047200
v 3.55776834 19.98703957 0.66453898
v 3.56637621 19.97131729 0.67589402
v 3.57411480 19.95531464 0.68745202
v 3.58098245 19.93906212 0.69919401
v 3.59204030 19.90591621 0.72314000
v 3.58695483 19.92257881 0.71109700
v 3.60321641 19.83795738 0.77223802
v 3.59621358 19.88908195 0.73530000
v 3.59947181 19.87212563 0.74755001
v 3.60181665 19.85508537 0.75986999
v 3.60369420 19.82081795 0.78462702
v 3.60318112 19.80365562 0.79701197
v 3.59612107 19.75247765 0.83393401
v 3.60175633 19.78652000 0.80937600
v 3.59940839 19.76945114 0.82169199
v 2.65896177 19.67166328 0.89212900
v 2.66780019 19.65591049 0.90348297
v 2.71117091 19.59656525 0.94640899
v 2.67744541 19.64050484 0.91460800
v 2.68789268 19.62546158 0.92548299
v 2.69915199 19.61080551 0.93608999
v 2.72393441 19.58276939 0.95641798
v 2.73742151 19.56943703 0.96609998
v 2.75159407 19.55660057 0.97543198
v 2.63767266 19.72062302 0.85692501
v 2.63239908 19.73736954 0.84488302
v 2.64389491 19.70404434 0.86882901
v 2.65100074 19.68771362 0.88057101
v 2.79800534 19.52124786 1.00118005
v 2.76642537 19.54426956 0.98440403
v 2.78192043 19.53248215 0.99299097
v 2.81467199 19.51058769 1.00895596
v 2.83190250 19.50051880 1.01630700
v 2.84963775 19.49106216 1.02321398
v 2.86785054 19.48224068 1.02966201
v 2.88652110 19.47405815 1.03564596
v 2.90560579 19.46653366 1.04115105
v 2.92507005 19.45968246 1.04616594
v 2.94489145 19.45351410 1.05068398
v 2.96500635 19.44804382 1.05469000
v 2.98539543 19.44327545 1.05818403
v 3.00602174 19.43921661 1.06115603
v 3.02683997 19.43589020 1.06359804
v 3.04781890 19.43327141 1.06551194
v 3.06891751 19.43140411 1.06688702
v 3.09009814 19.43026161 1.06772494
v 3.11130738 19.42985916 1.06801999
v 3.57297206 19.68610573 0.88172603
v 3.56491208 19.67008591 0.89326400
v 3.55602336 19.65437126 0.90459698
v 3.51232839 19.59517670 0.94741702
v 3.54627514 19.63899422 0.91569698
v 3.53573966 19.62398911 0.92654699
v 3.52441049 19.60937500 0.93712699
v 3.49948144 19.58142662 0.95739299
v 3.47169471 19.55535316 0.97634000
v 3.48593545 19.56814384 0.96704102
v 3.58647752 19.71896935 0.85811198
v 3.59185910 19.73571587 0.84608197
v 3.58017159 19.70241356 0.87000197
v 3.27786064 19.45293427 1.05110502
v 3.39109373 19.49955177 1.01701105
v 3.40836430 19.50955963 1.00970602
v 3.42510319 19.52016068 1.00197101
v 3.33632946 19.47327995 1.03621602
v 3.35504556 19.48139763 1.03027904
v 3.31719780 19.46582413 1.04167104
v 3.29770064 19.45903969 1.04663801
v 3.37330055 19.49016380 1.02387094
v 3.13252711 19.43019104 1.06777704
v 3.15370727 19.43126106 1.06699300
v 3.17481995 19.43305397 1.06567299
v 3.19580841 19.43559647 1.06381297
v 3.21664643 19.43885612 1.06142199
v 3.23729396 19.44283485 1.05850303
v 3.25770235 19.44754028 1.05506003
v 3.45678067 19.54308128 0.98527098
v 3.44123840 19.53134537 0.99382001
v 5.35373735 10.65643311 0.50000000
v 5.15057993 11.92162609 0.50000000
v 5.15190268 13.39409351 0.88242197
v 7.50000000 10.00000000 0.00000000
v 8.50055885 11.08332920 0.00000000
v 8.58332920 11.00055885 0.00000000
v 8.53786755 11.03786755 0.00000000
v 8.47283649 11.13519478 0.00000000
v 8.45576477 11.19147301 0.00000000
v 8.63519478 10.97283649 0.00000000
v 8.69147301 10.95576477 0.00000000
v 8.50055885 11.08332920 0.27499998
v 8.58332920 11.00055885 0.27500001
v 8.53786755 11.03786755 0.27500001
v 8.47283649 11.13519478 0.27500001
v 8.45576477 11.19147301 0.27500001
v 8.63519478 10.97283649 0.27500001
v 8.69147301 10.95576477 0.27500001
v 7.50000000 10.00000000 0.50000000
v 8.37876892 10.87876892 0.50000000
v 8.26496315 11.04909134 0.50000000
v 8.23508739 11.14757729 0.50000000
v 8.31347847 10.95832539 0.50000000
v 8.54909134 10.76496315 0.50000000
v 8.45832539 10.81347847 0.50000000
v 8.64757729 10.73508739 0.50000000
v 8.44999981 11.25000000 0.00000000
v 8.45576477 11.30852699 0.00000000
v 8.47283649 11.36480522 0.00000000
v 8.50055885 11.41667080 0.00000000
v 8.53786755 11.46213245 0.00000000
v 8.58332920 11.49944115 0.00000000
v 8.63519478 11.52716351 0.00000000
v 8.69147301 11.54423523 0.00000000
v 8.44999981 11.25000000 0.27500001
v 8.45576477 11.30852699 0.27500001
v 8.47283649 11.36480522 0.27500001
v 8.50055885 11.41667080 0.27499998
v 8.53786755 11.46213245 0.27500001
v 8.58332920 11.49944115 0.27500001
v 8.63519478 11.52716351 0.27500001
v 8.69147301 11.54423523 0.27500001
v 8.22500038 11.25000000 0.50000000
v 8.23508739 11.35242271 0.50000000
v 8.26496315 11.45090866 0.50000000
v 8.31347847 11.54167461 0.50000000
v 8.37876892 11.62123108 0.50000000
v 8.45832539 11.68652153 0.50000000
v 8.54909134 11.73503685 0.50000000
v 8.64757729 11.76491261 0.50000000
v 8.75000000 10.94999981 0.00000000
v 8.80852699 10.95576477 0.00000000
v 8.86480522 10.97283649 0.00000000
v 8.91667080 11.00055885 0.00000000
v 8.96213245 11.03786755 0.00000000
v 8.99944115 11.08332920 0.00000000
v 9.02716351 11.13519478 0.00000000
v 9.04423523 11.19147301 0.00000000
v 8.75000000 10.94999981 0.27500001
v 8.80852699 10.95576477 0.27500001
v 8.86480522 10.97283649 0.27500001
v 8.91667080 11.00055885 0.27500001
v 8.96213245 11.03786755 0.27500001
v 8.99944115 11.08332920 0.27499998
v 9.02716351 11.13519478 0.27500001
v 9.04423523 11.19147301 0.27500001
v 10.00000000 10.00000000 0.00000000
v 8.75000000 10.72500038 0.50000000
v 8.85242271 10.73508739 0.50000000
v 8.95090866 10.76496315 0.50000000
v 9.04167461 10.81347847 0.50000000
v 9.12123108 10.87876892 0.50000000
v 9.18652153 10.95832539 0.50000000
v 9.23503685 11.04909134 0.50000000
v 9.26491261 11.14757729 0.50000000
v 10.00000000 10.00000000 0.50000000
v 8.75000000 11.55000019 0.00000000
v 8.80852699 11.54423523 0.00000000
v 8.86480522 11.52716351 0.00000000
v 9.05000019 11.25000000 0.00000000
v 9.04423523 11.30852699 0.00000000
v 9.02716351 11.36480522 0.00000000
v 8.96213245 11.46213245 0.00000000
v 8.91667080 11.49944115 0.00000000
v 8.99944115 11.41667080 0.00000000
v 8.75000000 11.55000019 0.27500001
v 8.80852699 11.54423523 0.27500001
v 8.86480522 11.52716351 0.27500001
v 9.05000019 11.25000000 0.27500001
v 9.04423523 11.30852699 0.27500001
v 9.02716351 11.36480522 0.27500001
v 8.96213245 11.46213150 0.27500001
v 8.91667080 11.49944115 0.27500001
v 8.99944115 11.41667080 0.27499998
v 8.75000000 11.77499962 0.50000000
v 8.85242271 11.76491261 0.50000000
v 9.04167461 11.68652153 0.50000000
v 8.95090866 11.73503685 0.50000000
v 9.18652153 11.54167461 0.50000000
v 9.27499962 11.25000000 0.50000000
v 9.26491261 11.35242271 0.50000000
v 9.23503685 11.45090866 0.50000000
v 9.12123108 11.62123108 0.50000000
v 7.50000000 12.50000000 0.00000000
v 7.50000000 12.50000000 0.50000000
v 10.00000000 12.50000000 0.00000000
v 10.00000000 12.50000000 0.50000000
v 5.15373755 13.75382805 1.49337304
v 5.35373735 15.59204865 0.50000000
v 3.02793002 11.40085793 2.42244196
v 3.24436998 11.40085793 2.42244196
v 0.91855466 10.65643311 4.50000000
v 1.12487507 10.85904884 4.50000000
v 1.11917019 10.85908890 4.50000000
v 1.12830758 10.85904121 4.50000000
v 1.11916184 10.86603832 4.50000000
v 2.11445308 10.65643311 4.50000000
v 2.11609817 10.65643311 4.50000000
v 1.11990571 12.51566982 4.50000000
v 0.91855466 15.59204865 4.50000000
v 1.11974883 15.38661671 4.50000000
v 1.63885403 19.22855186 4.50000000
v 2.65138841 19.67686653 4.50000000
v 2.79180408 19.52262497 4.50000000
v 2.80874491 19.51167488 4.50000000
v 2.70382237 19.59995842 4.50000000
v 2.71671677 19.58579636 4.50000000
v 2.73035836 19.57211113 4.50000000
v 2.66987801 19.64497948 4.50000000
v 2.69170427 19.61455536 4.50000000
v 2.68037963 19.62957191 4.50000000
v 2.66021085 19.66075134 4.50000000
v 2.74471092 19.55893135 4.50000000
v 2.75975966 19.54627037 4.50000000
v 2.77546859 19.53416252 4.50000000
v 2.63639617 19.70998573 4.50000000
v 2.64344788 19.69329071 4.50000000
v 2.63024998 19.72692871 4.50000000
v 2.62504840 19.74399567 4.50000000
v 2.84431195 19.49162292 4.50000000
v 2.82626414 19.50133324 4.50000000
v 2.86285424 19.48256493 4.50000000
v 2.88187289 19.47416115 4.50000000
v 2.94138217 19.45307922 4.50000000
v 2.96190238 19.44747162 4.50000000
v 2.90105867 19.46654320 4.50000000
v 2.92116809 19.45940971 4.50000000
v 2.98268628 19.44257545 4.50000000
v 3.00374961 19.43839455 4.50000000
v 3.02500677 19.43495941 4.50000000
v 3.04643512 19.43226624 4.50000000
v 3.06798410 19.43033409 4.50000000
v 3.08961987 19.42915535 4.50000000
v 3.11128545 19.42874146 4.50000000
v 3.38438869 19.22855186 4.50000000
v 3.13296056 19.42908287 4.50000000
v 3.15459490 19.43018532 4.50000000
v 3.17615843 19.43204117 4.50000000
v 3.19759774 19.43465614 4.50000000
v 3.21887660 19.43802071 4.50000000
v 3.23995733 19.44212532 4.50000000
v 3.26076818 19.44695282 4.50000000
v 3.28132677 19.45248985 4.50000000
v 3.30156732 19.45874786 4.50000000
v 3.32144523 19.46570969 4.50000000
v 3.34094048 19.47336197 4.50000000
v 3.36000776 19.48169899 4.50000000
v 3.37859774 19.49070168 4.50000000
v 3.39669538 19.50034142 4.50000000
v 3.41426539 19.51061821 4.50000000
v 3.43126869 19.52151108 4.50000000
v 3.44766665 19.53299522 4.50000000
v 3.46343756 19.54504585 4.50000000
v 3.47855592 19.55764961 4.50000000
v 3.49298263 19.57078362 4.50000000
v 3.50668859 19.58441925 4.50000000
v 3.51966119 19.59853172 4.50000000
v 3.53185177 19.61309052 4.50000000
v 3.54325056 19.62806511 4.50000000
v 3.55383849 19.64343071 4.50000000
v 3.56360054 19.65917206 4.50000000
v 3.57249856 19.67525864 4.50000000
v 3.58052802 19.69164467 4.50000000
v 3.58767343 19.70831680 4.50000000
v 3.59390879 19.72524071 4.50000000
v 3.59921145 19.74232292 4.50000000
v 4.58565760 19.22855186 4.50000000
v 5.14398432 10.85904121 4.50000000
v 5.14741707 10.85904884 4.50000000
v 5.15312195 10.85908890 4.50000000
v 5.15313005 10.86603832 4.50000000
v 5.35373735 10.65643311 4.50000000
v 5.15238667 12.51566982 4.50000000
v 5.15254307 15.38661671 4.50000000
v 5.35373735 15.59204865 4.50000000
v 1.63885403 24.63489914 0.50000000
v 2.84932089 20.15424347 0.54414803
v 2.83150411 20.14466667 0.55101198
v 2.81422162 20.13447952 0.55831599
v 2.90570617 20.17882729 0.52635199
v 2.92535806 20.18564606 0.52138400
v 2.94536614 20.19178200 0.51691800
v 2.96568847 20.19722366 0.51296198
v 2.88643146 20.17133141 0.53180701
v 2.86763096 20.16313744 0.53774297
v 2.98628163 20.20194626 0.50951999
v 3.00710940 20.20596695 0.50660098
v 3.02813625 20.20923996 0.50420898
v 3.04932117 20.21179199 0.50234997
v 3.07063031 20.21360779 0.50103003
v 3.09200597 20.21468163 0.50024599
v 3.11341906 20.21502876 0.50000000
v 3.13483882 20.21461296 0.50029701
v 3.15621567 20.21345901 0.50113499
v 3.17751074 20.21158028 0.50251102
v 3.19868326 20.20894241 0.50442398
v 3.21969008 20.20559311 0.50686598
v 3.24050331 20.20151329 0.50983900
v 3.26106882 20.19671059 0.51333201
v 3.37719274 20.15333748 0.54480898
v 3.39495277 20.14368057 0.55171502
v 3.41218400 20.13344193 0.55906397
v 3.28135777 20.19122124 0.51733899
v 3.30132484 20.18500137 0.52185398
v 3.32095838 20.17812347 0.52687198
v 3.34017968 20.17053795 0.53237599
v 3.35892391 20.16228867 0.53835702
v 2.78138542 20.11237144 0.57420301
v 2.79750299 20.12370872 0.56605202
v 2.76590633 20.10047340 0.58275098
v 2.75106215 20.08807755 0.59168297
v 2.72349691 20.06176758 0.61062998
v 2.69886994 20.03366089 0.63089597
v 2.71080256 20.04792404 0.62060601
v 2.73693013 20.07514763 0.60098201
v 2.68771505 20.01899719 0.64147300
v 2.67737412 20.00395966 0.65232599
v 3.42885041 20.12261391 0.56684297
v 3.44489479 20.11120796 0.57503098
v 3.46031690 20.09926796 0.58361900
v 3.47508430 20.08680534 0.59258997
v 3.48915887 20.07385254 0.60192299
v 3.50251818 20.06040955 0.61160499
v 3.51513720 20.04652596 0.62161398
v 3.52700448 20.03222275 0.63193297
v 3.53806281 20.01752090 0.64253700
v 3.54832959 20.00244904 0.65341401
v 4.58565760 24.63489914 0.50000000
v 2.41236234 26.79963303 0.50000000
v 2.41236234 28.99682426 0.50000000
v 3.81236267 26.79963303 0.50000000
v 2.76403928 27.14639854 0.66165298
v 2.74919939 27.16158676 0.65865898
v 2.73505545 27.17739296 0.65554398
v 2.77954364 27.13187218 0.66451800
v 2.79566073 27.11801338 0.66725099
v 2.81238365 27.10486031 0.66984600
v 2.64254117 27.34233093 0.62308401
v 2.64947963 27.32239914 0.62700200
v 2.61957788 27.48751259 0.59457302
v 2.63138127 27.38299942 0.61509198
v 2.62713838 27.40366173 0.61103499
v 2.63651347 27.36254501 0.61911100
v 2.62149310 27.44543076 0.60283500
v 2.62385607 27.42448807 0.60694599
v 2.62003922 27.46646690 0.59870797
v 2.65728188 27.30278206 0.63085902
v 2.67547441 27.26465225 0.63836098
v 2.68581271 27.24621391 0.64199001
v 2.70890784 27.21074677 0.64897299
v 2.69696236 27.22823143 0.64552999
v 2.72161078 27.19379044 0.65231299
v 2.66596437 27.28351784 0.63464803
v 2.96367764 27.02755165 0.68510801
v 2.82968211 27.09242821 0.67229903
v 2.84750366 27.08074951 0.67460400
v 2.86581707 27.06984711 0.67675602
v 2.88460374 27.05973053 0.67875302
v 2.90381932 27.05042458 0.68058997
v 2.92342854 27.04195595 0.68226302
v 2.94339871 27.03431892 0.68377101
v 2.98423839 27.02165031 0.68627399
v 3.00504589 27.01662827 0.68726599
v 3.02604795 27.01250458 0.68808103
v 3.04721856 27.00926781 0.68871999
v 3.06851101 27.00694656 0.68917900
v 3.08989000 27.00553513 0.68945801
v 3.11129761 27.00503349 0.68955702
v 3.13271594 27.00544357 0.68947601
v 3.15409327 27.00677109 0.68921399
v 3.17540026 27.00900078 0.68877298
v 3.19658375 27.01213837 0.68815303
v 3.25901532 27.02692604 0.68523198
v 3.21760535 27.01618004 0.68735498
v 3.23843098 27.02110863 0.68638098
v 3.27933550 27.03360367 0.68391198
v 3.42743039 27.11667824 0.66751498
v 3.29933167 27.04115677 0.68242103
v 3.31897736 27.04953957 0.68076402
v 3.33823276 27.05876732 0.67894298
v 3.35707092 27.06879997 0.67696202
v 3.37542629 27.07963943 0.67482299
v 3.39330125 27.09123611 0.67253399
v 3.41065311 27.10358620 0.67009699
v 3.44361329 27.13046837 0.66479498
v 3.45917320 27.14493561 0.66194201
v 3.47409296 27.16004753 0.65896201
v 3.48830581 27.17580223 0.65585798
v 3.56661367 27.30085754 0.63123798
v 3.58153248 27.34033966 0.62347502
v 3.57451916 27.32043457 0.62738800
v 3.58765459 27.36053085 0.61950701
v 3.59288335 27.38096237 0.61549300
v 3.60514545 27.48542023 0.59498399
v 3.59719443 27.40160370 0.61143899
v 3.60304213 27.44335365 0.60324299
v 3.60058355 27.42241287 0.60735297
v 3.60456443 27.46437836 0.59911698
v 3.51459646 27.20903969 0.64930999
v 3.50181603 27.19213867 0.65263897
v 3.52660561 27.22647858 0.64587599
v 3.54825640 27.26280403 0.63872403
v 3.53783131 27.24440956 0.64234501
v 3.55786896 27.28162956 0.63502002
v 2.64963889 27.65259552 0.56217003
v 2.65748644 27.67220497 0.55831897
v 2.66617107 27.69148254 0.55453801
v 2.67574215 27.71034241 0.55083299
v 2.68610430 27.72880745 0.54721200
v 2.69731569 27.74678421 0.54368198
v 2.70929456 27.76427841 0.54024798
v 2.72204900 27.78124046 0.53691900
v 2.73553991 27.79764175 0.53369898
v 2.78021979 27.84317398 0.52476197
v 2.79641366 27.85703278 0.52204198
v 2.74974442 27.81346130 0.53059602
v 2.76465702 27.82864189 0.52761501
v 2.83057928 27.88260269 0.51702303
v 2.81320620 27.87019348 0.51946098
v 2.84847355 27.89428139 0.51473302
v 2.86687970 27.90517616 0.51259601
v 2.88575673 27.91526031 0.51061398
v 2.90506387 27.92453957 0.50879401
v 2.92475843 27.93297958 0.50713599
v 2.94481564 27.94057655 0.50564599
v 2.96519399 27.94729996 0.50432599
v 2.98584652 27.95315361 0.50317699
v 3.00674248 27.95811844 0.50220299
v 3.02783608 27.96218681 0.50140500
v 3.04909539 27.96534348 0.50078398
v 3.07047915 27.96759224 0.50034398
v 3.09193182 27.96892166 0.50008202
v 3.11342311 27.96933937 0.50000000
v 3.15637445 27.96740913 0.50037903
v 3.17774320 27.96507263 0.50083798
v 3.19898963 27.96181679 0.50147599
v 3.22006488 27.95766258 0.50229102
v 3.24094248 27.95261002 0.50328302
v 3.26157022 27.94667244 0.50444901
v 3.13492060 27.96883202 0.50009900
v 3.28190947 27.93985939 0.50578600
v 3.30193114 27.93218613 0.50729299
v 3.32159853 27.92365074 0.50896698
v 3.34086061 27.91428947 0.51080400
v 3.39589405 27.88141823 0.51725799
v 3.41320038 27.86891365 0.51971000
v 3.42994571 27.85569000 0.52230603
v 3.35968184 27.90412331 0.51279998
v 3.37803817 27.89315224 0.51495302
v 3.47641730 27.81191826 0.53089899
v 3.49054909 27.79604340 0.53401297
v 3.50397611 27.77958488 0.53724402
v 3.54997325 27.70849800 0.55119699
v 3.53966904 27.72698975 0.54756701
v 3.56806016 27.67027664 0.55869800
v 3.55943537 27.68958092 0.55490899
v 3.52856493 27.74502182 0.54402798
v 3.51665044 27.76256561 0.54058403
v 3.44607639 27.84176636 0.52503902
v 3.46157455 27.82716560 0.52790499
v 3.81236267 28.99682426 0.50000000
v 2.62722945 27.57133293 0.57811898
v 2.62153530 27.52957344 0.58631402
v 2.62007260 27.50856018 0.59043902
v 2.62391758 27.55051231 0.58220398
v 2.63663220 27.61243439 0.57005000
v 2.63147354 27.59198570 0.57406503
v 2.64268827 27.63265419 0.56608200
v 3.58864474 27.61041832 0.57044601
v 3.59370828 27.58994484 0.57446498
v 3.58268118 27.63066292 0.56647402
v 3.57580686 27.65062141 0.56255502
v 3.59786391 27.56927109 0.57852298
v 3.60337520 27.52749443 0.58672202
v 3.60474896 27.50646782 0.59085000
v 3.60108805 27.54843903 0.58261102
v 7.50000000 27.50000000 0.00000000
v 8.50055885 28.58332825 0.00000000
v 8.58332920 28.50055885 0.00000000
v 8.53786755 28.53786850 0.00000000
v 8.47283649 28.63519478 0.00000000
v 8.45576477 28.69147301 0.00000000
v 8.63519478 28.47283554 0.00000000
v 8.69147301 28.45576477 0.00000000
v 8.50055885 28.58332825 0.27499998
v 8.58332920 28.50055885 0.27500001
v 8.53786755 28.53786850 0.27500001
v 8.47283649 28.63519478 0.27500001
v 8.45576477 28.69147301 0.27500001
v 8.63519478 28.47283554 0.27500001
v 8.69147301 28.45576477 0.27500001
v 7.50000000 27.50000000 0.50000000
v 8.37876892 28.37876892 0.50000000
v 8.26496315 28.54909134 0.50000000
v 8.23508739 28.64757729 0.50000000
v 8.31347847 28.45832634 0.50000000
v 8.54909134 28.26496315 0.50000000
v 8.45832539 28.31347847 0.50000000
v 8.64757729 28.23508835 0.50000000
v 7.50000000 30.00000000 0.00000000
v 8.44999981 28.75000000 0.00000000
v 8.45576477 28.80852699 0.00000000
v 8.47283649 28.86480522 0.00000000
v 8.50055885 28.91667175 0.00000000
v 8.53786755 28.96213150 0.00000000
v 8.58332920 28.99944115 0.00000000
v 8.63519478 29.02716446 0.00000000
v 8.69147301 29.04423523 0.00000000
v 8.44999981 28.75000000 0.27500001
v 8.45576477 28.80852699 0.27500001
v 8.47283649 28.86480522 0.27500001
v 8.50055885 28.91667175 0.27499998
v 8.53786755 28.96213150 0.27500001
v 8.58332920 28.99944115 0.27500001
v 8.63519478 29.02716446 0.27500001
v 8.69147301 29.04423523 0.27500001
v 7.50000000 30.00000000 0.50000000
v 8.22500038 28.75000000 0.50000000
v 8.23508739 28.85242271 0.50000000
v 8.26496315 28.95090866 0.50000000
v 8.31347847 29.04167366 0.50000000
v 8.37876892 29.12123108 0.50000000
v 8.45832539 29.18652153 0.50000000
v 8.54909134 29.23503685 0.50000000
v 8.64757729 29.26491165 0.50000000
v 8.75000000 28.45000076 0.00000000
v 8.80852699 28.45576477 0.00000000
v 8.86480522 28.47283554 0.00000000
v 8.91667080 28.50055885 0.00000000
v 8.96213245 28.53786850 0.00000000
v 8.99944115 28.58332825 0.00000000
v 9.02716351 28.63519478 0.00000000
v 9.04423523 28.69147301 0.00000000
v 8.75000000 28.45000076 0.27500001
v 8.80852699 28.45576477 0.27500001
v 8.86480522 28.47283554 0.27500001
v 8.91667080 28.50055885 0.27500001
v 8.96213245 28.53786850 0.27500001
v 8.99944115 28.58332825 0.27499998
v 9.02716351 28.63519478 0.27500001
v 9.04423523 28.69147301 0.27500001
v 10.00000000 27.50000000 0.00000000
v 8.75000000 28.22500038 0.50000000
v 8.85242271 28.23508835 0.50000000
v 8.95090866 28.26496315 0.50000000
v 9.04167461 28.31347847 0.50000000
v 9.12123108 28.37876892 0.50000000
v 9.18652153 28.45832634 0.50000000
v 9.23503685 28.54909134 0.50000000
v 9.26491261 28.64757729 0.50000000
v 10.00000000 27.50000000 0.50000000
v 8.75000000 29.04999924 0.00000000
v 8.80852699 29.04423523 0.00000000
v 8.86480522 29.02716446 0.00000000
v 9.05000019 28.75000000 0.00000000
v 9.04423523 28.80852699 0.00000000
v 9.02716351 28.86480522 0.00000000
v 8.96213245 28.96213150 0.00000000
v 8.91667080 28.99944115 0.00000000
v 8.99944115 28.91667175 0.00000000
v 8.75000000 29.04999924 0.27500001
v 8.80852699 29.04423523 0.27500001
v 8.86480522 29.02716446 0.27500001
v 9.05000019 28.75000000 0.27500001
v 9.04423523 28.80852699 0.27500001
v 9.02716351 28.86480522 0.27500001
v 8.96213245 28.96213150 0.27500001
v 8.91667080 28.99944115 0.27500001
v 8.99944115 28.91667175 0.27499998
v 10.00000000 30.00000000 0.00000000
v 8.75000000 29.27499962 0.50000000
v 8.85242271 29.26491165 0.50000000
v 9.04167461 29.18652153 0.50000000
v 8.95090866 29.23503685 0.50000000
v 9.18652153 29.04167366 0.50000000
v 9.27499962 28.75000000 0.50000000
v 9.26491261 28.85242271 0.50000000
v 9.23503685 28.95090866 0.50000000
v 9.12123108 29.12123108 0.50000000
v 10.00000000 30.00000000 0.50000000
v 1.84229195 23.25951576 4.16042423
v 1.84116256 22.77123070 4.50000000
v 1.83915651 22.79290581 4.50000000
v 1.84200084 23.25878525 4.50000000
v 1.84276605 23.51664352 4.50000000
v 1.63885403 24.63489914 4.50000000
v 3.96660924 21.18454361 4.50000000
v 3.11235690 23.84727859 3.72942996
v 3.07602453 24.40127563 4.50000000
v 3.11235690 24.42737198 4.50000000
v 3.14868832 24.40127754 4.50000000
v 4.38242483 23.25952721 4.16041517
v 4.38349104 22.77085876 4.50000000
v 4.38556528 22.79290581 4.50000000
v 4.38195086 23.51666069 4.50000000
v 4.58565760 24.63489914 4.50000000
v 2.41236234 26.79963303 4.50000000
v 2.41236234 28.87599182 4.50000000
v 2.41236234 28.99682426 4.50000000
v 2.72897005 27.17559624 4.50000000
v 2.80741906 27.10169792 4.50000000
v 2.75836563 27.14403152 4.50000000
v 2.74331331 27.15950203 4.50000000
v 2.79044414 27.11510658 4.50000000
v 2.77408600 27.12922478 4.50000000
v 2.65029216 27.30320549 4.50000000
v 2.63544440 27.34341431 4.50000000
v 2.64242196 27.32315254 4.50000000
v 2.62937617 27.36395836 4.50000000
v 2.62422705 27.38474274 4.50000000
v 2.62000084 27.40572929 4.50000000
v 2.61671853 27.42688179 4.50000000
v 2.61438417 27.44814682 4.50000000
v 2.61298776 27.46949577 4.50000000
v 2.61255050 27.49061394 4.50000000
v 2.66865993 27.26442146 4.50000000
v 2.67911220 27.24565887 4.50000000
v 2.69039559 27.22735786 4.50000000
v 2.70248246 27.20955849 4.50000000
v 2.71534753 27.19229317 4.50000000
v 2.65904999 27.28361130 4.50000000
v 2.94053340 27.02977371 4.50000000
v 2.96115017 27.02287102 4.50000000
v 2.82498193 27.08902550 4.50000000
v 2.84308219 27.07711983 4.50000000
v 2.86168575 27.06600380 4.50000000
v 2.88077450 27.05569077 4.50000000
v 2.90030360 27.04620171 4.50000000
v 2.92023182 27.03756142 4.50000000
v 2.98205614 27.01685143 4.50000000
v 3.00321555 27.01172829 4.50000000
v 3.02457285 27.00752068 4.50000000
v 3.04610491 27.00422287 4.50000000
v 3.06776071 27.00185394 4.50000000
v 3.08950567 27.00041008 4.50000000
v 3.11127973 26.99990082 4.50000000
v 3.31572938 26.79963303 4.50000000
v 3.13306427 27.00032043 4.50000000
v 3.15480709 27.00167084 4.50000000
v 3.17647767 27.00394440 4.50000000
v 3.19802213 27.00714874 4.50000000
v 3.21940064 27.01126862 4.50000000
v 3.24057746 27.01630020 4.50000000
v 3.26150846 27.02223015 4.50000000
v 3.28216529 27.02904701 4.50000000
v 3.30249619 27.03674889 4.50000000
v 3.32245803 27.04530716 4.50000000
v 3.34203076 27.05470657 4.50000000
v 3.36116982 27.06494331 4.50000000
v 3.37982154 27.07598877 4.50000000
v 3.39797187 27.08781052 4.50000000
v 3.41558766 27.10040283 4.50000000
v 3.43262410 27.11374283 4.50000000
v 3.44904757 27.12779427 4.50000000
v 3.46483254 27.14253426 4.50000000
v 3.47995448 27.15793610 4.50000000
v 3.49437261 27.17397690 4.50000000
v 3.50805998 27.19061470 4.50000000
v 3.52100396 27.20782089 4.50000000
v 3.53316379 27.22557449 4.50000000
v 3.54452205 27.24382210 4.50000000
v 3.55506229 27.26253700 4.50000000
v 3.56476665 27.28169250 4.50000000
v 3.57360148 27.30124855 4.50000000
v 3.58156204 27.32115555 4.50000000
v 3.58863282 27.34139061 4.50000000
v 3.59479022 27.36191368 4.50000000
v 3.60003018 27.38267326 4.50000000
v 3.60434484 27.40364075 4.50000000
v 3.60772276 27.42477608 4.50000000
v 3.61015368 27.44603920 4.50000000
v 3.61163425 27.46737862 4.50000000
v 3.61217308 27.48853302 4.50000000
v 3.81236267 26.79963303 4.50000000
v 2.61238122 28.28651619 4.50000000
v 2.61290240 28.30850792 4.50000000
v 2.61418176 28.32778931 4.50000000
v 2.61438036 28.33066940 4.50000000
v 2.61647701 28.34989357 4.50000000
v 2.61679745 28.35275269 4.50000000
v 2.61972094 28.37188721 4.50000000
v 2.62017131 28.37476158 4.50000000
v 2.62445807 28.39648438 4.50000000
v 2.62901306 28.41532326 4.50000000
v 2.62968206 28.41805267 4.50000000
v 2.63583851 28.43942833 4.50000000
v 2.64198518 28.45777893 4.50000000
v 2.64287424 28.46040535 4.50000000
v 2.65081644 28.48109436 4.50000000
v 2.65963411 28.50142288 4.50000000
v 2.66812873 28.51890182 4.50000000
v 2.66932034 28.52132988 4.50000000
v 2.67854285 28.53842163 4.50000000
v 2.67983699 28.54079819 4.50000000
v 2.68978477 28.55743980 4.50000000
v 2.69119096 28.55977440 4.50000000
v 2.70186377 28.57601166 4.50000000
v 2.70333648 28.57823372 4.50000000
v 2.71630120 28.59617424 4.50000000
v 2.72831154 28.61138725 4.50000000
v 2.72994566 28.61344337 4.50000000
v 2.74439263 28.63017273 4.50000000
v 2.75947309 28.64616394 4.50000000
v 2.77525616 28.66150665 4.50000000
v 2.79172444 28.67617035 4.50000000
v 2.80674100 28.68841934 4.50000000
v 2.80872226 28.69002342 4.50000000
v 2.82634091 28.70313835 4.50000000
v 2.84240842 28.71405220 4.50000000
v 2.84454894 28.71549225 4.50000000
v 2.86104178 28.72565651 4.50000000
v 2.86318040 28.72696304 4.50000000
v 2.88237906 28.73764992 4.50000000
v 2.89970565 28.74632072 4.50000000
v 2.90197730 28.74744606 4.50000000
v 3.32476783 28.74648857 4.50000000
v 3.34436297 28.73657417 4.50000000
v 3.34212089 28.73771667 4.50000000
v 3.39810157 28.70328331 4.50000000
v 3.36341310 28.72586060 4.50000000
v 3.37993860 28.71558762 4.50000000
v 3.38204288 28.71427536 4.50000000
v 3.41771364 28.68868065 4.50000000
v 3.40015531 28.70187187 4.50000000
v 3.43469954 28.67471695 4.50000000
v 3.58956480 28.43721962 4.50000000
v 3.61234426 28.28435707 4.50000000
v 3.61229610 28.28694534 4.50000000
v 3.61191726 28.30630112 4.50000000
v 3.61053658 28.32841873 4.50000000
v 3.61024332 28.33127785 4.50000000
v 3.60821128 28.35055923 4.50000000
v 3.60780382 28.35333443 4.50000000
v 3.60494304 28.37253189 4.50000000
v 3.60073376 28.39433289 4.50000000
v 3.60010004 28.39702034 4.50000000
v 3.59560180 28.41592789 4.50000000
v 3.58259177 28.45832825 4.50000000
v 3.56602097 28.49937439 4.50000000
v 3.57473898 28.47905922 4.50000000
v 3.54462647 28.54115105 4.50000000
v 3.54596186 28.53888702 4.50000000
v 3.53473139 28.55786514 4.50000000
v 3.52262807 28.57642555 4.50000000
v 3.52111888 28.57854080 4.50000000
v 3.55515647 28.52171707 4.50000000
v 3.55642843 28.51932526 4.50000000
v 3.44918489 28.66170883 4.50000000
v 3.45110059 28.65998077 4.50000000
v 3.46677947 28.64460564 4.50000000
v 3.48186326 28.62846375 4.50000000
v 3.49616385 28.61175728 4.50000000
v 3.50977683 28.59438324 4.50000000
v 3.50818419 28.59642029 4.50000000
v 2.91964626 28.75533867 4.50000000
v 2.92191100 28.75634193 4.50000000
v 2.94232154 28.76438522 4.50000000
v 2.96063423 28.77068329 4.50000000
v 2.96295762 28.77147484 4.50000000
v 2.98397183 28.77766991 4.50000000
v 3.00513220 28.78289986 4.50000000
v 3.02415562 28.78672600 4.50000000
v 3.02660131 28.78720665 4.50000000
v 3.04572034 28.79017258 4.50000000
v 3.04813004 28.79053879 4.50000000
v 3.06742811 28.79265213 4.50000000
v 3.06984234 28.79290962 4.50000000
v 3.08919978 28.79416847 4.50000000
v 3.09162092 28.79431915 4.50000000
v 3.11343861 28.79475975 4.50000000
v 3.13284111 28.79429245 4.50000000
v 3.13526583 28.79422569 4.50000000
v 3.15463209 28.79289246 4.50000000
v 3.15710187 28.79271317 4.50000000
v 3.19791913 28.78719902 4.50000000
v 3.20031214 28.78681183 4.50000000
v 3.17874169 28.79024887 4.50000000
v 3.22175837 28.78240967 4.50000000
v 3.24054742 28.77768326 4.50000000
v 3.24290442 28.77708054 4.50000000
v 3.26383877 28.77080917 4.50000000
v 3.28453469 28.76359177 4.50000000
v 3.30485439 28.75547791 4.50000000
v 3.81236267 28.99682426 4.50000000
f 966 962 1236
f 1253 986 987
f 1291 951 952
f 1288 950 957
f 957 951 1290
f 1292 952 953
f 1295 953 954
f 1295 954 955
f 1298 955 956
f 1299 956 958
f 1235 960 961
f 1234 961 965
f 958 959 1299
f 1300 959 960
f 987 990 1251
f 1238 965 966
f 962 963 1240
f 963 964 1242
f 847 1301 978
f 848 978 1301
f 706 1034 845
f 1034 706 1009
f 701 994 1009
f 1034 978 848
f 1103 503 719
f 600 599 705
f 706 616 702
f 616 706 598
f 988 986 1243
f 942 943 1274
f 1274 941 942
f 1277 943 944
f 1277 944 945
f 1279 945 946
f 1280 946 947
f 1283 947 948
f 1285 948 949
f 1287 949 950
f 992 911 1245
f 991 992 1247
f 993 991 1248
f 1243 989 988
f 576 575 771
f 1255 972 989
f 1256 973 972
f 969 975 1262
f 964 976 1265
f 976 977 1266
f 977 967 1268
f 967 968 1268
f 968 969 1271
f 1260 975 974
f 1263 971 970
f 974 971 1260
f 970 973 1264
f 990 993 1250
f 739 555 554
f 567 568 780
f 566 751 589
f 565 750 566
f 564 749 565
f 563 748 564
f 562 747 563
f 561 746 562
f 745 561 560
f 742 560 559
f 744 558 557
f 556 743 557
f 740 556 555
f 558 741 559
f 568 569 778
f 553 737 554
f 552 738 553
f 551 722 552
f 549 731 550
f 543 730 549
f 542 725 543
f 728 540 539
f 726 539 538
f 541 724 542
f 537 723 541
f 540 727 537
f 721 551 548
f 732 548 550
f 586 587 761
f 771 575 596
f 597 769 596
f 775 572 573
f 571 572 777
f 570 775 573
f 773 574 576
f 774 570 574
f 769 597 583
f 765 581 588
f 588 585 765
f 580 760 587
f 585 584 763
f 584 586 763
f 1232 940 941
f 580 595 760
f 594 759 595
f 593 757 594
f 756 593 592
f 591 756 592
f 754 591 590
f 589 754 590
f 582 581 767
f 583 582 767
f 579 567 780
f 577 579 782
f 783 578 577
f 778 569 571
f 879 871 1140
f 868 1135 867
f 865 870 1138
f 864 1123 870
f 869 867 1136
f 869 1137 851
f 871 878 1139
f 872 854 1141
f 873 872 1141
f 874 873 1142
f 875 874 1143
f 876 875 1144
f 877 876 1145
f 878 877 1146
f 866 865 1134
f 880 879 1147
f 881 880 1148
f 882 881 1149
f 883 882 1150
f 883 1151 884
f 884 1152 885
f 885 1153 886
f 846 848 1154
f 886 1156 887
f 887 1156 888
f 888 1158 889
f 889 1158 891
f 891 1160 892
f 849 1119 852
f 925 923 857
f 931 925 858
f 931 869 961
f 961 869 989
f 989 991 986
f 989 986 988
f 990 987 991
f 991 987 986
f 911 992 991
f 990 991 993
f 913 991 989
f 1116 847 846
f 853 1118 854
f 890 892 1160
f 851 1120 850
f 850 1120 849
f 852 1122 853
f 863 857 1132
f 864 856 1125
f 855 1124 856
f 855 860 1126
f 860 858 1127
f 859 862 1129
f 858 859 1128
f 861 1130 862
f 861 863 1131
f 868 866 1135
f 1216 928 929
f 1189 915 913
f 1193 857 981
f 1196 980 982
f 981 980 1194
f 982 979 1198
f 1199 979 984
f 984 983 1201
f 985 922 1203
f 1203 983 985
f 1206 922 923
f 1207 923 924
f 1214 927 928
f 1216 929 930
f 1188 913 914
f 1219 930 933
f 1219 933 934
f 934 931 1221
f 1208 924 925
f 1210 925 926
f 1213 926 927
f 1222 931 932
f 1222 932 936
f 936 935 1225
f 1226 935 937
f 1227 937 938
f 1230 938 939
f 939 940 1230
f 1175 917 905
f 890 1162 893
f 893 1162 895
f 895 1164 896
f 896 1165 897
f 897 1165 898
f 898 1166 899
f 899 1167 900
f 1169 894 901
f 900 1169 901
f 1171 903 902
f 1171 902 894
f 1173 904 903
f 1174 905 904
f 546 733 547
f 1189 911 915
f 918 916 1177
f 920 918 1177
f 919 920 1179
f 921 919 1179
f 906 921 1181
f 1181 908 906
f 907 908 1183
f 1176 916 917
f 1183 909 907
f 909 1185 910
f 1187 914 912
f 1185 912 910
f 477 449 476
f 484 483 475
f 470 484 485
f 458 485 486
f 470 483 484
f 493 475 471
f 487 456 486
f 416 489 490
f 490 492 415
f 489 416 487
f 493 449 482
f 481 482 449
f 449 480 481
f 449 479 480
f 485 484 475
f 478 449 477
f 449 478 479
f 476 302 477
f 414 478 477
f 448 302 476
f 492 491 412
f 491 488 412
f 488 482 410
f 493 471 417
f 471 459 417
f 459 457 417
f 449 493 407
f 482 481 410
f 494 135 616
f 599 500 501
f 498 500 599
f 717 502 494
f 705 497 496
f 495 711 499
f 497 713 495
f 498 495 499
f 496 600 705
f 599 600 496
f 599 495 498
f 616 598 494
f 616 135 601
f 601 134 701
f 409 481 480
f 495 496 497
f 494 502 150
f 496 495 599
f 135 134 601
f 487 493 489
f 493 488 491
f 492 490 493
f 490 489 493
f 491 492 493
f 482 488 493
f 487 475 493
f 486 475 487
f 486 485 475
f 457 450 452
f 465 165 464
f 416 456 487
f 458 459 471
f 456 459 458
f 459 455 457
f 456 455 459
f 455 451 457
f 455 456 416
f 416 451 455
f 415 416 490
f 454 460 461
f 460 416 465
f 454 453 460
f 301 454 461
f 451 450 457
f 452 453 454
f 453 452 450
f 453 416 460
f 416 450 451
f 416 453 450
f 165 465 416
f 477 302 414
f 449 448 476
f 449 447 448
f 449 446 447
f 449 445 446
f 449 444 445
f 468 469 463
f 479 408 480
f 408 479 478
f 483 474 475
f 474 473 475
f 483 472 474
f 473 472 475
f 472 473 474
f 483 470 472
f 485 458 470
f 470 475 472
f 470 471 475
f 456 458 486
f 458 471 470
f 494 598 714
f 468 467 469
f 467 301 469
f 467 466 301
f 466 465 301
f 468 462 467
f 462 466 467
f 466 460 465
f 469 301 463
f 463 462 468
f 461 462 463
f 461 460 462
f 460 466 462
f 301 461 463
f 562 563 564
f 576 597 596
f 576 574 573
f 597 576 573
f 571 573 572
f 571 568 573
f 582 573 578
f 574 570 573
f 568 571 569
f 568 578 573
f 562 595 811
f 582 526 595
f 562 565 592
f 562 564 565
f 573 582 597
f 562 560 561
f 562 558 560
f 562 552 558
f 558 556 557
f 558 555 556
f 558 559 560
f 552 555 558
f 552 554 555
f 552 553 554
f 543 552 562
f 552 548 551
f 548 543 550
f 543 548 552
f 595 562 592
f 544 735 546
f 545 736 544
f 729 538 536
f 720 536 535
f 734 535 547
f 752 503 504
f 792 706 502
f 592 593 595
f 593 594 595
f 592 590 591
f 592 589 590
f 592 566 589
f 592 565 566
f 811 543 562
f 588 587 586
f 595 587 588
f 588 586 584
f 588 584 585
f 595 588 582
f 581 582 588
f 597 582 583
f 595 580 587
f 577 568 567
f 578 568 577
f 567 579 577
f 526 582 578
f 576 596 575
f 507 508 505
f 811 509 543
f 544 519 545
f 519 518 545
f 517 516 515
f 519 509 516
f 509 515 516
f 514 509 513
f 511 513 509
f 509 507 506
f 506 511 509
f 512 510 511
f 512 511 506
f 832 507 509
f 521 520 525
f 505 506 507
f 845 504 706
f 701 134 994
f 504 502 706
f 504 503 150
f 154 150 503
f 502 504 150
f 134 103 1017
f 787 599 501
f 708 498 707
f 708 501 500
f 500 498 708
f 498 499 707
f 534 533 532
f 509 519 543
f 536 544 546
f 519 544 536
f 543 549 550
f 543 540 542
f 540 541 542
f 536 538 543
f 540 538 539
f 540 537 541
f 538 540 543
f 543 519 536
f 547 535 536
f 536 546 547
f 985 857 923
f 533 526 578
f 578 532 533
f 533 531 526
f 530 526 531
f 529 528 526
f 525 526 527
f 528 527 526
f 527 524 525
f 525 520 526
f 526 811 595
f 523 522 525
f 844 526 520
f 522 521 525
f 797 1105 801
f 1105 821 822
f 800 803 1105
f 1105 799 800
f 1105 798 799
f 1105 809 810
f 1105 808 809
f 1105 807 808
f 1105 806 807
f 1105 805 806
f 1105 804 805
f 803 804 1105
f 1105 797 798
f 802 801 1105
f 822 823 1105
f 793 503 1103
f 518 1099 545
f 518 519 1099
f 516 1099 519
f 516 517 1099
f 515 1099 517
f 509 1098 515
f 1098 511 510
f 510 512 1098
f 509 514 1098
f 513 1098 514
f 511 1098 513
f 506 1098 512
f 1109 818 819
f 1109 521 522
f 1109 520 521
f 1109 842 843
f 1109 841 842
f 1109 840 841
f 839 840 1109
f 1109 838 839
f 1109 837 838
f 1109 836 837
f 836 1109 835
f 1109 844 520
f 843 844 1109
f 1109 819 835
f 505 1098 506
f 1109 817 818
f 824 817 1109
f 1098 795 794
f 1098 794 802
f 1105 820 821
f 1105 816 820
f 1105 815 816
f 1105 814 815
f 813 814 1105
f 1105 812 813
f 1105 811 812
f 810 811 1105
f 1105 823 824
f 817 824 818
f 827 832 509
f 834 507 833
f 833 507 832
f 831 833 832
f 831 830 833
f 832 829 831
f 827 828 832
f 796 826 827
f 826 825 827
f 823 822 821
f 820 816 821
f 818 824 836
f 818 836 819
f 827 509 811
f 816 813 821
f 813 823 821
f 815 814 816
f 813 811 823
f 814 813 816
f 811 813 812
f 810 806 811
f 808 810 809
f 808 806 810
f 806 808 807
f 811 806 799
f 799 802 811
f 805 803 806
f 795 1098 796
f 508 1098 505
f 507 1098 508
f 829 1098 831
f 1098 834 833
f 830 1098 833
f 830 831 1098
f 1098 826 796
f 1098 832 828
f 828 827 1098
f 829 832 1098
f 1098 827 825
f 825 826 1098
f 507 834 1098
f 1109 522 523
f 134 1017 994
f 844 843 841
f 844 824 526
f 842 841 843
f 841 837 844
f 841 840 837
f 840 839 838
f 838 837 840
f 837 824 844
f 824 823 526
f 823 811 526
f 819 836 835
f 837 836 824
f 899 900 894
f 912 914 909
f 915 911 991
f 991 913 915
f 910 912 909
f 913 906 909
f 989 899 913
f 906 907 909
f 908 907 906
f 913 905 906
f 905 902 903
f 903 904 905
f 989 869 899
f 902 899 894
f 914 913 909
f 901 894 900
f 899 897 898
f 899 895 897
f 895 896 897
f 899 888 895
f 899 902 905
f 895 890 893
f 892 890 891
f 888 891 890
f 888 890 895
f 888 889 891
f 888 884 887
f 884 886 887
f 930 925 931
f 944 941 947
f 939 931 954
f 941 939 947
f 942 944 943
f 941 944 942
f 940 939 941
f 937 939 938
f 935 939 937
f 932 935 936
f 935 931 939
f 934 930 931
f 930 934 933
f 931 935 932
f 869 888 899
f 928 930 929
f 928 925 930
f 927 925 928
f 925 927 926
f 923 925 924
f 922 985 923
f 906 919 921
f 905 919 906
f 905 920 919
f 916 918 920
f 917 916 905
f 899 905 913
f 920 905 916
f 504 845 1113
f 860 855 856
f 870 858 860
f 872 852 854
f 877 869 851
f 852 853 854
f 852 851 850
f 850 849 852
f 793 845 1034
f 793 1034 848
f 846 793 848
f 417 846 847
f 847 1034 406
f 417 793 846
f 870 860 856
f 793 1113 845
f 1110 532 578
f 1110 534 532
f 1110 533 534
f 1110 531 533
f 530 531 1110
f 1109 526 530
f 1109 524 527
f 1109 525 524
f 1109 529 526
f 527 528 1109
f 528 529 1109
f 1109 523 525
f 877 873 874
f 884 885 886
f 888 871 884
f 883 881 882
f 884 881 883
f 871 881 884
f 881 879 880
f 871 879 881
f 877 871 888
f 869 877 888
f 871 877 878
f 877 874 875
f 877 875 876
f 877 872 873
f 804 803 805
f 877 852 872
f 851 852 877
f 869 858 870
f 867 866 868
f 869 870 867
f 870 866 867
f 866 870 865
f 858 869 931
f 856 864 870
f 857 863 861
f 862 857 861
f 857 862 858
f 862 859 858
f 785 709 714
f 727 540 728
f 725 542 724
f 723 537 727
f 724 541 723
f 722 551 721
f 548 732 721
f 536 720 729
f 535 734 720
f 719 503 752
f 717 792 502
f 786 785 715
f 715 789 786
f 785 714 715
f 539 726 728
f 786 708 785
f 501 786 787
f 785 708 712
f 709 718 717
f 716 718 709
f 497 791 718
f 718 716 497
f 785 712 709
f 713 716 709
f 712 710 709
f 711 713 709
f 709 710 711
f 712 707 710
f 557 743 744
f 757 593 756
f 591 755 756
f 591 754 755
f 754 589 753
f 589 751 753
f 751 566 750
f 750 565 749
f 749 564 748
f 748 563 747
f 747 562 746
f 561 745 746
f 560 742 745
f 741 558 744
f 710 499 711
f 556 740 743
f 559 741 742
f 555 739 740
f 739 554 737
f 737 553 738
f 738 552 722
f 733 546 735
f 734 547 733
f 735 544 736
f 731 732 550
f 731 549 730
f 730 543 725
f 538 729 726
f 973 975 972
f 958 955 960
f 958 960 959
f 962 966 963
f 961 966 965
f 963 966 961
f 961 989 963
f 967 977 968
f 968 963 975
f 975 963 989
f 968 975 969
f 975 989 972
f 975 973 974
f 971 973 970
f 960 954 961
f 973 971 974
f 976 964 977
f 963 968 964
f 977 964 968
f 1034 1017 405
f 1034 847 978
f 979 982 984
f 857 982 980
f 857 858 925
f 857 980 981
f 982 857 985
f 984 982 983
f 983 982 985
f 788 705 599
f 713 497 716
f 497 705 791
f 501 708 786
f 598 789 715
f 715 714 598
f 707 499 710
f 712 708 707
f 714 709 494
f 709 717 494
f 711 495 713
f 1009 702 701
f 1009 706 702
f 792 598 706
f 594 757 758
f 944 947 945
f 945 947 946
f 947 949 948
f 949 947 950
f 947 939 954
f 950 947 957
f 954 931 961
f 951 957 953
f 957 947 954
f 951 953 952
f 953 957 954
f 955 958 956
f 954 960 955
f 762 784 763
f 773 784 774
f 772 784 773
f 771 784 772
f 784 771 770
f 769 784 770
f 784 768 767
f 768 784 769
f 766 784 767
f 765 784 766
f 764 784 765
f 763 784 764
f 761 752 784
f 784 762 761
f 774 784 775
f 752 761 760
f 760 759 752
f 759 758 752
f 757 756 752
f 758 757 752
f 756 755 752
f 755 754 752
f 753 752 754
f 751 752 753
f 750 752 751
f 752 750 749
f 749 748 752
f 747 752 748
f 792 787 789
f 803 799 806
f 827 811 802
f 802 798 797
f 801 802 797
f 803 800 799
f 798 802 799
f 802 794 827
f 796 794 795
f 796 827 794
f 793 417 503
f 791 790 792
f 790 788 792
f 791 705 790
f 746 752 747
f 788 787 792
f 787 786 789
f 705 788 790
f 789 598 792
f 599 787 788
f 782 784 783
f 781 784 782
f 784 780 779
f 780 784 781
f 778 784 779
f 777 784 778
f 776 784 777
f 775 784 776
f 574 773 774
f 791 717 718
f 504 784 752
f 782 579 781
f 780 781 579
f 783 577 782
f 778 571 777
f 572 776 777
f 572 775 776
f 570 774 775
f 576 772 773
f 771 772 576
f 771 596 770
f 596 769 770
f 727 728 719
f 779 568 778
f 780 568 779
f 765 585 764
f 585 763 764
f 763 586 762
f 761 587 760
f 586 761 762
f 583 768 769
f 768 583 767
f 767 581 766
f 765 766 581
f 760 595 759
f 759 594 758
f 723 727 719
f 742 741 752
f 741 744 752
f 744 743 752
f 743 740 752
f 740 739 752
f 746 745 752
f 745 742 752
f 719 752 739
f 717 791 792
f 737 719 739
f 738 719 737
f 738 722 719
f 725 719 730
f 449 441 444
f 725 724 719
f 724 723 719
f 722 721 719
f 732 731 719
f 719 721 732
f 731 730 719
f 734 719 720
f 734 733 719
f 735 719 733
f 736 719 735
f 728 726 719
f 729 720 719
f 726 729 719
f 141 140 219
f 148 131 147
f 130 157 147
f 131 130 147
f 160 159 229
f 159 153 228
f 153 152 227
f 152 151 226
f 225 151 146
f 224 146 145
f 145 144 223
f 144 143 222
f 143 142 221
f 142 141 220
f 149 148 147
f 140 139 218
f 139 138 217
f 138 137 216
f 137 136 199
f 135 150 237
f 199 198 134
f 198 197 134
f 197 196 134
f 196 195 134
f 195 194 134
f 194 193 134
f 193 192 134
f 192 191 134
f 160 153 159
f 158 110 167
f 181 104 166
f 104 168 166
f 168 103 215
f 103 214 215
f 103 213 214
f 108 154 301
f 155 113 165
f 160 164 267
f 122 160 242
f 164 162 163
f 160 162 164
f 160 161 162
f 191 190 134
f 107 181 150
f 157 115 241
f 115 122 241
f 157 110 158
f 156 147 157
f 154 107 150
f 145 153 160
f 151 152 153
f 153 146 151
f 153 145 146
f 155 411 109
f 109 113 155
f 107 154 108
f 135 494 150
f 125 126 204
f 132 124 200
f 125 203 124
f 186 184 134
f 209 103 134
f 160 122 145
f 145 143 144
f 145 141 143
f 141 142 143
f 145 138 141
f 141 139 140
f 122 138 145
f 138 139 141
f 209 114 133
f 122 137 138
f 137 123 136
f 130 115 157
f 128 130 129
f 128 126 130
f 126 128 127
f 130 126 132
f 130 132 115
f 126 124 132
f 126 125 124
f 122 123 137
f 122 120 121
f 122 115 120
f 131 206 130
f 190 189 134
f 189 188 134
f 188 187 134
f 187 185 134
f 185 186 134
f 228 134 135
f 213 156 157
f 147 156 213
f 148 149 211
f 147 211 149
f 129 208 128
f 127 128 207
f 126 127 202
f 110 111 169
f 131 148 210
f 129 130 205
f 136 123 198
f 123 122 197
f 122 121 196
f 121 120 195
f 120 119 192
f 119 118 189
f 187 118 117
f 117 115 187
f 186 115 116
f 116 114 186
f 200 133 132
f 121 195 196
f 218 217 134
f 217 216 134
f 216 199 134
f 215 157 158
f 215 214 157
f 213 157 214
f 213 212 147
f 211 147 212
f 210 148 211
f 206 131 210
f 205 130 206
f 123 197 198
f 122 196 197
f 219 218 134
f 120 194 195
f 120 193 194
f 120 192 193
f 119 191 192
f 119 190 191
f 119 189 190
f 118 188 189
f 185 115 186
f 133 200 209
f 114 209 184
f 114 184 186
f 118 187 188
f 115 185 187
f 144 222 223
f 161 230 231
f 160 229 230
f 159 228 229
f 135 237 228
f 153 227 228
f 152 226 227
f 151 225 226
f 146 224 225
f 145 223 224
f 227 134 228
f 226 134 227
f 225 134 226
f 224 134 225
f 134 184 209
f 143 221 222
f 142 220 221
f 141 219 220
f 140 218 219
f 139 217 218
f 138 216 217
f 137 199 216
f 136 198 199
f 223 134 224
f 222 134 223
f 221 134 222
f 221 220 134
f 220 219 134
f 112 173 172
f 181 177 178
f 181 176 177
f 179 174 180
f 178 173 179
f 178 177 172
f 176 172 177
f 174 240 180
f 173 174 179
f 172 173 178
f 176 175 172
f 173 240 174
f 182 430 108
f 175 112 172
f 181 178 179
f 181 166 176
f 175 176 166
f 171 112 175
f 166 171 175
f 168 215 167
f 167 166 168
f 170 171 166
f 166 169 170
f 169 166 167
f 170 112 171
f 169 111 170
f 167 110 169
f 112 170 111
f 209 200 103
f 208 129 205
f 202 127 207
f 207 128 208
f 203 201 124
f 203 125 204
f 204 126 202
f 200 124 201
f 103 212 213
f 103 211 212
f 211 103 210
f 103 206 210
f 103 205 206
f 103 200 201
f 120 118 119
f 208 103 207
f 202 103 204
f 103 202 207
f 103 208 205
f 103 203 204
f 203 103 201
f 433 182 432
f 183 432 182
f 113 432 183
f 181 248 249
f 181 247 248
f 181 180 247
f 181 179 180
f 1254 1253 1301
f 1115 1221 1222
f 1115 1222 1223
f 1190 1191 1244
f 1244 1191 1301
f 1245 1301 1246
f 1301 1245 1244
f 1247 1301 1248
f 1301 1247 1246
f 1249 1301 1250
f 1301 1249 1248
f 1252 1251 1301
f 1301 1251 1250
f 1253 1252 1301
f 1115 1219 1220
f 1255 1243 1301
f 1243 1254 1301
f 1264 1256 1301
f 1301 1256 1257
f 1257 1255 1301
f 1260 1301 1261
f 1260 1258 1301
f 1270 1301 1271
f 1268 1269 1301
f 1301 1269 1271
f 1270 1262 1301
f 1262 1261 1301
f 1263 1264 1301
f 1115 1206 1207
f 1115 1193 1194
f 1115 1194 1195
f 1115 1195 1196
f 1115 1196 1197
f 1115 1197 1198
f 1115 1198 1199
f 1115 1199 1200
f 1201 1202 1115
f 1115 1200 1201
f 1203 1204 1115
f 1115 1202 1203
f 1115 1204 1205
f 1205 1206 1115
f 1259 1263 1301
f 1115 1207 1208
f 1210 1211 1115
f 1209 1210 1115
f 1115 1208 1209
f 1115 1211 1212
f 1213 1115 1212
f 1115 1213 1214
f 1115 1214 1215
f 1115 1215 1216
f 1115 1216 1217
f 1218 1219 1115
f 1115 1217 1218
f 1220 1221 1115
f 1301 1298 1299
f 1115 1288 1289
f 1290 1115 1289
f 1301 1116 1290
f 1301 1290 1291
f 1291 1294 1301
f 1301 1294 1292
f 1293 1295 1301
f 1301 1292 1293
f 1301 1295 1296
f 1301 1296 1297
f 1233 1235 1301
f 1235 1234 1301
f 1301 1234 1237
f 1115 1287 1288
f 1301 1297 1298
f 1301 1299 1300
f 1300 1233 1301
f 1301 1239 1236
f 1301 1237 1238
f 1301 1238 1239
f 1241 1240 1301
f 1236 1241 1301
f 1301 1240 1242
f 1301 1242 1265
f 1301 1265 1266
f 1268 1301 1267
f 1301 1266 1267
f 1115 1273 1274
f 1301 1258 1259
f 1115 1223 1224
f 1115 1225 1226
f 1115 1224 1225
f 1115 1226 1227
f 1115 1227 1228
f 1229 1115 1228
f 1115 1229 1230
f 1115 1230 1231
f 1116 1115 1290
f 1115 1231 1232
f 1115 1232 1272
f 1115 1272 1273
f 1115 1192 1193
f 1115 1274 1275
f 1115 1275 1276
f 1115 1276 1277
f 1115 1277 1278
f 1115 1278 1279
f 1115 1279 1280
f 1281 1115 1280
f 1115 1281 1282
f 1115 1283 1284
f 1283 1115 1282
f 1115 1285 1286
f 1285 1115 1284
f 1115 1286 1287
f 1126 1114 1124
f 977 1267 1266
f 975 1260 1261
f 975 1261 1262
f 986 1253 1254
f 987 1252 1253
f 1301 847 1116
f 1301 1191 848
f 1115 1114 1192
f 1114 1122 1119
f 1114 1138 1123
f 1123 1125 1114
f 1114 1126 1127
f 1114 1125 1124
f 1267 977 1268
f 1136 1114 1137
f 1134 1133 1114
f 1134 1114 1135
f 1114 1136 1135
f 1117 1114 1120
f 1114 1117 1137
f 1120 1114 1119
f 1138 1114 1133
f 1114 1142 1141
f 1121 1114 1118
f 1122 1114 1121
f 1118 1114 1141
f 1142 1114 1143
f 104 103 168
f 115 118 120
f 115 117 118
f 133 116 115
f 132 133 115
f 114 116 133
f 112 157 173
f 110 112 111
f 110 157 112
f 406 104 107
f 403 105 106
f 106 104 404
f 403 103 105
f 104 181 107
f 1114 1127 1128
f 102 103 104
f 106 102 104
f 103 101 105
f 101 103 102
f 1259 971 1263
f 972 1257 1256
f 973 1256 1264
f 1262 1270 969
f 1269 1268 968
f 1271 1269 968
f 1271 969 1270
f 1242 964 1265
f 1265 976 1266
f 1178 1177 1154
f 1165 1154 1166
f 1166 1154 1167
f 1167 1154 1168
f 1168 1154 1169
f 1170 1169 1154
f 1172 1171 1154
f 1171 1170 1154
f 1173 1172 1154
f 1174 1173 1154
f 1178 1154 1191
f 1175 1174 1154
f 1176 1175 1154
f 1177 1176 1154
f 1164 1154 1165
f 1179 1178 1191
f 1180 1179 1191
f 1181 1180 1191
f 1182 1181 1191
f 1183 1182 1191
f 1184 1183 1191
f 1185 1184 1191
f 1186 1185 1191
f 1188 1187 1191
f 1187 1186 1191
f 1189 1188 1191
f 1190 1189 1191
f 1114 1132 1192
f 1149 1154 1150
f 1114 1129 1130
f 1129 1114 1128
f 1114 1130 1131
f 1114 1131 1132
f 1143 1114 1154
f 1143 1154 1144
f 1145 1154 1146
f 1154 1145 1144
f 1139 1154 1140
f 1140 1154 1147
f 1147 1154 1148
f 1148 1154 1149
f 1154 1139 1146
f 161 160 230
f 1150 1154 1151
f 1151 1154 1152
f 1152 1154 1153
f 1153 1154 1155
f 1155 1154 1156
f 1156 1154 1157
f 1157 1154 1158
f 1158 1154 1159
f 1159 1154 1160
f 1160 1154 1161
f 1161 1154 1162
f 1162 1154 1163
f 1163 1154 1164
f 1152 884 1151
f 1140 871 1139
f 1141 854 1118
f 1142 873 1141
f 1144 875 1143
f 1142 1143 874
f 1145 876 1144
f 1146 877 1145
f 1139 878 1146
f 879 1140 1147
f 880 1147 1148
f 881 1148 1149
f 882 1149 1150
f 1151 883 1150
f 1138 870 1123
f 1153 885 1152
f 1154 848 1191
f 886 1153 1155
f 1156 886 1155
f 888 1156 1157
f 1158 888 1157
f 891 1158 1159
f 1160 891 1159
f 890 1160 1161
f 1162 890 1161
f 895 1162 1163
f 1164 895 1163
f 1165 896 1164
f 1125 1123 864
f 1108 1109 1112
f 1109 1110 1111
f 1112 1109 1111
f 1113 1108 1112
f 1115 846 1114
f 1115 1116 846
f 1154 1114 846
f 1137 1117 851
f 1122 852 1119
f 1120 851 1117
f 1119 849 1120
f 1121 853 1122
f 1118 853 1121
f 1166 898 1165
f 1125 856 1124
f 1126 1124 855
f 1127 1126 860
f 1127 858 1128
f 1129 1128 859
f 1131 1130 861
f 1132 1131 863
f 1130 1129 862
f 1134 865 1133
f 1135 866 1134
f 1136 867 1135
f 1137 869 1136
f 1138 1133 865
f 1210 1209 925
f 982 1197 1196
f 1195 980 1196
f 1197 982 1198
f 979 1199 1198
f 984 1200 1199
f 983 1203 1202
f 983 1202 1201
f 1200 984 1201
f 922 1204 1203
f 1204 922 1205
f 1206 1205 922
f 1207 1206 923
f 1208 1207 924
f 981 1194 1193
f 1209 1208 925
f 1211 1210 926
f 1212 1211 926
f 1214 1213 927
f 1216 1215 928
f 1215 1214 928
f 1217 1216 930
f 1218 1217 930
f 1213 1212 926
f 1219 1218 930
f 1221 1220 934
f 1220 1219 934
f 1222 1221 931
f 921 1179 1180
f 1167 899 1166
f 900 1167 1168
f 1169 900 1168
f 894 1169 1170
f 894 1170 1171
f 903 1171 1172
f 903 1172 1173
f 904 1173 1174
f 905 1174 1175
f 917 1175 1176
f 916 1176 1177
f 920 1177 1178
f 920 1178 1179
f 1113 1107 1108
f 921 1180 1181
f 908 1181 1182
f 908 1182 1183
f 909 1183 1184
f 911 1189 1190
f 909 1184 1185
f 912 1185 1186
f 912 1186 1187
f 914 1187 1188
f 913 1188 1189
f 857 1192 1132
f 1192 857 1193
f 980 1195 1194
f 422 428 429
f 431 429 430
f 428 430 429
f 429 431 434
f 113 433 432
f 302 448 425
f 426 427 439
f 423 427 426
f 427 423 425
f 423 424 425
f 423 418 424
f 449 108 423
f 424 302 425
f 424 420 302
f 431 430 437
f 302 429 433
f 422 421 428
f 418 420 424
f 418 419 420
f 419 421 422
f 421 419 418
f 429 302 422
f 420 419 302
f 302 419 422
f 433 113 302
f 421 108 428
f 430 428 108
f 493 417 407
f 439 427 446
f 445 439 446
f 446 427 447
f 444 439 445
f 449 438 441
f 447 425 448
f 449 426 438
f 423 426 449
f 441 443 444
f 441 442 443
f 443 440 444
f 442 440 443
f 441 440 442
f 440 439 444
f 1034 405 406
f 438 440 441
f 425 447 427
f 438 439 440
f 426 439 438
f 437 430 436
f 436 435 437
f 436 182 435
f 182 434 435
f 182 433 434
f 435 431 437
f 434 431 435
f 429 434 433
f 182 436 430
f 1102 1098 1106
f 1105 824 1109
f 578 783 1104
f 1110 578 1104
f 784 504 1113
f 1109 530 1110
f 1113 793 1103
f 1099 719 736
f 719 1099 1100
f 719 1100 1101
f 1103 719 1101
f 1099 1098 1100
f 1101 1100 1098
f 1101 1098 1102
f 1098 802 1105
f 1103 1101 1102
f 1103 1102 1106
f 1104 783 784
f 1110 1104 784
f 1110 784 1111
f 1111 784 1112
f 1112 784 1113
f 1106 1098 1105
f 1105 1109 1108
f 1106 1105 1107
f 1108 1107 1105
f 1107 1103 1106
f 1113 1103 1107
f 408 478 411
f 847 406 417
f 406 407 417
f 457 452 417
f 454 417 452
f 492 413 415
f 492 412 413
f 488 410 412
f 454 154 417
f 416 155 165
f 416 415 413
f 481 409 410
f 478 414 411
f 480 408 409
f 1223 1222 936
f 302 411 414
f 1017 103 405
f 413 155 416
f 411 155 413
f 503 417 154
f 412 411 413
f 410 408 412
f 409 408 410
f 408 411 412
f 449 407 108
f 406 108 407
f 545 1099 736
f 1099 515 1098
f 251 259 258
f 265 250 276
f 250 241 272
f 181 265 276
f 265 264 262
f 264 263 262
f 261 260 263
f 263 260 262
f 259 260 261
f 255 262 260
f 262 250 265
f 181 264 265
f 181 263 264
f 259 255 260
f 276 250 272
f 263 181 261
f 258 257 251
f 259 251 255
f 250 262 255
f 257 256 250
f 257 250 251
f 181 259 261
f 181 258 259
f 181 257 258
f 181 256 257
f 181 254 256
f 181 253 254
f 181 252 253
f 276 278 277
f 299 279 280
f 281 274 282
f 282 273 283
f 284 271 285
f 283 272 284
f 285 270 286
f 274 273 282
f 273 272 283
f 280 275 281
f 278 275 280
f 281 275 274
f 277 278 279
f 279 278 280
f 181 249 252
f 275 278 274
f 272 278 276
f 278 272 274
f 272 271 284
f 272 273 274
f 271 270 285
f 289 270 271
f 272 242 271
f 269 267 268
f 241 242 272
f 183 182 301
f 113 183 300
f 299 181 276
f 230 229 237
f 241 122 242
f 287 239 299
f 266 239 287
f 239 237 299
f 239 238 237
f 238 236 237
f 236 235 237
f 235 234 237
f 234 233 237
f 233 232 237
f 232 231 237
f 231 230 237
f 233 231 232
f 173 157 240
f 229 228 237
f 239 164 238
f 164 236 238
f 236 163 235
f 163 234 235
f 163 233 234
f 233 162 231
f 215 158 167
f 150 299 237
f 239 266 164
f 164 163 236
f 163 162 233
f 162 161 231
f 243 244 249
f 256 254 246
f 254 253 245
f 253 252 245
f 249 245 252
f 255 251 250
f 256 246 250
f 245 246 254
f 249 244 245
f 248 243 249
f 247 243 248
f 180 240 247
f 246 241 250
f 244 246 245
f 299 280 281
f 240 243 247
f 244 240 246
f 240 244 243
f 301 154 454
f 165 113 300
f 271 160 269
f 267 164 266
f 160 267 269
f 299 150 181
f 242 160 271
f 301 182 108
f 240 157 246
f 246 157 241
f 957 1289 1288
f 992 1245 1246
f 1248 991 1247
f 1247 992 1246
f 1250 993 1249
f 1249 993 1248
f 1251 990 1250
f 1252 987 1251
f 1236 962 1241
f 1239 966 1236
f 1241 962 1240
f 1240 963 1242
f 952 1292 1294
f 953 1293 1292
f 1245 911 1244
f 1289 957 1290
f 951 1291 1290
f 952 1294 1291
f 953 1295 1293
f 955 1296 1295
f 1296 955 1297
f 1297 955 1298
f 1299 1298 956
f 960 1233 1300
f 959 1300 1299
f 1233 960 1235
f 965 1237 1234
f 961 1234 1235
f 1276 1275 943
f 1224 1223 936
f 1226 1225 935
f 1225 1224 936
f 1227 1226 937
f 1229 1228 938
f 1230 1229 938
f 1228 1227 938
f 1231 1230 940
f 1232 1231 940
f 1274 1273 941
f 1273 1272 941
f 1272 1232 941
f 1275 1274 943
f 965 1238 1237
f 1277 1276 943
f 1278 1277 945
f 1278 945 1279
f 946 1280 1279
f 947 1281 1280
f 1281 947 1282
f 1282 947 1283
f 948 1284 1283
f 1284 948 1285
f 949 1287 1286
f 949 1286 1285
f 950 1288 1287
f 911 1190 1244
f 291 288 292
f 299 284 285
f 290 291 299
f 299 283 284
f 299 282 283
f 299 281 282
f 298 270 290
f 270 298 286
f 270 289 290
f 297 294 299
f 294 287 299
f 295 267 297
f 296 267 295
f 297 266 294
f 299 285 286
f 292 269 293
f 289 291 290
f 293 268 296
f 288 291 289
f 269 292 288
f 268 293 269
f 296 268 267
f 267 266 297
f 271 269 289
f 289 269 288
f 266 287 294
f 299 277 279
f 276 277 299
f 109 411 302
f 966 1239 1238
f 986 1254 1243
f 989 1243 1255
f 1257 972 1255
f 970 1264 1263
f 971 1258 1260
f 1258 971 1259
f 418 423 108
f 108 421 418
f 113 109 302
f 104 406 404
f 106 404 403
f 103 403 405
f 406 107 108
f 465 464 301
f 464 300 301
f 300 183 301
f 464 165 300
f 299 295 297
f 299 296 295
f 299 293 296
f 299 292 293
f 299 291 292
f 298 290 299
f 286 298 299
f 101 16 1
f 58 65 66
f 64 102 65
f 65 102 66
f 66 102 67
f 57 56 64
f 58 57 65
f 59 58 67
f 60 59 68
f 61 60 69
f 62 61 69
f 63 62 71
f 84 63 95
f 65 57 64
f 23 102 64
f 67 58 66
f 68 59 67
f 69 60 68
f 62 69 70
f 71 62 70
f 95 63 71
f 67 102 68
f 102 69 68
f 102 70 69
f 102 71 70
f 102 95 71
f 102 96 95
f 55 101 54
f 49 48 56
f 50 49 57
f 51 50 58
f 52 51 59
f 53 52 60
f 54 53 61
f 55 54 62
f 75 55 63
f 101 50 51
f 101 51 52
f 53 101 52
f 54 101 53
f 72 73 82
f 75 101 55
f 76 101 75
f 77 101 76
f 57 49 56
f 58 50 57
f 59 51 58
f 60 52 59
f 61 53 60
f 62 54 61
f 63 55 62
f 84 75 63
f 16 101 102
f 86 96 97
f 98 87 89
f 90 81 82
f 83 91 82
f 83 88 92
f 85 84 95
f 86 85 96
f 89 86 94
f 90 82 91
f 91 83 93
f 93 83 92
f 92 88 98
f 96 85 95
f 88 87 98
f 98 89 94
f 94 86 97
f 106 100 91
f 106 91 93
f 106 93 92
f 96 106 97
f 97 106 94
f 106 96 102
f 106 92 98
f 94 106 98
f 106 99 100
f 105 99 106
f 74 105 79
f 73 74 83
f 79 88 74
f 76 75 84
f 77 76 85
f 80 77 86
f 79 78 87
f 78 80 89
f 30 105 31
f 31 105 72
f 72 105 73
f 73 105 74
f 79 105 78
f 1 99 5
f 105 80 78
f 105 77 80
f 81 72 82
f 82 73 83
f 83 74 88
f 85 76 84
f 89 80 86
f 86 77 85
f 87 78 89
f 88 79 87
f 105 101 77
f 15 14 23
f 22 17 16
f 100 1 16
f 100 16 19
f 20 18 16
f 19 16 18
f 22 16 21
f 23 21 16
f 16 102 23
f 12 20 9
f 12 13 19
f 13 32 40
f 14 10 21
f 16 17 20
f 56 15 64
f 11 9 17
f 10 11 17
f 20 12 18
f 17 9 20
f 18 12 19
f 19 13 40
f 10 17 22
f 21 10 22
f 23 14 21
f 64 15 23
f 99 1 100
f 6 24 32
f 1 5 2
f 2 4 1
f 3 7 1
f 3 1 4
f 7 8 1
f 8 48 1
f 48 49 1
f 49 50 1
f 4 2 9
f 3 4 11
f 5 12 2
f 5 6 13
f 100 90 91
f 7 3 10
f 8 7 14
f 48 8 15
f 10 3 11
f 11 4 9
f 12 5 13
f 9 2 12
f 13 6 32
f 14 7 10
f 15 8 14
f 56 48 15
f 39 81 90
f 100 40 41
f 100 41 42
f 100 42 43
f 100 43 44
f 100 44 45
f 40 32 33
f 34 41 33
f 34 35 43
f 43 35 36
f 37 44 36
f 38 45 37
f 38 39 47
f 6 99 24
f 40 33 41
f 41 34 42
f 42 34 43
f 43 36 44
f 44 37 45
f 45 38 46
f 46 38 47
f 47 39 90
f 100 45 46
f 100 46 47
f 100 47 90
f 101 1 50
f 99 105 30
f 5 99 6
f 24 99 25
f 25 99 26
f 26 99 27
f 27 99 28
f 28 99 29
f 29 99 30
f 24 25 33
f 25 26 34
f 26 27 35
f 27 28 36
f 28 29 37
f 29 30 38
f 30 31 39
f 31 72 81
f 32 24 33
f 33 25 34
f 34 26 35
f 35 27 36
f 36 28 37
f 37 29 38
f 38 30 39
f 39 31 81
f 100 19 40
f 605 601 701
f 701 704 703
f 630 631 639
f 702 640 641
f 702 619 640
f 701 703 630
f 639 631 683
f 638 630 639
f 637 629 638
f 636 628 637
f 635 627 636
f 634 626 635
f 633 625 634
f 632 624 633
f 631 674 683
f 702 641 642
f 629 630 638
f 628 629 637
f 627 628 636
f 626 627 635
f 625 626 634
f 624 625 633
f 701 630 629
f 701 629 628
f 627 701 628
f 626 701 627
f 625 701 626
f 624 701 625
f 641 634 642
f 649 648 656
f 664 601 650
f 693 702 692
f 692 702 647
f 647 702 646
f 646 702 645
f 647 639 692
f 646 638 647
f 645 638 646
f 644 637 645
f 643 636 644
f 642 634 643
f 606 701 624
f 640 633 641
f 639 683 692
f 638 639 647
f 638 645 637
f 637 644 636
f 643 635 636
f 634 635 643
f 634 641 633
f 640 632 633
f 645 702 644
f 702 643 644
f 702 642 643
f 605 606 613
f 656 648 615
f 615 608 614
f 614 607 610
f 613 606 632
f 609 602 612
f 612 605 613
f 611 604 609
f 610 603 611
f 648 608 615
f 608 607 614
f 607 603 610
f 606 624 632
f 620 616 617
f 605 612 602
f 603 604 611
f 604 602 609
f 650 601 649
f 649 601 648
f 648 601 608
f 608 601 607
f 603 601 604
f 607 601 603
f 601 602 604
f 601 605 602
f 601 664 616
f 615 614 623
f 605 701 606
f 665 615 623
f 623 614 621
f 621 610 622
f 610 617 622
f 619 613 640
f 618 612 619
f 617 609 620
f 620 612 618
f 610 611 617
f 611 609 617
f 656 615 665
f 704 701 702
f 614 610 621
f 613 632 640
f 612 613 619
f 612 620 609
f 616 673 623
f 616 623 621
f 616 621 622
f 619 616 618
f 618 616 620
f 702 616 619
f 616 622 617
f 703 681 676
f 690 689 700
f 679 703 664
f 690 681 689
f 689 680 691
f 688 679 687
f 691 682 688
f 687 678 686
f 685 676 690
f 684 675 685
f 683 674 684
f 679 682 703
f 680 703 682
f 700 689 691
f 680 681 703
f 675 703 676
f 674 703 675
f 631 703 674
f 630 703 631
f 680 682 691
f 681 680 689
f 682 679 688
f 679 678 687
f 678 677 686
f 681 690 676
f 675 676 685
f 688 698 699
f 650 649 657
f 700 696 704
f 704 694 700
f 698 673 704
f 696 699 704
f 699 698 704
f 673 703 704
f 695 694 704
f 704 693 695
f 704 702 693
f 696 688 699
f 700 691 696
f 651 650 658
f 698 687 697
f 694 690 700
f 695 685 694
f 693 685 695
f 692 684 693
f 691 688 696
f 688 687 698
f 687 686 697
f 685 690 694
f 685 693 684
f 692 683 684
f 677 678 664
f 665 623 673
f 616 664 673
f 664 703 673
f 686 677 663
f 663 655 662
f 662 654 661
f 661 653 660
f 660 652 659
f 659 651 658
f 658 650 657
f 657 649 656
f 678 679 664
f 698 697 673
f 664 655 677
f 664 654 655
f 664 653 654
f 664 652 653
f 664 651 652
f 664 650 651
f 677 655 663
f 655 654 662
f 654 653 661
f 653 652 660
f 652 651 659
f 674 675 684
f 667 666 673
f 666 665 673
f 697 672 673
f 672 671 673
f 671 670 673
f 670 669 673
f 669 668 673
f 697 663 672
f 672 662 671
f 662 670 671
f 670 660 669
f 669 659 668
f 668 658 667
f 666 657 665
f 658 666 667
f 668 667 673
f 657 656 665
f 658 657 666
f 659 658 668
f 660 659 669
f 661 660 670
f 662 661 670
f 663 662 672
f 686 663 697
f 331 332 340
f 332 333 341
f 333 334 342
f 334 376 385
f 335 327 336
f 336 328 337
f 337 329 338
f 338 330 339
f 339 331 340
f 340 332 341
f 341 333 342
f 342 334 385
f 330 331 339
f 329 330 338
f 328 329 337
f 327 328 336
f 332 326 333
f 331 326 332
f 330 326 331
f 329 326 330
f 328 326 329
f 327 326 328
f 308 326 327
f 307 326 308
f 326 303 343
f 341 342 351
f 350 351 343
f 349 350 343
f 406 326 343
f 351 342 394
f 350 341 351
f 349 341 350
f 348 340 349
f 347 339 348
f 346 337 347
f 345 337 346
f 344 336 345
f 342 385 394
f 326 405 333
f 341 349 340
f 340 348 339
f 347 338 339
f 337 338 347
f 337 345 336
f 344 335 336
f 348 349 343
f 347 348 343
f 346 347 343
f 343 345 346
f 343 344 345
f 343 321 344
f 305 306 313
f 316 309 312
f 315 308 335
f 311 304 314
f 314 307 315
f 313 306 311
f 312 305 313
f 352 310 317
f 310 309 316
f 309 305 312
f 308 327 335
f 307 308 315
f 307 314 304
f 317 310 316
f 306 304 311
f 353 354 303
f 352 353 303
f 310 352 303
f 309 310 303
f 305 303 306
f 305 309 303
f 304 306 303
f 303 307 304
f 403 318 303
f 303 326 307
f 351 394 343
f 315 335 344
f 325 316 323
f 323 312 324
f 312 319 324
f 321 315 344
f 320 314 321
f 319 311 322
f 322 314 320
f 312 313 319
f 313 311 319
f 360 317 368
f 317 316 325
f 316 312 323
f 368 317 325
f 314 315 321
f 314 322 311
f 318 404 325
f 325 323 318
f 324 318 323
f 321 318 320
f 322 320 318
f 343 318 321
f 343 303 318
f 324 319 318
f 318 319 322
f 360 352 317
f 377 405 378
f 405 326 406
f 391 382 393
f 390 381 389
f 393 384 390
f 389 380 388
f 387 378 392
f 386 377 387
f 385 376 386
f 405 381 384
f 405 384 382
f 378 405 383
f 383 405 382
f 403 381 405
f 376 405 377
f 334 405 376
f 333 405 334
f 382 384 393
f 383 382 391
f 384 381 390
f 381 380 389
f 380 379 388
f 383 392 378
f 377 378 387
f 376 377 386
f 404 400 399
f 400 389 399
f 394 395 343
f 398 406 402
f 406 396 402
f 404 406 400
f 401 406 398
f 400 406 401
f 406 397 396
f 406 395 397
f 406 343 395
f 398 390 401
f 402 393 398
f 390 400 401
f 392 383 391
f 396 392 402
f 397 387 396
f 395 387 397
f 394 386 395
f 393 390 398
f 390 389 400
f 389 388 399
f 387 392 396
f 387 395 386
f 394 385 386
f 402 391 393
f 392 391 402
f 358 403 357
f 388 379 367
f 367 359 366
f 366 358 365
f 365 357 364
f 364 356 363
f 363 355 362
f 362 354 361
f 361 353 360
f 381 403 380
f 380 403 379
f 379 403 359
f 359 403 358
f 404 375 374
f 357 403 356
f 403 355 356
f 403 354 355
f 379 359 367
f 359 358 366
f 358 357 365
f 357 356 364
f 356 355 363
f 355 354 362
f 354 353 361
f 353 352 360
f 403 303 354
f 366 373 374
f 318 403 404
f 404 399 375
f 404 374 373
f 404 373 372
f 371 404 372
f 399 367 375
f 375 366 374
f 373 364 372
f 372 363 371
f 371 362 370
f 362 369 370
f 369 361 368
f 367 366 375
f 325 404 368
f 368 404 369
f 369 404 370
f 370 404 371
f 361 360 368
f 362 361 369
f 363 362 371
f 364 363 372
f 365 364 373
f 366 365 373
f 388 367 399
f 1037 1028 1038
f 1034 1036 1037
f 1026 1018 1027
f 1027 1019 1028
f 1028 1020 1029
f 1029 1021 1030
f 1030 1022 1031
f 1031 1023 1032
f 1032 1024 1033
f 1033 1025 1078
f 1017 1087 1024
f 1034 1012 1035
f 1034 1035 1036
f 1025 1069 1078
f 1024 1025 1033
f 1023 1024 1032
f 1022 1023 1031
f 1021 1022 1030
f 1020 1021 1029
f 1019 1020 1028
f 1018 1019 1027
f 1017 1024 1023
f 1017 1023 1022
f 1021 1017 1022
f 1020 1017 1021
f 1076 1085 1071
f 1038 1030 1039
f 1045 1044 1052
f 1044 1043 1051
f 1059 994 1045
f 1089 1034 1088
f 1088 1034 1042
f 1042 1034 1041
f 1041 1034 1040
f 1097 1017 1034
f 1042 1033 1088
f 1041 1032 1042
f 1040 1032 1041
f 1039 1031 1040
f 1034 1037 1038
f 1036 1028 1037
f 1035 1027 1036
f 1033 1078 1088
f 1032 1033 1042
f 1032 1040 1031
f 1031 1039 1030
f 1038 1029 1030
f 1028 1029 1038
f 1028 1036 1027
f 1035 1026 1027
f 1040 1034 1039
f 1034 1038 1039
f 1000 996 1003
f 1009 1015 1010
f 1013 1009 1010
f 1051 1043 1008
f 1008 1001 1007
f 1007 1000 1003
f 1006 999 1026
f 1002 995 1005
f 1005 998 1006
f 1004 997 1002
f 1003 996 1004
f 1043 1001 1008
f 1001 1000 1007
f 1009 1012 1034
f 999 1018 1026
f 998 999 1006
f 998 1005 995
f 996 997 1004
f 997 995 1002
f 1045 994 1044
f 1044 994 1043
f 1043 994 1001
f 1001 994 1000
f 996 994 997
f 1000 994 996
f 994 995 997
f 1004 1002 1010
f 1018 1017 1019
f 999 1017 1018
f 998 1017 999
f 1060 1008 1016
f 1016 1007 1014
f 1014 1003 1015
f 1003 1010 1015
f 1012 1006 1035
f 1011 1005 1012
f 1010 1002 1013
f 1013 1005 1011
f 1003 1004 1010
f 1019 1017 1020
f 1051 1008 1060
f 1008 1007 1016
f 1007 1003 1014
f 1006 1026 1035
f 1005 1006 1012
f 1005 1013 1002
f 1009 1068 1016
f 1009 1016 1014
f 1009 1014 1015
f 1012 1009 1011
f 1011 1009 1013
f 1074 1077 1087
f 1096 1084 1086
f 1085 1084 1096
f 1074 1087 1059
f 1017 1097 1087
f 1085 1076 1084
f 1084 1075 1086
f 1083 1074 1082
f 1086 1077 1083
f 1082 1073 1081
f 1080 1071 1085
f 1079 1070 1080
f 1078 1069 1079
f 1088 1078 1079
f 1075 1087 1077
f 1087 1076 1071
f 1075 1076 1087
f 1070 1087 1071
f 1069 1087 1070
f 1025 1087 1069
f 1024 1087 1025
f 1075 1077 1086
f 1076 1075 1084
f 1077 1074 1083
f 1074 1073 1082
f 1073 1072 1081
f 1092 1083 1095
f 994 998 995
f 998 994 1017
f 994 1059 1009
f 1096 1092 1097
f 1097 1090 1096
f 1094 1068 1097
f 1092 1095 1097
f 1095 1094 1097
f 1068 1087 1097
f 1091 1090 1097
f 1097 1089 1091
f 1097 1034 1089
f 1070 1071 1080
f 1096 1086 1092
f 1083 1094 1095
f 1094 1082 1093
f 1090 1085 1096
f 1091 1080 1090
f 1089 1080 1091
f 1088 1079 1089
f 1086 1083 1092
f 1083 1082 1094
f 1082 1081 1093
f 1080 1085 1090
f 1080 1089 1079
f 1073 1074 1059
f 1061 1060 1068
f 1060 1016 1068
f 1009 1059 1068
f 1059 1087 1068
f 1081 1072 1058
f 1058 1050 1057
f 1057 1049 1056
f 1056 1048 1055
f 1055 1047 1054
f 1054 1046 1053
f 1053 1045 1052
f 1052 1044 1051
f 1062 1061 1068
f 1072 1073 1059
f 1059 1050 1072
f 1059 1049 1050
f 1059 1048 1049
f 1059 1047 1048
f 1059 1046 1047
f 1059 1045 1046
f 1072 1050 1058
f 1050 1049 1057
f 1049 1048 1056
f 1048 1047 1055
f 1047 1046 1054
f 1063 1053 1062
f 1069 1070 1079
f 1094 1093 1068
f 1093 1067 1068
f 1067 1066 1068
f 1066 1065 1068
f 1065 1064 1068
f 1064 1063 1068
f 1093 1058 1067
f 1067 1057 1066
f 1057 1065 1066
f 1065 1055 1064
f 1064 1054 1063
f 1046 1045 1053
f 1053 1061 1062
f 1061 1052 1060
f 1081 1058 1093
f 1058 1057 1067
f 1057 1056 1065
f 1056 1055 1065
f 1055 1054 1064
f 1054 1053 1063
f 1053 1052 1061
f 1052 1051 1060
f 1063 1062 1068

