# https://github.com/mikedh/trimesh
v -12.50000000 10.00000000 0.00000000
v -11.52716351 11.13519478 0.00000000
v -11.54423523 11.19147301 0.00000000
v -11.49944115 11.08332920 0.00000000
v -11.46213245 11.03786755 0.00000000
v -11.41667080 11.00055885 0.00000000
v -11.36480522 10.97283649 0.00000000
v -11.30852699 10.95576477 0.00000000
v -11.25000000 10.94999981 0.00000000
v -11.19147301 10.95576477 0.00000000
v -11.13519478 10.97283649 0.00000000
v -11.08332920 11.00055885 0.00000000
v -11.03786755 11.03786755 0.00000000
v -11.00055885 11.08332920 0.00000000
v -10.97283649 11.13519478 0.00000000
v -10.95576477 11.19147301 0.00000000
v -11.52716351 11.13519478 0.27500001
v -11.54423523 11.19147301 0.27500001
v -11.49944115 11.08332920 0.27499998
v -11.46213245 11.03786755 0.27500001
v -11.41667080 11.00055885 0.27500001
v -11.36480522 10.97283649 0.27500001
v -11.30852699 10.95576477 0.27500001
v -11.25000000 10.94999981 0.27500001
v -11.19147301 10.95576477 0.27500001
v -11.13519478 10.97283649 0.27500001
v -11.08332920 11.00055885 0.27500001
v -11.03786755 11.03786755 0.27500001
v -11.00055885 11.08332920 0.27499998
v -10.97283649 11.13519478 0.27500001
v -10.95576477 11.19147301 0.27500001
v -12.50000000 10.00000000 0.50000000
v -11.73503685 11.04909134 0.50000000
v -11.76491261 11.14757729 0.50000000
v -11.62123108 10.87876892 0.50000000
v -11.54167461 10.81347847 0.50000000
v -11.45090866 10.76496315 0.50000000
v -11.35242271 10.73508739 0.50000000
v -11.68652153 10.95832539 0.50000000
v -11.25000000 10.72500038 0.50000000
v -11.14757729 10.73508739 0.50000000
v -11.04909134 10.76496315 0.50000000
v -10.95832539 10.81347847 0.50000000
v -11.55000019 11.25000000 0.00000000
v -11.54423523 11.30852699 0.00000000
v -11.52716351 11.36480522 0.00000000
v -11.49944115 11.41667080 0.00000000
v -11.46213245 11.46213245 0.00000000
v -11.41667080 11.49944115 0.00000000
v -11.36480522 11.52716351 0.00000000
v -11.30852699 11.54423523 0.00000000
v -11.25000000 11.55000019 0.00000000
v -11.19147301 11.54423523 0.00000000
v -11.13519478 11.52716351 0.00000000
v -10.94999981 11.25000000 0.00000000
v -10.95576477 11.30852699 0.00000000
v -10.97283649 11.36480522 0.00000000
v -11.03786755 11.46213245 0.00000000
v -11.08332920 11.49944115 0.00000000
v -11.00055885 11.41667080 0.00000000
v -11.55000019 11.25000000 0.27500001
v -11.54423523 11.30852699 0.27500001
v -11.52716351 11.36480522 0.27500001
v -11.49944115 11.41667080 0.27499998
v -11.46213245 11.46213245 0.27500001
v -11.41667080 11.49944115 0.27500001
v -11.36480522 11.52716351 0.27500001
v -11.30852699 11.54423523 0.27500001
v -11.25000000 11.55000019 0.27500001
v -11.19147301 11.54423523 0.27500001
v -11.13519478 11.52716351 0.27500001
v -10.94999981 11.25000000 0.27500001
v -10.95576477 11.30852699 0.27500001
v -10.97283649 11.36480522 0.27500001
v -11.03786755 11.46213150 0.27500001
v -11.08332920 11.49944115 0.27500001
v -11.00055885 11.41667080 0.27499998
v -11.77499962 11.25000000 0.50000000
v -11.76491261 11.35242271 0.50000000
v -11.73503685 11.45090866 0.50000000
v -11.68652153 11.54167461 0.50000000
v -11.62123108 11.62123108 0.50000000
v -11.54167461 11.68652153 0.50000000
v -11.45090866 11.73503685 0.50000000
v -11.35242271 11.76491261 0.50000000
v -11.25000000 11.77499962 0.50000000
v -11.14757729 11.76491261 0.50000000
v -10.95832539 11.68652153 0.50000000
v -11.04909134 11.73503685 0.50000000
v -10.00000000 10.00000000 0.00000000
v -10.87876892 10.87876892 0.50000000
v -10.81347847 10.95832539 0.50000000
v -10.76496315 11.04909134 0.50000000
v -10.73508739 11.14757729 0.50000000
v -10.00000000 10.00000000 0.50000000
v -10.76496315 11.45090866 0.50000000
v -10.81347847 11.54167461 0.50000000
v -10.72500038 11.25000000 0.50000000
v -10.73508739 11.35242271 0.50000000
v -10.87876892 11.62123108 0.50000000
v -12.50000000 12.50000000 0.00000000
v -12.50000000 12.50000000 0.50000000
v -10.00000000 12.50000000 0.00000000
v -10.00000000 12.50000000 0.50000000
v -8.85348606 11.26020336 0.50000000
v -8.65057945 12.39931583 0.50000000
v -8.65216255 11.46020317 1.68205595
v -6.95753622 13.29741383 1.18764699
v -6.31474781 13.29741383 1.18764699
v -6.97393703 13.88974762 1.65039206
v -6.29834700 13.88974762 1.65039206
v -6.74436188 13.98392582 1.72396600
v -6.65795183 13.99289322 1.73097205
v -6.61433220 13.99289322 1.73097205
v -6.52792215 13.98392582 1.72396600
v -8.85348606 17.75240135 0.50000000
v -4.41880560 11.26020336 0.50000000
v -4.62171221 12.39931583 0.50000000
v -2.36026216 10.53976536 0.50000000
v -4.62013006 11.46020317 1.68205595
v -4.41880560 17.75240135 0.50000000
v -0.53657711 18.19917107 0.55368900
v -0.43047968 18.19121742 0.53440899
v -0.32357633 18.18501854 0.51937699
v -0.21605863 18.18058014 0.50861800
v -0.10812794 18.17791367 0.50215501
v -0.00000602 18.17702293 0.50000000
v -1.59489369 18.39569092 1.03012502
v -1.67649603 18.42259407 1.09534395
v -0.84802097 18.23337173 0.63660502
v -0.94891101 18.24814987 0.67242903
v -1.24009013 18.30221939 0.80351502
v -1.04799867 18.26457214 0.71223998
v -1.14512193 18.28260612 0.75596303
v -0.64166737 18.20886040 0.57717901
v -0.74554938 18.22026634 0.60483497
v -1.42284513 18.34603691 0.90974301
v -1.33272183 18.32337570 0.85480797
v -1.51028919 18.37015724 0.96821803
v -1.75493753 18.45080948 1.16375399
v -1.83007240 18.48029327 1.23522604
v -1.96989059 18.54281807 1.38680696
v -1.90177584 18.51097870 1.30962896
v -2.03430176 18.57574654 1.46664202
v -2.09487343 18.60970116 1.54895604
v -2.15441346 18.64488029 1.63362098
v -8.85348606 11.26020336 4.50000000
v -8.65309238 11.46032619 4.50000000
v -8.65281868 11.67595100 4.50000000
v -8.85348606 17.75240135 4.50000000
v -8.65165520 17.53955078 4.50000000
v -8.64655876 17.53959465 4.50000000
v -8.64579105 17.53959465 4.50000000
v -4.61919928 11.46032619 4.50000000
v -4.41880560 11.26020336 4.50000000
v -4.61947298 11.67595100 4.50000000
v -0.53722382 10.76583576 3.58558202
v -0.43099493 10.75785351 3.56630206
v -0.64244711 10.77556229 3.60907197
v -0.74646413 10.78701496 3.63672805
v -0.21631497 10.74717617 3.54051089
v -0.32396162 10.75162983 3.55127001
v -0.10825598 10.74450016 3.53404808
v -0.00000602 10.74360752 3.53189301
v -0.84907317 10.80017281 3.66849804
v -0.95010412 10.81501007 3.70432210
v -1.04933584 10.83150196 3.74413300
v -1.14660668 10.84961700 3.78785491
v -1.24172699 10.86932278 3.83540797
v -1.33451521 10.89058113 3.88669991
v -1.59719276 10.96328354 4.06201792
v -1.67897832 10.99034595 4.12723589
v -1.75760984 11.01874447 4.19564676
v -2.36026216 10.53976536 4.50000000
v -1.83294582 11.04842758 4.26711893
v -1.90485680 11.07934284 4.34152079
v -1.97319400 11.11143208 4.41870022
v -2.03920126 11.14548683 4.50000000
v -2.03783655 11.14464855 4.49853420
v -2.03783226 11.14464569 4.50000000
v -1.97424746 11.11193085 4.50000000
v -1.97296202 11.11127567 4.50000000
v -1.97155035 11.11061668 4.50000000
v -2.04866767 11.17639828 4.50000000
v -1.90441513 11.07905197 4.50000000
v -1.83640885 11.04977036 4.50000000
v -1.83231497 11.04802036 4.50000000
v -1.67803764 10.98975372 4.50000000
v -1.75681210 11.01823711 4.50000000
v -1.59613407 10.96261978 4.50000000
v -2.10327697 11.38556290 4.50000000
v -2.10184884 11.38007450 4.50000000
v -2.10348296 11.38640499 4.50000000
v -2.16024184 11.62906075 4.50000000
v -2.16014671 11.74656391 4.50000000
v -1.42480099 10.91335583 3.94163609
v -1.51241374 10.93760490 4.00011110
v -1.51126254 10.93688202 4.50000000
v -1.42358291 10.91258335 4.50000000
v -1.33325613 10.88976955 4.50000000
v -1.24045205 10.86847878 4.50000000
v -1.14534044 10.84874821 4.50000000
v -1.04810178 10.83061409 4.50000000
v -0.94892460 10.81410885 4.50000000
v -0.84796894 10.79926109 4.50000000
v -0.64154834 10.77463913 4.50000000
v -0.74545401 10.78609657 4.50000000
v -0.53645128 10.76491070 4.50000000
v -0.43036130 10.75692654 4.50000000
v -0.32347724 10.75070190 4.50000000
v -0.21598768 10.74624825 4.50000000
v -0.10809103 10.74357224 4.50000000
v -0.00000602 10.74267960 4.50000000
v -4.62573385 17.53959465 4.50000000
v -4.62063742 17.53955078 4.50000000
v -4.62650156 17.53959465 4.50000000
v -4.41880560 17.75240135 4.50000000
v -2.15383387 18.63008499 4.50000000
v -2.15376925 19.59608269 3.94712710
v -2.08682775 19.63743210 4.03178310
v -2.02617836 19.67129135 4.11409712
v -1.96175289 19.70411682 4.19393206
v -1.89368284 19.73583603 4.27111912
v -1.82208192 19.76639748 4.34551191
v -2.15377712 19.42793846 4.50000000
v -2.15435696 19.59535027 4.50000000
v -2.08820868 19.63643456 4.50000000
v -2.02730036 19.67050934 4.50000000
v -1.96262622 19.70352554 4.50000000
v -1.96767807 19.70092773 4.50000000
v -1.74709952 19.79575157 4.41698980
v -1.89831018 19.73353958 4.50000000
v -1.89432061 19.73541641 4.50000000
v -1.82250047 19.76612663 4.50000000
v -1.74731708 19.79561424 4.50000000
v -1.66885889 19.82383537 4.48539591
v -1.66875434 19.82384682 4.50000000
v -1.64985704 19.83005142 4.50000000
v -1.64869952 19.83016396 4.50000000
v -12.50000000 27.50000000 0.00000000
v -11.52716351 28.63519478 0.00000000
v -11.54423523 28.69147301 0.00000000
v -11.49944115 28.58332825 0.00000000
v -11.46213245 28.53786850 0.00000000
v -11.41667080 28.50055885 0.00000000
v -11.36480522 28.47283554 0.00000000
v -11.30852699 28.45576477 0.00000000
v -11.25000000 28.45000076 0.00000000
v -11.19147301 28.45576477 0.00000000
v -11.13519478 28.47283554 0.00000000
v -11.08332920 28.50055885 0.00000000
v -11.03786755 28.53786850 0.00000000
v -11.00055885 28.58332825 0.00000000
v -10.97283649 28.63519478 0.00000000
v -10.95576477 28.69147301 0.00000000
v -11.52716351 28.63519478 0.27500001
v -11.54423523 28.69147301 0.27500001
v -11.49944115 28.58332825 0.27499998
v -11.46213245 28.53786850 0.27500001
v -11.41667080 28.50055885 0.27500001
v -11.36480522 28.47283554 0.27500001
v -11.30852699 28.45576477 0.27500001
v -11.25000000 28.45000076 0.27500001
v -11.19147301 28.45576477 0.27500001
v -11.13519478 28.47283554 0.27500001
v -11.08332920 28.50055885 0.27500001
v -11.03786755 28.53786850 0.27500001
v -11.00055885 28.58332825 0.27499998
v -10.97283649 28.63519478 0.27500001
v -10.95576477 28.69147301 0.27500001
v -12.50000000 27.50000000 0.50000000
v -11.73503685 28.54909134 0.50000000
v -11.76491261 28.64757729 0.50000000
v -11.62123108 28.37876892 0.50000000
v -11.54167461 28.31347847 0.50000000
v -11.45090866 28.26496315 0.50000000
v -11.35242271 28.23508835 0.50000000
v -11.68652153 28.45832634 0.50000000
v -11.25000000 28.22500038 0.50000000
v -11.14757729 28.23508835 0.50000000
v -11.04909134 28.26496315 0.50000000
v -10.95832539 28.31347847 0.50000000
v -12.50000000 30.00000000 0.00000000
v -11.55000019 28.75000000 0.00000000
v -11.54423523 28.80852699 0.00000000
v -11.52716351 28.86480522 0.00000000
v -11.49944115 28.91667175 0.00000000
v -11.46213245 28.96213150 0.00000000
v -11.41667080 28.99944115 0.00000000
v -11.36480522 29.02716446 0.00000000
v -11.30852699 29.04423523 0.00000000
v -11.25000000 29.04999924 0.00000000
v -11.19147301 29.04423523 0.00000000
v -11.13519478 29.02716446 0.00000000
v -10.94999981 28.75000000 0.00000000
v -10.95576477 28.80852699 0.00000000
v -10.97283649 28.86480522 0.00000000
v -11.03786755 28.96213150 0.00000000
v -11.08332920 28.99944115 0.00000000
v -11.00055885 28.91667175 0.00000000
v -11.55000019 28.75000000 0.27500001
v -11.54423523 28.80852699 0.27500001
v -11.52716351 28.86480522 0.27500001
v -11.49944115 28.91667175 0.27499998
v -11.46213245 28.96213150 0.27500001
v -11.41667080 28.99944115 0.27500001
v -11.36480522 29.02716446 0.27500001
v -11.30852699 29.04423523 0.27500001
v -11.25000000 29.04999924 0.27500001
v -11.19147301 29.04423523 0.27500001
v -11.13519478 29.02716446 0.27500001
v -10.94999981 28.75000000 0.27500001
v -10.95576477 28.80852699 0.27500001
v -10.97283649 28.86480522 0.27500001
v -11.03786755 28.96213150 0.27500001
v -11.08332920 28.99944115 0.27500001
v -11.00055885 28.91667175 0.27499998
v -11.77499962 28.75000000 0.50000000
v -11.76491261 28.85242271 0.50000000
v -11.73503685 28.95090866 0.50000000
v -12.50000000 30.00000000 0.50000000
v -11.68652153 29.04167366 0.50000000
v -11.62123108 29.12123108 0.50000000
v -11.54167461 29.18652153 0.50000000
v -11.45090866 29.23503685 0.50000000
v -11.35242271 29.26491165 0.50000000
v -11.25000000 29.27499962 0.50000000
v -11.14757729 29.26491165 0.50000000
v -10.95832539 29.18652153 0.50000000
v -11.04909134 29.23503685 0.50000000
v -10.00000000 27.50000000 0.00000000
v -10.87876892 28.37876892 0.50000000
v -10.81347847 28.45832634 0.50000000
v -10.76496315 28.54909134 0.50000000
v -10.73508739 28.64757729 0.50000000
v -10.00000000 27.50000000 0.50000000
v -10.00000000 30.00000000 0.00000000
v -10.76496315 28.95090866 0.50000000
v -10.81347847 29.04167366 0.50000000
v -10.72500038 28.75000000 0.50000000
v -10.73508739 28.85242271 0.50000000
v -10.87876892 29.12123108 0.50000000
v -10.00000000 30.00000000 0.50000000
v -8.08764172 27.52946091 0.50000000
v -7.87608528 28.28604317 0.56172699
v -7.87277126 28.30705452 0.55865800
v -7.86337328 28.34852600 0.55260003
v -7.86853695 28.32789230 0.55561501
v -7.84252739 28.40884018 0.54379100
v -7.83381796 28.42827606 0.54095101
v -7.85732412 28.36893082 0.54962099
v -7.85035610 28.38903618 0.54668301
v -7.81388283 28.46593285 0.53545099
v -7.82427168 28.44733047 0.53816903
v -8.08764172 29.52627754 0.50000000
v -7.76446009 28.53540230 0.52530301
v -7.75026226 28.55136681 0.52297401
v -7.73534822 28.56667709 0.52073503
v -7.71978521 28.58134270 0.51859301
v -7.80269766 28.48408890 0.53280002
v -7.79070902 28.50173187 0.53022200
v -7.77796507 28.51886177 0.52772099
v -7.63311338 28.64389420 0.50945598
v -7.70359039 28.59533119 0.51655000
v -7.68679142 28.60860062 0.51461202
v -7.66942883 28.62112999 0.51278198
v -7.65152359 28.63290596 0.51106101
v -7.61424494 28.65407181 0.50796998
v -7.59494352 28.66343498 0.50660199
v -7.57524300 28.67195892 0.50535703
v -7.55518484 28.67961693 0.50423801
v -7.53481293 28.68641472 0.50324702
v -7.51415873 28.69230843 0.50238401
v -7.49326229 28.69732666 0.50165200
v -7.47216129 28.70142174 0.50105298
v -7.45090723 28.70460892 0.50058800
v -7.42952824 28.70687866 0.50025600
v -7.40806770 28.70822906 0.50006098
v -7.38657427 28.70863342 0.50000000
v -7.36508369 28.70812607 0.50007403
v -7.34362841 28.70669937 0.50028300
v -7.32225990 28.70432854 0.50062799
v -7.30101919 28.70105743 0.50110698
v -7.27993631 28.69686890 0.50171900
v -7.25906277 28.69176102 0.50246400
v -7.23843479 28.68577576 0.50334001
v -7.03842258 28.56518745 0.52095401
v -7.05392456 28.57991219 0.51880199
v -7.19806671 28.67115211 0.50547600
v -7.17840528 28.66254044 0.50673300
v -7.15914869 28.65309143 0.50811303
v -7.14032030 28.64284134 0.50961101
v -7.21809292 28.67889404 0.50434399
v -7.12196016 28.63176727 0.51122701
v -7.08679962 28.60731316 0.51480001
v -7.10410976 28.61991310 0.51295900
v -7.07005548 28.59397316 0.51674902
v -6.68764639 27.52946091 0.50000000
v -6.94056511 28.42635918 0.54123098
v -6.89892387 28.28394508 0.56203300
v -6.90214348 28.30497169 0.55896199
v -6.91135025 28.34648514 0.55289900
v -6.90629721 28.32582283 0.55591601
v -6.93194675 28.40688324 0.54407603
v -6.91733217 28.36690903 0.54991502
v -6.92419958 28.38704681 0.54697299
v -7.00945139 28.53378296 0.52553999
v -7.02359247 28.54979324 0.52320099
v -6.98335123 28.50000000 0.53047502
v -6.96032810 28.46410370 0.53571898
v -6.95003176 28.44545174 0.53844303
v -6.97144747 28.48229980 0.53306001
v -6.99602461 28.51717949 0.52796602
v -6.68764639 29.52627754 0.50000000
v -7.86872768 28.11703300 0.58642203
v -7.86360550 28.09639168 0.58943897
v -7.85067558 28.05587387 0.59536499
v -7.85758781 28.07598686 0.59242302
v -7.82471991 27.99757576 0.60389501
v -7.81439018 27.97895241 0.60662103
v -7.84288216 28.03607178 0.59826201
v -7.83422613 28.01662636 0.60110700
v -7.87855339 28.18002319 0.57721698
v -7.87996864 28.20124245 0.57411802
v -7.87292910 28.13787460 0.58337599
v -7.87620449 28.15888023 0.58030599
v -7.88043022 28.22247124 0.57101500
v -7.87992859 28.24370956 0.56791103
v -7.87847805 28.26491928 0.56481302
v -7.65272760 27.81183624 0.63111103
v -7.63439226 27.80082130 0.63272703
v -7.57674980 27.77262878 0.63686299
v -7.61559677 27.79059410 0.63422698
v -7.59636545 27.78120613 0.63560498
v -7.55676556 27.76492500 0.63799399
v -7.53646564 27.75808525 0.63899797
v -7.51589060 27.75211525 0.63987398
v -7.49506617 27.74704361 0.64061898
v -7.47403717 27.74287605 0.64123100
v -7.45285320 27.73961067 0.64170998
v -7.43154049 27.73726273 0.64205498
v -7.72070217 27.86349297 0.62353599
v -7.73619986 27.87817192 0.62138402
v -7.77862358 27.92602539 0.61437201
v -7.79131746 27.94315720 0.61186302
v -7.80324650 27.96080589 0.60927802
v -7.76518965 27.90946579 0.61679798
v -7.75104189 27.89350510 0.61913699
v -7.70458364 27.84947968 0.62559003
v -7.67055225 27.82364655 0.62937897
v -7.68784666 27.83619690 0.62753803
v -7.12436247 27.81070518 0.63127702
v -7.41014910 27.73583984 0.64226401
v -7.38871098 27.73531342 0.64234000
v -7.36727142 27.73575020 0.64227700
v -7.34587336 27.73707390 0.64208198
v -7.32455158 27.73933983 0.64174998
v -7.30335093 27.74250412 0.64128500
v -7.28230572 27.74658775 0.64068598
v -7.26146078 27.75157356 0.63995397
v -7.24085855 27.75745201 0.63909101
v -7.22053003 27.76420403 0.63810003
v -7.20051384 27.77182961 0.63698101
v -7.18085575 27.78031158 0.63573599
v -7.16158915 27.78962708 0.63436902
v -7.14274216 27.79976273 0.63288200
v -7.10648632 27.82243919 0.62955600
v -7.08913851 27.83491325 0.62772602
v -7.07235098 27.84813309 0.62578797
v -7.05616283 27.86206818 0.62374502
v -7.04060030 27.87668037 0.62160301
v -6.99796343 27.92434883 0.61461800
v -6.98520231 27.94142723 0.61211598
v -6.97318029 27.95902061 0.60953897
v -7.02569532 27.89195251 0.61936498
v -7.01147699 27.90785217 0.61703497
v -6.92535210 28.05388832 0.59565502
v -6.91834211 28.07397270 0.59271801
v -6.90703583 28.11497116 0.58672303
v -6.91223812 28.09435081 0.58973801
v -6.95155859 27.99570274 0.60416901
v -6.96197462 27.97712708 0.60688800
v -6.94196510 28.01471138 0.60138702
v -6.93323088 28.03412056 0.59854698
v -6.89692831 28.17791748 0.57752502
v -6.89541817 28.19912720 0.57442701
v -6.90273952 28.13579178 0.58367997
v -6.89935970 28.15678406 0.58061302
v -6.89526129 28.24159622 0.56822002
v -6.89486027 28.22035789 0.57132399
v -6.89662218 28.26281166 0.56512100
v -2.36026216 20.03430748 0.50000000
v -2.36095142 22.80817604 0.50000000
v -1.07465065 23.65962219 0.52585602
v -1.03432405 23.66958618 0.51567000
v -1.05463803 23.66490364 0.52045298
v -0.99289656 23.67710114 0.50797701
v -1.01373112 23.67365074 0.51150799
v -1.09430897 23.65376091 0.53185999
v -1.11357355 23.64729118 0.53845799
v -1.15067852 23.63257790 0.55337799
v -1.16849720 23.62430954 0.56167501
v -1.13238680 23.64026260 0.54563701
v -0.97187257 23.67992592 0.50508797
v -0.95068640 23.68213272 0.50283903
v -0.92938226 23.68369484 0.50124002
v -0.90799582 23.68461609 0.50029099
v -0.88658530 23.68489647 0.50000000
v -0.86516798 23.68454933 0.50035799
v -0.84379500 23.68355942 0.50137103
v -0.82249516 23.68194580 0.50303203
v -0.80132574 23.67967415 0.50534397
v -0.73894131 23.66915703 0.51611698
v -0.71865004 23.66440773 0.52096099
v -0.69867486 23.65906906 0.52642202
v -0.78031826 23.67678642 0.50829899
v -0.75950885 23.67327881 0.51189202
v -0.67905879 23.65314293 0.53248799
v -0.65982842 23.64662552 0.53914201
v -0.64107382 23.63951683 0.54637700
v -0.62282270 23.63177109 0.55418003
v -1.23409855 23.58619118 0.60005301
v -1.24893546 23.57549286 0.61085498
v -1.26307261 23.56435776 0.62209702
v -1.18578792 23.61551666 0.57051200
v -1.20250690 23.60623550 0.57986403
v -1.21861613 23.59645081 0.58971602
v -1.27651095 23.55281639 0.63376403
v -1.28920197 23.54088020 0.64582801
v -1.30114913 23.52859497 0.65826899
v -1.32263529 23.50298882 0.68417901
v -1.33215523 23.48973656 0.69760197
v -1.31229174 23.51594162 0.67106098
v -1.36168718 23.43427849 0.75380898
v -1.36686277 23.41993904 0.76835501
v -1.37112308 23.40544510 0.78304499
v -1.37447619 23.39085007 0.79784799
v -1.37894702 23.34666061 0.84266597
v -1.37689745 23.37617111 0.81273699
v -1.37840092 23.36142731 0.82768798
v -1.34084463 23.47621155 0.71130502
v -1.34866440 23.46244049 0.72525698
v -1.35562289 23.44845963 0.73943400
v -0.60505146 23.62346458 0.56252998
v -0.58782160 23.61462021 0.57141399
v -0.53968602 23.58515167 0.60110599
v -0.52492034 23.57440376 0.61194998
v -0.51084274 23.56323242 0.62323803
v -0.57115871 23.60528564 0.58081800
v -0.55511045 23.59544563 0.59072202
v -0.49748468 23.55165482 0.63494402
v -0.48486698 23.53967857 0.64704400
v -0.47301549 23.52733994 0.65952200
v -0.46194470 23.51467323 0.67234898
v -0.45167798 23.50168610 0.68550003
v -0.44223037 23.48840714 0.69894999
v -0.41305235 23.43285751 0.75524497
v -0.40796477 23.41850471 0.76980698
v -0.40379861 23.40400314 0.78450698
v -0.40053579 23.38939667 0.79932100
v -0.39819446 23.37471008 0.81422001
v -0.39680272 23.35996056 0.82917303
v -0.43363702 23.47485352 0.71267802
v -0.42589763 23.46106529 0.72665298
v -0.41901526 23.44706917 0.74085099
v -1.24724162 23.11708069 1.07486701
v -1.23240662 23.10648346 1.08571100
v -1.21695364 23.09634972 1.09609497
v -1.20089316 23.08669662 1.10599804
v -1.18426609 23.07753563 1.11540306
v -1.16708434 23.06889153 1.12428701
v -1.37851322 23.33186340 0.85764700
v -1.37711835 23.31706429 0.87259799
v -1.37479770 23.30232048 0.88749599
v -1.37152839 23.28770447 0.90230900
v -1.36713254 23.27309608 0.91701001
v -1.36170101 23.25854874 0.93157202
v -1.35537672 23.24419594 0.94596702
v -1.34816885 23.23007011 0.96016401
v -1.34012008 23.21620560 0.97413898
v -1.33123112 23.20261192 0.98786700
v -1.32150555 23.18931770 1.00131702
v -1.31101704 23.17634773 1.01447201
v -1.29970574 23.16372108 1.02729499
v -1.28767419 23.15146255 1.03977299
v -1.27488685 23.13958931 1.05187297
v -1.26140964 23.12812233 1.06358004
v -0.59270787 23.07665253 1.11630905
v -0.54439098 23.10545731 1.08676398
v -0.52949893 23.11601067 1.07596099
v -0.57602191 23.08576584 1.10695398
v -0.55990905 23.09536934 1.09710097
v -0.39634135 23.34519958 0.84415102
v -0.39686909 23.33040047 0.85912901
v -0.39836726 23.31559563 0.87408000
v -0.40076494 23.30086899 0.88896900
v -0.40413755 23.28626442 0.90377200
v -0.40866041 23.27164268 0.91846198
v -0.41418043 23.25711441 0.93300802
v -0.42059773 23.24278259 0.94738299
v -0.42787397 23.22868919 0.96156001
v -0.43601549 23.21484375 0.97551203
v -0.44500196 23.20127487 0.98921502
v -0.45478532 23.18801498 1.00263798
v -0.46538192 23.17507553 1.01575899
v -0.48885050 23.15026665 1.04098904
v -0.50170708 23.13843155 1.05305302
v -0.47673383 23.16249084 1.02854800
v -0.51525372 23.12700462 1.06472003
v -1.11263168 23.04616547 1.14767504
v -1.09360886 23.03970528 1.15432894
v -1.14940965 23.06077003 1.13264000
v -1.13124037 23.05319023 1.14043999
v -1.07421374 23.03382301 1.16039503
v -1.05447626 23.02852631 1.16585600
v -1.03442657 23.02383041 1.17070103
v -1.01411355 23.01973915 1.17492497
v -0.99356878 23.01625633 1.17851806
v -0.97283190 23.01339531 1.18147302
v -0.95193553 23.01115799 1.18378496
v -0.93091583 23.00954819 1.18544602
v -0.90982693 23.00856781 1.18645895
v -0.88869929 23.00821877 1.18682098
v -0.84646118 23.00942230 1.18557703
v -0.86756176 23.00850296 1.18652594
v -0.82543707 23.01097107 1.18397796
v -0.80452424 23.01314926 1.18172896
v -0.78377211 23.01594734 1.17883897
v -0.66452688 23.04549980 1.14835894
v -0.68358690 23.03909874 1.15495706
v -0.64588463 23.05246735 1.14118397
v -0.62766820 23.05998993 1.13343894
v -0.60994083 23.06806183 1.12514102
v -0.76319975 23.01936531 1.17530894
v -0.74286407 23.02339745 1.17114699
v -0.72279680 23.02803612 1.16636395
v -0.70302510 23.03326797 1.16096497
v -2.36095142 29.46068764 0.50000000
v -8.08764172 27.52946091 4.50000000
v -7.82097340 27.97766495 4.50000000
v -7.83142948 27.99659920 4.50000000
v -7.84104013 28.01596642 4.50000000
v -7.84978867 28.03572655 4.50000000
v -7.86462975 28.07628632 4.50000000
v -7.87069607 28.09701538 4.50000000
v -7.87584162 28.11797714 4.50000000
v -7.85765648 28.05585098 4.50000000
v -8.08764172 28.20770836 4.50000000
v -7.88005924 28.13913918 4.50000000
v -7.88333797 28.16046715 4.50000000
v -7.88567448 28.18192863 4.50000000
v -7.88706112 28.20346069 4.50000000
v -7.88749552 28.22474289 4.50000000
v -7.88762283 28.82075882 4.50000000
v -7.88717747 28.83961296 4.50000000
v -7.88710070 28.84255981 4.50000000
v -7.88582993 28.86162186 4.50000000
v -7.88562727 28.86454964 4.50000000
v -7.88353252 28.88355446 4.50000000
v -7.88320494 28.88645172 4.50000000
v -7.88029289 28.90535927 4.50000000
v -7.87984276 28.90823174 4.50000000
v -7.87611341 28.92700386 4.50000000
v -7.87554264 28.92983437 4.50000000
v -7.87100363 28.94843864 4.50000000
v -7.87029934 28.95128059 4.50000000
v -7.86416912 28.97237778 4.50000000
v -7.85803270 28.99053955 4.50000000
v -7.85711527 28.99323082 4.50000000
v -7.85019922 29.01112175 4.50000000
v -7.84916973 29.01375961 4.50000000
v -7.84148169 29.03133774 4.50000000
v -7.84034538 29.03391647 4.50000000
v -7.83065987 29.05366898 4.50000000
v -7.82146931 29.07052612 4.50000000
v -7.82012844 29.07296562 4.50000000
v -8.08764172 29.52627754 4.50000000
v -7.65701485 27.80762291 4.50000000
v -7.61930418 27.78598976 4.50000000
v -7.63839912 27.79640198 4.50000000
v -7.57983971 27.76769638 4.50000000
v -7.59977293 27.77642250 4.50000000
v -7.55953646 27.75984192 4.50000000
v -7.53890944 27.75287247 4.50000000
v -7.45392847 27.73405647 4.50000000
v -7.43226480 27.73166084 4.50000000
v -7.51799917 27.74679756 4.50000000
v -7.49683523 27.74162483 4.50000000
v -7.47546053 27.73737717 4.50000000
v -7.74173880 27.87514687 4.50000000
v -7.72601795 27.86020470 4.50000000
v -7.77113295 27.90699005 4.50000000
v -7.78475237 27.92383575 4.50000000
v -7.79761457 27.94126129 4.50000000
v -7.80969381 27.95921135 4.50000000
v -7.75678730 27.89075089 4.50000000
v -7.70965242 27.84595108 4.50000000
v -7.69267321 27.83242035 4.50000000
v -7.67511749 27.81964302 4.50000000
v -7.41052151 27.73020935 4.50000000
v -7.38872862 27.72968483 4.50000000
v -7.36693430 27.73011780 4.50000000
v -7.34518480 27.73147392 4.50000000
v -7.32351017 27.73377609 4.50000000
v -7.30196285 27.73700523 4.50000000
v -7.28057098 27.74116135 4.50000000
v -7.25938511 27.74624443 4.50000000
v -7.23844719 27.75222969 4.50000000
v -7.21779203 27.75910759 4.50000000
v -7.19745255 27.76687622 4.50000000
v -7.17748117 27.77551651 4.50000000
v -7.15790892 27.78500175 4.50000000
v -7.13876915 27.79532814 4.50000000
v -7.12010241 27.80647087 4.50000000
v -7.10194731 27.81841278 4.50000000
v -7.08433771 27.83111382 4.50000000
v -7.06729794 27.84457016 4.50000000
v -7.05087042 27.85875702 4.50000000
v -7.03508472 27.87362862 4.50000000
v -6.68764639 27.52946091 4.50000000
v -7.01996756 27.88917160 4.50000000
v -7.00555134 27.90534782 4.50000000
v -6.99185801 27.92213249 4.50000000
v -6.97891998 27.93950272 4.50000000
v -6.96676064 27.95740128 4.50000000
v -6.95540094 27.97580719 4.50000000
v -6.94486141 27.99469376 4.50000000
v -6.93516541 28.01401901 4.50000000
v -6.92633152 28.03374290 4.50000000
v -6.91837549 28.05383301 4.50000000
v -6.91131258 28.07423973 4.50000000
v -6.90515471 28.09494019 4.50000000
v -6.89991760 28.11588097 4.50000000
v -6.89560699 28.13702583 4.50000000
v -6.89223433 28.15833855 4.50000000
v -6.88980484 28.17978859 4.50000000
v -6.88832235 28.20131302 4.50000000
v -6.88779354 28.22264671 4.50000000
v -6.89486074 28.51666832 4.50000000
v -7.80878067 29.09178543 4.50000000
v -7.79662848 29.11008644 4.50000000
v -7.78531933 29.12562752 4.50000000
v -7.78369236 29.12784767 4.50000000
v -7.77171707 29.14287758 4.50000000
v -7.77000570 29.14500999 4.50000000
v -7.75742435 29.15946388 4.50000000
v -7.75559425 29.16155243 4.50000000
v -7.74235249 29.17548752 4.50000000
v -7.74043798 29.17748642 4.50000000
v -7.72663832 29.19079399 4.50000000
v -7.72469139 29.19265938 4.50000000
v -7.71028471 29.20539284 4.50000000
v -7.70826006 29.20717049 4.50000000
v -7.69117546 29.22096825 4.50000000
v -7.67360306 29.23393250 4.50000000
v -7.65543938 29.24615288 4.50000000
v -7.63902283 29.25618362 4.50000000
v -7.63670635 29.25758362 4.50000000
v -7.61761236 29.26811409 4.50000000
v -7.60038996 29.27666473 4.50000000
v -7.59802675 29.27782822 4.50000000
v -7.58044529 29.28561783 4.50000000
v -7.57803679 29.28667450 4.50000000
v -7.55763149 29.29464149 4.50000000
v -7.53695345 29.30168343 4.50000000
v -7.51604795 29.30779648 4.50000000
v -7.49478626 29.31300926 4.50000000
v -7.47597361 29.31675148 4.50000000
v -7.47342300 29.31725311 4.50000000
v -7.45441389 29.32017326 4.50000000
v -7.45185089 29.32056046 4.50000000
v -7.43010044 29.32291985 4.50000000
v -7.40837145 29.32430649 4.50000000
v -7.38914204 29.32469368 4.50000000
v -7.38655615 29.32473755 4.50000000
v -7.36469412 29.32420921 4.50000000
v -7.34297085 29.32272530 4.50000000
v -7.32122946 29.32026291 4.50000000
v -7.27832842 29.31252289 4.50000000
v -7.29967308 29.31686211 4.50000000
v -7.25709105 29.30721283 4.50000000
v -7.23621130 29.30100822 4.50000000
v -7.03323841 29.17585754 4.50000000
v -7.06535912 29.20575523 4.50000000
v -7.06741571 29.20743942 4.50000000
v -7.04899549 29.19117737 4.50000000
v -7.21556616 29.29387474 4.50000000
v -7.19766378 29.28679657 4.50000000
v -7.19524050 29.28583145 4.50000000
v -7.13894081 29.25774002 4.50000000
v -7.13664913 29.25645828 4.50000000
v -7.17528868 29.27689743 4.50000000
v -7.15570450 29.26707458 4.50000000
v -7.17767048 29.27797127 4.50000000
v -7.11797380 29.24494171 4.50000000
v -7.09986210 29.23263931 4.50000000
v -7.10208130 29.23415375 4.50000000
v -7.08234787 29.21960068 4.50000000
v -6.88766432 28.81861687 4.50000000
v -6.88809156 28.84031487 4.50000000
v -6.88946915 28.86230850 4.50000000
v -6.89179325 28.88421440 4.50000000
v -6.89506912 28.90607262 4.50000000
v -6.89221811 28.88710403 4.50000000
v -6.93402433 29.03192520 4.50000000
v -6.93522787 29.03442001 4.50000000
v -6.94493198 29.05414963 4.50000000
v -6.94360256 29.05167389 4.50000000
v -6.89927673 28.92769051 4.50000000
v -6.91135120 28.97295189 4.50000000
v -6.91046715 28.97028542 4.50000000
v -6.90439844 28.94905663 4.50000000
v -6.91742945 28.99116707 4.50000000
v -6.92528629 29.01173019 4.50000000
v -6.99194765 29.12823105 4.50000000
v -6.99027061 29.12610245 4.50000000
v -6.96531343 29.08988762 4.50000000
v -6.96683741 29.09221840 4.50000000
v -6.95407152 29.07106209 4.50000000
v -6.97741508 29.10828972 4.50000000
v -6.97900057 29.11049461 4.50000000
v -7.01822758 29.15993500 4.50000000
v -7.02006483 29.16189003 4.50000000
v -7.00564146 29.14536858 4.50000000
v -7.00388384 29.14332581 4.50000000
v -6.68764639 29.52627754 4.50000000
v -2.36026216 20.03430748 4.50000000
v -2.36095142 22.80817604 4.50000000
v -1.74112117 24.76791000 4.50000000
v -1.25433695 23.12019730 4.50000000
v -1.22358871 23.09882355 4.50000000
v -1.23928654 23.10927010 4.50000000
v -1.19034815 23.07942963 4.50000000
v -1.17286694 23.07052422 4.50000000
v -1.20726669 23.08887100 4.50000000
v -1.09798503 23.04048347 4.50000000
v -1.07820189 23.03443527 4.50000000
v -1.15486348 23.06216049 4.50000000
v -1.13635314 23.05435562 4.50000000
v -1.11738336 23.04712486 4.50000000
v -1.05805755 23.02899361 4.50000000
v -1.03759289 23.02417564 4.50000000
v -1.01686370 23.01997375 4.50000000
v -0.99587727 23.01639557 4.50000000
v -0.97469085 23.01345634 4.50000000
v -0.95333660 23.01116180 4.50000000
v -0.93185449 23.00952148 4.50000000
v -0.91030014 23.00853157 4.50000000
v -0.88872123 23.00818253 4.50000000
v -0.86713582 23.00846672 4.50000000
v -0.84556758 23.00939369 4.50000000
v -0.82408041 23.01097298 4.50000000
v -0.80270982 23.01320267 4.50000000
v -0.78150773 23.01607513 4.50000000
v -1.36930037 23.26600456 4.50000000
v -1.37459898 23.28097725 4.50000000
v -1.37891316 23.29594803 4.50000000
v -1.31878209 23.18130302 4.50000000
v -1.32933521 23.19468117 4.50000000
v -1.29526079 23.15564728 4.50000000
v -1.28234315 23.14340973 4.50000000
v -1.30740726 23.16828918 4.50000000
v -1.34794557 23.22239304 4.50000000
v -1.35595453 23.23667717 4.50000000
v -1.35680032 23.23833084 4.50000000
v -1.33906746 23.20837784 4.50000000
v -1.36380231 23.25285339 4.50000000
v -1.36308217 23.25122452 4.50000000
v -1.26869988 23.13158798 4.50000000
v -0.76049346 23.01959229 4.50000000
v -0.73973948 23.02373123 4.50000000
v -0.71925431 23.02849007 4.50000000
v -0.69907939 23.03386688 4.50000000
v -0.67924744 23.03985786 4.50000000
v -0.65981120 23.04644203 4.50000000
v -0.64080673 23.05361176 4.50000000
v -0.62225103 23.06135941 4.50000000
v -0.60419130 23.06966782 4.50000000
v -0.58665818 23.07852364 4.50000000
v -0.56967765 23.08791161 4.50000000
v -0.55329806 23.09781265 4.50000000
v -0.53753591 23.10821152 4.50000000
v -0.52242094 23.11909485 4.50000000
v -0.16236448 22.80817604 4.50000000
v -0.50799054 23.13043594 4.50000000
v -0.49426848 23.14221573 4.50000000
v -0.48127902 23.15441704 4.50000000
v -0.46904707 23.16702080 4.50000000
v -0.45760906 23.17999840 4.50000000
v -0.44696730 23.19333458 4.50000000
v -0.43715712 23.20700455 4.50000000
v -0.42818600 23.22098541 4.50000000
v -0.42008853 23.23525238 4.50000000
v -0.41923225 23.23690796 4.50000000
v -0.42105290 23.23361588 4.50000000
v -0.41287905 23.24977303 4.50000000
v -0.40656880 23.26452637 4.50000000
v -0.40117800 23.27947998 4.50000000
v -0.39675608 23.29447556 4.50000000
v -0.03444701 24.76683235 4.50000000
v -0.88765109 27.80531883 3.08281112
v -2.15770817 27.29871368 3.60395002
v -2.15881896 26.41448212 4.50000000
v -2.16091561 26.43253708 4.50000000
v -2.15730095 28.24115181 4.50000000
v -2.14840007 28.24854088 4.50000000
v -2.36095142 29.46068764 4.50000000
v -1.00888443 29.20235634 4.50000000
v -0.98286623 29.22234535 4.50000000
v -0.88765109 29.25824356 4.46456814
v -0.88765109 29.25826454 4.50000000
v -0.79243410 29.22234535 4.50000000
v -0.76641577 29.20235634 4.50000000
v -0.75289005 29.19109344 4.50000000
v 2.36026216 10.53976536 0.50000000
v 4.41304922 10.54601479 0.50000000
v 0.10812598 18.17791367 0.50215501
v 0.21604659 18.18058014 0.50861800
v 0.32357424 18.18501854 0.51937699
v 0.43047768 18.19121742 0.53440899
v 0.53657514 18.19917107 0.55368900
v 0.64166540 18.20886040 0.57717901
v 0.74554628 18.22026634 0.60483497
v 0.84802312 18.23337173 0.63660502
v 0.94890404 18.24814987 0.67242903
v 1.04799855 18.26457214 0.71223998
v 1.14512098 18.28260612 0.75596303
v 1.24008715 18.30221939 0.80351502
v 1.33271980 18.32337570 0.85480797
v 1.42284203 18.34603691 0.90974301
v 1.51028728 18.37015724 0.96821803
v 1.59488988 18.39569092 1.03012502
v 1.67648983 18.42259407 1.09534395
v 5.12864113 19.39703751 0.50000000
v 4.92593956 19.66036415 0.61137402
v 6.16061783 19.00185204 0.65500998
v 1.75493515 18.45080948 1.16375399
v 1.83007455 18.48029327 1.23522604
v 1.90177202 18.51098061 1.30962896
v 1.96988571 18.54281807 1.38680696
v 2.03429437 18.57574654 1.46664202
v 2.09487224 18.60970116 1.54895604
v 2.15441346 18.64488029 1.63362098
v 4.61304903 17.38538170 1.84275496
v 8.85924339 10.54601479 0.50000000
v 10.00000000 10.00000000 0.00000000
v 10.00000000 10.00000000 0.50000000
v 10.87876892 10.87876892 0.50000000
v 10.73508739 11.14757729 0.50000000
v 10.81347847 10.95832539 0.50000000
v 10.76496315 11.04909134 0.50000000
v 10.72500038 11.25000000 0.50000000
v 10.73508739 11.35242271 0.50000000
v 10.76496315 11.45090866 0.50000000
v 10.81347847 11.54167461 0.50000000
v 10.87876892 11.62123108 0.50000000
v 11.00055885 11.08332920 0.00000000
v 11.08332920 11.00055885 0.00000000
v 11.03786755 11.03786755 0.00000000
v 10.97283649 11.13519478 0.00000000
v 10.95576477 11.19147301 0.00000000
v 11.13519478 10.97283649 0.00000000
v 11.19147301 10.95576477 0.00000000
v 11.25000000 10.94999981 0.00000000
v 11.30852699 10.95576477 0.00000000
v 11.36480522 10.97283649 0.00000000
v 11.41667080 11.00055885 0.00000000
v 11.46213245 11.03786755 0.00000000
v 11.49944115 11.08332920 0.00000000
v 11.52716351 11.13519478 0.00000000
v 11.54423523 11.19147301 0.00000000
v 11.00055885 11.08332920 0.27499998
v 11.08332920 11.00055885 0.27500001
v 11.03786755 11.03786755 0.27500001
v 10.97283649 11.13519478 0.27500001
v 10.95576477 11.19147301 0.27500001
v 11.13519478 10.97283649 0.27500001
v 11.19147301 10.95576477 0.27500001
v 11.25000000 10.94999981 0.27500001
v 11.30852699 10.95576477 0.27500001
v 11.36480522 10.97283649 0.27500001
v 11.41667080 11.00055885 0.27500001
v 11.46213245 11.03786755 0.27500001
v 11.49944115 11.08332920 0.27499998
v 11.52716351 11.13519478 0.27500001
v 11.54423523 11.19147301 0.27500001
v 12.50000000 10.00000000 0.00000000
v 11.04909134 10.76496315 0.50000000
v 10.95832539 10.81347847 0.50000000
v 11.14757729 10.73508739 0.50000000
v 11.25000000 10.72500038 0.50000000
v 11.35242271 10.73508739 0.50000000
v 11.45090866 10.76496315 0.50000000
v 11.54167461 10.81347847 0.50000000
v 11.62123108 10.87876892 0.50000000
v 11.68652153 10.95832539 0.50000000
v 12.50000000 10.00000000 0.50000000
v 11.73503685 11.04909134 0.50000000
v 11.76491261 11.14757729 0.50000000
v 10.94999981 11.25000000 0.00000000
v 10.95576477 11.30852699 0.00000000
v 10.97283649 11.36480522 0.00000000
v 11.00055885 11.41667080 0.00000000
v 11.03786755 11.46213245 0.00000000
v 11.08332920 11.49944115 0.00000000
v 11.13519478 11.52716351 0.00000000
v 11.19147301 11.54423523 0.00000000
v 11.25000000 11.55000019 0.00000000
v 11.30852699 11.54423523 0.00000000
v 11.36480522 11.52716351 0.00000000
v 11.41667080 11.49944115 0.00000000
v 11.46213245 11.46213245 0.00000000
v 11.49944115 11.41667080 0.00000000
v 11.55000019 11.25000000 0.00000000
v 11.54423523 11.30852699 0.00000000
v 11.52716351 11.36480522 0.00000000
v 10.94999981 11.25000000 0.27500001
v 10.95576477 11.30852699 0.27500001
v 10.97283649 11.36480522 0.27500001
v 11.00055885 11.41667080 0.27499998
v 11.03786755 11.46213245 0.27500001
v 11.08332920 11.49944115 0.27500001
v 11.13519478 11.52716351 0.27500001
v 11.19147301 11.54423523 0.27500001
v 11.25000000 11.55000019 0.27500001
v 11.30852699 11.54423523 0.27500001
v 11.36480522 11.52716351 0.27500001
v 11.41667080 11.49944115 0.27500001
v 11.46213245 11.46213150 0.27500001
v 11.49944115 11.41667080 0.27499998
v 11.55000019 11.25000000 0.27500001
v 11.54423523 11.30852699 0.27500001
v 11.52716351 11.36480522 0.27500001
v 10.95832539 11.68652153 0.50000000
v 11.04909134 11.73503685 0.50000000
v 11.14757729 11.76491261 0.50000000
v 11.25000000 11.77499962 0.50000000
v 11.68652153 11.54167461 0.50000000
v 11.35242271 11.76491261 0.50000000
v 11.45090866 11.73503685 0.50000000
v 11.54167461 11.68652153 0.50000000
v 11.62123108 11.62123108 0.50000000
v 11.77499962 11.25000000 0.50000000
v 11.76491261 11.35242271 0.50000000
v 11.73503685 11.45090866 0.50000000
v 10.00000000 12.50000000 0.00000000
v 10.00000000 12.50000000 0.50000000
v 12.50000000 12.50000000 0.00000000
v 12.50000000 12.50000000 0.50000000
v 6.34225321 19.23395538 0.56212401
v 6.48163700 19.29989052 0.53573698
v 6.79065514 19.29989052 0.53573698
v 6.93003893 19.23395538 0.56212401
v 8.14365101 19.39703751 0.50000000
v 7.11167383 19.00185204 0.65500998
v 8.34635258 19.66036415 0.61137402
v 8.65924263 17.38538170 1.84275496
v 4.41304922 14.19230652 3.21761608
v 4.61606216 14.18984509 3.21568608
v 5.12657881 13.01303768 3.05196691
v 0.10825402 10.74450016 3.53404808
v 0.21630292 10.74717522 3.54051089
v 0.32395950 10.75162983 3.55127001
v 0.43099290 10.75785351 3.56630206
v 0.53722179 10.76583576 3.58558202
v 0.64244515 10.77556229 3.60907197
v 0.74646103 10.78701496 3.63672805
v 0.84907532 10.80017281 3.66849804
v 0.95009714 10.81501007 3.70432210
v 1.04933560 10.83150196 3.74413300
v 1.14660585 10.84961700 3.78785491
v 1.24172401 10.86932278 3.83540797
v 1.33451319 10.89058113 3.88669991
v 1.42479801 10.91335583 3.94163609
v 1.51241183 10.93760490 4.00011110
v 0.10808907 10.74357224 4.50000000
v 0.21597563 10.74624729 4.50000000
v 0.32347515 10.75070190 4.50000000
v 0.43035927 10.75692654 4.50000000
v 0.53644925 10.76491070 4.50000000
v 0.64154637 10.77463913 4.50000000
v 0.74545097 10.78609657 4.50000000
v 0.84797108 10.79926109 4.50000000
v 0.94891763 10.81410885 4.50000000
v 1.04810154 10.83061409 4.50000000
v 1.14533961 10.84874821 4.50000000
v 1.24044907 10.86847878 4.50000000
v 1.33325410 10.88976955 4.50000000
v 1.42357993 10.91258335 4.50000000
v 1.51126063 10.93688202 4.50000000
v 1.59718895 10.96328354 4.06201792
v 1.67897224 10.99034595 4.12723589
v 1.75760734 11.01874447 4.19564676
v 1.83294785 11.04842758 4.26711893
v 1.90485322 11.07934284 4.34152079
v 1.59613025 10.96261978 4.50000000
v 1.67803156 10.98975372 4.50000000
v 1.75680959 11.01823711 4.50000000
v 1.83231711 11.04802036 4.50000000
v 1.83641052 11.04977036 4.50000000
v 1.90441155 11.07905197 4.50000000
v 1.97318912 11.11143303 4.41870022
v 1.97154546 11.11061764 4.50000000
v 1.97295713 11.11127663 4.50000000
v 1.97424245 11.11193180 4.50000000
v 2.03782940 11.14464855 4.49853420
v 2.03782511 11.14464569 4.50000000
v 2.03919411 11.14548683 4.50000000
v 2.04866123 11.17639828 4.50000000
v 2.04845786 11.17560577 4.50000000
v 2.36026216 10.53976536 4.50000000
v 2.10327554 11.38556194 4.50000000
v 2.10501242 11.39250374 4.50000000
v 2.10480642 11.39166164 4.50000000
v 2.16024184 11.62906075 4.50000000
v 5.12864113 11.02736473 3.84389710
v 6.23163700 11.83709621 3.52228498
v 4.41304922 10.54601479 4.09745598
v 4.66985512 11.60556889 4.09745598
v 4.65060854 11.65708542 4.09745598
v 4.61836481 11.73962498 4.09745598
v 4.92994547 10.91799068 4.09745598
v 4.93273401 10.91558456 4.09745598
v 4.75876474 11.36999035 4.09745598
v 4.41304922 14.08563519 3.68914914
v 4.61619520 14.07034111 3.74393916
v 4.41304922 13.99091625 4.09745598
v 4.61628628 13.98833084 4.09745598
v 4.61434031 16.05070496 3.18180418
v 4.61467218 16.05675507 3.18169093
v 4.61464691 16.20465660 3.17899680
v 4.41304922 16.31228638 3.17899728
v 4.41304922 16.87657547 3.17899084
v 4.61454391 16.87657166 3.17898917
v 1.27300847 19.83016396 4.50000000
v 2.15417218 18.46192551 4.50000000
v 2.15376925 19.59608269 3.94712710
v 2.08682656 19.63743210 4.03178310
v 2.02617097 19.67129135 4.11409712
v 1.96174800 19.70411682 4.19393206
v 1.89367902 19.73583603 4.27111912
v 1.82208431 19.76639748 4.34551191
v 1.74709725 19.79575157 4.41698980
v 1.64869499 19.83016396 4.50000000
v 1.64985156 19.83005142 4.50000000
v 1.66885269 19.82383537 4.48539591
v 1.66888952 19.82381248 4.50000000
v 1.74731481 19.79561424 4.50000000
v 1.82250285 19.76612663 4.50000000
v 1.89431679 19.73541641 4.50000000
v 1.89027572 19.73715591 4.50000000
v 2.03329229 19.66712570 4.50000000
v 2.02729297 19.67050934 4.50000000
v 2.08820724 19.63643456 4.50000000
v 2.15377712 19.42793846 4.50000000
v 2.15435696 19.59535027 4.50000000
v 1.95748746 19.70594025 4.50000000
v 1.96767294 19.70092773 4.50000000
v 1.96262133 19.70352554 4.50000000
v 4.41304922 17.08435440 4.09745598
v 4.61548519 17.08435059 4.09745598
v 4.61543417 17.41700554 4.09745598
v 4.61656952 19.10351181 4.09745598
v 8.14571285 13.01303768 3.05196691
v 8.65618801 14.14304638 3.17898941
v 8.85924339 14.14304352 3.17899108
v 8.65680981 14.81540871 3.17899704
v 8.85924339 14.70733166 3.17899752
v 6.34225321 11.18869019 3.78177190
v 6.93003893 11.18869019 3.78177190
v 6.48163700 11.12275410 3.80815911
v 6.79065514 11.12275410 3.80815911
v 7.04065418 11.83709621 3.52228498
v 8.14365101 11.02736473 3.84389710
v 8.33955765 10.91558456 4.09745598
v 8.34234715 10.91799068 4.09745598
v 8.85924339 10.54601479 4.09745598
v 8.51352692 11.36998940 4.09745598
v 8.60243607 11.60556984 4.09745598
v 8.62168312 11.65708542 4.09745598
v 8.65392685 11.73962498 4.09745598
v 8.65595627 13.93526840 4.09745598
v 8.85924339 13.93526649 4.09745598
v 8.65793228 16.03141212 3.20115948
v 8.65759563 16.03733253 3.20126390
v 8.65770149 16.82975578 3.21570015
v 8.85924339 16.82731247 3.21761632
v 8.85924339 16.93398285 3.68914890
v 8.65716076 16.94919777 3.74365187
v 8.65679836 17.03127861 4.09745598
v 8.85924339 17.02870369 4.09745598
v 8.65685749 17.41700554 4.09745598
v 8.65572262 19.10351181 4.09745598
v 2.36026216 20.03430748 0.50000000
v 0.58566046 22.80817604 0.50000000
v 4.41304922 20.74976730 0.50000000
v 4.61987829 20.05992699 0.77843601
v 4.61947346 20.54975891 1.98537600
v 0.58566046 29.46068764 0.50000000
v 8.85924339 20.74976730 0.50000000
v 8.65241337 20.05992699 0.77843601
v 8.65281868 20.54975891 1.98537600
v 10.00000000 27.50000000 0.00000000
v 10.00000000 27.50000000 0.50000000
v 10.87876892 28.37876892 0.50000000
v 10.73508739 28.64757729 0.50000000
v 10.81347847 28.45832634 0.50000000
v 10.76496315 28.54909134 0.50000000
v 10.00000000 30.00000000 0.00000000
v 10.00000000 30.00000000 0.50000000
v 10.72500038 28.75000000 0.50000000
v 10.73508739 28.85242271 0.50000000
v 10.76496315 28.95090866 0.50000000
v 10.81347847 29.04167366 0.50000000
v 10.87876892 29.12123108 0.50000000
v 11.00055885 28.58332825 0.00000000
v 11.08332920 28.50055885 0.00000000
v 11.03786755 28.53786850 0.00000000
v 10.97283649 28.63519478 0.00000000
v 10.95576477 28.69147301 0.00000000
v 11.13519478 28.47283554 0.00000000
v 11.19147301 28.45576477 0.00000000
v 11.25000000 28.45000076 0.00000000
v 11.30852699 28.45576477 0.00000000
v 11.36480522 28.47283554 0.00000000
v 11.41667080 28.50055885 0.00000000
v 11.46213245 28.53786850 0.00000000
v 11.49944115 28.58332825 0.00000000
v 11.52716351 28.63519478 0.00000000
v 11.54423523 28.69147301 0.00000000
v 11.00055885 28.58332825 0.27499998
v 11.08332920 28.50055885 0.27500001
v 11.03786755 28.53786850 0.27500001
v 10.97283649 28.63519478 0.27500001
v 10.95576477 28.69147301 0.27500001
v 11.13519478 28.47283554 0.27500001
v 11.19147301 28.45576477 0.27500001
v 11.25000000 28.45000076 0.27500001
v 11.30852699 28.45576477 0.27500001
v 11.36480522 28.47283554 0.27500001
v 11.41667080 28.50055885 0.27500001
v 11.46213245 28.53786850 0.27500001
v 11.49944115 28.58332825 0.27499998
v 11.52716351 28.63519478 0.27500001
v 11.54423523 28.69147301 0.27500001
v 12.50000000 27.50000000 0.00000000
v 11.04909134 28.26496315 0.50000000
v 10.95832539 28.31347847 0.50000000
v 11.14757729 28.23508835 0.50000000
v 11.25000000 28.22500038 0.50000000
v 11.35242271 28.23508835 0.50000000
v 11.45090866 28.26496315 0.50000000
v 11.54167461 28.31347847 0.50000000
v 11.62123108 28.37876892 0.50000000
v 11.68652153 28.45832634 0.50000000
v 12.50000000 27.50000000 0.50000000
v 11.73503685 28.54909134 0.50000000
v 11.76491261 28.64757729 0.50000000
v 10.94999981 28.75000000 0.00000000
v 10.95576477 28.80852699 0.00000000
v 10.97283649 28.86480522 0.00000000
v 11.00055885 28.91667175 0.00000000
v 11.03786755 28.96213150 0.00000000
v 11.08332920 28.99944115 0.00000000
v 11.13519478 29.02716446 0.00000000
v 11.19147301 29.04423523 0.00000000
v 11.25000000 29.04999924 0.00000000
v 11.30852699 29.04423523 0.00000000
v 11.36480522 29.02716446 0.00000000
v 11.41667080 28.99944115 0.00000000
v 11.46213245 28.96213150 0.00000000
v 11.49944115 28.91667175 0.00000000
v 11.55000019 28.75000000 0.00000000
v 11.54423523 28.80852699 0.00000000
v 11.52716351 28.86480522 0.00000000
v 10.94999981 28.75000000 0.27500001
v 10.95576477 28.80852699 0.27500001
v 10.97283649 28.86480522 0.27500001
v 11.00055885 28.91667175 0.27499998
v 11.03786755 28.96213150 0.27500001
v 11.08332920 28.99944115 0.27500001
v 11.13519478 29.02716446 0.27500001
v 11.19147301 29.04423523 0.27500001
v 11.25000000 29.04999924 0.27500001
v 11.30852699 29.04423523 0.27500001
v 11.36480522 29.02716446 0.27500001
v 11.41667080 28.99944115 0.27500001
v 11.46213245 28.96213150 0.27500001
v 11.49944115 28.91667175 0.27499998
v 11.55000019 28.75000000 0.27500001
v 11.54423523 28.80852699 0.27500001
v 11.52716351 28.86480522 0.27500001
v 12.50000000 30.00000000 0.00000000
v 10.95832539 29.18652153 0.50000000
v 11.04909134 29.23503685 0.50000000
v 11.14757729 29.26491165 0.50000000
v 11.25000000 29.27499962 0.50000000
v 11.68652153 29.04167366 0.50000000
v 11.35242271 29.26491165 0.50000000
v 11.45090866 29.23503685 0.50000000
v 11.54167461 29.18652153 0.50000000
v 11.62123108 29.12123108 0.50000000
v 11.77499962 28.75000000 0.50000000
v 11.76491261 28.85242271 0.50000000
v 11.73503685 28.95090866 0.50000000
v 12.50000000 30.00000000 0.50000000
v 2.36026216 20.03430748 4.50000000
v 0.58566046 22.80817604 4.50000000
v 4.61950493 20.54976463 4.09745598
v 4.41304922 20.74976730 4.09745598
v 0.38240799 27.29871750 3.60394502
v 0.38347030 26.41417503 4.50000000
v 0.38562453 26.43253899 4.50000000
v 0.38200098 28.24116325 4.50000000
v 0.58566046 29.46068764 4.50000000
v 8.65278721 20.54976463 4.09745598
v 8.85924339 20.74976730 4.09745598
f 677 741 742
f 673 677 672
f 671 672 677
f 671 677 670
f 675 677 674
f 677 673 674
f 676 740 677
f 677 675 676
f 677 740 741
f 677 668 669
f 743 744 677
f 677 742 743
f 745 746 677
f 677 744 745
f 748 677 747
f 677 746 747
f 677 748 749
f 677 749 750
f 648 663 664
f 656 648 655
f 655 648 654
f 648 656 657
f 648 658 659
f 658 648 657
f 648 659 660
f 648 660 661
f 648 661 662
f 752 677 751
f 663 648 662
f 648 664 665
f 677 648 665
f 666 667 677
f 677 665 666
f 667 668 677
f 669 670 677
f 708 707 720
f 700 686 720
f 701 700 720
f 703 702 720
f 702 701 720
f 704 703 720
f 705 704 720
f 706 705 720
f 707 706 720
f 686 685 720
f 710 709 720
f 709 708 720
f 711 710 720
f 712 711 720
f 713 712 720
f 714 713 720
f 715 714 720
f 716 715 720
f 681 682 639
f 677 750 751
f 677 752 753
f 754 755 677
f 677 753 754
f 680 678 639
f 699 639 678
f 679 680 639
f 682 679 639
f 648 653 654
f 683 681 639
f 687 684 639
f 684 683 639
f 688 687 639
f 689 688 639
f 639 720 689
f 720 685 689
f 677 826 355
f 782 781 386
f 782 386 787
f 781 779 384
f 788 787 393
f 794 789 389
f 789 788 389
f 793 792 390
f 794 390 792
f 384 779 780
f 808 399 806
f 806 399 805
f 819 410 807
f 808 807 411
f 817 410 819
f 820 409 818
f 818 412 817
f 814 404 813
f 395 785 798
f 791 790 392
f 790 793 392
f 786 388 783
f 798 796 395
f 797 795 396
f 396 796 797
f 785 397 784
f 786 784 397
f 814 805 399
f 378 773 772
f 773 378 774
f 379 775 774
f 775 379 776
f 381 777 776
f 777 381 778
f 383 780 778
f 694 695 648
f 698 697 639
f 648 639 693
f 641 648 640
f 648 641 642
f 648 647 644
f 643 647 648
f 648 642 643
f 648 693 694
f 691 690 639
f 695 640 648
f 645 646 648
f 648 644 645
f 648 646 649
f 648 650 651
f 650 648 649
f 652 648 651
f 648 652 653
f 783 408 823
f 405 812 811
f 813 406 810
f 811 810 405
f 815 413 816
f 821 816 413
f 824 407 825
f 825 407 815
f 824 822 408
f 718 717 720
f 823 408 822
f 821 409 820
f 699 698 639
f 639 690 696
f 692 693 639
f 692 639 696
f 691 639 697
f 611 610 840
f 800 826 801
f 801 826 802
f 802 826 804
f 803 826 809
f 826 803 804
f 809 826 812
f 826 811 812
f 827 1307 492
f 783 826 786
f 614 611 836
f 612 571 834
f 613 612 838
f 610 613 839
f 615 614 837
f 616 615 841
f 617 616 842
f 618 617 843
f 822 824 826
f 784 786 826
f 826 785 784
f 796 798 826
f 785 826 798
f 791 795 826
f 821 826 816
f 826 783 823
f 824 825 826
f 619 618 844
f 826 825 815
f 826 815 816
f 826 823 822
f 817 826 818
f 826 817 819
f 820 826 821
f 826 820 818
f 569 831 835
f 633 632 878
f 828 493 884
f 829 575 903
f 566 869 830
f 568 832 831
f 567 830 832
f 570 835 833
f 571 833 834
f 631 629 876
f 577 856 855
f 576 857 856
f 582 866 859
f 583 859 858
f 579 865 864
f 577 855 867
f 578 867 868
f 578 868 865
f 628 627 854
f 620 619 845
f 621 620 846
f 622 621 847
f 623 622 848
f 625 623 849
f 624 625 850
f 626 624 852
f 627 626 852
f 795 797 826
f 634 628 870
f 635 634 870
f 637 636 872
f 630 637 874
f 636 635 872
f 629 630 874
f 632 631 876
f 677 757 758
f 735 720 736
f 736 720 737
f 737 720 738
f 738 720 739
f 826 739 720
f 677 755 756
f 677 756 757
f 759 677 758
f 734 720 735
f 677 759 760
f 677 760 761
f 761 762 677
f 763 764 677
f 677 762 763
f 677 764 765
f 787 788 826
f 826 782 787
f 720 727 726
f 717 716 720
f 719 720 721
f 719 718 720
f 722 720 723
f 720 722 721
f 720 724 723
f 724 720 725
f 725 720 726
f 766 767 677
f 727 720 728
f 728 720 729
f 730 720 731
f 720 730 729
f 731 720 732
f 732 720 733
f 733 720 734
f 826 807 808
f 739 826 799
f 799 826 800
f 810 811 826
f 813 826 814
f 826 813 810
f 807 826 819
f 826 806 805
f 826 805 814
f 826 781 782
f 826 808 806
f 792 826 794
f 789 794 826
f 826 788 789
f 793 790 826
f 826 790 791
f 826 792 793
f 796 826 797
f 773 774 677
f 677 765 766
f 677 767 768
f 677 768 769
f 677 769 770
f 677 771 772
f 771 677 770
f 677 772 773
f 775 677 774
f 795 791 392
f 677 776 777
f 776 677 775
f 677 777 778
f 677 778 780
f 779 677 780
f 826 677 779
f 826 779 781
f 605 608 888
f 894 600 601
f 890 603 604
f 890 604 605
f 601 602 893
f 602 603 892
f 606 607 886
f 886 607 609
f 608 606 887
f 897 599 600
f 561 562 1311
f 1311 562 593
f 557 1311 565
f 564 565 1311
f 1311 557 558
f 1311 558 559
f 1311 559 560
f 1311 560 561
f 588 633 879
f 859 583 582
f 864 580 579
f 863 581 580
f 862 585 584
f 860 586 585
f 858 584 583
f 861 587 586
f 869 566 587
f 594 1312 593
f 609 590 883
f 882 589 592
f 883 590 589
f 879 591 588
f 880 592 591
f 898 597 598
f 898 598 599
f 901 517 513
f 901 506 507
f 508 509 901
f 901 507 508
f 901 509 510
f 901 510 511
f 901 511 512
f 512 516 901
f 901 516 517
f 505 506 901
f 901 513 514
f 901 518 519
f 901 514 515
f 901 515 518
f 901 519 520
f 638 493 907
f 638 1315 1199
f 639 648 344
f 499 901 500
f 1312 594 595
f 1312 595 596
f 1312 596 597
f 414 398 638
f 337 1209 331
f 343 1210 337
f 1210 343 414
f 495 498 901
f 866 582 581
f 901 494 496
f 901 496 495
f 901 499 494
f 901 503 500
f 901 498 497
f 901 497 504
f 901 504 505
f 522 527 902
f 632 633 631
f 627 628 636
f 634 635 628
f 636 628 635
f 631 627 636
f 630 636 637
f 902 526 525
f 526 902 527
f 629 631 630
f 522 902 523
f 902 524 523
f 501 902 502
f 902 501 503
f 902 525 502
f 545 549 1311
f 1311 549 550
f 1311 550 546
f 620 621 622
f 569 571 610
f 610 571 613
f 610 614 617
f 616 614 615
f 617 614 616
f 610 617 620
f 620 617 619
f 619 617 618
f 1311 546 547
f 620 622 623
f 620 623 627
f 620 627 631
f 627 623 625
f 625 624 626
f 627 625 626
f 631 636 630
f 830 567 566
f 535 902 536
f 536 902 537
f 537 902 539
f 538 903 572
f 572 903 573
f 573 903 574
f 903 575 574
f 884 493 1195
f 534 902 535
f 832 568 567
f 835 570 569
f 833 571 570
f 831 569 568
f 857 576 575
f 856 577 576
f 867 578 577
f 865 579 578
f 555 556 1311
f 1311 547 548
f 1311 520 521
f 1311 521 544
f 1311 544 545
f 1311 548 551
f 1311 551 552
f 1311 552 553
f 1311 553 554
f 644 418 645
f 1311 556 563
f 1311 563 564
f 1311 554 555
f 540 539 902
f 902 538 540
f 542 902 543
f 534 543 902
f 737 485 736
f 479 733 734
f 733 479 732
f 726 482 725
f 727 482 726
f 483 727 728
f 729 483 728
f 735 487 734
f 485 735 736
f 478 731 732
f 490 737 738
f 490 738 739
f 720 398 826
f 490 739 799
f 800 490 799
f 801 489 800
f 802 491 801
f 804 400 802
f 471 718 719
f 711 464 710
f 464 711 712
f 466 713 714
f 713 466 712
f 452 714 715
f 468 715 716
f 468 716 717
f 469 717 718
f 804 803 401
f 471 719 721
f 475 721 722
f 472 722 723
f 472 723 724
f 725 474 724
f 477 729 730
f 477 730 731
f 763 370 764
f 755 366 756
f 367 757 756
f 368 759 758
f 363 758 757
f 369 761 760
f 759 368 760
f 370 763 762
f 761 369 762
f 366 755 754
f 372 765 764
f 373 766 765
f 766 373 767
f 375 768 767
f 768 375 769
f 375 770 769
f 376 771 770
f 376 772 771
f 356 747 746
f 803 809 403
f 812 403 809
f 740 360 741
f 741 361 742
f 742 362 743
f 743 362 744
f 744 356 745
f 745 356 746
f 462 708 709
f 747 357 748
f 748 358 749
f 749 359 750
f 359 752 751
f 359 751 750
f 364 753 752
f 753 364 754
f 670 349 671
f 657 429 658
f 659 345 660
f 661 346 662
f 660 345 661
f 663 348 664
f 662 346 663
f 664 348 665
f 665 347 666
f 429 659 658
f 671 349 672
f 666 351 667
f 667 351 668
f 668 352 669
f 669 352 670
f 672 350 673
f 673 350 674
f 674 354 675
f 649 425 650
f 645 416 646
f 646 415 649
f 647 417 644
f 640 420 641
f 642 422 643
f 643 421 647
f 641 422 642
f 677 344 648
f 353 740 676
f 650 426 651
f 651 423 652
f 652 424 653
f 653 427 654
f 654 427 655
f 655 428 656
f 656 428 657
f 454 700 701
f 693 445 694
f 695 446 640
f 696 448 692
f 698 451 697
f 699 450 698
f 697 449 691
f 678 430 699
f 453 686 700
f 445 695 694
f 454 701 702
f 455 702 703
f 456 703 704
f 458 704 705
f 458 705 706
f 460 707 708
f 463 709 710
f 687 437 684
f 675 353 676
f 639 344 720
f 680 431 678
f 679 433 680
f 681 432 682
f 682 434 679
f 683 435 681
f 684 436 683
f 580 864 863
f 441 685 686
f 688 438 687
f 439 688 689
f 440 689 685
f 690 443 696
f 691 442 690
f 692 447 693
f 1059 1126 1121
f 1120 1118 1119
f 1118 1120 1121
f 1118 1121 1127
f 1123 1116 1122
f 1118 1123 1122
f 1124 1118 1122
f 1116 1123 1175
f 1123 1118 1177
f 1124 1119 1118
f 1126 1059 1125
f 1126 1125 1127
f 1121 1126 1128
f 1127 1121 1128
f 1128 1126 1127
f 938 1095 939
f 1095 940 939
f 1106 941 940
f 1115 1111 1307
f 1095 1102 940
f 940 1102 1106
f 941 1106 1110
f 1110 1109 941
f 942 1109 1112
f 1114 1113 942
f 1114 942 1112
f 943 1113 1115
f 1109 942 941
f 1116 1171 1169
f 1171 1116 1172
f 1117 1060 1116
f 1060 1122 1116
f 1122 1060 1124
f 1124 1060 1119
f 1117 1116 1169
f 1144 1135 1143
f 1134 1133 1132
f 944 1198 1163
f 1163 1162 944
f 1136 943 1115
f 1136 1115 1307
f 827 1135 1144
f 1135 231 1143
f 1307 827 1144
f 1132 1131 1134
f 1138 1139 1140
f 1138 1137 1154
f 1139 1138 1154
f 1138 1140 1142
f 1137 1136 1155
f 1307 1155 1136
f 1143 1138 1142
f 1142 1140 1141
f 944 1129 1059
f 1113 943 942
f 942 943 1137
f 938 942 1143
f 231 925 1143
f 942 1137 1138
f 1137 943 1136
f 1143 942 1138
f 1133 1310 916
f 1113 1111 1115
f 1129 944 1130
f 1130 944 1131
f 1131 944 1134
f 1058 1131 1132
f 1058 1129 1130
f 1131 1058 1130
f 1162 1134 944
f 1081 1080 1111
f 1084 1069 1083
f 1085 1070 1084
f 1086 1071 1085
f 1072 1086 1087
f 1073 1087 1088
f 1074 1088 1089
f 1090 1075 1089
f 1080 1079 1111
f 1083 1068 1082
f 1082 1081 1111
f 1082 1111 1083
f 1111 1084 1083
f 1084 1111 1085
f 1085 1111 1086
f 1092 1091 1096
f 1093 1092 1097
f 1096 1091 1090
f 1070 1069 1084
f 213 1076 1061
f 1077 1062 1076
f 1078 1063 1077
f 1079 1064 1078
f 1080 1065 1079
f 1081 1066 1080
f 1082 1067 1081
f 1069 1068 1083
f 1094 1093 1098
f 1071 1070 1085
f 1072 1071 1086
f 1073 1072 1087
f 1074 1073 1088
f 1075 1074 1089
f 1091 1075 1090
f 1079 174 1111
f 1102 1105 1106
f 1101 1100 1111
f 1103 1101 1111
f 1111 1104 1103
f 1104 1111 1105
f 1105 1111 1107
f 1107 1111 1108
f 1102 1103 1104
f 1102 1104 1105
f 1100 1099 1111
f 1106 1105 1107
f 1106 1107 1108
f 1106 1108 1110
f 1108 1111 1110
f 1110 1111 1109
f 1109 1111 1112
f 1113 1114 1111
f 1112 1111 1114
f 1098 1093 1097
f 1086 1111 1087
f 1088 1087 1111
f 1089 1088 1111
f 1090 1089 1111
f 1096 1090 1111
f 1097 1096 1111
f 1098 1097 1111
f 1097 1092 1096
f 1141 1140 1157
f 1095 1094 1100
f 1094 1098 1099
f 1100 1094 1099
f 1095 1101 1102
f 1101 1095 1100
f 1101 1103 1102
f 1099 1098 1111
f 1189 1191 1190
f 1057 1189 1192
f 1188 1187 1200
f 1188 1200 1191
f 1202 1057 1193
f 1193 1057 1192
f 1191 1200 1317
f 1189 1186 1188
f 1189 1188 1191
f 1186 1187 1188
f 1192 1189 1190
f 1192 1190 1191
f 1193 1192 1191
f 1193 1191 1317
f 1195 492 1210
f 90 1209 1203
f 1210 492 1194
f 1194 1196 1210
f 1168 1200 1187
f 1165 1181 1182
f 1166 1165 1183
f 1165 1182 1183
f 1182 1177 1183
f 1166 1177 1200
f 1057 1165 1167
f 1167 1184 1057
f 1168 1166 1200
f 1307 1194 492
f 1057 1184 1185
f 1186 1057 1185
f 1187 1167 1168
f 1167 1187 1184
f 1057 1186 1189
f 1184 1187 1185
f 1185 1187 1186
f 1311 1312 1313
f 1312 900 1308
f 1163 1198 1309
f 1310 1163 1309
f 1310 1309 1316
f 1311 593 1312
f 1308 1195 1315
f 1308 1313 1312
f 1313 1308 1314
f 900 899 1308
f 1311 1313 1314
f 1314 1308 1315
f 914 1311 1314
f 1315 914 1314
f 1309 1202 1316
f 1202 1193 1316
f 1317 1310 1316
f 1317 1316 1193
f 1046 1203 1204
f 1198 1197 1202
f 1210 414 638
f 1210 638 1199
f 1195 1210 1199
f 1209 337 1210
f 1315 1195 1199
f 1196 1200 1210
f 1204 1200 1047
f 1166 1183 1177
f 1202 1197 1201
f 1317 1200 1196
f 1200 1204 1210
f 884 1195 1308
f 1309 1198 1202
f 1317 1196 1310
f 899 884 1308
f 1159 1158 1307
f 1152 1139 1154
f 1153 1139 1152
f 1155 1307 1156
f 1159 1140 1158
f 1140 1159 1157
f 1140 1153 1158
f 1151 1150 1307
f 1307 1150 1157
f 1307 1147 1148
f 1307 1157 1159
f 1158 1153 1307
f 1307 1153 1152
f 1307 1148 1149
f 1307 1149 1151
f 1154 1156 1307
f 1307 1152 1154
f 1133 1134 1160
f 1144 1143 1146
f 1140 1139 1153
f 1156 1154 1137
f 1156 1137 1155
f 1142 1141 1151
f 1142 1149 1143
f 1151 1141 1150
f 1150 1141 1157
f 1144 1146 1145
f 1160 1134 1161
f 1146 1143 1148
f 1145 1146 1147
f 1147 1146 1148
f 1149 1142 1151
f 1148 1143 1149
f 1145 1147 1307
f 1307 1144 1145
f 1174 1175 1176
f 1173 1174 1164
f 1171 1117 1169
f 1173 1171 1172
f 1173 1172 1170
f 1173 1170 1174
f 1164 1174 1178
f 1179 1164 1178
f 1175 1123 1177
f 1173 1117 1171
f 1178 1174 1176
f 1176 1175 1177
f 1178 1176 1177
f 1179 1178 1177
f 1180 1179 1177
f 1181 1180 1177
f 1181 1177 1182
f 1057 1180 1181
f 1161 1134 1162
f 1160 1161 1162
f 1133 1160 1310
f 1162 1163 1160
f 1310 1160 1163
f 1054 1173 1164
f 936 1117 1173
f 1054 1164 1179
f 1068 1067 1082
f 1054 1179 1180
f 1057 1181 1165
f 1168 1165 1166
f 1165 1168 1167
f 1172 1116 1174
f 1172 1174 1170
f 1174 1116 1175
f 852 851 884
f 844 843 884
f 845 844 884
f 846 845 884
f 848 847 884
f 847 846 884
f 849 848 884
f 850 849 884
f 851 850 884
f 843 842 884
f 853 852 884
f 870 854 884
f 854 853 884
f 884 871 870
f 871 884 872
f 873 884 874
f 884 873 872
f 874 884 875
f 903 828 829
f 832 830 828
f 831 832 828
f 835 831 828
f 838 834 828
f 834 833 828
f 833 835 828
f 856 857 828
f 857 829 828
f 876 884 877
f 836 840 828
f 837 836 828
f 841 837 828
f 842 841 828
f 839 838 828
f 840 839 828
f 842 828 884
f 828 907 493
f 892 884 895
f 894 884 896
f 884 898 897
f 896 884 897
f 898 884 899
f 503 901 902
f 520 1311 901
f 538 902 903
f 884 893 895
f 907 1315 638
f 828 903 904
f 904 905 828
f 903 902 904
f 905 904 902
f 907 828 905
f 902 901 906
f 901 1311 914
f 885 884 886
f 884 876 875
f 878 884 879
f 884 878 877
f 879 884 880
f 881 884 882
f 884 881 880
f 882 884 883
f 883 884 885
f 830 869 828
f 886 884 887
f 887 884 888
f 884 890 889
f 888 884 889
f 884 892 891
f 890 884 891
f 884 894 893
f 597 899 900
f 892 603 891
f 893 602 895
f 895 602 892
f 609 883 885
f 886 609 885
f 888 608 887
f 887 606 886
f 575 829 857
f 600 896 897
f 1312 597 900
f 836 611 840
f 837 614 836
f 838 612 834
f 839 613 838
f 840 610 839
f 841 615 837
f 842 616 841
f 589 882 883
f 581 863 866
f 585 862 860
f 587 861 869
f 586 860 861
f 584 858 862
f 591 879 880
f 592 881 882
f 881 592 880
f 843 617 842
f 597 898 899
f 603 890 891
f 889 605 888
f 605 889 890
f 601 893 894
f 599 897 898
f 896 600 894
f 828 864 865
f 876 629 875
f 632 876 877
f 878 632 877
f 633 878 879
f 858 859 828
f 862 858 828
f 866 863 828
f 866 828 859
f 629 874 875
f 864 828 863
f 828 865 868
f 868 867 828
f 828 855 856
f 867 855 828
f 828 860 862
f 861 860 828
f 869 861 828
f 852 624 851
f 844 618 843
f 845 619 844
f 846 620 845
f 847 621 846
f 848 622 847
f 849 623 848
f 850 625 849
f 624 850 851
f 905 902 906
f 627 852 853
f 854 627 853
f 635 870 871
f 872 635 871
f 637 872 873
f 874 637 873
f 870 628 854
f 1180 1057 1056
f 1053 1050 936
f 1053 936 1055
f 1054 1053 1055
f 1197 1056 1201
f 1201 1056 1057
f 1204 1047 1046
f 1055 936 1173
f 1173 1054 1055
f 934 1054 1056
f 1056 1054 1180
f 1201 1057 1202
f 917 164 1061
f 1062 917 1061
f 919 1062 1063
f 1064 919 1063
f 1065 921 1064
f 922 1065 1066
f 947 1200 945
f 942 940 941
f 1143 925 938
f 1117 936 934
f 1196 916 1310
f 935 944 1120
f 934 935 1120
f 1198 944 1197
f 916 947 945
f 1067 922 1066
f 1200 947 1047
f 1177 916 945
f 1177 945 1200
f 1051 1050 1053
f 934 1052 1054
f 1052 1051 1053
f 1054 1052 1053
f 1129 1058 1059
f 1058 1132 916
f 1127 1125 916
f 1133 916 1132
f 934 1060 1117
f 1060 934 1119
f 1121 1120 944
f 1121 944 1059
f 1125 1059 1058
f 916 1125 1058
f 1120 1119 934
f 1061 164 213
f 1062 1061 1076
f 1063 1062 1077
f 1064 1063 1078
f 1065 1064 1079
f 1066 1065 1080
f 1067 1066 1081
f 1091 931 1075
f 924 1067 1068
f 1069 924 1068
f 926 1069 1070
f 1071 926 1070
f 928 1071 1072
f 1073 928 1072
f 1074 930 1073
f 931 1074 1075
f 942 938 940
f 1092 932 1091
f 937 1092 1093
f 1094 937 1093
f 1095 938 1094
f 1307 1111 915
f 1118 1127 916
f 916 1177 1118
f 925 125 918
f 946 90 1046
f 947 95 946
f 119 947 915
f 916 915 947
f 119 915 1111
f 918 126 917
f 918 919 921
f 921 919 920
f 916 1194 915
f 925 918 921
f 925 921 922
f 925 922 923
f 925 923 924
f 927 928 931
f 926 927 933
f 928 929 930
f 925 926 938
f 909 908 910
f 907 905 906
f 907 906 908
f 906 901 908
f 901 914 913
f 908 901 910
f 910 901 913
f 908 909 907
f 909 911 907
f 931 928 930
f 911 909 910
f 911 910 912
f 912 910 913
f 1315 907 911
f 912 913 1315
f 1315 913 914
f 1315 911 912
f 931 930 1074
f 923 922 1067
f 924 923 1067
f 925 924 1069
f 926 925 1069
f 927 926 1071
f 928 927 1071
f 929 928 1073
f 930 929 1073
f 922 921 1065
f 932 931 1091
f 933 932 1092
f 937 933 1092
f 938 937 1094
f 1194 1307 915
f 938 933 937
f 938 939 940
f 935 934 1056
f 933 927 931
f 938 926 933
f 933 931 932
f 1046 90 1203
f 1194 916 1196
f 934 1050 1051
f 934 1051 1052
f 1050 934 936
f 460 706 707
f 1197 935 1056
f 935 1197 944
f 917 127 164
f 918 917 1062
f 919 918 1062
f 920 919 1064
f 921 920 1064
f 216 111 214
f 220 221 228
f 219 220 226
f 220 222 221
f 226 827 174
f 174 225 226
f 195 219 218
f 174 218 225
f 217 150 215
f 150 214 215
f 216 214 150
f 156 217 215
f 222 220 224
f 214 109 215
f 220 145 231
f 219 145 220
f 141 231 145
f 219 146 145
f 146 219 195
f 146 193 145
f 179 144 145
f 179 142 144
f 176 143 142
f 827 226 227
f 232 223 233
f 229 223 232
f 233 223 224
f 827 234 235
f 827 233 234
f 827 232 233
f 827 229 232
f 230 229 827
f 827 228 230
f 827 227 228
f 141 143 176
f 230 222 229
f 228 222 230
f 222 223 229
f 222 224 223
f 224 220 231
f 227 220 228
f 226 220 227
f 226 225 219
f 228 221 222
f 225 218 219
f 201 170 200
f 208 206 174
f 207 174 206
f 205 174 207
f 204 174 205
f 203 174 204
f 202 174 203
f 205 166 204
f 203 168 202
f 204 167 203
f 197 190 198
f 209 208 174
f 170 199 200
f 199 197 198
f 168 201 202
f 164 212 213
f 212 163 211
f 211 161 210
f 210 158 209
f 158 208 209
f 206 160 207
f 160 205 207
f 184 179 145
f 115 111 216
f 216 114 115
f 216 113 114
f 113 216 112
f 218 174 195
f 193 146 194
f 193 191 145
f 192 145 191
f 195 194 146
f 192 184 145
f 224 231 235
f 177 176 142
f 179 177 142
f 1078 174 1079
f 1078 1077 174
f 1077 1076 174
f 1076 213 174
f 213 212 174
f 212 211 174
f 211 210 174
f 210 209 174
f 380 377 382
f 388 395 408
f 388 408 387
f 388 397 395
f 396 408 395
f 394 363 403
f 385 382 394
f 385 393 386
f 382 385 384
f 382 384 383
f 380 382 381
f 385 394 393
f 379 377 380
f 377 375 382
f 377 379 378
f 382 363 394
f 403 363 400
f 363 482 400
f 375 377 376
f 373 375 374
f 363 382 375
f 375 373 371
f 406 403 405
f 421 418 417
f 415 416 425
f 416 421 419
f 409 413 407
f 412 399 411
f 410 412 411
f 408 406 412
f 407 412 409
f 394 403 408
f 408 412 407
f 371 373 372
f 399 406 404
f 402 405 403
f 403 400 401
f 403 406 408
f 399 412 406
f 408 396 394
f 391 394 392
f 390 394 391
f 390 393 394
f 389 393 390
f 827 239 1135
f 350 349 352
f 356 347 423
f 348 346 347
f 346 345 347
f 345 427 347
f 343 116 344
f 116 398 344
f 105 343 336
f 104 336 331
f 239 231 1135
f 347 356 350
f 239 238 236
f 238 237 236
f 237 235 236
f 236 231 239
f 235 231 236
f 827 238 239
f 827 237 238
f 827 235 237
f 235 234 224
f 234 233 224
f 361 353 356
f 371 363 375
f 370 363 371
f 369 363 370
f 368 363 369
f 367 358 363
f 366 365 367
f 365 364 367
f 364 359 367
f 362 361 356
f 423 363 356
f 208 159 206
f 361 360 353
f 353 350 356
f 358 356 363
f 358 367 359
f 357 356 358
f 355 414 343
f 344 355 343
f 354 350 353
f 352 347 350
f 351 347 352
f 122 135 157
f 132 138 170
f 133 134 168
f 166 131 133
f 168 134 132
f 492 119 827
f 140 141 173
f 172 129 140
f 128 129 172
f 139 128 171
f 160 136 130
f 138 137 170
f 123 122 157
f 135 136 160
f 126 125 161
f 127 126 164
f 125 124 161
f 124 123 158
f 130 131 166
f 121 116 217
f 117 121 217
f 129 133 141
f 149 106 151
f 150 147 151
f 153 112 216
f 152 110 153
f 151 108 152
f 217 116 150
f 110 112 153
f 149 151 147
f 148 147 155
f 148 149 147
f 148 107 149
f 134 129 139
f 150 105 147
f 108 110 152
f 120 107 148
f 231 141 131
f 231 131 925
f 142 145 144
f 143 141 142
f 141 145 142
f 140 129 141
f 137 139 196
f 113 108 114
f 108 118 109
f 119 121 117
f 95 90 946
f 117 95 119
f 116 105 150
f 343 105 116
f 331 103 104
f 104 105 336
f 106 108 151
f 114 109 115
f 119 95 947
f 112 108 113
f 109 111 115
f 108 112 110
f 108 109 114
f 105 117 147
f 107 106 149
f 106 118 108
f 106 107 118
f 95 117 105
f 104 95 105
f 139 129 128
f 131 141 133
f 129 134 133
f 137 138 132
f 132 139 137
f 131 125 925
f 131 122 125
f 135 131 136
f 122 131 135
f 139 132 134
f 136 131 130
f 152 150 151
f 126 127 917
f 125 126 918
f 124 125 122
f 124 122 123
f 492 121 119
f 1209 90 103
f 116 121 492
f 109 118 215
f 118 120 156
f 118 107 120
f 174 192 191
f 188 189 174
f 181 179 180
f 184 178 179
f 178 180 179
f 177 182 183
f 177 181 182
f 177 179 181
f 178 174 180
f 194 174 193
f 174 191 193
f 190 188 174
f 192 174 184
f 174 178 184
f 189 187 174
f 187 186 174
f 185 174 186
f 183 174 185
f 182 174 183
f 181 174 182
f 174 181 180
f 187 173 175
f 173 189 188
f 196 197 199
f 170 196 199
f 167 168 203
f 165 166 205
f 166 167 204
f 169 170 201
f 168 169 201
f 174 194 195
f 183 185 177
f 186 176 185
f 188 172 173
f 172 188 190
f 175 186 187
f 189 173 187
f 176 177 185
f 175 176 186
f 201 174 202
f 200 174 201
f 199 174 200
f 198 174 199
f 198 190 174
f 165 130 166
f 827 119 174
f 171 128 172
f 161 124 162
f 158 162 124
f 135 160 159
f 158 123 157
f 157 135 159
f 167 133 168
f 166 133 167
f 168 132 169
f 172 140 173
f 160 130 165
f 164 126 163
f 126 161 163
f 119 1111 174
f 215 118 156
f 155 117 217
f 111 109 214
f 147 117 155
f 150 153 216
f 150 152 153
f 217 154 155
f 190 171 172
f 197 171 190
f 162 158 210
f 164 163 212
f 163 161 211
f 161 162 210
f 157 159 208
f 158 157 208
f 160 206 159
f 160 165 205
f 610 611 614
f 217 156 154
f 154 148 155
f 156 120 154
f 120 148 154
f 197 139 171
f 196 139 197
f 170 137 196
f 169 132 170
f 175 141 176
f 173 141 175
f 401 400 804
f 488 487 735
f 487 479 734
f 485 488 735
f 486 485 737
f 490 486 737
f 489 490 800
f 491 489 801
f 403 401 803
f 484 483 729
f 400 491 802
f 405 402 812
f 812 402 403
f 406 405 810
f 411 399 808
f 410 411 807
f 413 409 821
f 408 407 824
f 475 471 721
f 361 362 742
f 356 744 362
f 356 357 747
f 729 477 484
f 902 531 533
f 478 477 731
f 480 478 732
f 732 479 480
f 407 413 815
f 476 475 722
f 472 476 722
f 473 472 724
f 474 473 724
f 482 474 725
f 483 481 727
f 481 482 727
f 774 378 379
f 767 373 374
f 767 374 375
f 770 375 376
f 377 378 772
f 772 376 377
f 780 383 384
f 385 386 781
f 781 384 385
f 765 372 373
f 776 379 380
f 776 380 381
f 778 381 382
f 778 382 383
f 787 386 393
f 393 389 788
f 794 389 390
f 391 793 390
f 754 365 366
f 412 410 817
f 409 412 818
f 404 814 399
f 404 406 813
f 357 358 748
f 358 359 749
f 752 359 364
f 754 364 365
f 353 360 740
f 756 366 367
f 757 367 363
f 758 363 368
f 760 368 369
f 762 369 370
f 764 370 371
f 764 371 372
f 677 355 344
f 346 348 663
f 347 665 348
f 347 351 666
f 351 352 668
f 349 350 672
f 350 354 674
f 353 675 354
f 349 670 352
f 345 346 661
f 431 430 678
f 433 431 680
f 435 432 681
f 434 433 679
f 432 434 682
f 436 435 683
f 437 436 684
f 438 437 687
f 425 426 650
f 418 416 645
f 416 415 646
f 421 417 647
f 417 418 644
f 446 420 640
f 422 641 419
f 420 419 641
f 422 421 643
f 688 439 438
f 649 415 425
f 426 423 651
f 423 424 652
f 424 427 653
f 427 428 655
f 428 429 657
f 345 659 429
f 466 465 712
f 456 704 457
f 704 458 457
f 458 706 459
f 706 460 459
f 460 708 461
f 708 462 461
f 464 463 710
f 709 463 462
f 703 456 455
f 465 464 712
f 714 452 466
f 471 470 718
f 452 715 467
f 468 467 715
f 469 468 717
f 470 469 718
f 360 361 741
f 693 444 445
f 689 440 439
f 685 441 440
f 686 453 441
f 443 448 696
f 442 443 690
f 442 691 449
f 447 444 693
f 445 446 695
f 793 391 392
f 448 447 692
f 451 449 697
f 450 451 698
f 430 450 699
f 344 398 720
f 700 454 453
f 702 455 454
f 531 532 533
f 576 536 540
f 536 539 540
f 536 537 539
f 536 534 535
f 534 536 542
f 522 533 514
f 533 541 542
f 532 541 533
f 538 572 540
f 533 529 530
f 522 529 533
f 528 529 524
f 527 522 525
f 525 526 527
f 522 500 525
f 524 529 522
f 523 524 522
f 545 521 547
f 556 555 563
f 553 552 557
f 555 553 563
f 554 553 555
f 547 514 598
f 551 548 552
f 545 547 550
f 549 545 550
f 521 514 547
f 548 547 552
f 547 546 550
f 544 521 545
f 514 533 582
f 543 534 542
f 542 536 533
f 533 536 582
f 498 495 496
f 516 500 522
f 502 500 501
f 503 501 500
f 500 502 525
f 494 499 500
f 496 494 500
f 498 496 497
f 500 497 496
f 497 500 516
f 493 492 1195
f 116 493 638
f 331 1209 103
f 398 116 638
f 116 492 493
f 398 414 826
f 414 355 826
f 795 394 396
f 516 512 508
f 520 514 521
f 518 515 519
f 520 519 514
f 515 514 519
f 514 513 517
f 517 516 514
f 516 522 514
f 511 510 512
f 564 563 553
f 510 509 512
f 509 508 512
f 508 497 516
f 506 505 507
f 508 507 497
f 505 504 507
f 504 497 507
f 593 595 594
f 603 605 604
f 603 602 600
f 603 600 605
f 600 602 601
f 600 598 605
f 598 600 599
f 597 595 598
f 595 597 596
f 606 608 607
f 595 593 562
f 598 595 557
f 591 590 633
f 592 589 591
f 589 590 591
f 633 605 631
f 605 633 590
f 633 588 591
f 531 902 532
f 796 396 395
f 397 388 786
f 397 785 395
f 387 408 783
f 388 387 783
f 795 392 394
f 532 902 541
f 541 902 542
f 620 631 605
f 530 902 533
f 529 902 530
f 902 528 524
f 528 902 529
f 607 590 609
f 608 605 607
f 590 607 605
f 562 559 595
f 610 620 605
f 571 569 570
f 569 567 568
f 582 569 610
f 569 586 567
f 586 566 567
f 565 564 557
f 564 553 557
f 573 574 572
f 562 561 560
f 605 598 514
f 560 559 562
f 559 557 595
f 558 557 559
f 557 547 598
f 552 547 557
f 580 581 579
f 610 605 582
f 566 586 587
f 586 569 582
f 586 584 585
f 582 584 586
f 582 583 584
f 605 514 582
f 582 579 581
f 416 444 423
f 582 576 579
f 576 578 579
f 576 577 578
f 536 576 582
f 574 575 576
f 576 572 574
f 576 540 572
f 463 464 465
f 472 473 476
f 482 363 465
f 363 423 465
f 465 473 482
f 465 468 473
f 473 468 469
f 469 470 473
f 465 467 468
f 452 465 466
f 482 473 474
f 465 461 463
f 461 462 463
f 455 461 465
f 461 459 460
f 461 457 459
f 457 458 459
f 455 457 461
f 455 456 457
f 484 481 483
f 421 416 418
f 400 490 491
f 486 400 485
f 400 486 490
f 489 491 490
f 485 487 488
f 485 479 487
f 482 479 400
f 479 485 400
f 455 453 454
f 484 482 481
f 479 477 480
f 479 484 477
f 477 478 480
f 482 484 479
f 473 470 471
f 476 471 475
f 476 473 471
f 424 423 347
f 438 436 437
f 434 435 436
f 434 431 433
f 434 432 435
f 436 455 444
f 450 431 434
f 430 431 450
f 429 428 345
f 455 441 453
f 428 427 345
f 427 424 347
f 416 423 426
f 425 416 426
f 419 421 422
f 419 420 446
f 444 416 419
f 571 612 613
f 455 438 439
f 465 452 467
f 465 444 455
f 465 423 444
f 444 434 436
f 450 434 451
f 444 442 434
f 434 442 451
f 449 451 442
f 443 447 448
f 444 447 443
f 445 419 446
f 444 419 445
f 443 442 444
f 455 439 441
f 439 440 441
f 438 455 436
f 37 36 32
f 36 35 32
f 72 55 31
f 32 35 39
f 39 33 32
f 38 37 32
f 102 1 32
f 102 32 34
f 24 9 23
f 31 16 30
f 30 15 29
f 29 14 28
f 28 13 27
f 27 12 26
f 26 11 25
f 25 10 24
f 37 21 36
f 21 20 35
f 38 22 37
f 21 35 36
f 29 28 92
f 28 27 91
f 27 26 43
f 26 25 41
f 25 24 40
f 24 23 40
f 34 32 33
f 17 18 34
f 18 61 78
f 19 17 39
f 20 19 35
f 23 22 38
f 22 21 37
f 32 95 38
f 8 9 1
f 8 7 22
f 7 6 21
f 6 5 20
f 5 4 19
f 3 44 61
f 2 3 18
f 11 1 10
f 9 10 1
f 4 2 17
f 90 32 1
f 90 1 11
f 7 8 1
f 6 7 1
f 5 6 1
f 4 5 1
f 2 4 1
f 23 8 22
f 9 8 23
f 10 9 24
f 11 10 25
f 12 11 26
f 13 12 27
f 14 13 28
f 15 14 29
f 16 15 30
f 55 16 31
f 17 2 18
f 18 3 61
f 21 6 20
f 20 5 19
f 22 7 21
f 19 4 17
f 57 90 56
f 104 102 87
f 90 11 12
f 90 12 13
f 14 90 13
f 15 90 14
f 16 90 15
f 55 90 16
f 56 90 55
f 102 86 87
f 32 90 95
f 38 95 40
f 40 95 41
f 41 95 42
f 42 95 43
f 43 95 91
f 95 92 91
f 30 29 92
f 83 67 84
f 86 69 70
f 71 87 70
f 71 76 88
f 78 62 79
f 79 63 80
f 80 63 81
f 81 65 82
f 82 66 83
f 31 30 94
f 84 67 85
f 85 68 86
f 86 70 87
f 87 71 89
f 89 71 88
f 88 76 100
f 102 85 86
f 99 95 104
f 103 90 57
f 73 72 98
f 74 73 99
f 77 74 97
f 99 73 98
f 74 99 96
f 97 74 96
f 100 77 97
f 54 103 59
f 99 104 96
f 96 104 97
f 104 87 89
f 104 89 88
f 104 88 100
f 97 104 100
f 104 101 102
f 95 99 98
f 72 31 98
f 92 28 91
f 30 92 93
f 94 30 93
f 98 31 94
f 95 93 92
f 95 94 93
f 95 98 94
f 68 69 86
f 50 103 51
f 51 103 52
f 52 103 53
f 53 103 54
f 103 60 58
f 103 57 60
f 59 103 58
f 51 52 69
f 101 1 102
f 44 45 62
f 45 46 63
f 46 47 64
f 47 48 65
f 48 49 66
f 49 50 67
f 50 51 68
f 49 101 50
f 52 53 70
f 53 54 71
f 56 55 72
f 57 56 73
f 60 57 74
f 59 58 75
f 59 76 54
f 58 60 77
f 91 27 43
f 39 17 33
f 35 19 39
f 33 17 34
f 34 18 78
f 40 23 38
f 41 25 40
f 26 41 42
f 43 26 42
f 61 44 62
f 2 101 3
f 3 101 44
f 44 101 45
f 45 101 46
f 46 101 47
f 47 101 48
f 48 101 49
f 63 79 62
f 102 78 79
f 102 79 80
f 102 80 81
f 102 81 82
f 102 82 83
f 102 83 84
f 102 84 85
f 78 61 62
f 102 34 78
f 63 64 81
f 81 64 65
f 66 82 65
f 67 83 66
f 67 68 85
f 76 75 100
f 100 75 77
f 70 53 71
f 62 45 63
f 63 46 64
f 64 47 65
f 65 48 66
f 66 49 67
f 67 50 68
f 68 51 69
f 69 52 70
f 103 101 104
f 73 56 72
f 77 60 74
f 74 57 73
f 71 54 76
f 76 59 75
f 75 58 77
f 101 103 50
f 1 101 2
f 968 967 982
f 980 965 979
f 979 964 978
f 978 963 977
f 976 961 1017
f 972 957 975
f 975 960 976
f 977 962 973
f 973 958 974
f 974 959 972
f 1014 971 986
f 971 970 985
f 970 969 984
f 969 968 983
f 982 967 981
f 967 966 981
f 966 965 980
f 965 964 979
f 964 963 978
f 963 962 977
f 961 1000 1017
f 960 961 976
f 960 975 957
f 958 959 974
f 962 958 973
f 959 957 972
f 1014 1015 987
f 973 974 948
f 974 972 948
f 980 979 991
f 979 978 991
f 978 977 990
f 977 973 988
f 992 991 997
f 991 990 997
f 947 997 990
f 947 987 997
f 987 1048 997
f 1015 1016 987
f 981 966 980
f 987 971 1014
f 987 970 971
f 987 969 970
f 987 968 969
f 987 967 968
f 987 966 967
f 1031 1014 986
f 986 971 985
f 985 970 984
f 984 969 983
f 983 968 982
f 987 946 966
f 947 989 948
f 949 976 952
f 951 975 949
f 950 975 951
f 948 972 950
f 1047 947 949
f 949 947 951
f 951 947 950
f 976 1017 952
f 975 976 949
f 975 950 972
f 947 990 988
f 947 988 989
f 960 1046 961
f 950 947 948
f 966 946 965
f 965 946 964
f 964 946 963
f 963 946 962
f 946 957 959
f 946 960 957
f 958 946 959
f 962 946 958
f 960 946 1046
f 946 987 947
f 1004 1005 1022
f 1047 952 953
f 1039 1047 1037
f 1037 1047 1036
f 1036 1047 1035
f 1035 1047 1034
f 1034 1047 956
f 1047 955 956
f 955 1021 956
f 954 1019 955
f 953 1019 954
f 952 1018 953
f 1047 954 955
f 1047 953 954
f 1005 1006 1023
f 1047 949 952
f 1019 1020 955
f 1019 953 1018
f 952 1017 1018
f 1046 1006 1005
f 1046 1005 1004
f 1003 1046 1004
f 1002 1046 1003
f 1001 1046 1002
f 1000 1046 1001
f 961 1046 1000
f 1022 956 1021
f 1029 1012 1030
f 1028 1011 1029
f 1032 1015 1031
f 1033 1016 1032
f 1046 1048 1006
f 1009 1048 1010
f 1010 1048 1011
f 1011 1048 1012
f 1012 1048 1013
f 1013 1048 1016
f 1016 1048 987
f 955 1020 1021
f 1027 1010 1028
f 1023 1034 1022
f 1023 1024 1036
f 1024 1025 1037
f 1037 1025 1026
f 1028 1029 1042
f 1033 1032 1044
f 1032 1031 1043
f 1033 1038 1030
f 1042 1029 1030
f 1027 1039 1026
f 1027 1028 1041
f 956 1022 1034
f 1007 1048 1008
f 981 980 992
f 1006 1007 1024
f 1007 1008 1025
f 1008 1009 1026
f 1013 1016 1033
f 1009 1010 1027
f 1011 1028 1010
f 1011 1012 1029
f 1012 1013 1030
f 1015 1014 1031
f 1016 1015 1032
f 1006 1048 1007
f 982 981 994
f 1008 1048 1009
f 1017 1000 1018
f 1018 1001 1019
f 1019 1002 1020
f 1020 1003 1021
f 1021 1004 1022
f 1022 1005 1023
f 1023 1006 1024
f 1024 1007 1025
f 1025 1008 1026
f 1026 1009 1027
f 1030 1013 1033
f 994 981 993
f 1043 999 997
f 999 998 997
f 998 996 997
f 996 995 997
f 995 994 997
f 994 993 997
f 993 992 997
f 1043 986 999
f 999 985 998
f 985 996 998
f 996 983 995
f 995 982 994
f 1035 1023 1036
f 981 992 993
f 992 980 991
f 991 978 990
f 990 977 988
f 988 973 989
f 973 948 989
f 1031 986 1043
f 986 985 999
f 985 984 996
f 984 983 996
f 983 982 995
f 1034 1023 1035
f 1000 1001 1018
f 1044 1043 997
f 1036 1024 1037
f 1037 1026 1039
f 1044 1032 1043
f 1033 1044 1045
f 1042 1030 1038
f 1038 1033 1045
f 1039 1027 1040
f 1040 1027 1041
f 1041 1028 1042
f 1049 1047 1039
f 997 1048 1049
f 1038 1045 1049
f 1045 1044 1049
f 1001 1002 1019
f 1002 1003 1020
f 1046 1049 1048
f 1003 1004 1021
f 1049 1046 1047
f 1042 1038 1049
f 1049 1040 1041
f 1041 1042 1049
f 1049 1039 1040
f 1044 997 1049
f 318 302 319
f 311 316 329
f 311 328 310
f 327 309 310
f 308 309 327
f 342 315 317
f 316 315 342
f 307 308 326
f 307 324 306
f 306 323 305
f 322 304 305
f 303 304 322
f 319 303 320
f 320 303 322
f 322 305 323
f 323 306 324
f 324 307 325
f 325 307 326
f 326 308 327
f 327 310 328
f 328 311 330
f 330 311 329
f 329 316 342
f 343 283 321
f 326 327 321
f 311 294 316
f 302 285 303
f 303 286 304
f 304 287 305
f 305 288 306
f 306 289 307
f 307 290 308
f 308 291 309
f 309 292 310
f 310 293 311
f 313 296 312
f 317 300 314
f 314 297 313
f 303 319 302
f 316 299 315
f 315 298 317
f 283 337 290
f 321 273 318
f 321 318 319
f 321 319 320
f 321 320 322
f 322 323 321
f 323 324 321
f 324 325 321
f 325 326 321
f 318 301 302
f 314 313 341
f 336 341 340
f 290 337 291
f 291 337 292
f 292 337 293
f 293 337 294
f 337 300 298
f 337 297 300
f 299 337 298
f 294 337 299
f 331 297 337
f 337 283 343
f 313 312 340
f 336 340 335
f 317 314 339
f 341 313 340
f 314 341 338
f 339 314 338
f 342 317 339
f 341 336 343
f 341 343 338
f 338 343 339
f 343 328 330
f 343 330 329
f 343 329 342
f 339 343 342
f 280 336 281
f 343 321 328
f 331 250 251
f 331 251 252
f 253 331 252
f 254 331 253
f 255 331 254
f 295 331 255
f 296 331 295
f 297 331 296
f 271 331 336
f 277 336 279
f 279 336 280
f 327 328 321
f 281 336 282
f 282 336 332
f 336 333 332
f 269 268 333
f 270 269 335
f 312 270 340
f 333 267 332
f 269 333 334
f 335 269 334
f 340 270 335
f 336 334 333
f 336 335 334
f 267 252 266
f 295 255 270
f 256 241 257
f 257 242 301
f 260 245 259
f 259 244 258
f 261 246 260
f 258 243 256
f 262 247 261
f 263 248 262
f 264 249 263
f 265 250 264
f 266 251 265
f 255 254 269
f 268 253 267
f 269 254 268
f 270 255 269
f 312 295 270
f 271 274 278
f 276 275 271
f 275 274 271
f 277 276 271
f 321 240 271
f 321 271 273
f 278 272 271
f 273 271 272
f 242 284 301
f 240 283 241
f 241 243 240
f 243 244 240
f 244 245 240
f 245 246 240
f 246 247 240
f 331 240 250
f 331 271 240
f 247 248 240
f 248 249 240
f 250 240 249
f 241 242 257
f 298 300 317
f 244 243 258
f 245 244 259
f 246 245 260
f 247 246 261
f 243 241 256
f 248 247 262
f 249 248 263
f 250 249 264
f 251 250 265
f 252 251 266
f 253 252 267
f 254 253 268
f 287 288 305
f 241 283 242
f 242 283 284
f 284 283 285
f 285 283 286
f 286 283 287
f 287 283 288
f 288 283 289
f 289 283 290
f 283 240 321
f 284 285 302
f 285 286 303
f 286 287 304
f 261 260 276
f 288 289 306
f 289 290 307
f 290 291 308
f 291 292 309
f 292 293 310
f 293 294 311
f 296 295 312
f 297 296 313
f 300 297 314
f 299 298 315
f 299 316 294
f 301 284 302
f 266 265 282
f 280 264 279
f 279 262 277
f 273 257 318
f 272 256 273
f 274 258 278
f 278 256 272
f 277 261 276
f 276 260 275
f 260 274 275
f 268 267 333
f 267 266 332
f 282 265 281
f 265 264 280
f 264 263 279
f 263 262 279
f 260 259 274
f 256 257 273
f 257 301 318
f 258 256 278
f 259 258 274
f 262 261 277
f 271 336 277
f 332 266 282
f 265 280 281
f 1278 1261 1279
f 1282 1294 1281
f 1279 1262 1280
f 1280 1263 1281
f 1281 1264 1282
f 1282 1265 1283
f 1283 1266 1284
f 1284 1267 1285
f 1285 1268 1286
f 1289 1272 1292
f 1286 1269 1287
f 1288 1271 1289
f 1287 1270 1288
f 1291 1274 1290
f 1292 1275 1291
f 1209 1293 1265
f 1209 1306 1293
f 1268 1293 1269
f 1269 1293 1270
f 1270 1293 1271
f 1271 1293 1272
f 1272 1293 1275
f 1275 1293 1246
f 1214 1279 1280
f 1281 1215 1280
f 1257 1255 1256
f 1267 1268 1285
f 1255 1254 1256
f 1258 1257 1256
f 1303 1258 1256
f 1304 1303 1256
f 1259 1260 1277
f 1260 1261 1278
f 1261 1262 1279
f 1262 1263 1280
f 1263 1264 1281
f 1264 1265 1282
f 1265 1266 1283
f 1266 1267 1284
f 1277 1260 1278
f 1272 1275 1292
f 1268 1269 1286
f 1270 1287 1269
f 1270 1271 1288
f 1271 1272 1289
f 1274 1273 1290
f 1275 1274 1291
f 1265 1293 1266
f 1266 1293 1267
f 1267 1293 1268
f 1276 1259 1277
f 1204 1247 1248
f 1304 1256 1306
f 1306 1299 1300
f 1301 1302 1306
f 1306 1300 1301
f 1302 1298 1306
f 1204 1206 1210
f 1206 1204 1208
f 1208 1204 1207
f 1235 1276 1211
f 1234 1235 1206
f 1234 1207 1231
f 1204 1249 1247
f 1298 1305 1306
f 1204 1248 1205
f 1207 1204 1205
f 1225 1203 1224
f 1224 1203 1223
f 1223 1203 1222
f 1222 1203 1221
f 1203 1216 1218
f 1203 1219 1216
f 1217 1203 1218
f 1221 1203 1217
f 1203 1209 1219
f 1203 1246 1204
f 1296 1283 1297
f 1283 1284 1297
f 1297 1284 1285
f 1287 1288 1302
f 1292 1291 1304
f 1291 1290 1303
f 1292 1298 1289
f 1302 1288 1289
f 1286 1299 1285
f 1286 1287 1301
f 1215 1281 1294
f 1294 1282 1295
f 1295 1282 1296
f 1282 1283 1296
f 1297 1285 1299
f 1304 1291 1303
f 1292 1304 1305
f 1302 1289 1298
f 1298 1292 1305
f 1299 1286 1300
f 1300 1286 1301
f 1301 1287 1302
f 1306 1210 1299
f 1256 1293 1306
f 1305 1304 1306
f 1224 1223 1238
f 1296 1210 1295
f 1297 1210 1296
f 1299 1210 1297
f 1246 1203 1225
f 1218 1216 1231
f 1221 1217 1232
f 1217 1218 1233
f 1219 1234 1216
f 1219 1220 1235
f 1220 1259 1276
f 1222 1221 1236
f 1223 1222 1237
f 1295 1210 1294
f 1225 1224 1239
f 1226 1225 1240
f 1227 1226 1241
f 1228 1227 1242
f 1229 1228 1243
f 1230 1229 1244
f 1273 1230 1245
f 1233 1218 1231
f 1232 1217 1233
f 1236 1221 1232
f 1234 1219 1235
f 1231 1216 1234
f 1278 1212 1277
f 1207 1234 1208
f 1208 1234 1206
f 1206 1235 1211
f 1219 1209 1220
f 1220 1209 1259
f 1259 1209 1260
f 1260 1209 1261
f 1261 1209 1262
f 1262 1209 1263
f 1209 1264 1263
f 1209 1265 1264
f 1211 1276 1277
f 1235 1220 1276
f 1278 1279 1214
f 1210 1206 1211
f 1210 1211 1212
f 1210 1212 1213
f 1210 1213 1214
f 1211 1277 1212
f 1212 1278 1213
f 1213 1278 1214
f 1214 1280 1215
f 1306 1209 1210
f 1210 1214 1215
f 1294 1210 1215
f 1249 1236 1247
f 1239 1238 1250
f 1233 1231 1205
f 1232 1233 1205
f 1240 1239 1251
f 1241 1240 1253
f 1242 1241 1254
f 1243 1242 1255
f 1244 1243 1255
f 1245 1244 1258
f 1290 1245 1303
f 1232 1205 1248
f 1247 1232 1248
f 1238 1237 1250
f 1250 1237 1249
f 1251 1239 1250
f 1240 1251 1252
f 1253 1240 1252
f 1254 1241 1253
f 1255 1242 1254
f 1244 1255 1257
f 1258 1244 1257
f 1303 1245 1258
f 1252 1251 1256
f 1253 1252 1256
f 1254 1253 1256
f 1246 1227 1228
f 1237 1222 1236
f 1238 1223 1237
f 1239 1224 1238
f 1240 1225 1239
f 1241 1226 1240
f 1242 1227 1241
f 1243 1228 1242
f 1244 1229 1243
f 1245 1230 1244
f 1290 1273 1245
f 1246 1225 1226
f 1246 1226 1227
f 1205 1231 1207
f 1246 1228 1229
f 1246 1229 1230
f 1246 1230 1273
f 1273 1274 1246
f 1274 1275 1246
f 1246 1293 1256
f 1204 1246 1256
f 1204 1256 1249
f 1250 1249 1256
f 1251 1250 1256
f 1236 1232 1247
f 1237 1236 1249

