# https://github.com/mikedh/trimesh

o base.obj
v 7.47975362 0.44695266 7.82454752
v -8.47824638 -1.31300000 4.79454752
v 5.58442395 -2.42400000 3.98654752
v -6.66024638 2.72700000 7.01654752
v 5.58442395 2.42400000 3.98654752
v 5.66175362 -2.72700000 7.82454752
v -6.66024638 -2.72700000 7.01654752
v -6.35724638 2.42400000 3.98654752
v 5.66175362 2.72700000 7.82454752
v -6.35724638 -2.42400000 3.98654752
v -8.47824638 1.31300000 4.79454752
v 7.07218203 -1.35008969 4.28954752
v 7.07218203 1.35008969 4.28954752
v -8.47323614 1.31801005 6.30954752
v -8.47323614 -1.31801005 6.30954752
v 6.70879024 -2.15532942 7.82454752
v 6.70879024 2.15532942 7.82454752
v -7.67024638 1.42213075 3.98654752
v -7.67024638 -1.42213075 3.98654752
v 7.47975362 -0.44695266 7.11754752
v 6.47440708 -1.93807928 3.98654752
v 6.47440708 1.93807928 3.98654752
v 7.47975362 0.44695266 7.11754752
v 7.47975362 -0.44695266 7.82454752
v -8.17524638 1.61600000 4.49154752
v -8.17524638 -1.61600000 4.49154752
v -6.66024638 2.72700000 4.28954752
v -6.66024638 -2.72700000 4.28954752
v -8.17524638 -1.61600000 6.01155776
v -8.17524638 1.61600000 6.01155776
v 6.70879024 -2.15532942 4.28954752
v 6.70879024 2.15532942 4.28954752
v 6.66600000 1.74394882 6.80160276
v -6.66600000 1.65605118 5.99839762
v 6.66600000 1.65605118 5.99839762
v -6.66600000 1.74394882 6.80160276
v 6.66600000 1.29987635 6.45583002
v -6.66600000 1.29987635 6.45583002
v 6.66600000 2.10272837 6.36797131
v -6.66600000 2.10272837 6.36797131
v -6.66600000 1.38872977 6.14246009
v 6.66600000 1.38872977 6.14246009
v -6.66600000 1.45179708 6.71876507
v 6.66600000 1.45179708 6.71876507
v 6.66600000 2.01127013 6.65754029
v -6.66600000 2.01127013 6.65754029
v -6.66600000 1.94820292 6.08123493
v 6.66600000 1.94820292 6.08123493
v 6.66600000 2.05564353 6.20833988
v -6.66600000 2.05564353 6.20833988
v 6.66600000 1.31132199 6.28979363
v -6.66600000 1.31132199 6.28979363
v -6.66600000 1.34435637 6.59166051
v 6.66600000 1.34435637 6.59166051
v -6.66600000 2.08146664 6.53303794
v 6.66600000 2.08146664 6.53303794
v -6.66600000 1.82167571 6.01475834
v 6.66600000 1.82167571 6.01475834
v 6.66600000 1.49788509 6.05019218
v -6.66600000 1.49788509 6.05019218
v -6.66600000 1.60135987 6.79177338
v 6.66600000 1.60135987 6.79177338
v 6.66600000 1.88103706 6.76116716
v -6.66600000 1.88103706 6.76116716
v -6.66600000 -1.85933052 6.77125468
v 6.66600000 -1.54066958 6.02874571
v -6.66600000 -1.54066958 6.02874571
v 6.66600000 -1.85933052 6.77125468
v -6.66600000 -2.07581278 6.25174101
v 6.66600000 -2.07581278 6.25174101
v -6.66600000 -1.33363015 6.57026181
v 6.66600000 -1.33363015 6.57026181
v -6.66600000 -2.07291833 6.55539600
v 6.66600000 -2.07291833 6.55539600
v -6.66600000 -1.84427688 6.02264049
v 6.66600000 -1.84427688 6.02264049
v -6.66600000 -1.32708167 6.24460400
v 6.66600000 -1.32708167 6.24460400
v -6.66600000 -1.55572312 6.77735912
v 6.66600000 -1.55572312 6.77735912
v 6.66600000 -1.98415670 6.11282248
v -6.66600000 -1.98415670 6.11282248
v 6.66600000 -1.29608168 6.40812257
v -6.66600000 -1.29608168 6.40812257
v 6.66600000 -1.97863095 6.69254184
v -6.66600000 -1.97863095 6.69254184
v 6.66600000 -1.69614927 6.80398151
v -6.66600000 -1.69614927 6.80398151
v -6.66600000 -2.10391832 6.39187782
v 6.66600000 -2.10391832 6.39187782
v -6.66600000 -1.42136914 6.10745816
v 6.66600000 -1.42136914 6.10745816
v -6.66600000 -1.70385073 5.99601849
v 6.66600000 -1.70385073 5.99601849
v 6.66600000 -1.41584320 6.68717714
v -6.66600000 -1.41584320 6.68717714
v 2.98526180 -1.12974375 1.96074162
v 7.50040110 0.97709291 0.97113347
v 4.51668648 0.89365658 0.61073307
v 5.94335540 -1.23450075 0.95168836
v 2.96868455 1.06922530 1.96074162
v 7.53458199 -0.89581956 1.96074162
v 5.96429021 1.23430272 0.97054437
v 4.51668648 -0.88587287 0.60755939
v 6.75432324 -0.13856288 0.53664162
v 3.20197620 1.20162723 0.80194795
v 3.20449827 -1.20227152 0.80203262
v 7.18701692 -1.22701092 0.95801309
v 7.18181095 1.24812933 1.96074162
v 7.52060388 -0.10123066 0.97262529
v 6.27262101 0.13810155 0.53664162
v 3.56424758 0.88245337 0.60734161
v 3.56424758 -0.88291465 0.60734161
v 7.18181095 -1.24859070 1.96074162
v 7.53458199 0.89535828 1.96074162
v 7.52082657 -0.89012188 0.97563908
v 7.17611337 1.23437371 0.97563908
v 6.64868365 0.25222681 0.53816437
v 6.36729502 -0.23812766 0.53668434
v 5.67517201 1.19879866 0.80242850
v 2.98146559 -1.03250702 0.95072688
v 2.98146559 1.03204564 0.95072688
v 5.67517201 -1.19926004 0.80242850
v 3.16934241 1.24812933 1.96074162
v 3.16934241 -1.24859070 1.96074162
v 6.78763725 0.08714213 0.53870665
v 6.57585796 -0.27973915 0.53816437
v 6.43661077 0.26820024 0.53668434
v 5.17434621 0.08564226 1.74742547
v 5.01274636 1.00474229 0.83842547
v 5.01274636 0.00484227 0.83842547
v 4.93194644 0.92394227 1.74742547
v 5.32584621 0.92394227 1.32322549
v 5.32584621 0.08564226 1.32322549
v 5.26524636 0.83304231 1.74742547
v 5.32584621 1.00338098 0.98137158
v 5.32584621 0.00620350 0.98137158
v 4.99254628 0.05534227 1.51819434
v 5.12384621 0.95424229 1.51819434
v 4.93194644 0.08564226 1.74742547
v 4.85148788 0.05534227 0.97558817
v 4.85148788 0.95424229 0.97558817
v 5.20464613 1.00474229 0.83842547
v 5.20464613 0.00484227 0.83842547
v 4.99254628 0.95424229 1.51819434
v 5.12384621 0.05534227 1.51819434
v 5.26524636 0.17654226 1.74742547
v 5.17434621 0.92394227 1.74742547
v 4.90164613 0.00484227 0.93942547
v 4.90164613 1.00474229 0.93942547
v 4.87614878 0.01255172 0.97803752
v 4.87614878 0.99703284 0.97803752
v 4.85945402 0.98199250 0.93942547
v 4.85945402 0.02759206 0.93942547
v 5.32584621 1.00474229 0.93942547
v 5.32584621 0.00484227 0.93942547
v 4.85114613 0.05534227 0.93942547
v 4.85114613 0.95424229 0.93942547
v 4.90164613 0.00484227 0.96972549
v 4.90164613 1.00474229 0.96972549
v 3.94522451 0.50479226 0.35367710
v 5.18348472 0.50479226 0.99502707
v 4.95522451 0.50479226 0.35367710
v 5.18348472 0.50479226 0.58193710
v 5.06778920 0.42907554 0.47573797
v 5.04763767 0.58050898 0.45780477
v 3.94522451 0.50479226 0.50517712
v 5.03198472 0.50479226 0.99502707
v 5.15106805 0.52258489 0.46886672
v 5.06908877 0.49583305 0.38471860
v 5.10762800 0.58050898 0.55506423
v 4.96422282 0.42907554 0.42744421
v 5.10971740 0.42907554 0.57293893
v 5.10997939 0.42907554 0.99502707
v 5.10997939 0.58050898 0.99502707
v 3.94522451 0.42907554 0.43167184
v 3.94522451 0.58050898 0.43167184
v 4.95522451 0.57971207 0.41824289
v 5.14220997 0.44890141 0.50127944
v 5.01623352 0.55075737 0.37815335
v 5.11359837 0.46627104 0.43251893
v 5.00428123 0.45882716 0.37495077
v 5.10299804 0.54710973 0.42530631
v 5.16475759 0.54710973 0.53227687
v 5.11551477 0.57317919 0.48939337
v 5.05169819 0.44073839 0.41484001
v 5.16369690 0.45534101 0.55757017
v 5.05660440 0.44890141 0.99502707
v 5.05660440 0.56068316 0.99502707
v 3.94522451 0.44890141 0.37829714
v 3.94522451 0.55755600 0.37507594
v 3.94522451 0.45202852 0.48377828
v 2.98151112 -1.09892335 3.24448576
v 7.48791660 0.97512396 3.82860238
v 5.69698784 -1.19883386 3.99733461
v 3.57723385 1.21058977 3.98493692
v 7.51338005 -0.92486119 3.24448576
v 5.53993319 0.68318697 4.11258782
v 3.02539193 0.27378386 3.13338572
v 7.48724004 -0.02529122 3.85010510
v 3.10528181 -0.67881133 4.11308561
v 3.03418528 1.18174930 3.24448576
v 7.16996294 1.16992069 3.13338572
v 7.16661019 -1.22744085 3.83444252
v 5.95046261 1.22891139 3.83870145
v 3.08195207 0.67900172 4.09749430
v 3.57723385 -1.21177441 3.98039635
v 3.02539193 -0.52636633 3.13338572
v 3.03515234 -1.16587500 3.85048576
v 5.54353676 -0.67697642 4.11276659
v 3.04315085 1.17376370 3.85048576
v 7.50811937 -0.88766728 3.82558830
v 7.16997065 -1.23729122 3.24448576
v 7.51623423 0.89094577 3.24448576
v 7.16661019 1.22909440 3.82558830
v 5.66793393 1.19254786 4.00130150
v 2.97969219 -0.79306666 3.85048460
v 2.97969219 0.79298489 3.85048460
v 5.93781411 -1.22885542 3.84880669
v 3.17321420 -1.23729122 3.24448576
v 5.87710561 1.15382870 4.00154923
v 3.03852204 1.03520878 3.13338572
v 7.40948964 0.98619338 3.13338572
v 7.26521835 -1.13054692 3.13338572
v 7.51211333 0.96790418 3.24881682
v 2.98938701 -1.13066755 1.95601670
v 3.18448155 1.23687297 3.24881682
v 7.18589455 -1.24890912 1.95601670
v 7.18589455 1.17240419 1.84491667
v 3.04695717 1.04615072 1.84491667
v 7.52748926 -0.89135911 3.24881682
v 3.18448155 -1.23762703 3.24881682
v 7.53877116 -0.89603223 1.95601670
v 7.18122105 -1.23762703 3.24881682
v 7.53877116 0.89527826 1.95601670
v 7.18122105 1.23687297 3.24881682
v 2.98248926 1.03488067 3.24881682
v 2.98248926 -1.03563474 3.24881682
v 3.17319946 1.24815506 1.95601670
v 3.17321141 -1.17315912 1.84491667
v 7.32872488 1.18899290 1.95601670
v 7.27516033 -1.13618299 1.84491667
v 7.42604541 -0.98529848 1.84491667
v 7.42604541 0.98454442 1.84491667
v 3.01868654 1.17626715 1.95601670
v 7.32405138 -1.17846488 3.24881682
v 7.32405138 1.17771081 3.24881682
v 7.46832730 -1.03418925 3.24881682
v 3.04695717 -1.04690479 1.84491667
v 3.04544589 -1.18216284 3.24881682
v 3.03795346 1.17391634 3.24881682
v 3.10008962 -1.23521477 1.95601670
v 3.12951110 1.16458619 1.84491667
v 7.32049135 -1.19753077 1.95601670
v 7.19722037 1.24783730 1.95601670
v 7.48739271 1.02987515 1.95601670
v 3.94522451 0.25479226 0.35367710
v 5.18348472 0.25479226 0.99502707
v 4.95522451 0.25479226 0.35367710
v 5.18348472 0.25479226 0.58193710
v 5.06778920 0.33050901 0.47573797
v 5.04763767 0.17907553 0.45780477
v 3.94522451 0.25479226 0.50517712
v 5.03198472 0.25479226 0.99502707
v 5.15106805 0.23699966 0.46886672
v 5.06908877 0.26375145 0.38471860
v 5.10762800 0.17907553 0.55506423
v 4.96422282 0.33050901 0.42744421
v 5.10971740 0.33050901 0.57293893
v 5.10997939 0.33050901 0.99502707
v 5.10997939 0.17907553 0.99502707
v 3.94522451 0.33050901 0.43167184
v 3.94522451 0.17907553 0.43167184
v 4.95522451 0.17987248 0.41824289
v 5.14220997 0.31068314 0.50127944
v 5.01623352 0.20882716 0.37815335
v 5.11359837 0.29331350 0.43251893
v 5.00428123 0.30075737 0.37495077
v 5.10299804 0.21247476 0.42530631
v 5.16475759 0.21247476 0.53227687
v 5.11551477 0.18640534 0.48939337
v 5.05169819 0.31884616 0.41484001
v 5.16369690 0.30424354 0.55757017
v 5.05660440 0.31068314 0.99502707
v 5.05660440 0.19890140 0.99502707
v 3.94522451 0.31068314 0.37829714
v 3.94522451 0.19890140 0.37829714
v 3.94522451 0.30755600 0.48377828
v 4.85668725 0.99479091 1.31075040
v 5.18070298 0.21727981 2.25606124
v 4.85668725 -0.00510908 1.31075040
v 5.35158702 0.99479091 1.90665045
v 5.35158702 0.12208424 1.31075040
v 4.85668725 -0.00510908 1.80565045
v 4.85668725 0.99479091 1.80565045
v 5.35158702 0.99479091 1.31075040
v 5.14366944 0.74734092 2.25691349
v 5.26573718 0.03623424 1.90665045
v 5.13140738 0.99479091 1.89655042
v 5.22439385 -0.00510908 1.31075040
v 5.13140738 -0.00510908 1.89655042
v 5.35158702 0.12208424 1.90665045
v 5.26573718 0.99479091 1.90665045
v 5.20373490 0.74734092 2.24734553
v 5.22439385 -0.00510908 1.89655042
v 5.13750990 0.24234092 2.25065993
v 5.17238777 0.77849343 2.25213577
v 5.20373490 0.24234092 2.24734553
v 5.15103068 0.21733223 2.25213577
v 5.18238397 0.75575780 2.26015045
v 5.14724026 0.76970014 2.25145478
v 5.18486405 0.24085597 2.26015045
v 5.15579049 0.23654326 2.26015045
v 5.16264547 0.76070201 2.26015045
v 5.19556032 0.76667079 2.25075683
v 5.19887299 0.22568571 2.24835844
v 5.16455494 0.22295476 2.25953959
v 5.16436307 0.21002324 2.24982907
v 5.19414016 0.74734092 2.25793218
v 5.18113180 0.76965092 2.25757001
v 7.51485852 -0.01692525 4.87286241
v 5.49514171 0.01692525 4.31724952
v 6.57781290 -1.00737197 4.31724952
v 6.61152991 1.00436618 4.31724952
v 5.83585104 0.75653125 4.87286241
v 5.81087497 -0.73368273 4.87286241
v 7.19912487 0.73368273 4.87286241
v 7.29742018 -0.62623519 4.31724952
v 7.43599003 0.39160841 4.31724952
v 6.97772966 -0.89253949 4.87286241
v 6.03227019 0.89253949 4.31724952
v 5.51941925 -0.22074987 4.87286241
v 6.37263777 1.00128930 4.87286241
v 5.65796252 -0.55011608 4.31724952
v 6.33915810 -0.99629139 4.87286241
v 6.05541500 -0.90441878 4.31724952
v 7.36592529 -0.52811769 4.87286241
v 5.54411367 0.31112324 4.87286241
v 5.64407494 0.52811769 4.31724952
v 7.50576812 -0.13624559 4.31724952
v 7.10747804 0.81062947 4.31724952
v 6.84446054 0.95124461 4.87286241
v 7.43599003 0.39160841 4.87286241
v 6.97772966 -0.89253949 4.31724952
v 6.69644660 -0.99168955 4.87286241
v 6.31355325 0.99168955 4.31724952
v 5.62686121 -0.49897092 4.87286241
v 6.08597537 0.91897675 4.87286241
v 5.53422766 -0.27874858 4.31724952
v 6.05541500 -0.90441878 4.87286241
v 7.21779113 -0.71556174 4.87286241
v 5.81087497 -0.73368273 4.31724952
v 4.85668725 0.00479092 1.31075040
v 5.18070298 -0.77272020 2.25606124
v 4.85668725 -0.99510911 1.31075040
v 5.35158702 0.00479092 1.90665045
v 5.35158702 -0.86791574 1.31075040
v 4.85668725 0.00479092 1.80565045
v 4.85668725 -0.99510911 1.80565045
v 5.35158702 0.00479092 1.31075040
v 5.14366944 -0.24265908 2.25691349
v 5.26573718 -0.95376578 1.90665045
v 5.13140738 0.00479092 1.89655042
v 5.22439385 -0.99510911 1.31075040
v 5.13140738 -0.99510911 1.89655042
v 5.35158702 -0.86791574 1.90665045
v 5.26573718 0.00479092 1.90665045
v 5.20373490 -0.24265908 2.24734553
v 5.22439385 -0.99510911 1.89655042
v 5.13750990 -0.74765908 2.25065993
v 5.17238777 -0.21150660 2.25213577
v 5.20373490 -0.74765908 2.24734553
v 5.15103068 -0.77266775 2.25213577
v 5.18238397 -0.23424219 2.26015045
v 5.14724026 -0.22029985 2.25145478
v 5.18486405 -0.74914402 2.26015045
v 5.15579049 -0.75345675 2.26015045
v 5.16264547 -0.22929797 2.26015045
v 5.19556032 -0.22332922 2.25075683
v 5.19887299 -0.76431430 2.24835844
v 5.16455494 -0.76704525 2.25953959
v 5.16436307 -0.77997674 2.24982907
v 5.19414016 -0.24265908 2.25793218
v 5.18113180 -0.22034907 2.25757001
v 6.65457466 -0.02407876 3.91463597
v 6.23699646 0.04314373 4.48182010
v 6.78420514 -0.04494702 4.45968205
v 6.45179869 -0.27775077 4.31863597
v 6.54165319 0.28041463 4.31863597
v 6.35542557 0.02407876 3.91463597
v 6.54086566 0.08290511 4.55289121
v 6.40698626 -0.14270237 4.53043491
v 6.63060380 -0.23913684 4.48272321
v 6.74584391 0.14822353 4.31863597
v 6.25579873 -0.13369549 4.31863597
v 6.31034614 0.20514816 4.31863597
v 6.48536390 -0.15022212 3.91463597
v 6.52463594 0.15022212 3.91463597
v 6.42282993 0.25731473 4.48272321
v 6.65196705 0.23257013 4.47865846
v 6.72255116 -0.18068593 4.31863597
v 6.62255675 -0.07378409 4.54158850
v 6.22894787 0.06140838 4.31863597
v 6.75914547 0.11516183 4.47353418
v 6.25249491 -0.11441859 4.47621190
v 6.38175206 0.06382434 4.54158850
v 6.47774452 -0.27682062 4.47490001
v 6.60043680 -0.26620991 4.31863597
v 6.78775284 0.00515047 4.31863597
v 6.28759587 0.18056394 4.46290341
v 6.33084019 -0.22280977 4.45968205
v 6.73287293 -0.16748074 4.45968205
v 6.53528289 0.20433071 4.51685787
v 6.52953907 -0.17137222 4.53043491
v 6.67376028 0.03860686 4.53043491
v 6.40956382 0.26620991 4.31863597
v 3.94522451 0.75479226 0.35367710
v 5.18348472 0.75479226 0.99502707
v 4.95522451 0.75479226 0.35367710
v 5.18348472 0.75479226 0.58193710
v 5.06778920 0.67907554 0.47573797
v 5.04763767 0.83050898 0.45780477
v 3.94522451 0.75479226 0.50517712
v 5.03198472 0.75479226 0.99502707
v 5.15106805 0.77258489 0.46886672
v 5.06908877 0.74583305 0.38471860
v 5.10762800 0.83050898 0.55506423
v 4.96422282 0.67907554 0.42744421
v 5.10971740 0.67907554 0.57293893
v 5.10997939 0.67907554 0.99502707
v 5.10997939 0.83050898 0.99502707
v 3.94522451 0.67907554 0.43167184
v 3.94522451 0.83050898 0.43167184
v 4.95522451 0.82971202 0.41824289
v 5.14220997 0.69890141 0.50127944
v 5.01623352 0.80075742 0.37815335
v 5.11359837 0.71627104 0.43251893
v 5.00428123 0.70882716 0.37495077
v 5.10299804 0.79710973 0.42530631
v 5.16475759 0.79710973 0.53227687
v 5.11551477 0.82317923 0.48939337
v 5.05169819 0.69073839 0.41484001
v 5.16369690 0.70534101 0.55757017
v 5.05660440 0.81068311 0.99502707
v 5.05660440 0.69890141 0.99502707
v 3.94522451 0.80755605 0.37507594
v 3.94522451 0.69890141 0.37829714
v 3.94522451 0.70202852 0.48377828
v 7.45986996 0.16836927 4.30169513
v 5.55013027 -0.16836927 4.08959528
v 6.33663063 0.95486956 4.30169513
v 6.67336960 -0.95486956 4.08959528
v 6.80529253 0.41851198 3.86739521
v 5.95151920 -0.77137506 4.32189521
v 5.71756217 0.53037926 4.32189521
v 7.29243768 -0.53037917 4.06939521
v 6.15731618 0.38005792 3.86739521
v 6.13541199 -0.35879345 3.86739521
v 6.96336317 0.83142279 4.32189521
v 6.77997241 -0.43556650 3.86739521
v 7.02010015 -0.00000000 3.86739521
v 7.28273853 0.57900495 4.08959528
v 5.97219626 0.81008901 4.08959528
v 7.03780397 -0.81008901 4.30169513
v 6.25475037 -0.91582493 4.06939521
v 5.71756217 -0.53037917 4.06939521
v 7.45986996 -0.16836927 4.08959528
v 5.55013027 0.16836927 4.30169513
v 6.67336960 0.95486956 4.08959528
v 5.98990008 -0.00000000 3.86739521
v 6.45926088 -0.51306526 3.86739521
v 6.45926088 0.51306526 3.86739521
v 6.44862241 -0.96795959 4.30169513
v 5.63616082 0.38272534 4.06939521
v 5.63616082 -0.38272539 4.32189521
v 7.37383903 -0.38272539 4.32189521
v 7.34964009 0.43352382 4.32189521
v 7.05848065 0.77137496 4.06939521
v 7.39498652 0.33058261 4.06939521
v 5.78581877 0.61978928 4.06939521
v 6.73495886 0.40588221 4.46474575
v 6.38073260 -0.21980423 7.85834559
v 6.27504137 -0.40588221 4.82834559
v 6.26847497 0.40209108 4.82834559
v 6.03851642 -0.00379115 4.46474575
v 6.74152487 -0.40209108 4.46474575
v 6.97148342 0.00379115 4.82834559
v 6.62926763 0.21980423 7.85834559
v 6.73495886 0.40588221 4.82834559
v 6.03851642 -0.00379115 4.82834559
v 6.74152487 -0.40209108 4.82834559
v 6.97148342 0.00379115 4.46474575
v 6.26847497 0.40209108 4.46474575
v 6.27504137 -0.40588221 4.46474575
v 6.28897480 0.13072622 7.85834559
v 6.72102543 -0.13072622 7.85834559
v 6.56894211 -0.24426963 7.85834559
v 6.25894265 -0.05667560 7.85834559
v 6.75105681 0.05667560 7.85834559
v 6.44105773 0.24426963 7.85834559
v 6.30266896 -0.15105783 7.85834559
v 6.70733088 0.15105783 7.85834559
v 6.54495430 0.24931888 7.85834559
v 6.64999594 -0.20671836 7.85834559
v 6.46504554 -0.24931888 7.85834559
v 6.75539357 -0.03254869 7.85834559
v 6.25697462 0.04732499 7.85834559
v 6.34801270 0.19776568 7.85834559
v 6.48527529 0.25172837 7.85834559
v 6.33258052 -0.18446610 7.85834559
v 6.50977783 -0.25245480 7.85834559
v 6.38547121 0.22241653 7.85834559
v 7.42386590 -0.41926839 4.86704999
v 5.58613433 0.41926839 5.06904999
v 6.89685537 0.93088637 4.86704999
v 6.11314486 -0.93088637 5.06904999
v 7.16398154 0.25611019 5.37204999
v 6.28818073 0.67293272 5.37204999
v 6.79951018 -0.64273836 5.37204999
v 5.57543113 -0.39497059 4.86704999
v 5.80440913 -0.09498085 5.37204999
v 5.97711056 0.86106493 4.86704999
v 6.70002974 -0.99099113 4.86704999
v 7.38132973 0.50214138 4.86704999
v 7.15726218 -0.27277001 5.37204999
v 6.81574530 0.63504833 5.37204999
v 7.51392536 0.04657580 5.06904999
v 5.91089558 -0.54920662 5.26998545
v 7.13102508 -0.79258602 4.86704999
v 6.42854678 1.00710228 4.86704999
v 6.35130342 -0.69009155 5.37204999
v 5.86523437 0.31714083 5.36499350
v 5.49508738 0.01327538 4.86704999
v 5.81353112 -0.73618660 4.86704999
v 5.86967246 0.65010775 5.17004999
v 6.64707548 0.89782829 5.17004999
v 7.19094914 0.59645217 5.17004999
v 7.21150483 -0.57195492 5.17004999
v 5.60042992 0.08963082 5.17004999
v 5.65642023 -0.32587335 5.17004999
v 6.46811703 -0.90825139 5.17004999
v 6.34276012 -0.99688424 4.86704999
v 5.71032190 0.62336718 4.86704999
v 6.19413164 0.96096870 5.06904999
v -7.39499969 -0.97500000 5.16669655
v -7.39499969 -1.47500000 5.69245529
v -7.74499969 -0.37500000 5.16669655
v -7.39499969 1.47500000 5.69245529
v -7.39499969 0.97500000 5.16669655
v -7.74499969 0.37500000 5.16669655
v -7.39499969 0.97500000 6.76669693
v -7.39499969 1.47500000 6.24093781
v -7.74499969 0.37500000 6.76669693
v -7.74499969 -0.37500000 6.76669693
v -7.39499969 -1.47500000 6.24093781
v -7.39499969 -0.97500000 6.76669693
v -6.99499969 1.47500000 5.69245529
v -5.99500008 0.97500000 5.16669655
v -5.99500008 -0.97500000 5.16669655
v -6.99499969 -1.47500000 5.69245529
v -5.99500008 -0.97500000 6.76669693
v -6.99499969 -1.47500000 6.24093781
v -5.69500008 -0.00000000 5.16669655
v -6.99499969 1.47500000 6.24093781
v -5.99500008 0.97500000 6.76669693
v -5.69500008 -0.00000000 6.76669693
v -6.89299696 -0.28557250 6.36619655
v -6.09700319 0.28557250 6.46719693
v -6.76865335 0.40628435 6.36619655
v -6.22134681 -0.40628435 6.46719693
v -6.01051878 -0.07232467 6.36619655
v -6.97948098 0.07232467 6.46719693
v -6.40835000 0.48212533 6.36619655
v -6.58164939 -0.48212533 6.36619655
v -6.08078465 -0.26149338 6.46719693
v -6.90921512 0.26149338 6.46719693
v -6.61005872 0.47614542 6.46719693
v -6.74410380 -0.42178222 6.46719693
v -6.37994105 -0.47614542 6.36619655
v -6.22134681 0.40628435 6.36619655
v -6.01565424 0.10089863 6.46719693
v -6.97434591 -0.10089863 6.36619655
v -6.13357247 -0.33064042 6.36619655
v -6.94893872 -0.18409914 6.46719693
v -6.49499969 -0.48984999 6.46719693
v -6.05276445 0.21066743 6.36619655
v -6.29752987 0.44828406 6.46719693
v -6.94893872 0.18409914 6.36619655
v -6.85642730 -0.33064042 6.46719693
v -6.79224123 -0.38935946 6.36619655
v -6.46598084 0.48898970 6.46719693
v -6.02247339 -0.12911818 6.46719693
v -6.87538022 0.30864853 6.36619655
v -6.05276445 -0.21066743 6.36619655
v -6.81478499 0.37106687 6.46719693
v -6.55293645 0.48641181 6.36619655
v -6.32443351 -0.45919503 6.46719693
v -6.17521516 0.37106687 6.46719693
v -6.89299696 0.28557250 5.56719655
v -6.09700319 -0.28557250 5.46619655
v -6.76865335 -0.40628435 5.56719655
v -6.22134681 0.40628435 5.46619655
v -6.01051878 0.07232467 5.56719655
v -6.97948098 -0.07232467 5.46619655
v -6.40835000 -0.48212533 5.56719655
v -6.58164939 0.48212533 5.56719655
v -6.08078465 0.26149338 5.46619655
v -6.90921512 -0.26149338 5.46619655
v -6.61005872 -0.47614542 5.46619655
v -6.74410380 0.42178222 5.46619655
v -6.37994105 0.47614542 5.56719655
v -6.22134681 -0.40628435 5.56719655
v -6.01565424 -0.10089863 5.46619655
v -6.97434591 0.10089863 5.56719655
v -6.13357247 0.33064042 5.56719655
v -6.94893872 0.18409914 5.46619655
v -6.49499969 0.48984999 5.46619655
v -6.05276445 -0.21066743 5.56719655
v -6.29752987 -0.44828406 5.46619655
v -6.94893872 -0.18409914 5.56719655
v -6.85642730 0.33064042 5.46619655
v -6.79224123 0.38935946 5.56719655
v -6.46598084 -0.48898970 5.46619655
v -6.02247339 0.12911818 5.46619655
v -6.87538022 -0.30864853 5.56719655
v -6.05276445 0.21066743 5.56719655
v -6.81478499 -0.37106687 5.46619655
v -6.55293645 -0.48641181 5.56719655
v -6.32443351 0.45919503 5.46619655
v -6.17521516 -0.37106687 5.46619655
v -7.40040961 0.08071547 5.56269655
v -5.58959054 -0.08071547 6.37069655
v -6.60251023 0.90261979 6.37069655
v -6.76047992 -0.86936849 6.37069655
v -5.98719020 -0.75392976 5.56269655
v -5.86183521 0.65221410 5.56269655
v -7.31564319 0.39092927 6.37069655
v -6.91007585 0.80869833 5.56269655
v -7.04658135 -0.72252268 5.56269655
v -5.98719020 -0.75392976 6.37069655
v -5.58959054 -0.08071547 5.56269655
v -5.86183521 0.65221410 6.37069655
v -7.33736090 -0.34162727 6.37069655
v -6.54884935 -0.90740357 5.56269655
v -6.38748954 0.90261979 5.56269655
v -7.23355063 0.52992834 5.56269655
v -7.00280996 0.75392976 6.37069655
v -7.33736090 -0.34162727 5.56269655
v -6.38748954 -0.90261979 6.37069655
v -7.12816456 -0.65221410 6.37069655
v -6.22952023 0.86936849 6.37069655
v -5.69895699 -0.43885813 5.56269655
v -5.69895699 -0.43885813 6.37069655
v -5.63388053 0.29112529 5.56269655
v -5.63388053 0.29112529 6.37069655
v -7.40360054 0.02693669 6.37069655
v -6.12856069 0.83186741 5.56269655
v -6.81151547 -0.85211449 5.56269655
v -6.22952023 -0.86936849 5.56269655
v -6.65579352 0.89466559 5.56269655
v -7.20086002 0.57274986 6.37069655
v -7.35611963 0.29112529 5.56269655
v -2.42400000 -11.92338217 4.38630341
v 0.60322749 3.36361997 0.34435580
v 2.42400000 -5.64090738 -0.01273313
v -3.36415140 -0.68431015 0.34435580
v 2.25894589 0.23449409 4.02726687
v 2.42400000 -11.40200141 5.13091256
v -2.42400000 -5.64090738 -0.01273313
v -1.98765730 1.08824151 4.02726687
v 3.24685926 -0.49573837 -0.01273313
v -2.37812669 2.45895654 0.34435580
v 0.50178856 2.20307123 4.02726687
v 2.77581477 2.00224558 0.34435580
v -3.10907115 1.03950823 -0.01273313
v -0.95830157 3.12616397 -0.01273313
v -0.86964811 2.08617941 4.02726687
v 3.35099856 0.72050814 0.34435580
v 1.77255878 1.40873631 4.02726687
v 1.66864603 2.81339759 -0.01273313
v -2.42400000 -11.40200141 5.13091256
v 2.42400000 -11.92338217 4.38630341
v -2.25894589 0.23449409 4.02726687
v -3.41403687 0.32143653 0.34435580
v -1.73507003 2.94592869 0.34435580
v -0.20200987 3.41112130 0.34435580
v -2.88969116 1.83528566 0.34435580
v 1.21241900 1.90871856 4.02726687
v 2.96279310 1.39969657 -0.01273313
v 2.22841133 2.59470919 0.34435580
v -0.24783083 2.24560914 4.02726687
v -1.42207306 1.75922204 4.02726687
v 2.09951616 0.85631136 4.02726687
v 3.42782620 0.11980994 0.34435580
v 7.28131144 -0.24709181 7.02908051
v 5.72868880 0.24709181 5.51408051
v 5.71090831 -0.18202151 7.02908051
v 7.29909154 0.18202151 5.51408051
v 6.53872811 0.81398751 7.02908051
v 6.47127174 -0.81398751 5.51408051
v 6.47127174 -0.81398751 7.02908051
v 6.53872811 0.81398751 5.51408051
v 7.11582946 -0.53907417 5.51408051
v 5.89417077 0.53907417 7.02908051
v 7.18601673 0.44713452 7.02908051
v 5.82398312 -0.44713452 5.51408051
v 6.97211914 -0.66746770 7.02908051
v 6.03788109 0.66746770 5.51408051
v 7.02573687 0.62653547 5.51408051
v 5.98426337 -0.62653547 7.02908051
v 5.71541459 0.20066870 7.02908051
v 6.10330315 -0.70876860 5.51408051
v 7.29458525 -0.20066870 5.51408051
v 6.90669708 0.70876860 7.02908051
v 6.20772833 0.75851359 7.02908051
v 7.30848015 0.13465935 7.02908051
v 6.84668441 -0.73957089 5.51408051
v 5.69495368 -0.08682419 5.51408051
v 6.71047326 -0.78834891 7.02908051
v 6.82004892 0.75130376 5.51408051
v 7.17529966 -0.46304575 7.02908051
v 5.86330833 0.50194152 5.51408051
v 6.29952697 0.78834891 5.51408051
v 5.79869074 -0.40600536 7.02908051
v 7.21130911 0.40600536 5.51408051
v 6.18995092 -0.75130376 7.02908051
v 1.45722959 0.41437552 -0.45450000
v -1.45722959 -0.41437552 0.45450000
v 0.54213468 -1.41467839 0.45450000
v -0.54213468 1.41467839 -0.45450000
v -0.65526964 -1.30972595 -0.50500000
v 0.65526964 1.30972595 0.50500000
v -1.19862321 0.84146455 0.50500000
v 1.19862321 -0.84146455 -0.50500000
v -1.43612891 0.28686947 -0.50500000
v 1.43612891 -0.28686947 0.50500000
v 0.80557579 1.22303223 -0.50500000
v -0.80557579 -1.22303223 0.50500000
v 0.35864393 -1.41990660 -0.50500000
v -0.35864393 1.41990660 0.50500000
v -1.36095086 -0.66561077 -0.45450000
v 1.36095086 0.66561077 0.45450000
v -1.12829744 1.01102418 -0.45450000
v 1.12829744 -1.01102418 0.45450000
v -0.16366958 -1.50613326 0.45450000
v 0.16366958 1.50613326 -0.45450000
v -1.50062167 0.20822945 0.45450000
v 1.50062167 -0.20822945 -0.45450000
v -1.22174943 -0.89585342 0.45450000
v 1.22174943 0.89585342 -0.45450000
v -0.16366958 -1.50613326 -0.45450000
v 0.16366958 1.50613326 0.45450000
v 0.85925554 -1.24775998 -0.45450000
v -0.85925554 1.24775998 0.45450000
v -1.49601087 -0.23911587 -0.45450000
v 1.49601087 0.23911587 0.45450000
v 1.10721863 1.03406573 0.45450000
v -1.10721863 -1.03406573 -0.45450000
v -0.86602545 -0.00000000 4.40000000
v -0.43301272 0.75000000 4.40000000
v -0.86602545 -0.00000000 3.55000000
v -0.43301272 0.75000000 3.55000000
v 0.43301272 0.75000000 3.55000000
v 0.43301272 0.75000000 4.40000000
v 0.86602545 0.00000000 3.55000000
v 0.86602545 0.00000000 4.40000000
v 0.40414519 0.70000000 4.45000000
v 0.80829039 0.00000000 4.45000000
v -0.40414519 -0.70000000 4.45000000
v -0.43301272 -0.75000000 4.40000000
v 0.40414519 -0.70000000 4.45000000
v 0.43301272 -0.75000000 4.40000000
v -0.40414519 0.70000000 3.50000000
v -0.80829039 -0.00000000 3.50000000
v 0.43301272 -0.75000000 3.55000000
v -0.40414519 0.70000000 4.45000000
v -0.43301272 -0.75000000 3.55000000
v -0.40414519 -0.70000000 3.50000000
v -0.80829039 -0.00000000 4.45000000
v 0.40414519 -0.70000000 3.50000000
v 0.80829039 0.00000000 3.50000000
v 0.40414519 0.70000000 3.50000000
f 27 5 8
f 3 6 28
f 28 6 7
f 18 27 8
f 9 27 4
f 5 27 9
f 27 18 25
f 19 28 26
f 3 28 10
f 10 28 19
f 11 14 30
f 30 25 11
f 30 14 4
f 29 15 2
f 2 26 29
f 7 15 29
f 3 21 31
f 31 6 3
f 31 21 12
f 5 9 32
f 5 32 22
f 22 32 13
f 13 32 23
f 6 31 16
f 17 32 9
f 20 31 12
f 7 6 9
f 4 7 9
f 15 11 2
f 15 14 11
f 15 7 4
f 4 14 15
f 26 18 19
f 2 11 26
f 11 25 26
f 26 25 18
f 27 25 30
f 4 27 30
f 29 26 28
f 29 28 7
f 3 10 22
f 22 18 8
f 8 5 22
f 19 18 22
f 22 10 19
f 22 21 3
f 22 13 12
f 12 21 22
f 17 9 6
f 6 16 17
f 17 24 1
f 17 16 24
f 1 23 17
f 17 23 32
f 12 13 20
f 13 23 20
f 1 24 20
f 20 23 1
f 24 16 20
f 20 16 31
f 53 38 54
f 54 38 37
f 43 53 54
f 54 44 43
f 51 38 52
f 37 38 51
f 44 62 61
f 43 44 61
f 61 62 33
f 33 36 61
f 42 51 41
f 41 51 52
f 59 60 34
f 34 35 59
f 59 41 60
f 42 41 59
f 58 63 33
f 58 54 37
f 33 62 58
f 37 51 58
f 39 56 58
f 58 62 44
f 58 59 35
f 58 49 39
f 44 54 58
f 58 51 42
f 45 63 58
f 48 49 58
f 58 56 45
f 42 59 58
f 34 57 58
f 58 35 34
f 58 57 47
f 47 48 58
f 64 63 45
f 64 45 46
f 64 36 33
f 33 63 64
f 50 49 48
f 50 48 47
f 39 49 50
f 50 40 39
f 55 53 43
f 52 38 55
f 34 60 55
f 55 57 34
f 55 64 46
f 55 41 52
f 55 50 47
f 55 38 53
f 43 61 55
f 47 57 55
f 55 61 36
f 60 41 55
f 36 64 55
f 40 50 55
f 45 56 55
f 46 45 55
f 55 56 39
f 39 40 55
f 88 68 87
f 65 68 88
f 93 67 94
f 94 67 66
f 75 94 76
f 93 94 75
f 92 67 91
f 66 67 92
f 83 78 77
f 77 84 83
f 78 92 77
f 77 92 91
f 85 86 73
f 85 73 74
f 85 68 65
f 65 86 85
f 81 70 82
f 82 70 69
f 82 76 81
f 82 75 76
f 79 67 93
f 79 89 73
f 65 88 79
f 93 75 79
f 79 86 65
f 79 82 69
f 91 67 79
f 73 86 79
f 79 71 84
f 84 77 79
f 79 77 91
f 75 82 79
f 69 89 79
f 96 71 79
f 74 73 90
f 73 89 90
f 69 70 90
f 90 89 69
f 83 84 72
f 84 71 72
f 72 71 96
f 96 95 72
f 80 85 74
f 74 90 80
f 66 92 80
f 80 94 66
f 87 68 80
f 81 76 80
f 80 78 83
f 76 94 80
f 80 70 81
f 80 92 78
f 68 85 80
f 83 72 80
f 80 90 70
f 80 72 95
f 80 88 87
f 80 79 88
f 96 79 80
f 80 95 96
f 121 97 101
f 115 98 109
f 98 115 110
f 109 98 117
f 106 117 120
f 107 106 113
f 121 106 107
f 113 104 107
f 107 104 123
f 97 121 107
f 98 110 126
f 105 126 116
f 116 126 110
f 116 115 102
f 116 110 115
f 103 124 109
f 109 117 103
f 103 106 124
f 117 106 103
f 122 121 101
f 122 106 121
f 101 124 122
f 124 106 122
f 113 106 112
f 97 107 125
f 127 104 113
f 113 119 127
f 123 104 127
f 127 119 105
f 105 128 118
f 118 126 105
f 120 117 118
f 118 117 98
f 98 126 118
f 100 107 123
f 114 125 100
f 100 125 107
f 102 114 108
f 108 116 102
f 114 100 108
f 108 100 123
f 123 127 108
f 105 116 108
f 108 127 105
f 111 112 128
f 111 128 105
f 105 119 111
f 111 119 113
f 113 112 111
f 128 112 99
f 99 118 128
f 120 118 99
f 99 106 120
f 99 112 106
f 102 115 125
f 101 97 125
f 125 124 101
f 109 124 125
f 125 115 109
f 125 114 102
f 157 131 154
f 157 154 141
f 133 148 135
f 130 158 153
f 145 160 132
f 149 154 131
f 151 154 149
f 140 154 151
f 140 141 154
f 130 153 150
f 132 153 142
f 142 153 158
f 132 160 152
f 152 153 132
f 160 150 152
f 152 150 153
f 155 160 136
f 136 148 133
f 151 149 159
f 159 140 151
f 129 134 147
f 160 145 139
f 139 136 160
f 148 136 139
f 134 129 137
f 137 159 156
f 159 137 146
f 146 137 129
f 140 159 138
f 159 146 138
f 130 131 158
f 158 131 157
f 134 135 147
f 133 135 134
f 144 131 130
f 130 143 144
f 144 143 155
f 155 156 144
f 155 143 150
f 150 143 130
f 150 160 155
f 142 140 132
f 141 140 142
f 142 158 157
f 157 141 142
f 131 144 159
f 159 149 131
f 159 144 156
f 129 148 132
f 147 135 129
f 129 135 148
f 132 140 129
f 132 148 139
f 139 145 132
f 133 134 137
f 137 136 133
f 137 156 155
f 155 136 137
f 138 129 140
f 138 146 129
f 178 177 166
f 187 169 164
f 187 164 162
f 162 174 187
f 190 172 176
f 161 163 190
f 177 178 191
f 191 163 161
f 180 178 166
f 163 191 180
f 180 191 178
f 164 169 184
f 162 164 184
f 184 175 162
f 173 187 174
f 177 167 189
f 189 175 177
f 176 174 192
f 175 184 171
f 166 171 185
f 185 171 184
f 165 172 186
f 183 184 169
f 183 185 184
f 183 180 166
f 166 185 183
f 179 173 165
f 187 173 179
f 165 186 179
f 179 186 181
f 169 187 179
f 179 181 169
f 168 189 167
f 181 186 170
f 163 180 170
f 180 183 170
f 169 181 170
f 170 183 169
f 167 192 188
f 188 168 167
f 188 192 174
f 163 170 182
f 182 170 186
f 182 190 163
f 172 190 182
f 182 186 172
f 173 174 176
f 173 172 165
f 176 172 173
f 192 167 177
f 161 190 192
f 192 191 161
f 192 190 176
f 177 191 192
f 177 175 171
f 166 177 171
f 188 174 162
f 162 175 188
f 175 189 188
f 189 168 188
f 217 218 193
f 213 220 224
f 202 218 211
f 204 212 210
f 194 212 214
f 214 223 194
f 208 224 220
f 208 193 199
f 220 193 208
f 213 224 197
f 197 204 213
f 212 204 197
f 214 212 197
f 197 224 223
f 197 223 214
f 199 193 222
f 222 193 218
f 218 202 222
f 196 202 211
f 196 205 202
f 198 201 210
f 198 194 221
f 210 212 200
f 212 194 200
f 200 198 210
f 194 198 200
f 203 222 202
f 221 194 215
f 205 196 215
f 223 203 215
f 215 194 223
f 202 205 215
f 215 203 202
f 216 198 221
f 196 198 216
f 221 215 216
f 216 215 196
f 201 198 206
f 206 198 196
f 206 196 211
f 211 218 206
f 206 218 217
f 217 201 206
f 209 193 220
f 220 207 209
f 217 193 209
f 209 201 217
f 209 207 201
f 219 207 220
f 204 207 219
f 219 220 213
f 213 204 219
f 195 204 210
f 195 207 204
f 210 201 195
f 201 207 195
f 223 224 203
f 203 208 199
f 224 208 203
f 199 222 203
f 225 235 256
f 229 253 239
f 229 239 255
f 255 239 236
f 225 256 247
f 247 255 236
f 236 239 227
f 227 239 251
f 253 230 245
f 245 239 253
f 251 239 245
f 237 251 245
f 244 256 235
f 233 235 231
f 231 235 225
f 242 243 254
f 254 243 233
f 241 247 256
f 255 247 241
f 229 255 241
f 241 244 229
f 256 244 241
f 233 231 248
f 248 254 233
f 234 254 246
f 254 248 246
f 249 240 226
f 226 240 252
f 226 230 249
f 226 245 230
f 226 238 237
f 237 245 226
f 228 240 242
f 242 254 228
f 252 240 228
f 228 254 234
f 234 232 228
f 228 232 252
f 238 226 250
f 252 232 250
f 250 226 252
f 244 235 233
f 233 243 244
f 249 230 240
f 240 253 229
f 229 244 240
f 240 230 253
f 240 243 242
f 240 244 243
f 250 231 225
f 250 251 237
f 225 247 250
f 236 227 250
f 250 247 236
f 250 227 251
f 237 238 250
f 234 246 250
f 250 248 231
f 250 246 248
f 250 232 234
f 262 273 274
f 260 265 283
f 258 260 283
f 283 270 258
f 272 268 286
f 286 259 257
f 287 274 273
f 257 259 287
f 262 274 276
f 276 287 259
f 274 287 276
f 280 265 260
f 280 260 258
f 258 271 280
f 270 283 269
f 285 263 273
f 273 271 285
f 288 270 272
f 267 280 271
f 281 267 262
f 280 267 281
f 282 268 261
f 265 280 279
f 280 281 279
f 262 276 279
f 279 281 262
f 261 269 275
f 275 269 283
f 275 282 261
f 277 282 275
f 275 283 265
f 265 277 275
f 263 285 264
f 266 282 277
f 266 276 259
f 266 279 276
f 266 277 265
f 265 279 266
f 284 288 263
f 263 264 284
f 270 288 284
f 278 266 259
f 282 266 278
f 259 286 278
f 278 286 268
f 268 282 278
f 272 270 269
f 261 268 269
f 269 268 272
f 273 263 288
f 288 286 257
f 257 287 288
f 272 286 288
f 288 287 273
f 267 271 273
f 267 273 262
f 258 270 284
f 284 271 258
f 284 285 271
f 284 264 285
f 310 312 319
f 304 319 308
f 308 319 312
f 307 299 295
f 307 303 299
f 292 303 307
f 295 297 311
f 311 307 295
f 297 314 311
f 311 314 307
f 315 304 292
f 315 319 304
f 313 314 297
f 292 307 320
f 320 315 292
f 320 314 310
f 307 314 320
f 310 319 320
f 319 315 320
f 306 313 297
f 295 294 306
f 306 297 295
f 316 308 312
f 312 290 316
f 302 308 316
f 316 290 305
f 312 313 317
f 317 290 312
f 302 316 298
f 298 316 305
f 298 293 302
f 298 300 293
f 298 305 300
f 309 306 294
f 313 306 309
f 309 317 313
f 318 294 301
f 318 309 294
f 301 305 318
f 305 290 318
f 290 317 318
f 317 309 318
f 292 304 308
f 308 302 292
f 292 302 296
f 302 293 296
f 289 295 303
f 303 296 289
f 295 299 303
f 292 296 303
f 294 295 289
f 289 291 294
f 289 296 300
f 300 291 289
f 300 296 293
f 305 294 291
f 291 300 305
f 301 294 305
f 310 314 313
f 313 312 310
f 321 340 329
f 335 336 323
f 338 339 322
f 334 352 326
f 345 335 323
f 336 335 350
f 330 345 344
f 344 345 323
f 337 328 340
f 337 340 321
f 341 327 329
f 341 342 327
f 324 342 341
f 321 329 343
f 329 327 343
f 346 331 348
f 339 338 325
f 325 331 339
f 348 331 325
f 322 349 332
f 332 338 322
f 328 337 351
f 351 344 328
f 330 344 351
f 333 346 348
f 324 346 333
f 333 342 324
f 349 334 347
f 347 332 349
f 347 334 326
f 352 336 350
f 326 352 350
f 346 344 323
f 323 336 346
f 322 339 346
f 346 349 322
f 352 334 346
f 346 329 340
f 324 341 346
f 346 336 352
f 340 328 346
f 339 331 346
f 346 334 349
f 328 344 346
f 346 341 329
f 347 345 330
f 326 350 347
f 330 351 347
f 348 325 347
f 347 337 321
f 321 343 347
f 335 345 347
f 347 350 335
f 347 333 348
f 327 342 347
f 347 343 327
f 347 325 338
f 338 332 347
f 347 351 337
f 342 333 347
f 374 376 383
f 368 383 372
f 372 383 376
f 371 363 358
f 371 367 363
f 356 367 371
f 358 361 375
f 375 371 358
f 361 378 375
f 375 378 371
f 379 368 356
f 379 383 368
f 377 378 361
f 356 371 384
f 384 379 356
f 384 378 374
f 371 378 384
f 374 383 384
f 383 379 384
f 370 377 361
f 358 359 370
f 370 361 358
f 380 372 376
f 376 354 380
f 366 372 380
f 380 354 369
f 376 377 381
f 381 354 376
f 366 380 362
f 362 380 369
f 362 357 366
f 362 364 357
f 362 369 364
f 373 370 359
f 377 370 373
f 373 381 377
f 382 359 365
f 382 373 359
f 365 369 382
f 369 354 382
f 354 381 382
f 381 373 382
f 356 368 372
f 372 366 356
f 356 366 360
f 366 357 360
f 353 358 367
f 367 360 353
f 358 363 367
f 356 360 367
f 359 358 353
f 353 355 359
f 353 360 364
f 364 355 353
f 364 360 357
f 369 359 355
f 355 364 369
f 365 359 369
f 374 378 377
f 377 376 374
f 401 385 409
f 401 397 385
f 409 385 394
f 388 397 408
f 397 401 408
f 396 390 403
f 403 390 395
f 395 397 388
f 395 390 397
f 389 394 398
f 398 394 385
f 390 396 398
f 389 398 416
f 416 398 396
f 389 416 399
f 393 408 401
f 401 412 393
f 387 401 409
f 387 412 401
f 400 394 389
f 389 399 400
f 403 395 405
f 405 386 403
f 386 405 406
f 410 396 403
f 403 386 410
f 410 416 396
f 410 399 416
f 410 406 399
f 386 406 410
f 391 400 413
f 413 400 399
f 413 406 391
f 399 406 413
f 415 400 391
f 411 395 388
f 411 405 395
f 404 415 387
f 400 415 404
f 394 400 404
f 409 394 404
f 404 387 409
f 407 411 388
f 388 408 407
f 408 393 407
f 402 415 391
f 402 393 412
f 412 387 402
f 387 415 402
f 405 411 392
f 411 407 392
f 392 406 405
f 391 406 392
f 392 402 391
f 414 407 393
f 414 392 407
f 393 402 414
f 402 392 414
f 397 390 398
f 385 397 398
f 434 433 422
f 443 425 420
f 443 420 418
f 418 430 443
f 447 428 432
f 417 419 447
f 433 434 446
f 446 419 417
f 436 434 422
f 419 446 436
f 436 446 434
f 420 425 440
f 418 420 440
f 440 431 418
f 429 443 430
f 433 423 444
f 444 431 433
f 432 430 448
f 431 440 427
f 422 427 441
f 441 427 440
f 421 428 442
f 439 440 425
f 439 441 440
f 439 436 422
f 422 441 439
f 435 429 421
f 443 429 435
f 421 442 435
f 435 442 437
f 425 443 435
f 435 437 425
f 424 444 423
f 437 442 426
f 419 436 426
f 436 439 426
f 425 437 426
f 426 439 425
f 423 448 445
f 445 424 423
f 445 448 430
f 419 426 438
f 438 426 442
f 438 447 419
f 428 447 438
f 438 442 428
f 429 430 432
f 429 428 421
f 432 428 429
f 448 423 433
f 417 447 448
f 448 446 417
f 448 447 432
f 433 446 448
f 433 431 427
f 422 433 427
f 445 430 418
f 418 431 445
f 431 444 445
f 444 424 445
f 451 459 469
f 469 459 478
f 469 478 453
f 472 469 453
f 460 456 452
f 452 456 464
f 468 474 450
f 451 469 463
f 469 472 463
f 450 474 470
f 467 479 449
f 478 459 462
f 453 478 462
f 462 479 453
f 452 464 473
f 473 464 454
f 473 465 452
f 454 465 473
f 477 462 459
f 449 479 477
f 479 462 477
f 471 465 458
f 471 460 452
f 452 465 471
f 466 465 454
f 458 465 466
f 466 470 458
f 450 470 466
f 455 459 451
f 451 463 455
f 455 463 480
f 480 474 455
f 474 468 455
f 457 474 480
f 457 470 474
f 480 463 457
f 457 463 472
f 476 464 456
f 456 467 476
f 476 467 449
f 449 477 476
f 454 464 476
f 456 460 461
f 461 467 456
f 453 479 461
f 479 467 461
f 475 455 468
f 475 468 450
f 450 466 475
f 475 466 454
f 461 457 472
f 461 472 453
f 458 470 461
f 461 471 458
f 460 471 461
f 470 457 461
f 475 477 459
f 454 476 475
f 459 455 475
f 475 476 477
f 487 506 496
f 505 482 483
f 483 511 505
f 491 511 483
f 487 496 491
f 509 489 484
f 487 489 502
f 490 498 507
f 483 482 510
f 504 491 496
f 509 484 500
f 508 484 495
f 484 490 495
f 495 490 507
f 488 502 489
f 499 506 487
f 487 502 499
f 501 490 483
f 483 510 501
f 498 490 501
f 511 491 497
f 491 504 497
f 512 484 508
f 512 500 484
f 503 489 509
f 503 488 489
f 491 494 486
f 483 494 491
f 493 484 481
f 481 484 489
f 490 493 485
f 490 484 493
f 485 494 490
f 490 494 483
f 492 494 485
f 485 493 492
f 486 494 492
f 493 481 492
f 492 491 486
f 487 491 492
f 492 481 489
f 492 489 487
f 503 495 507
f 503 496 506
f 482 505 503
f 498 501 503
f 507 498 503
f 509 500 503
f 503 510 482
f 503 505 511
f 503 512 508
f 506 499 503
f 503 504 496
f 511 497 503
f 508 495 503
f 502 488 503
f 503 499 502
f 503 501 510
f 503 497 504
f 500 512 503
f 513 524 527
f 527 538 513
f 537 517 527
f 527 524 537
f 516 534 542
f 529 513 538
f 538 519 529
f 525 519 538
f 527 517 525
f 525 538 527
f 533 520 540
f 540 520 534
f 523 529 519
f 517 537 526
f 528 531 521
f 521 540 528
f 516 531 528
f 534 516 528
f 528 540 534
f 542 523 541
f 541 516 542
f 541 523 519
f 519 531 541
f 541 531 516
f 518 526 536
f 536 526 537
f 521 518 532
f 539 540 521
f 521 532 539
f 539 532 514
f 533 540 539
f 539 514 533
f 518 536 544
f 514 532 535
f 535 532 518
f 518 544 535
f 522 535 544
f 533 514 543
f 514 535 543
f 535 522 543
f 515 537 524
f 515 536 537
f 530 522 544
f 530 544 536
f 536 515 530
f 526 525 517
f 521 531 526
f 526 518 521
f 519 525 526
f 526 531 519
f 530 520 533
f 530 523 542
f 542 534 530
f 524 513 530
f 534 520 530
f 513 529 530
f 529 523 530
f 533 543 530
f 530 543 522
f 530 515 524
f 548 549 550
f 547 545 546
f 551 552 553
f 554 555 556
f 547 550 559
f 559 558 563
f 559 550 549
f 549 558 559
f 559 545 547
f 545 559 546
f 546 559 560
f 565 564 552
f 565 552 551
f 557 558 549
f 557 549 548
f 552 564 557
f 548 552 557
f 564 565 557
f 557 565 558
f 566 559 563
f 561 559 566
f 563 558 566
f 558 565 566
f 560 559 562
f 562 559 561
f 553 552 548
f 548 550 553
f 555 546 560
f 560 562 555
f 561 556 555
f 555 562 561
f 554 565 551
f 561 566 554
f 554 556 561
f 554 566 565
f 551 553 554
f 554 550 547
f 554 553 550
f 546 555 554
f 547 546 554
f 569 595 577
f 596 577 591
f 569 577 596
f 586 581 571
f 582 584 572
f 571 581 592
f 573 596 591
f 581 586 568
f 568 586 580
f 580 598 568
f 574 579 585
f 585 578 574
f 574 578 590
f 575 570 583
f 583 570 579
f 590 578 589
f 584 582 567
f 567 589 584
f 590 589 567
f 572 576 588
f 588 582 572
f 587 573 591
f 580 573 587
f 587 598 580
f 585 579 597
f 579 570 597
f 575 583 594
f 594 592 575
f 571 592 594
f 593 588 576
f 593 576 595
f 593 595 569
f 581 568 597
f 591 577 597
f 572 584 597
f 597 576 572
f 584 589 597
f 597 578 585
f 595 576 597
f 597 577 595
f 597 592 581
f 597 587 591
f 575 592 597
f 597 568 598
f 597 570 575
f 597 589 578
f 598 587 597
f 593 586 571
f 569 596 593
f 593 574 590
f 590 567 593
f 580 586 593
f 593 573 580
f 571 594 593
f 596 573 593
f 579 574 593
f 593 583 579
f 593 567 582
f 582 588 593
f 593 594 583
f 601 627 609
f 628 609 623
f 601 609 628
f 618 613 603
f 614 616 604
f 603 613 624
f 605 628 623
f 613 618 600
f 600 618 612
f 612 630 600
f 606 611 617
f 617 610 606
f 606 610 622
f 607 602 615
f 615 602 611
f 622 610 621
f 616 614 599
f 599 621 616
f 622 621 599
f 604 608 620
f 620 614 604
f 619 605 623
f 612 605 619
f 619 630 612
f 617 611 629
f 611 602 629
f 607 615 626
f 626 624 607
f 603 624 626
f 625 620 608
f 625 608 627
f 625 627 601
f 613 600 629
f 623 609 629
f 604 616 629
f 629 608 604
f 616 621 629
f 629 610 617
f 627 608 629
f 629 609 627
f 629 624 613
f 629 619 623
f 607 624 629
f 629 600 630
f 629 602 607
f 629 621 610
f 630 619 629
f 625 618 603
f 601 628 625
f 625 606 622
f 622 599 625
f 612 618 625
f 625 605 612
f 603 626 625
f 628 605 625
f 611 606 625
f 625 615 611
f 625 599 614
f 614 620 625
f 625 626 615
f 637 661 646
f 646 661 647
f 631 648 656
f 656 637 662
f 662 631 656
f 662 637 646
f 656 648 643
f 648 650 643
f 639 650 648
f 644 649 634
f 650 639 634
f 638 647 633
f 633 660 638
f 646 647 638
f 644 634 658
f 658 634 639
f 657 651 642
f 657 642 636
f 659 640 649
f 659 635 640
f 659 649 644
f 651 657 645
f 633 651 645
f 645 660 633
f 653 634 649
f 633 647 653
f 653 651 633
f 653 637 656
f 649 640 653
f 661 637 653
f 653 647 661
f 656 643 653
f 632 655 653
f 653 643 650
f 650 634 653
f 653 655 642
f 642 651 653
f 635 653 640
f 652 653 635
f 642 655 654
f 636 642 654
f 632 653 641
f 641 653 652
f 641 655 632
f 641 654 655
f 645 657 636
f 645 662 646
f 646 638 645
f 648 631 645
f 636 654 645
f 644 658 645
f 631 662 645
f 645 639 648
f 645 638 660
f 652 635 645
f 645 658 639
f 645 659 644
f 645 641 652
f 635 659 645
f 654 641 645
f 666 669 663
f 685 672 692
f 694 668 682
f 681 683 684
f 684 666 681
f 681 666 663
f 667 668 694
f 675 666 684
f 669 666 675
f 694 682 665
f 670 681 692
f 683 681 670
f 692 672 670
f 684 683 670
f 691 673 686
f 691 681 668
f 668 673 691
f 686 673 664
f 693 679 668
f 668 667 693
f 674 689 680
f 679 693 674
f 687 675 684
f 672 675 687
f 684 670 687
f 687 670 672
f 672 685 676
f 676 675 672
f 676 685 686
f 686 664 676
f 676 664 680
f 694 665 671
f 686 685 677
f 677 691 686
f 677 685 692
f 692 681 677
f 681 691 677
f 679 674 690
f 680 664 690
f 690 674 680
f 689 674 678
f 678 671 689
f 694 671 678
f 678 674 693
f 678 667 694
f 678 693 667
f 688 664 673
f 688 690 664
f 679 690 688
f 668 679 688
f 688 673 668
f 681 682 668
f 663 682 681
f 665 682 663
f 663 669 665
f 680 689 671
f 669 675 671
f 671 665 669
f 671 676 680
f 675 676 671
f 716 695 713
f 700 726 712
f 718 711 696
f 716 713 698
f 718 706 697
f 706 724 697
f 697 711 718
f 706 712 710
f 710 724 706
f 710 712 726
f 708 722 704
f 704 722 696
f 704 696 711
f 701 726 700
f 700 719 701
f 707 719 717
f 717 703 707
f 717 719 700
f 707 703 721
f 721 703 713
f 721 713 695
f 708 704 715
f 720 714 709
f 699 714 720
f 720 702 699
f 698 725 705
f 716 698 705
f 705 725 709
f 709 714 705
f 708 715 723
f 723 715 699
f 699 702 723
f 699 715 705
f 705 695 716
f 726 701 705
f 705 704 711
f 711 697 705
f 705 710 726
f 705 719 707
f 705 697 724
f 724 710 705
f 705 721 695
f 705 714 699
f 705 701 719
f 707 721 705
f 705 715 704
f 700 712 723
f 723 706 718
f 723 717 700
f 723 722 708
f 718 696 723
f 723 712 706
f 709 725 723
f 723 698 713
f 713 703 723
f 696 722 723
f 723 720 709
f 723 725 698
f 703 717 723
f 702 720 723
f 735 755 747
f 737 735 730
f 738 731 745
f 745 731 751
f 756 736 748
f 748 736 744
f 747 755 728
f 749 738 728
f 731 738 758
f 758 738 749
f 743 735 747
f 730 735 743
f 746 737 730
f 733 743 747
f 747 728 733
f 733 728 738
f 739 751 731
f 736 756 742
f 748 744 734
f 734 744 753
f 753 739 734
f 753 744 729
f 729 739 753
f 729 738 745
f 745 751 729
f 751 739 729
f 736 738 729
f 729 744 736
f 741 735 731
f 731 758 741
f 755 735 741
f 741 728 755
f 749 728 741
f 741 758 749
f 754 740 730
f 730 743 754
f 754 733 740
f 743 733 754
f 730 740 752
f 752 746 730
f 750 737 757
f 757 742 750
f 732 752 740
f 757 737 732
f 732 742 757
f 736 742 732
f 737 746 732
f 746 752 732
f 727 742 756
f 727 750 742
f 727 756 748
f 737 750 727
f 727 734 737
f 748 734 727
f 735 737 734
f 731 735 734
f 734 739 731
f 732 738 736
f 740 733 732
f 732 733 738
f 761 762 773
f 765 780 781
f 775 780 765
f 776 760 759
f 759 779 776
f 759 770 769
f 769 779 759
f 777 761 778
f 782 763 765
f 765 781 782
f 772 766 771
f 771 766 768
f 774 761 773
f 774 778 761
f 767 766 764
f 767 768 766
f 777 770 761
f 761 770 759
f 759 760 761
f 760 762 761
f 763 762 760
f 760 764 763
f 766 763 764
f 765 763 766
f 780 775 778
f 778 775 777
f 762 763 782
f 773 762 782
f 771 769 772
f 772 769 770
f 772 770 777
f 777 775 772
f 765 766 772
f 772 775 765
f 780 778 774
f 773 782 774
f 774 781 780
f 774 782 781
f 767 776 779
f 767 769 771
f 779 769 767
f 771 768 767
f 767 764 760
f 760 776 767
