mtllib fabrica_franka_finger_rubber_viz.mtl
o box0
usemtl 0.752941_0.752941_0.752941_0.000000_0.000000
v -0.01050000 0.00250000 0.00000000
v 0.01050000 0.00250000 0.00000000
v 0.01050000 0.02850000 0.00000000
v -0.01050000 0.02850000 0.00000000
v -0.01050000 0.00250000 0.05400000
v 0.01050000 0.00250000 0.05400000
v 0.01050000 0.02850000 0.05400000
v -0.01050000 0.02850000 0.05400000
f 1 2 3
f 1 3 4
f 5 8 7
f 5 7 6
f 1 5 6
f 1 6 2
f 2 6 7
f 2 7 3
f 3 7 8
f 3 8 4
f 4 8 5
f 4 5 1
o box1
usemtl 0.301961_0.301961_0.301961_0.000000_0.000000
v -0.00612132 0.00000000 0.00734332
v 0.00612132 0.00000000 0.00734332
v 0.00612132 0.00250000 0.00734332
v -0.00612132 0.00250000 0.00734332
v -0.00612132 0.00000000 0.05112132
v 0.00612132 0.00000000 0.05112132
v 0.00612132 0.00250000 0.05112132
v -0.00612132 0.00250000 0.05112132
f 9 10 11
f 9 11 12
f 13 16 15
f 13 15 14
f 9 13 14
f 9 14 10
f 10 14 15
f 10 15 11
f 11 15 16
f 11 16 12
f 12 16 13
f 12 13 9
