# https://github.com/mikedh/trimesh
v -10.00000000 10.00000000 0.00000000
v -8.99944115 11.08332920 0.00000000
v -8.91667080 11.00055885 0.00000000
v -8.96213245 11.03786755 0.00000000
v -9.02716351 11.13519478 0.00000000
v -9.04423523 11.19147301 0.00000000
v -8.86480522 10.97283649 0.00000000
v -8.80852699 10.95576477 0.00000000
v -8.99944115 11.08332920 0.27499998
v -8.91667080 11.00055885 0.27500001
v -8.96213245 11.03786755 0.27500001
v -9.02716351 11.13519478 0.27500001
v -9.04423523 11.19147301 0.27500001
v -8.86480522 10.97283649 0.27500001
v -8.80852699 10.95576477 0.27500001
v -10.00000000 10.00000000 0.50000000
v -9.12123108 10.87876892 0.50000000
v -9.23503685 11.04909134 0.50000000
v -9.26491261 11.14757729 0.50000000
v -9.18652153 10.95832539 0.50000000
v -8.95090866 10.76496315 0.50000000
v -9.04167461 10.81347847 0.50000000
v -8.85242271 10.73508739 0.50000000
v -9.05000019 11.25000000 0.00000000
v -9.04423523 11.30852699 0.00000000
v -9.02716351 11.36480522 0.00000000
v -8.99944115 11.41667080 0.00000000
v -8.96213245 11.46213245 0.00000000
v -8.91667080 11.49944115 0.00000000
v -8.86480522 11.52716351 0.00000000
v -8.80852699 11.54423523 0.00000000
v -9.05000019 11.25000000 0.27500001
v -9.04423523 11.30852699 0.27500001
v -9.02716351 11.36480522 0.27500001
v -8.99944115 11.41667080 0.27499998
v -8.96213245 11.46213245 0.27500001
v -8.91667080 11.49944115 0.27500001
v -8.86480522 11.52716351 0.27500001
v -8.80852699 11.54423523 0.27500001
v -9.27499962 11.25000000 0.50000000
v -9.26491261 11.35242271 0.50000000
v -9.23503685 11.45090866 0.50000000
v -9.18652153 11.54167461 0.50000000
v -9.12123108 11.62123108 0.50000000
v -9.04167461 11.68652153 0.50000000
v -8.95090866 11.73503685 0.50000000
v -8.85242271 11.76491261 0.50000000
v -8.75000000 10.94999981 0.00000000
v -8.69147301 10.95576477 0.00000000
v -8.63519478 10.97283649 0.00000000
v -8.58332920 11.00055885 0.00000000
v -8.53786755 11.03786755 0.00000000
v -8.50055885 11.08332920 0.00000000
v -8.47283649 11.13519478 0.00000000
v -8.45576477 11.19147301 0.00000000
v -8.75000000 10.94999981 0.27500001
v -8.69147301 10.95576477 0.27500001
v -8.63519478 10.97283649 0.27500001
v -8.58332920 11.00055885 0.27500001
v -8.53786755 11.03786755 0.27500001
v -8.50055885 11.08332920 0.27499998
v -8.47283649 11.13519478 0.27500001
v -8.45576477 11.19147301 0.27500001
v -8.75000000 10.72500038 0.50000000
v -8.64757729 10.73508739 0.50000000
v -8.54909134 10.76496315 0.50000000
v -8.45832539 10.81347847 0.50000000
v -8.37876892 10.87876892 0.50000000
v -8.31347847 10.95832539 0.50000000
v -8.26496315 11.04909134 0.50000000
v -8.23508739 11.14757729 0.50000000
v -8.75000000 11.55000019 0.00000000
v -8.69147301 11.54423523 0.00000000
v -8.63519478 11.52716351 0.00000000
v -8.44999981 11.25000000 0.00000000
v -8.45576477 11.30852699 0.00000000
v -8.47283649 11.36480522 0.00000000
v -8.53786755 11.46213245 0.00000000
v -8.58332920 11.49944115 0.00000000
v -8.50055885 11.41667080 0.00000000
v -8.75000000 11.55000019 0.27500001
v -8.69147301 11.54423523 0.27500001
v -8.63519478 11.52716351 0.27500001
v -8.44999981 11.25000000 0.27500001
v -8.45576477 11.30852699 0.27500001
v -8.47283649 11.36480522 0.27500001
v -8.53786755 11.46213150 0.27500001
v -8.58332920 11.49944115 0.27500001
v -8.50055885 11.41667080 0.27499998
v -8.75000000 11.77499962 0.50000000
v -8.64757729 11.76491261 0.50000000
v -8.45832539 11.68652153 0.50000000
v -8.54909134 11.73503685 0.50000000
v -8.31347847 11.54167461 0.50000000
v -8.22500038 11.25000000 0.50000000
v -8.23508739 11.35242271 0.50000000
v -8.26496315 11.45090866 0.50000000
v -8.37876892 11.62123108 0.50000000
v -10.00000000 12.50000000 0.00000000
v -10.00000000 12.50000000 0.50000000
v -7.50000000 10.00000000 0.00000000
v -7.50000000 10.00000000 0.50000000
v -5.74696922 10.00000000 0.00000000
v -5.74696922 10.00000000 0.50000000
v -7.50000000 12.50000000 0.00000000
v -7.50000000 12.50000000 0.50000000
v -5.06325102 15.57830429 1.05277097
v -5.14169025 15.61639786 1.11628902
v -5.74696922 17.85268021 0.50000000
v -5.21682882 15.65618992 1.18265104
v -5.28852797 15.69762230 1.25173199
v -5.35664511 15.74059582 1.32339203
v -5.42105484 15.78504944 1.39751697
v -5.48162937 15.83088017 1.47394598
v -5.54116774 15.87887383 1.55255604
v -1.02653873 10.00000000 0.00000000
v -1.02653873 10.00000000 0.50000000
v -3.92333150 15.27670288 0.54984999
v -3.81723380 15.26597023 0.53194898
v -3.71033025 15.25760174 0.51799101
v -3.60281277 15.25160980 0.50800198
v -3.49488211 15.24801254 0.50200099
v -3.38676000 15.24680901 0.50000000
v -3.27862811 15.24801254 0.50200099
v -3.17070746 15.25160980 0.50800198
v -3.06317973 15.25760174 0.51799101
v -2.95627618 15.26597023 0.53194898
v -2.85017848 15.27670288 0.54984999
v -4.43475294 15.36498928 0.69706303
v -4.71947575 15.44437122 0.82943499
v -4.53187656 15.38933277 0.73765898
v -4.62684393 15.41581249 0.78181100
v -4.13230324 15.30518532 0.59733802
v -4.23477459 15.32287502 0.62683600
v -4.33566523 15.34282112 0.66009903
v -4.02842140 15.28978729 0.57165998
v -4.80959892 15.47496223 0.88044202
v -4.89704323 15.50752068 0.93473601
v -4.98164749 15.54199123 0.99221599
v -2.74508858 15.28978729 0.57165998
v -2.64120793 15.30518532 0.59733802
v -2.53873110 15.32287407 0.62683600
v -2.43784976 15.34282207 0.66009903
v -2.33875537 15.36498928 0.69706303
v -2.24163246 15.38933277 0.73765898
v -2.14666700 15.41581249 0.78181100
v -2.05403399 15.44437122 0.82943499
v -1.96391225 15.47496223 0.88044202
v -1.87646663 15.50752068 0.93473601
v -1.79186451 15.54199123 0.99221599
v -1.71026337 15.57830429 1.05277097
v -1.63181996 15.61639786 1.11628902
v -1.02653873 17.85268021 0.50000000
v -1.55667698 15.65618992 1.18265104
v -1.48498404 15.69762325 1.25173199
v -1.41686785 15.74059582 1.32339203
v -1.35246062 15.78504944 1.39751697
v -1.29187989 15.83087921 1.47394598
v -1.23234046 15.87887287 1.55255604
v -5.74696922 10.00000000 4.50000000
v -5.36483860 10.38706493 4.50000000
v -5.42915678 10.55633068 4.50000000
v -5.07134962 10.00000000 4.36278343
v -5.22517443 10.06558037 4.50000000
v -5.19270372 10.00000000 4.50000000
v -5.29680538 10.22339725 4.50000000
v -5.14996576 10.00000000 4.44893360
v -5.48963261 10.73082447 4.50000000
v -5.48983288 10.73143482 4.50000000
v -5.54694986 10.91254425 4.50000000
v -5.54053354 17.16254616 3.70062304
v -5.47540855 17.21570206 3.77922511
v -5.41470671 17.26143646 3.85565305
v -5.35022068 17.30577087 3.92977905
v -5.54092836 15.84047318 4.50000000
v -5.28208065 17.34861946 4.00144720
v -5.21040487 17.38990211 4.07051992
v -5.13534594 17.42955208 4.13688707
v -5.05702066 17.46749115 4.20040083
v -5.54054499 16.93457031 4.50000000
v -5.54151869 17.16139603 4.50000000
v -5.52990818 17.17136192 4.50000000
v -5.47734594 17.21425247 4.50000000
v -5.41641903 17.26021385 4.50000000
v -5.35171223 17.30475235 4.50000000
v -5.28335810 17.34778214 4.50000000
v -5.21147728 17.38922501 4.50000000
v -5.14317942 17.42531967 4.50000000
v -5.13622522 17.42901421 4.50000000
v -5.12919950 17.43243790 4.50000000
v -5.05772114 17.46707535 4.50000000
v -5.74696922 17.85268021 4.50000000
v -3.82036233 10.00000000 3.65480494
v -4.53855085 10.00000000 3.93492055
v -4.44108057 10.00000000 3.87971544
v -4.24026299 10.00000000 3.78414273
v -4.13729000 10.00000000 3.74396443
v -3.92713833 10.00000000 3.67922831
v -4.03284740 10.00000000 3.70896959
v -4.34159899 10.00000000 3.82942319
v -3.71272922 10.00000000 3.63575315
v -3.60443783 10.00000000 3.62211180
v -3.49570274 10.00000000 3.61391568
v -3.47152519 10.00000000 3.61330867
v -3.38676047 10.00000000 3.61118150
v -3.38436079 10.00000000 3.61126828
v -3.30198741 10.00000000 3.61330867
v -3.27780747 10.00000000 3.61391568
v -3.27536750 10.00000000 3.61412096
v -3.19303846 10.00000000 3.62030625
v -3.16908216 10.00000000 3.62211180
v -3.06078100 10.00000000 3.63575315
v -2.97616005 10.00000000 3.65073228
v -2.95015502 10.00000000 3.65549326
v -2.95314837 10.00000000 3.65480494
v -2.92739844 10.00000000 3.66069746
v -2.84637308 10.00000000 3.67922831
v -2.74066234 10.00000000 3.70896959
v -2.63622141 10.00000000 3.74396443
v -2.53324294 10.00000000 3.78414297
v -4.72672892 10.00000000 4.05963850
v -4.63382626 10.00000000 3.99493456
v -4.81709480 10.00000000 4.12891150
v -4.90475750 10.00000000 4.20262051
v -4.98956108 10.00000000 4.28062868
v -2.43191624 10.00000000 3.82942343
v -2.33242822 10.00000000 3.87971544
v -2.23495793 10.00000000 3.93492055
v -2.13968515 10.00000000 3.99493384
v -2.04678082 10.00000000 4.05963850
v -1.95641625 10.00000000 4.12891150
v -1.86875248 10.00000000 4.20262051
v -1.78395081 10.00000000 4.28062868
v -1.70216477 10.00000000 4.36278343
v -1.62354469 10.00000000 4.44893360
v -1.58080387 10.00000000 4.50000000
v -1.54833150 10.06558037 4.50000000
v -1.47670650 10.22339725 4.50000000
v -1.40867436 10.38706589 4.50000000
v -1.34435821 10.55633068 4.50000000
v -1.28387713 10.73082352 4.50000000
v -1.26871014 10.77874660 4.50000000
v -1.26890945 10.77814007 4.50000000
v -1.02653873 10.00000000 4.50000000
v -1.22655845 10.91254425 4.50000000
v -1.22661829 10.97312355 4.50000000
v -3.43583012 17.10350990 3.59229994
v -3.33768010 17.10350990 3.59229994
v -4.97557735 17.50365448 4.26095915
v -4.89117193 17.53796959 4.31843281
v -4.80396128 17.57037926 4.37272787
v -4.71410561 17.60082626 4.42373991
v -4.97611380 17.50334358 4.50000000
v -4.89156103 17.53774834 4.50000000
v -4.80422020 17.57023430 4.50000000
v -4.71425200 17.60074425 4.50000000
v -4.62177086 17.62924194 4.47135782
v -4.62182236 17.62921333 4.50000000
v -4.55947685 17.64661407 4.50000000
v -4.55530930 17.64669609 4.50000000
v -1.29810071 17.21570206 3.77922511
v -1.35880876 17.26143646 3.85565305
v -1.42329228 17.30577087 3.92977905
v -1.23297453 17.16254616 3.70062304
v -1.56310081 17.38990211 4.07051992
v -1.49143100 17.34861946 4.00144720
v -1.63816440 17.42955399 4.13688707
v -1.71649361 17.46749115 4.20040083
v -1.71579313 17.46707535 4.50000000
v -1.64431095 17.43243980 4.50000000
v -1.63728499 17.42901611 4.50000000
v -1.63033068 17.42531967 4.50000000
v -1.42180073 17.30475235 4.50000000
v -1.56202817 17.38922501 4.50000000
v -1.49015379 17.34778214 4.50000000
v -1.35709620 17.26021385 4.50000000
v -1.29616344 17.21425247 4.50000000
v -1.28525448 17.20489883 4.50000000
v -1.23287344 16.12341118 4.50000000
v -1.23296320 16.93457031 4.50000000
v -1.23198938 17.16139603 4.50000000
v -1.88233817 17.53796959 4.31843281
v -2.21819973 17.64669609 4.50000000
v -2.21403241 17.64661407 4.50000000
v -2.05940437 17.60082626 4.42373991
v -1.96954978 17.57037926 4.37272787
v -2.15174007 17.62924194 4.47135782
v -2.15168858 17.62921333 4.50000000
v -2.05925822 17.60074425 4.50000000
v -1.96929097 17.57023430 4.50000000
v -1.88194907 17.53774834 4.50000000
v -1.79793477 17.50365448 4.26095915
v -1.79739821 17.50334358 4.50000000
v -1.02653873 17.85268021 4.50000000
v -5.74565268 20.74144745 0.50000000
v -5.53916788 21.90662575 0.50000000
v -5.03040504 21.31330299 0.90569502
v -5.74565268 23.91723633 0.50000000
v -5.53865671 23.20416260 0.72548699
v -5.53925133 23.37375450 0.95714599
v -10.00000000 27.50000000 0.00000000
v -8.99944115 28.58332825 0.00000000
v -8.91667080 28.50055885 0.00000000
v -8.96213245 28.53786850 0.00000000
v -9.02716351 28.63519478 0.00000000
v -9.04423523 28.69147301 0.00000000
v -8.86480522 28.47283554 0.00000000
v -8.80852699 28.45576477 0.00000000
v -8.99944115 28.58332825 0.27499998
v -8.91667080 28.50055885 0.27500001
v -8.96213245 28.53786850 0.27500001
v -9.02716351 28.63519478 0.27500001
v -9.04423523 28.69147301 0.27500001
v -8.86480522 28.47283554 0.27500001
v -8.80852699 28.45576477 0.27500001
v -10.00000000 27.50000000 0.50000000
v -9.12123108 28.37876892 0.50000000
v -9.23503685 28.54909134 0.50000000
v -9.26491261 28.64757729 0.50000000
v -9.18652153 28.45832634 0.50000000
v -8.95090866 28.26496315 0.50000000
v -9.04167461 28.31347847 0.50000000
v -8.85242271 28.23508835 0.50000000
v -10.00000000 30.00000000 0.00000000
v -9.05000019 28.75000000 0.00000000
v -9.04423523 28.80852699 0.00000000
v -9.02716351 28.86480522 0.00000000
v -8.99944115 28.91667175 0.00000000
v -8.96213245 28.96213150 0.00000000
v -8.91667080 28.99944115 0.00000000
v -8.86480522 29.02716446 0.00000000
v -8.80852699 29.04423523 0.00000000
v -9.05000019 28.75000000 0.27500001
v -9.04423523 28.80852699 0.27500001
v -9.02716351 28.86480522 0.27500001
v -8.99944115 28.91667175 0.27499998
v -8.96213245 28.96213150 0.27500001
v -8.91667080 28.99944115 0.27500001
v -8.86480522 29.02716446 0.27500001
v -8.80852699 29.04423523 0.27500001
v -10.00000000 30.00000000 0.50000000
v -9.27499962 28.75000000 0.50000000
v -9.26491261 28.85242271 0.50000000
v -9.23503685 28.95090866 0.50000000
v -9.18652153 29.04167366 0.50000000
v -9.12123108 29.12123108 0.50000000
v -9.04167461 29.18652153 0.50000000
v -8.95090866 29.23503685 0.50000000
v -8.85242271 29.26491165 0.50000000
v -8.75000000 28.45000076 0.00000000
v -8.69147301 28.45576477 0.00000000
v -8.63519478 28.47283554 0.00000000
v -8.58332920 28.50055885 0.00000000
v -8.53786755 28.53786850 0.00000000
v -8.50055885 28.58332825 0.00000000
v -8.47283649 28.63519478 0.00000000
v -8.45576477 28.69147301 0.00000000
v -8.75000000 28.45000076 0.27500001
v -8.69147301 28.45576477 0.27500001
v -8.63519478 28.47283554 0.27500001
v -8.58332920 28.50055885 0.27500001
v -8.53786755 28.53786850 0.27500001
v -8.50055885 28.58332825 0.27499998
v -8.47283649 28.63519478 0.27500001
v -8.45576477 28.69147301 0.27500001
v -8.75000000 28.22500038 0.50000000
v -8.64757729 28.23508835 0.50000000
v -8.54909134 28.26496315 0.50000000
v -8.45832539 28.31347847 0.50000000
v -8.37876892 28.37876892 0.50000000
v -8.31347847 28.45832634 0.50000000
v -8.26496315 28.54909134 0.50000000
v -8.23508739 28.64757729 0.50000000
v -8.75000000 29.04999924 0.00000000
v -8.69147301 29.04423523 0.00000000
v -8.63519478 29.02716446 0.00000000
v -8.44999981 28.75000000 0.00000000
v -8.45576477 28.80852699 0.00000000
v -8.47283649 28.86480522 0.00000000
v -8.53786755 28.96213150 0.00000000
v -8.58332920 28.99944115 0.00000000
v -8.50055885 28.91667175 0.00000000
v -8.75000000 29.04999924 0.27500001
v -8.69147301 29.04423523 0.27500001
v -8.63519478 29.02716446 0.27500001
v -8.44999981 28.75000000 0.27500001
v -8.45576477 28.80852699 0.27500001
v -8.47283649 28.86480522 0.27500001
v -8.53786755 28.96213150 0.27500001
v -8.58332920 28.99944115 0.27500001
v -8.50055885 28.91667175 0.27499998
v -8.75000000 29.27499962 0.50000000
v -8.64757729 29.26491165 0.50000000
v -8.45832539 29.18652153 0.50000000
v -8.54909134 29.23503685 0.50000000
v -8.31347847 29.04167366 0.50000000
v -8.22500038 28.75000000 0.50000000
v -8.23508739 28.85242271 0.50000000
v -8.26496315 28.95090866 0.50000000
v -8.37876892 29.12123108 0.50000000
v -7.50000000 27.50000000 0.00000000
v -7.50000000 27.50000000 0.50000000
v -7.50000000 30.00000000 0.00000000
v -7.50000000 30.00000000 0.50000000
v -5.97439051 27.93856430 0.50000000
v -5.76719093 28.63343430 0.56064099
v -5.76668024 28.65473938 0.55799001
v -5.76283550 28.69720459 0.55270898
v -5.76522255 28.67601395 0.55534399
v -5.75952911 28.71828461 0.55008900
v -5.75527906 28.73918152 0.54749000
v -5.75012445 28.75988197 0.54491597
v -5.74407196 28.78034973 0.54237199
v -5.73710680 28.80051804 0.53986299
v -5.72927189 28.82037926 0.53739297
v -5.72057676 28.83988571 0.53496897
v -5.71101999 28.85899162 0.53259301
v -5.70063400 28.87765312 0.53027201
v -5.68944263 28.89586258 0.52800798
v -5.67746019 28.91356468 0.52580702
v -5.66470814 28.93074036 0.52367097
v -5.65121126 28.94734001 0.52160698
v -5.63701057 28.96335030 0.51961797
v -5.97439051 29.84794998 0.50000000
v -5.62209892 28.97871208 0.51770598
v -5.60653973 28.99342728 0.51587701
v -5.59034204 29.00745392 0.51413202
v -5.57354212 29.02076530 0.51247698
v -5.55617857 29.03333473 0.51091498
v -5.53827763 29.04514885 0.50944602
v -5.51986599 29.05616951 0.50807500
v -5.50099516 29.06637573 0.50680602
v -5.48169613 29.07576942 0.50563800
v -5.46199751 29.08432579 0.50457501
v -5.44193697 29.09200287 0.50361902
v -5.42156506 29.09882164 0.50277299
v -5.40091085 29.10473442 0.50203598
v -5.35891533 29.11388206 0.50089997
v -5.38001347 29.10976601 0.50141102
v -5.33765984 29.11706924 0.50050199
v -5.31628036 29.11935616 0.50021899
v -5.02706909 29.05511856 0.50820702
v -5.00871181 29.04401016 0.50958699
v -5.29481983 29.12069511 0.50005198
v -5.27332687 29.12111092 0.50000000
v -5.25183535 29.12059975 0.50006300
v -5.23038006 29.11917305 0.50024199
v -5.20901155 29.11680031 0.50053698
v -5.18777180 29.11350822 0.50094497
v -5.16668844 29.10931587 0.50146800
v -5.12518692 29.09818459 0.50285202
v -5.14581490 29.10418701 0.50210398
v -5.10484505 29.09128189 0.50370902
v -5.08482122 29.08350945 0.50467497
v -5.06515551 29.07488060 0.50574899
v -5.04590082 29.06539917 0.50692701
v -5.71155214 28.40781975 0.58871698
v -5.72104692 28.42693710 0.58633602
v -5.67816448 28.35321236 0.59552097
v -5.69008207 28.37092590 0.59331298
v -5.70121908 28.38913536 0.59104401
v -5.66546679 28.33602524 0.59766299
v -5.65203094 28.31941032 0.59973401
v -5.63789225 28.30338669 0.60173202
v -5.74439240 28.48649216 0.57892102
v -5.75040245 28.50696182 0.57637298
v -5.72970057 28.44644356 0.58390701
v -5.73748302 28.46631241 0.58143300
v -5.75970411 28.54857445 0.57119501
v -5.75550985 28.52766800 0.57379597
v -5.76297569 28.56964684 0.56857401
v -5.76533127 28.59085464 0.56593698
v -5.76672459 28.61213684 0.56329000
v -5.60754824 28.27327156 0.60548800
v -5.59142637 28.25921059 0.60724199
v -5.55739355 28.23328018 0.61047697
v -5.57469702 28.24586868 0.60890597
v -5.50242424 28.20010376 0.61461699
v -5.48318911 28.19067955 0.61579400
v -5.53956509 28.22142410 0.61195600
v -5.52122593 28.21036911 0.61333603
v -5.62304974 28.28800011 0.60365099
v -5.46356583 28.18207550 0.61686802
v -5.44357777 28.17433739 0.61783397
v -5.40268755 28.16147995 0.61943901
v -5.42326975 28.16747284 0.61869103
v -5.38185453 28.15638924 0.62007499
v -5.36082077 28.15219498 0.62059802
v -5.33962440 28.14893341 0.62100601
v -5.31830454 28.14657021 0.62130100
v -5.29690361 28.14513588 0.62147999
v -5.27545691 28.14462471 0.62154400
v -5.25400925 28.14505196 0.62149101
v -5.23260164 28.14638710 0.62132400
v -5.21127081 28.14864922 0.62104100
v -5.19006348 28.15184021 0.62064302
v -5.16900873 28.15593147 0.62013203
v -5.14815521 28.16093636 0.61950701
v -5.12754631 28.16683960 0.61877000
v -5.10720682 28.17360878 0.61792397
v -5.08718920 28.18127251 0.61696798
v -5.04825258 28.19913483 0.61473799
v -5.06752539 28.18978691 0.61590499
v -5.02939987 28.20930862 0.61346799
v -5.01102161 28.22029686 0.61209702
v -1.30014753 20.74144745 0.50000000
v -1.50663233 21.90662575 0.50000000
v -2.01539516 21.31330299 0.90569502
v -1.30014753 23.91723633 0.50000000
v -1.50714350 23.20416260 0.72548699
v -1.50654876 23.37375450 0.95714599
v -3.67740893 21.12802696 1.93706405
v -3.36839104 21.12802696 1.93706405
v -4.57439518 27.93856430 0.50000000
v -4.78160286 28.63132095 0.56090403
v -4.78200865 28.65262604 0.55825299
v -4.78567171 28.69510651 0.55296999
v -4.78337908 28.67390633 0.55560601
v -4.78889036 28.71619987 0.55034798
v -4.79304552 28.73711586 0.54774702
v -4.84708405 28.87582207 0.53049999
v -4.85819530 28.89407921 0.52823001
v -4.92517710 28.97721863 0.51789200
v -4.97354698 29.01948357 0.51263797
v -4.99085951 29.03212166 0.51106602
v -4.95681000 29.00609398 0.51430100
v -4.94066954 28.99200249 0.51605499
v -4.91034365 28.96178055 0.51981097
v -4.89619541 28.94572639 0.52180898
v -4.87010431 28.91182899 0.52602202
v -4.88277483 28.92906761 0.52388000
v -4.81095028 28.79852867 0.54010999
v -4.81869888 28.81842613 0.53763598
v -4.80408335 28.77832794 0.54262203
v -4.79810667 28.75783920 0.54517001
v -4.82731342 28.83796501 0.53520697
v -4.83678246 28.85711479 0.53282601
v -4.57439518 29.84794998 0.50000000
v -4.99313879 28.23207092 0.61062801
v -4.97578335 28.24458885 0.60906601
v -4.94281006 28.27184677 0.60566598
v -4.95899534 28.25785637 0.60741103
v -4.87185574 28.35148621 0.59573603
v -4.85984945 28.36914444 0.59353501
v -4.84863472 28.38730812 0.59127200
v -4.92724752 28.28651047 0.60383701
v -4.91233873 28.30183411 0.60192603
v -4.89812708 28.31779480 0.59993601
v -4.88461876 28.33435059 0.59787202
v -4.82864571 28.42502213 0.58657402
v -4.83822441 28.40594864 0.58894998
v -4.80504370 28.48447800 0.57917100
v -4.79893637 28.50492096 0.57662702
v -4.81989956 28.44449043 0.58415002
v -4.81203318 28.46432686 0.58168000
v -4.79373884 28.52560425 0.57405299
v -4.78945684 28.54649162 0.57145399
v -4.78609037 28.56755066 0.56883502
v -4.78365278 28.58874893 0.56619900
v -4.78215885 28.61002350 0.56355298
v -5.03209448 20.94144630 3.00484395
v -5.24057770 21.13074684 3.11561894
v -5.54565239 21.40623665 3.32116389
v -5.74565268 20.74144745 4.50000000
v -5.20886564 21.10119438 4.50000000
v -5.03139067 20.94150543 4.50000000
v -5.54504681 21.40548706 4.50000000
v -5.54166412 22.27873802 4.50000000
v -5.53888369 22.80425835 4.50000000
v -5.53835297 23.53302765 4.50000000
v -5.54030800 23.71626854 4.50000000
v -5.74565268 23.91723633 4.50000000
v -5.97439051 27.93856430 4.50000000
v -5.97439051 28.60322189 4.50000000
v -5.70775461 28.38751984 4.50000000
v -5.72782040 28.42593765 4.50000000
v -5.71821070 28.40650940 4.50000000
v -5.68439770 28.35100365 4.50000000
v -5.67153549 28.33352470 4.50000000
v -5.65791607 28.31662941 4.50000000
v -5.64357090 28.30033875 4.50000000
v -5.62852097 28.28468513 4.50000000
v -5.69647551 28.36901093 4.50000000
v -5.74443388 28.46594429 4.50000000
v -5.75140619 28.48644066 4.50000000
v -5.75747108 28.50723076 4.50000000
v -5.73656654 28.44575882 4.50000000
v -5.76261520 28.52825546 4.50000000
v -5.76683092 28.54948044 4.50000000
v -5.77010870 28.57087135 4.50000000
v -5.77244473 28.59239769 4.50000000
v -5.77383041 28.61399460 4.50000000
v -5.77426386 28.63533783 4.50000000
v -5.61280012 28.26969910 4.50000000
v -5.59643555 28.25539780 4.50000000
v -5.57945395 28.24182701 4.50000000
v -5.56189871 28.22900581 4.50000000
v -5.50607920 28.19524765 4.50000000
v -5.48654604 28.18564987 4.50000000
v -5.54379368 28.21695137 4.50000000
v -5.52517605 28.20569229 4.50000000
v -5.46661091 28.17689705 4.50000000
v -5.44630623 28.16901779 4.50000000
v -5.42567635 28.16202736 4.50000000
v -5.40476370 28.15593147 4.50000000
v -5.38359642 28.15074158 4.50000000
v -5.36221981 28.14648056 4.50000000
v -5.34068394 28.14314842 4.50000000
v -5.31901693 28.14074516 4.50000000
v -5.29726934 28.13928986 4.50000000
v -5.27547407 28.13876343 4.50000000
v -5.25367785 28.13919640 4.50000000
v -5.23192358 28.14055634 4.50000000
v -5.21024704 28.14286804 4.50000000
v -5.18869638 28.14610863 4.50000000
v -5.16730118 28.15027809 4.50000000
v -5.14611244 28.15537453 4.50000000
v -5.12517214 28.16138077 4.50000000
v -5.10451317 28.16828346 4.50000000
v -5.08417320 28.17607498 4.50000000
v -5.06419945 28.18474388 4.50000000
v -5.04462528 28.19425774 4.50000000
v -5.02548409 28.20462036 4.50000000
v -5.00681686 28.21579742 4.50000000
v -5.77437210 29.14411545 4.50000000
v -5.77392626 29.16290474 4.50000000
v -5.77384996 29.16585350 4.50000000
v -5.77257967 29.18485260 4.50000000
v -5.77237606 29.18778419 4.50000000
v -5.77028322 29.20671463 4.50000000
v -5.76995468 29.20961952 4.50000000
v -5.76704311 29.22846413 4.50000000
v -5.76659060 29.23134422 4.50000000
v -5.76286411 29.25004196 4.50000000
v -5.76229000 29.25288391 4.50000000
v -5.75775576 29.27141762 4.50000000
v -5.75706148 29.27421761 4.50000000
v -5.75089788 29.29536057 4.50000000
v -5.74384117 29.31615067 4.50000000
v -5.73591518 29.33657074 4.50000000
v -5.72708941 29.35667229 4.50000000
v -5.71865463 29.37383842 4.50000000
v -5.97439051 29.76103973 4.50000000
v -5.97439051 29.84794998 4.50000000
v -5.71737242 29.37642097 4.50000000
v -5.70684290 29.39565277 4.50000000
v -5.69551945 29.41437721 4.50000000
v -5.68333340 29.43266678 4.50000000
v -5.67207718 29.44809151 4.50000000
v -5.67042828 29.45033455 4.50000000
v -5.65670586 29.46748734 4.50000000
v -5.64232779 29.48394012 4.50000000
v -5.62911224 29.49780846 4.50000000
v -5.62720823 29.49979210 4.50000000
v -5.61340141 29.51306534 4.50000000
v -5.61142254 29.51495743 4.50000000
v -5.59705067 29.52762222 4.50000000
v -5.59499454 29.52942276 4.50000000
v -5.57795048 29.54314995 4.50000000
v -5.56028795 29.55613708 4.50000000
v -5.54442310 29.56678772 4.50000000
v -5.54217005 29.56828880 4.50000000
v -5.52580023 29.57826042 4.50000000
v -5.52348804 29.57965851 4.50000000
v -5.50429630 29.59020996 4.50000000
v -5.48716974 29.59868813 4.50000000
v -5.48471165 29.59989166 4.50000000
v -5.46722651 29.60761261 4.50000000
v -5.46477127 29.60868835 4.50000000
v -5.44441843 29.61661530 4.50000000
v -5.42626572 29.62278748 4.50000000
v -5.42368937 29.62365150 4.50000000
v -5.40278721 29.62974548 4.50000000
v -5.38157988 29.63493156 4.50000000
v -5.36011314 29.63918304 4.50000000
v -5.34121513 29.64207649 4.50000000
v -5.33859777 29.64246750 4.50000000
v -5.31690168 29.64481926 4.50000000
v -5.29512167 29.64620590 4.50000000
v -5.27331066 29.64663506 4.50000000
v -5.25144815 29.64610672 4.50000000
v -5.23237085 29.64481544 4.50000000
v -5.22972727 29.64462852 4.50000000
v -5.20798874 29.64217567 4.50000000
v -5.18643427 29.63878441 4.50000000
v -5.16509295 29.63445854 4.50000000
v -5.08448887 29.60883522 4.50000000
v -5.08201456 29.60785294 4.50000000
v -5.14647436 29.62982559 4.50000000
v -5.14390564 29.62918091 4.50000000
v -5.12551832 29.62373924 4.50000000
v -5.12292671 29.62296295 4.50000000
v -5.10228443 29.61584854 4.50000000
v -5.06201410 29.59892273 4.50000000
v -5.04252338 29.58917618 4.50000000
v -5.04490137 29.59037209 4.50000000
v -5.00707340 29.56852722 4.50000000
v -5.00474548 29.56708717 4.50000000
v -5.02575874 29.57987213 4.50000000
v -5.02341986 29.57856560 4.50000000
v -2.01370573 20.94144630 3.00484395
v -1.80522239 21.13074684 3.11561894
v -1.50014758 21.40623665 3.32116389
v -2.01440954 20.94150543 4.50000000
v -1.83693457 21.10119438 4.50000000
v -1.30014753 20.74144745 4.50000000
v -1.50075340 21.40548706 4.50000000
v -1.50432348 22.17536354 4.50000000
v -1.50723553 22.69758606 4.50000000
v -1.50778401 23.45093155 4.50000000
v -1.50549221 23.71626854 4.50000000
v -1.50549364 23.71587944 4.50000000
v -1.30014753 23.91723633 4.50000000
v -4.57439518 27.93856430 4.50000000
v -4.98866034 28.22777748 4.50000000
v -4.97104883 28.24051857 4.50000000
v -4.95400763 28.25402069 4.50000000
v -4.93758106 28.26824951 4.50000000
v -4.92179537 28.28316689 4.50000000
v -4.90667725 28.29875565 4.50000000
v -4.89226103 28.31498718 4.50000000
v -4.87856865 28.33182335 4.50000000
v -4.86563158 28.34924698 4.50000000
v -4.85347271 28.36719894 4.50000000
v -4.84211302 28.38566017 4.50000000
v -4.83157539 28.40460968 4.50000000
v -4.82188225 28.42399025 4.50000000
v -4.81304741 28.44377518 4.50000000
v -4.80509329 28.46392632 4.50000000
v -4.79803181 28.48439407 4.50000000
v -4.79187584 28.50515747 4.50000000
v -4.78664064 28.52616119 4.50000000
v -4.78233194 28.54736519 4.50000000
v -4.77895975 28.56874466 4.50000000
v -4.77653217 28.59025955 4.50000000
v -4.77505159 28.61184883 4.50000000
v -4.77452326 28.63324165 4.50000000
v -4.77441359 29.14198685 4.50000000
v -4.77484035 29.16362190 4.50000000
v -4.77501822 29.16657448 4.50000000
v -4.77622223 29.18560600 4.50000000
v -4.77652168 29.18848038 4.50000000
v -4.77854919 29.20745850 4.50000000
v -4.77897215 29.21030617 4.50000000
v -4.78601742 29.25069618 4.50000000
v -4.78668976 29.25352669 4.50000000
v -4.78181982 29.22919464 4.50000000
v -4.79116392 29.27210999 4.50000000
v -4.79194260 29.27484512 4.50000000
v -4.79722166 29.29323006 4.50000000
v -4.81204271 29.33455276 4.50000000
v -4.80518723 29.31668091 4.50000000
v -4.83038616 29.37443542 4.50000000
v -4.82078171 29.35469246 4.50000000
v -4.81315565 29.33713341 4.50000000
v -4.82199907 29.35720634 4.50000000
v -4.80416679 29.31399536 4.50000000
v -4.95213413 29.52801895 4.50000000
v -4.92199230 29.50014114 4.50000000
v -4.93572760 29.51344490 4.50000000
v -4.85207748 29.41249084 4.50000000
v -4.86415005 29.43079376 4.50000000
v -4.87703753 29.44860077 4.50000000
v -4.90496159 29.48229218 4.50000000
v -4.89065313 29.46577644 4.50000000
v -4.92004442 29.49824715 4.50000000
v -4.98889303 29.55636024 4.50000000
v -4.98667622 29.55485153 4.50000000
v -4.96907759 29.54178810 4.50000000
v -4.84083223 29.39371681 4.50000000
v -4.84225225 29.39609718 4.50000000
v -4.57439518 29.84794998 4.50000000
v 1.53235042 10.67611313 0.50000000
v 1.73495817 12.34198189 0.50000000
v 1.73363543 11.04314137 1.28470600
v 1.73235047 10.87613106 1.97239900
v 3.74938798 12.88167381 1.35224903
v 3.25129104 13.16603470 1.81550598
v 4.24748516 13.16603470 1.81550598
v 1.53235042 15.01695633 0.50000000
v 5.96643353 10.67611313 0.50000000
v 5.76382589 12.34198189 0.50000000
v 7.50000000 10.00000000 0.00000000
v 8.50055885 11.08332920 0.00000000
v 8.58332920 11.00055885 0.00000000
v 8.53786755 11.03786755 0.00000000
v 8.47283649 11.13519478 0.00000000
v 8.45576477 11.19147301 0.00000000
v 8.63519478 10.97283649 0.00000000
v 8.69147301 10.95576477 0.00000000
v 8.50055885 11.08332920 0.27499998
v 8.58332920 11.00055885 0.27500001
v 8.53786755 11.03786755 0.27500001
v 8.47283649 11.13519478 0.27500001
v 8.45576477 11.19147301 0.27500001
v 8.63519478 10.97283649 0.27500001
v 8.69147301 10.95576477 0.27500001
v 7.50000000 10.00000000 0.50000000
v 8.37876892 10.87876892 0.50000000
v 8.26496315 11.04909134 0.50000000
v 8.23508739 11.14757729 0.50000000
v 8.31347847 10.95832539 0.50000000
v 8.54909134 10.76496315 0.50000000
v 8.45832539 10.81347847 0.50000000
v 8.64757729 10.73508739 0.50000000
v 8.44999981 11.25000000 0.00000000
v 8.45576477 11.30852699 0.00000000
v 8.47283649 11.36480522 0.00000000
v 8.50055885 11.41667080 0.00000000
v 8.53786755 11.46213245 0.00000000
v 8.58332920 11.49944115 0.00000000
v 8.63519478 11.52716351 0.00000000
v 8.69147301 11.54423523 0.00000000
v 8.44999981 11.25000000 0.27500001
v 8.45576477 11.30852699 0.27500001
v 8.47283649 11.36480522 0.27500001
v 8.50055885 11.41667080 0.27499998
v 8.53786755 11.46213245 0.27500001
v 8.58332920 11.49944115 0.27500001
v 8.63519478 11.52716351 0.27500001
v 8.69147301 11.54423523 0.27500001
v 8.22500038 11.25000000 0.50000000
v 8.23508739 11.35242271 0.50000000
v 8.26496315 11.45090866 0.50000000
v 8.31347847 11.54167461 0.50000000
v 8.37876892 11.62123108 0.50000000
v 8.45832539 11.68652153 0.50000000
v 8.54909134 11.73503685 0.50000000
v 8.64757729 11.76491261 0.50000000
v 8.75000000 10.94999981 0.00000000
v 8.80852699 10.95576477 0.00000000
v 8.86480522 10.97283649 0.00000000
v 8.91667080 11.00055885 0.00000000
v 8.96213245 11.03786755 0.00000000
v 8.99944115 11.08332920 0.00000000
v 9.02716351 11.13519478 0.00000000
v 9.04423523 11.19147301 0.00000000
v 8.75000000 10.94999981 0.27500001
v 8.80852699 10.95576477 0.27500001
v 8.86480522 10.97283649 0.27500001
v 8.91667080 11.00055885 0.27500001
v 8.96213245 11.03786755 0.27500001
v 8.99944115 11.08332920 0.27499998
v 9.02716351 11.13519478 0.27500001
v 9.04423523 11.19147301 0.27500001
v 10.00000000 10.00000000 0.00000000
v 8.75000000 10.72500038 0.50000000
v 8.85242271 10.73508739 0.50000000
v 8.95090866 10.76496315 0.50000000
v 9.04167461 10.81347847 0.50000000
v 9.12123108 10.87876892 0.50000000
v 9.18652153 10.95832539 0.50000000
v 9.23503685 11.04909134 0.50000000
v 9.26491261 11.14757729 0.50000000
v 10.00000000 10.00000000 0.50000000
v 8.75000000 11.55000019 0.00000000
v 8.80852699 11.54423523 0.00000000
v 8.86480522 11.52716351 0.00000000
v 9.05000019 11.25000000 0.00000000
v 9.04423523 11.30852699 0.00000000
v 9.02716351 11.36480522 0.00000000
v 8.96213245 11.46213245 0.00000000
v 8.91667080 11.49944115 0.00000000
v 8.99944115 11.41667080 0.00000000
v 8.75000000 11.55000019 0.27500001
v 8.80852699 11.54423523 0.27500001
v 8.86480522 11.52716351 0.27500001
v 9.05000019 11.25000000 0.27500001
v 9.04423523 11.30852699 0.27500001
v 9.02716351 11.36480522 0.27500001
v 8.96213245 11.46213150 0.27500001
v 8.91667080 11.49944115 0.27500001
v 8.99944115 11.41667080 0.27499998
v 8.75000000 11.77499962 0.50000000
v 8.85242271 11.76491261 0.50000000
v 9.04167461 11.68652153 0.50000000
v 8.95090866 11.73503685 0.50000000
v 9.18652153 11.54167461 0.50000000
v 9.27499962 11.25000000 0.50000000
v 9.26491261 11.35242271 0.50000000
v 9.23503685 11.45090866 0.50000000
v 9.12123108 11.62123108 0.50000000
v 7.50000000 12.50000000 0.00000000
v 7.50000000 12.50000000 0.50000000
v 10.00000000 12.50000000 0.00000000
v 10.00000000 12.50000000 0.50000000
v 5.76514864 11.04314137 1.28470600
v 5.76643372 10.87613106 1.97239900
v 5.96643353 15.01695633 0.50000000
v 1.53235042 10.67611313 4.50000000
v 1.73237336 10.87611961 4.50000000
v 1.73312032 14.80142689 4.50000000
v 1.73312497 14.80525589 4.50000000
v 1.73312795 14.81078434 4.50000000
v 1.73875785 14.81082916 4.50000000
v 1.53235042 15.01695633 4.50000000
v 5.76641083 10.87611961 4.50000000
v 5.76600361 10.92882061 4.50000000
v 5.96643353 10.67611313 4.50000000
v 5.76471901 11.25805092 4.50000000
v 5.76456070 12.71848488 4.50000000
v 5.76002598 14.81082916 4.50000000
v 5.76565886 14.80525589 4.50000000
v 5.76565552 14.81078434 4.50000000
v 5.96643353 15.01695633 4.50000000
v 3.02560925 22.86420441 0.50000000
v 3.23327279 23.53825378 0.56016499
v 3.23281884 23.55956650 0.55764598
v 3.23332500 23.58089066 0.55512601
v 3.23476958 23.60218430 0.55261201
v 3.23716187 23.62339211 0.55010700
v 3.24047208 23.64448738 0.54761600
v 3.24472117 23.66539955 0.54514498
v 3.24987483 23.68611717 0.54269803
v 3.25593710 23.70659828 0.54027897
v 3.27072668 23.74666405 0.53554702
v 3.26288748 23.72678947 0.53789502
v 3.02560925 24.74841881 0.50000000
v 3.27942824 23.76618195 0.53324199
v 3.31055522 23.82220840 0.52662498
v 3.32253313 23.83992958 0.52453297
v 3.33529210 23.85711288 0.52250201
v 3.34878850 23.87372589 0.52054000
v 3.37789965 23.90512466 0.51683199
v 3.36299586 23.88974190 0.51864898
v 3.28898311 23.78530502 0.53098297
v 3.29936647 23.80398178 0.52877700
v 3.39346147 23.91984749 0.51509303
v 3.40965796 23.93388748 0.51343399
v 3.42645717 23.94721031 0.51186103
v 3.46172404 23.97161102 0.50897902
v 3.48013425 23.98264313 0.50767601
v 3.44381928 23.95979118 0.51037598
v 3.49900007 23.99286652 0.50647002
v 3.51830530 24.00225639 0.50535899
v 3.53800440 24.01081657 0.50434899
v 3.55806112 24.01851082 0.50344098
v 3.57843757 24.02532005 0.50263602
v 3.59908724 24.03125572 0.50193602
v 3.61998630 24.03627968 0.50134099
v 3.64108562 24.04039955 0.50085503
v 3.66234088 24.04359055 0.50047702
v 3.68371916 24.04588127 0.50020802
v 3.70518017 24.04721832 0.50004900
v 3.72667360 24.04763794 0.50000000
v 3.74816489 24.04712486 0.50006002
v 4.21784496 23.53613663 0.56041503
v 4.21839285 23.55745125 0.55789602
v 4.21798325 23.57877541 0.55537599
v 4.21662760 23.60007668 0.55286098
v 4.21433020 23.62129211 0.55035502
v 4.21110773 23.64240074 0.54786199
v 4.20695257 23.66333389 0.54538900
v 4.19591856 23.70458031 0.54051799
v 4.20189571 23.68407440 0.54294002
v 4.18130159 23.74470901 0.53577799
v 4.18905067 23.72479630 0.53812999
v 4.42560482 22.86420441 0.50000000
v 3.76961946 24.04569435 0.50023001
v 3.79098773 24.04331589 0.50050998
v 3.81222987 24.04003716 0.50089902
v 3.83330941 24.03582191 0.50139499
v 3.85418510 24.03069878 0.50199997
v 3.89515471 24.01778221 0.50352597
v 3.87481165 24.02468491 0.50271100
v 3.97292709 23.98158455 0.50780100
v 3.91518283 24.01001358 0.50444502
v 3.93484211 24.00136185 0.50546497
v 3.95409870 23.99187851 0.50658500
v 3.99129534 23.97048569 0.50911403
v 4.00913763 23.95857048 0.51051903
v 4.05932426 23.91841507 0.51526201
v 4.04319000 23.93252563 0.51359499
v 4.02645731 23.94593430 0.51201397
v 4.07482672 23.90363312 0.51700902
v 4.08965683 23.88817787 0.51883298
v 4.11722898 23.85544205 0.52270103
v 4.12989521 23.83818626 0.52473700
v 4.10380030 23.87210655 0.52073199
v 4.14180613 23.82042313 0.52683598
v 4.17269182 23.76426506 0.53346902
v 4.16321707 23.78342819 0.53120500
v 4.15291643 23.80215073 0.52899402
v 4.42560482 24.74841881 0.50000000
v 3.51678896 23.11642456 0.61007601
v 3.53641510 23.10781288 0.61109698
v 3.55640244 23.10006142 0.61201602
v 3.57671189 23.09318924 0.61283100
v 3.61813307 23.08209801 0.61414599
v 3.59730005 23.08720207 0.61354101
v 3.63917041 23.07790375 0.61464298
v 3.66036773 23.07463646 0.61503100
v 3.68168926 23.07225990 0.61531198
v 3.70309472 23.07084274 0.61548102
v 3.72454286 23.07031250 0.61554301
v 3.74599290 23.07075119 0.61549199
v 3.27892280 23.35289764 0.58207297
v 3.27028394 23.37242508 0.57976300
v 3.26249218 23.39230919 0.57741201
v 3.25559235 23.41250610 0.57502401
v 3.24958181 23.43299294 0.57260197
v 3.32181668 23.27911377 0.59080398
v 3.33450413 23.26190567 0.59284103
v 3.34793687 23.24527359 0.59481001
v 3.36208820 23.22924614 0.59670800
v 3.39241719 23.19908905 0.60027999
v 3.40855050 23.18502426 0.60194600
v 3.42527866 23.17166901 0.60352802
v 3.37692213 23.21383667 0.59853297
v 3.29875207 23.31506538 0.58654898
v 3.30988717 23.29683876 0.58870602
v 3.28842854 23.33376694 0.58433598
v 3.24027848 23.47463989 0.56768000
v 3.23701811 23.49572945 0.56518799
v 3.24447870 23.45371819 0.57015198
v 3.23467112 23.51695442 0.56268102
v 3.44257951 23.15906525 0.60502201
v 3.46040916 23.14719963 0.60642803
v 3.47874832 23.13613129 0.60773998
v 3.49754667 23.12584877 0.60895801
v 3.78873587 23.07435799 0.61506402
v 3.80994582 23.07754517 0.61468601
v 3.76740432 23.07207489 0.61533397
v 3.83100271 23.08164215 0.61420000
v 3.85185885 23.08665276 0.61360598
v 3.87247086 23.09255600 0.61290598
v 3.89280725 23.09934616 0.61210102
v 3.91283393 23.10700226 0.61119300
v 3.93249559 23.11553192 0.61018199
v 3.95177245 23.12488365 0.60907298
v 3.97061992 23.13507652 0.60786498
v 4.00689459 23.15784645 0.60516602
v 3.98900461 23.14607048 0.60656202
v 4.02424049 23.17038918 0.60368001
v 4.04103136 23.18366814 0.60210699
v 4.05722237 23.19766426 0.60044903
v 4.08768892 23.22768402 0.59689301
v 4.11540794 23.26023102 0.59303898
v 4.10190058 23.24365997 0.59500098
v 4.12817430 23.27738190 0.59100902
v 4.07278156 23.21234512 0.59871000
v 4.14018440 23.29505348 0.58891702
v 4.15138912 23.31323624 0.58676499
v 4.16179848 23.33189201 0.58455801
v 4.17138004 23.35098267 0.58230001
v 4.18011522 23.37047005 0.57999498
v 4.18798256 23.39032173 0.57764697
v 4.19497299 23.41049004 0.57526201
v 4.20107365 23.43095016 0.57284302
v 4.20626831 23.45165253 0.57039601
v 4.21055508 23.47255516 0.56792599
v 4.21391439 23.49363136 0.56543601
v 4.21634579 23.51484489 0.56292999
v 7.50000000 27.50000000 0.00000000
v 8.50055885 28.58332825 0.00000000
v 8.58332920 28.50055885 0.00000000
v 8.53786755 28.53786850 0.00000000
v 8.47283649 28.63519478 0.00000000
v 8.45576477 28.69147301 0.00000000
v 8.63519478 28.47283554 0.00000000
v 8.69147301 28.45576477 0.00000000
v 8.50055885 28.58332825 0.27499998
v 8.58332920 28.50055885 0.27500001
v 8.53786755 28.53786850 0.27500001
v 8.47283649 28.63519478 0.27500001
v 8.45576477 28.69147301 0.27500001
v 8.63519478 28.47283554 0.27500001
v 8.69147301 28.45576477 0.27500001
v 7.50000000 27.50000000 0.50000000
v 8.37876892 28.37876892 0.50000000
v 8.26496315 28.54909134 0.50000000
v 8.23508739 28.64757729 0.50000000
v 8.31347847 28.45832634 0.50000000
v 8.54909134 28.26496315 0.50000000
v 8.45832539 28.31347847 0.50000000
v 8.64757729 28.23508835 0.50000000
v 7.50000000 30.00000000 0.00000000
v 8.44999981 28.75000000 0.00000000
v 8.45576477 28.80852699 0.00000000
v 8.47283649 28.86480522 0.00000000
v 8.50055885 28.91667175 0.00000000
v 8.53786755 28.96213150 0.00000000
v 8.58332920 28.99944115 0.00000000
v 8.63519478 29.02716446 0.00000000
v 8.69147301 29.04423523 0.00000000
v 8.44999981 28.75000000 0.27500001
v 8.45576477 28.80852699 0.27500001
v 8.47283649 28.86480522 0.27500001
v 8.50055885 28.91667175 0.27499998
v 8.53786755 28.96213150 0.27500001
v 8.58332920 28.99944115 0.27500001
v 8.63519478 29.02716446 0.27500001
v 8.69147301 29.04423523 0.27500001
v 7.50000000 30.00000000 0.50000000
v 8.22500038 28.75000000 0.50000000
v 8.23508739 28.85242271 0.50000000
v 8.26496315 28.95090866 0.50000000
v 8.31347847 29.04167366 0.50000000
v 8.37876892 29.12123108 0.50000000
v 8.45832539 29.18652153 0.50000000
v 8.54909134 29.23503685 0.50000000
v 8.64757729 29.26491165 0.50000000
v 8.75000000 28.45000076 0.00000000
v 8.80852699 28.45576477 0.00000000
v 8.86480522 28.47283554 0.00000000
v 8.91667080 28.50055885 0.00000000
v 8.96213245 28.53786850 0.00000000
v 8.99944115 28.58332825 0.00000000
v 9.02716351 28.63519478 0.00000000
v 9.04423523 28.69147301 0.00000000
v 8.75000000 28.45000076 0.27500001
v 8.80852699 28.45576477 0.27500001
v 8.86480522 28.47283554 0.27500001
v 8.91667080 28.50055885 0.27500001
v 8.96213245 28.53786850 0.27500001
v 8.99944115 28.58332825 0.27499998
v 9.02716351 28.63519478 0.27500001
v 9.04423523 28.69147301 0.27500001
v 10.00000000 27.50000000 0.00000000
v 8.75000000 28.22500038 0.50000000
v 8.85242271 28.23508835 0.50000000
v 8.95090866 28.26496315 0.50000000
v 9.04167461 28.31347847 0.50000000
v 9.12123108 28.37876892 0.50000000
v 9.18652153 28.45832634 0.50000000
v 9.23503685 28.54909134 0.50000000
v 9.26491261 28.64757729 0.50000000
v 10.00000000 27.50000000 0.50000000
v 8.75000000 29.04999924 0.00000000
v 8.80852699 29.04423523 0.00000000
v 8.86480522 29.02716446 0.00000000
v 9.05000019 28.75000000 0.00000000
v 9.04423523 28.80852699 0.00000000
v 9.02716351 28.86480522 0.00000000
v 8.96213245 28.96213150 0.00000000
v 8.91667080 28.99944115 0.00000000
v 8.99944115 28.91667175 0.00000000
v 8.75000000 29.04999924 0.27500001
v 8.80852699 29.04423523 0.27500001
v 8.86480522 29.02716446 0.27500001
v 9.05000019 28.75000000 0.27500001
v 9.04423523 28.80852699 0.27500001
v 9.02716351 28.86480522 0.27500001
v 8.96213245 28.96213150 0.27500001
v 8.91667080 28.99944115 0.27500001
v 8.99944115 28.91667175 0.27499998
v 10.00000000 30.00000000 0.00000000
v 8.75000000 29.27499962 0.50000000
v 8.85242271 29.26491165 0.50000000
v 9.04167461 29.18652153 0.50000000
v 8.95090866 29.23503685 0.50000000
v 9.18652153 29.04167366 0.50000000
v 9.27499962 28.75000000 0.50000000
v 9.26491261 28.85242271 0.50000000
v 9.23503685 28.95090866 0.50000000
v 9.12123108 29.12123108 0.50000000
v 10.00000000 30.00000000 0.50000000
v 3.02560925 22.86420441 4.50000000
v 3.49391246 23.12092781 4.50000000
v 3.51344657 23.11132240 4.50000000
v 3.53338146 23.10256195 4.50000000
v 3.55368686 23.09467697 4.50000000
v 3.57431793 23.08767700 4.50000000
v 3.59523201 23.08157921 4.50000000
v 3.61639977 23.07638550 4.50000000
v 3.63777709 23.07211876 4.50000000
v 3.65931320 23.06878662 4.50000000
v 3.68098092 23.06637764 4.50000000
v 3.70272994 23.06492233 4.50000000
v 3.72452545 23.06439590 4.50000000
v 3.74632311 23.06482887 4.50000000
v 3.27217031 23.35180283 4.50000000
v 3.25555754 23.39183998 4.50000000
v 3.26342463 23.37163925 4.50000000
v 3.24858594 23.41235352 4.50000000
v 3.24252152 23.43315887 4.50000000
v 3.31559277 23.27680969 4.50000000
v 3.35641909 23.22610474 4.50000000
v 3.32845449 23.25931740 4.50000000
v 3.34207368 23.24240685 4.50000000
v 3.38718915 23.19543839 4.50000000
v 3.40355492 23.18112755 4.50000000
v 3.42053676 23.16754341 4.50000000
v 3.37146831 23.21043777 4.50000000
v 3.29209399 23.31361198 4.50000000
v 3.30351424 23.29483032 4.50000000
v 3.28178024 23.33236122 4.50000000
v 3.23737741 23.45420265 4.50000000
v 3.23316216 23.47544479 4.50000000
v 3.22988486 23.49685097 4.50000000
v 3.22754908 23.51839256 4.50000000
v 3.22616410 23.54000664 4.50000000
v 3.22573090 23.56136513 4.50000000
v 3.45619702 23.14264679 4.50000000
v 3.43809223 23.15471458 4.50000000
v 3.47481465 23.13138008 4.50000000
v 3.02560925 23.94275284 4.50000000
v 3.02560925 23.94232750 4.50000000
v 3.02560925 23.94464302 4.50000000
v 3.02560925 23.94499969 4.50000000
v 3.02560925 24.74841881 4.50000000
v 3.22562838 24.04502487 4.50000000
v 3.22607350 24.06380081 4.50000000
v 3.22615004 24.06674767 4.50000000
v 3.22742009 24.08573151 4.50000000
v 3.22762990 24.08871460 4.50000000
v 3.23005366 24.11053658 4.50000000
v 3.23298383 24.12948227 4.50000000
v 3.23340940 24.13218880 4.50000000
v 3.23713565 24.15087318 4.50000000
v 3.23771071 24.15371704 4.50000000
v 3.24224424 24.17222977 4.50000000
v 3.24295402 24.17508698 4.50000000
v 3.24908590 24.19610977 4.50000000
v 3.25521398 24.21417809 4.50000000
v 3.25614095 24.21688652 4.50000000
v 3.26410842 24.23739052 4.50000000
v 3.27291274 24.25742722 4.50000000
v 3.28134465 24.27457428 4.50000000
v 3.28260326 24.27711105 4.50000000
v 3.29177403 24.29386902 4.50000000
v 3.29313254 24.29633522 4.50000000
v 3.30302358 24.31269073 4.50000000
v 3.30448556 24.31509209 4.50000000
v 3.31663799 24.33332253 4.50000000
v 3.32792091 24.34877014 4.50000000
v 3.32957435 24.35101891 4.50000000
v 3.34326220 24.36812019 4.50000000
v 3.35771441 24.38464165 4.50000000
v 3.37279463 24.40043831 4.50000000
v 3.38862133 24.41562843 4.50000000
v 3.40501046 24.43004990 4.50000000
v 3.42205501 24.44376373 4.50000000
v 3.43747735 24.45510674 4.50000000
v 3.43971682 24.45674324 4.50000000
v 3.45788121 24.46891212 4.50000000
v 3.47419429 24.47884178 4.50000000
v 3.47651601 24.48024368 4.50000000
v 3.49329567 24.48947144 4.50000000
v 3.49566126 24.49076462 4.50000000
v 3.51282430 24.49925423 4.50000000
v 3.51524496 24.50044060 4.50000000
v 3.53276610 24.50817108 4.50000000
v 3.53528333 24.50927162 4.50000000
v 3.55558562 24.51717186 4.50000000
v 3.57372522 24.52333641 4.50000000
v 3.57626438 24.52419090 4.50000000
v 3.59464979 24.52955246 4.50000000
v 3.59721899 24.53029442 4.50000000
v 3.61847520 24.53548431 4.50000000
v 3.63721919 24.53920174 4.50000000
v 3.63983774 24.53971291 4.50000000
v 3.65877175 24.54261017 4.50000000
v 3.66140437 24.54300499 4.50000000
v 3.68044710 24.54507446 4.50000000
v 3.68310046 24.54535484 4.50000000
v 3.70222640 24.54657745 4.50000000
v 3.70488119 24.54673958 4.50000000
v 3.72403598 24.54712296 4.50000000
v 3.72669315 24.54716873 4.50000000
v 3.74849749 24.54664612 4.50000000
v 3.74584079 24.54671478 4.50000000
v 3.76807833 23.06619263 4.50000000
v 3.78975606 23.06850624 4.50000000
v 3.81130672 23.07174873 4.50000000
v 3.83270264 23.07592010 4.50000000
v 3.85389352 23.08102226 4.50000000
v 3.87483311 23.08703232 4.50000000
v 3.89549279 23.09394073 4.50000000
v 3.95873475 22.86420441 4.50000000
v 3.91583395 23.10173988 4.50000000
v 3.93580794 23.11041451 4.50000000
v 3.95538306 23.11993599 4.50000000
v 3.97452497 23.13030815 4.50000000
v 3.99319243 23.14149475 4.50000000
v 4.01134920 23.15348434 4.50000000
v 4.02896070 23.16623688 4.50000000
v 4.04600191 23.17974854 4.50000000
v 4.06242943 23.19398880 4.50000000
v 4.07821465 23.20891762 4.50000000
v 4.09333324 23.22451973 4.50000000
v 4.10774899 23.24076271 4.50000000
v 4.12144184 23.25761414 4.50000000
v 4.13437891 23.27505112 4.50000000
v 4.14653730 23.29301834 4.50000000
v 4.15789652 23.31149673 4.50000000
v 4.16843414 23.33045578 4.50000000
v 4.17812729 23.34985542 4.50000000
v 4.18696117 23.36965561 4.50000000
v 4.19491482 23.38982201 4.50000000
v 4.20197582 23.41030502 4.50000000
v 4.20813227 23.43108559 4.50000000
v 4.21336651 23.45210457 4.50000000
v 4.21767521 23.47332573 4.50000000
v 4.22104645 23.49472237 4.50000000
v 4.22347355 23.51625061 4.50000000
v 4.22495461 23.53785896 4.50000000
v 4.22548199 23.55926895 4.50000000
v 4.42560482 22.86420441 4.50000000
v 4.42560482 23.23694992 4.50000000
v 4.42560482 23.23740578 4.50000000
v 4.22558641 24.04289818 4.50000000
v 4.21818876 24.12998962 4.50000000
v 4.21763515 24.13286018 4.50000000
v 4.21397114 24.15158653 4.50000000
v 4.21330833 24.15436363 4.50000000
v 4.20884800 24.17287445 4.50000000
v 4.19480991 24.21747208 4.50000000
v 4.19581509 24.21483421 4.50000000
v 4.20188236 24.19672012 4.50000000
v 4.20277786 24.19403076 4.50000000
v 4.13420248 24.33377457 4.50000000
v 4.13581800 24.33153534 4.50000000
v 4.10937643 24.36640549 4.50000000
v 4.12295866 24.34928894 4.50000000
v 4.17921638 24.25544930 4.50000000
v 4.15918922 24.29440117 4.50000000
v 4.16961145 24.27517700 4.50000000
v 4.17799473 24.25797081 4.50000000
v 4.18683863 24.23791313 4.50000000
v 4.18795490 24.23532867 4.50000000
v 4.14636993 24.31556511 4.50000000
v 4.14789343 24.31324768 4.50000000
v 4.22515965 24.06451797 4.50000000
v 4.22377777 24.08648872 4.50000000
v 4.22347689 24.08936501 4.50000000
v 4.22145081 24.10832024 4.50000000
v 3.85350800 24.53037643 4.50000000
v 3.85609078 24.52972794 4.50000000
v 3.87446809 24.52429390 4.50000000
v 3.87707281 24.52351570 4.50000000
v 3.89766073 24.51642609 4.50000000
v 3.77032399 24.54516029 4.50000000
v 3.79195690 24.54272079 4.50000000
v 3.81088543 24.53975296 4.50000000
v 3.81351209 24.53933334 4.50000000
v 3.83229232 24.53553772 4.50000000
v 3.83490467 24.53500175 4.50000000
v 3.91549373 24.50940514 4.50000000
v 3.91803002 24.50839424 4.50000000
v 3.93793321 24.49951935 4.50000000
v 3.95747161 24.48975563 4.50000000
v 3.97657347 24.47915649 4.50000000
v 4.03087568 24.44243813 4.50000000
v 4.04790163 24.42861176 4.50000000
v 4.06220102 24.41592598 4.50000000
v 3.99291086 24.46912766 4.50000000
v 3.99524999 24.46768379 4.50000000
v 4.01331472 24.45546150 4.50000000
v 4.07994938 24.39889717 4.50000000
v 4.09503412 24.38295555 4.50000000
v 4.06422901 24.41411972 4.50000000
v 4.42560482 24.74841881 4.50000000
f 772 690 691
f 766 764 772
f 770 753 772
f 771 770 772
f 762 761 772
f 772 761 771
f 772 684 685
f 772 686 689
f 772 685 686
f 689 690 772
f 758 760 772
f 772 691 692
f 772 692 693
f 772 693 687
f 772 687 688
f 117 116 783
f 773 780 153
f 773 117 798
f 783 116 883
f 748 746 772
f 755 751 772
f 772 751 752
f 772 752 757
f 756 754 772
f 772 754 755
f 753 756 772
f 750 749 772
f 749 748 772
f 798 117 783
f 757 750 772
f 764 765 772
f 765 763 772
f 763 762 772
f 768 769 772
f 769 758 772
f 759 766 772
f 760 759 772
f 893 774 894
f 889 798 884
f 781 889 905
f 887 903 782
f 1069 889 884
f 1069 884 883
f 776 775 893
f 896 773 890
f 894 774 778
f 798 889 781
f 888 776 891
f 899 890 773
f 902 778 779
f 891 776 892
f 892 890 891
f 776 893 892
f 895 894 778
f 893 890 892
f 773 781 899
f 773 798 781
f 775 887 774
f 782 774 887
f 774 782 777
f 780 773 896
f 775 774 893
f 887 775 776
f 887 776 888
f 746 745 772
f 774 777 778
f 778 777 779
f 779 777 782
f 116 103 1077
f 906 153 780
f 883 116 1054
f 958 780 889
f 896 889 780
f 621 714 622
f 768 767 525
f 614 714 615
f 615 714 616
f 616 714 617
f 617 714 618
f 618 714 619
f 620 714 621
f 714 620 619
f 769 768 525
f 622 714 623
f 623 714 624
f 624 714 715
f 715 714 716
f 716 714 717
f 717 714 718
f 718 714 719
f 719 714 720
f 751 533 752
f 766 523 764
f 529 765 764
f 749 750 534
f 534 750 757
f 747 745 519
f 520 745 746
f 535 746 748
f 535 748 749
f 720 714 721
f 752 532 757
f 754 536 755
f 533 751 755
f 537 756 753
f 770 521 753
f 536 754 756
f 771 521 770
f 698 525 767
f 772 698 767
f 688 694 772
f 694 696 772
f 772 696 695
f 700 697 772
f 772 695 699
f 772 699 700
f 767 768 772
f 772 697 698
f 772 737 714
f 740 739 772
f 739 738 772
f 742 741 772
f 772 741 740
f 744 743 772
f 747 744 772
f 743 742 772
f 745 747 772
f 730 729 714
f 721 714 722
f 714 723 722
f 723 714 724
f 724 714 725
f 725 714 726
f 726 714 727
f 727 714 728
f 729 728 714
f 890 893 896
f 731 730 714
f 732 731 714
f 733 732 714
f 734 733 714
f 735 734 714
f 737 736 714
f 736 735 714
f 737 772 738
f 979 978 977
f 969 963 966
f 971 970 966
f 971 966 973
f 978 973 966
f 974 971 973
f 976 975 972
f 976 973 978
f 979 976 978
f 969 968 964
f 983 980 978
f 978 966 948
f 982 956 981
f 978 953 982
f 982 983 978
f 972 973 976
f 985 986 990
f 986 987 988
f 959 946 960
f 950 951 949
f 953 949 951
f 953 951 952
f 948 953 978
f 954 957 953
f 955 954 953
f 957 956 953
f 953 956 982
f 990 986 988
f 962 942 966
f 960 946 962
f 961 960 962
f 963 962 966
f 964 963 969
f 965 963 964
f 966 942 1043
f 967 964 968
f 1007 1017 985
f 1012 1010 1002
f 1005 998 1002
f 1012 1002 998
f 1015 1014 1013
f 1014 1015 907
f 998 909 1015
f 1014 907 1016
f 1015 908 907
f 1010 1011 1002
f 1017 1018 1019
f 985 1017 1019
f 985 1019 1020
f 998 985 992
f 942 998 992
f 994 996 1022
f 1024 994 1022
f 1022 996 1021
f 1000 998 1001
f 990 992 985
f 992 990 989
f 992 989 991
f 992 994 1024
f 992 993 994
f 994 995 996
f 997 1012 998
f 998 1000 999
f 953 948 949
f 1001 998 1015
f 1003 1005 1002
f 1004 1005 1003
f 998 1005 1007
f 998 1007 985
f 1009 1006 1007
f 1008 1017 1007
f 1007 1005 1009
f 918 153 906
f 905 897 899
f 900 898 905
f 887 901 903
f 779 904 902
f 901 900 905
f 903 901 905
f 905 904 903
f 506 153 918
f 898 897 905
f 506 918 509
f 958 906 780
f 984 958 889
f 908 1015 909
f 909 998 927
f 909 911 910
f 911 909 913
f 911 913 912
f 896 904 905
f 896 893 894
f 896 894 895
f 897 888 891
f 899 891 890
f 891 899 897
f 895 778 902
f 902 896 895
f 902 904 896
f 913 909 915
f 896 905 889
f 898 887 888
f 905 899 781
f 904 779 782
f 904 782 903
f 887 898 900
f 888 897 898
f 887 900 901
f 940 942 941
f 930 931 933
f 932 935 934
f 935 929 942
f 935 938 936
f 936 938 937
f 938 935 940
f 940 935 942
f 938 940 939
f 932 930 929
f 942 944 943
f 944 942 946
f 944 946 945
f 946 942 962
f 116 1077 1054
f 948 1052 1053
f 1053 947 948
f 948 966 1043
f 920 922 921
f 913 915 914
f 915 909 926
f 915 926 916
f 916 917 915
f 926 909 927
f 927 998 929
f 916 926 919
f 920 927 922
f 762 763 531
f 922 927 923
f 927 929 923
f 924 923 929
f 923 924 925
f 924 929 928
f 929 998 942
f 930 932 931
f 932 929 935
f 683 682 447
f 677 676 440
f 676 675 440
f 678 677 440
f 644 772 424
f 679 678 441
f 680 679 444
f 681 680 445
f 682 681 447
f 675 674 439
f 684 683 447
f 685 684 449
f 686 685 450
f 689 686 450
f 691 690 452
f 692 691 451
f 693 692 453
f 454 688 687
f 666 665 433
f 658 657 427
f 659 658 427
f 660 659 428
f 661 660 430
f 662 661 430
f 663 662 430
f 664 663 431
f 665 664 431
f 693 454 687
f 668 667 434
f 667 666 433
f 669 668 434
f 670 669 434
f 671 670 435
f 672 671 436
f 673 672 437
f 674 673 437
f 577 576 574
f 594 582 573
f 600 597 573
f 579 574 580
f 578 574 579
f 581 580 574
f 583 575 574
f 574 578 583
f 575 577 574
f 596 595 573
f 587 574 576
f 587 584 574
f 585 586 574
f 585 574 584
f 574 586 588
f 574 588 589
f 591 574 590
f 590 574 589
f 601 600 573
f 690 689 452
f 694 688 454
f 456 695 696
f 696 694 456
f 700 699 442
f 699 695 456
f 697 443 698
f 697 700 442
f 657 656 426
f 598 601 573
f 599 598 573
f 602 599 573
f 603 602 573
f 574 573 581
f 582 581 573
f 595 594 573
f 597 596 573
f 494 612 613
f 605 485 604
f 606 487 605
f 607 488 606
f 608 489 607
f 609 490 608
f 610 491 609
f 611 492 610
f 612 493 611
f 603 604 486
f 614 494 613
f 615 495 614
f 616 496 615
f 498 616 617
f 618 498 617
f 620 500 619
f 619 500 618
f 503 620 621
f 595 475 594
f 587 467 584
f 588 470 589
f 589 469 590
f 590 471 591
f 592 591 472
f 593 592 473
f 573 405 714
f 594 474 582
f 622 503 621
f 600 480 597
f 597 476 596
f 596 477 595
f 598 478 601
f 599 479 598
f 602 479 599
f 601 481 600
f 603 484 602
f 648 647 419
f 635 634 411
f 636 635 411
f 640 639 415
f 641 640 415
f 642 641 416
f 646 645 418
f 645 642 417
f 647 646 419
f 634 633 410
f 650 649 421
f 649 648 421
f 651 650 421
f 654 653 425
f 652 651 423
f 653 652 423
f 655 654 425
f 656 655 426
f 628 627 407
f 623 502 622
f 505 623 624
f 715 505 624
f 574 643 405
f 644 405 643
f 625 593 406
f 626 625 406
f 627 626 407
f 574 591 592
f 629 628 409
f 631 630 408
f 630 629 409
f 633 632 410
f 632 631 408
f 638 637 412
f 637 636 412
f 639 638 414
f 708 703 707
f 704 564 706
f 572 571 711
f 713 572 711
f 703 701 705
f 701 704 705
f 704 706 705
f 705 706 707
f 703 705 707
f 701 566 704
f 707 706 713
f 708 707 713
f 709 708 713
f 710 709 713
f 712 710 713
f 711 712 713
f 540 715 716
f 717 540 716
f 702 701 703
f 684 772 644
f 513 512 701
f 701 512 561
f 295 706 564
f 571 300 711
f 572 713 298
f 508 701 702
f 507 702 703
f 541 717 718
f 510 703 708
f 706 506 713
f 510 708 709
f 510 709 710
f 712 510 710
f 711 511 712
f 561 566 701
f 566 564 704
f 743 517 742
f 515 736 737
f 714 514 772
f 515 737 738
f 515 738 739
f 516 739 740
f 518 741 742
f 741 518 740
f 517 743 744
f 559 735 736
f 747 519 744
f 523 766 759
f 759 760 523
f 758 526 760
f 526 758 769
f 529 763 765
f 521 771 761
f 522 761 762
f 727 551 726
f 719 541 718
f 724 544 723
f 725 545 724
f 547 719 720
f 721 547 720
f 549 721 722
f 723 549 722
f 726 545 725
f 684 643 683
f 728 554 727
f 555 728 729
f 555 729 730
f 552 730 731
f 556 731 732
f 556 732 733
f 557 733 734
f 559 734 735
f 574 637 643
f 629 574 628
f 574 632 633
f 574 630 631
f 632 574 631
f 574 633 634
f 574 634 635
f 574 635 636
f 637 574 636
f 574 629 630
f 643 637 638
f 643 638 639
f 639 640 643
f 643 640 641
f 642 645 643
f 643 641 642
f 643 645 646
f 643 646 647
f 610 573 611
f 574 592 593
f 573 605 604
f 605 573 606
f 573 604 603
f 606 573 607
f 607 573 608
f 608 573 609
f 609 573 610
f 648 643 647
f 611 573 612
f 612 573 613
f 613 573 714
f 613 714 614
f 574 593 625
f 574 626 627
f 626 574 625
f 574 627 628
f 643 674 675
f 667 643 666
f 643 667 668
f 643 668 669
f 643 669 670
f 643 684 644
f 643 670 671
f 672 643 671
f 643 672 673
f 643 665 666
f 643 675 676
f 677 643 676
f 643 677 678
f 643 678 679
f 643 679 680
f 643 680 681
f 643 682 683
f 682 643 681
f 655 643 654
f 643 648 649
f 643 649 650
f 643 650 651
f 643 651 652
f 643 652 653
f 643 653 654
f 643 656 657
f 656 643 655
f 1023 1021 996
f 643 657 658
f 643 658 659
f 643 659 660
f 643 660 661
f 643 661 662
f 643 663 664
f 663 643 662
f 643 664 665
f 1196 1158 1159
f 984 1353 1301
f 1198 1158 1208
f 1180 1179 1158
f 1180 1158 1178
f 1182 1181 1158
f 1184 1178 1158
f 1184 1158 1181
f 1158 1196 1194
f 1334 960 1335
f 1158 1195 1183
f 1182 1158 1183
f 1195 1158 1194
f 1159 1158 1270
f 1161 1160 1270
f 1160 1159 1270
f 1162 1161 1270
f 1163 1162 1270
f 1318 982 1319
f 977 1312 1315
f 978 1322 1313
f 978 1313 1312
f 977 1315 1314
f 979 1314 1351
f 981 1316 1319
f 1316 981 1320
f 982 1318 1317
f 1163 1270 1164
f 956 1321 1320
f 1321 956 1308
f 980 1323 1322
f 1323 980 1317
f 972 1350 1352
f 975 1351 1350
f 946 1333 1261
f 960 1334 1333
f 1225 1200 1199
f 1202 1203 1158
f 1158 1203 1204
f 1206 1207 1158
f 1158 1204 1205
f 1206 1158 1205
f 1208 1158 1207
f 1224 1199 1197
f 1223 1197 1198
f 1158 1193 1202
f 1198 1208 1209
f 1198 1209 1210
f 1213 1198 1212
f 1212 1198 1211
f 1211 1198 1210
f 1215 1198 1214
f 1213 1214 1198
f 1216 1217 1198
f 1175 1176 1158
f 1165 1164 1270
f 1270 1166 1165
f 1187 1172 1158
f 1187 1158 1185
f 1172 1174 1158
f 1189 1190 1158
f 1173 1158 1174
f 1173 1175 1158
f 951 1326 1327
f 1176 1188 1158
f 1188 1189 1158
f 1186 1185 1158
f 1186 1158 1177
f 1179 1177 1158
f 1190 1191 1158
f 1191 1192 1158
f 1192 1193 1158
f 1289 1045 1288
f 1038 1282 1283
f 1284 1038 1283
f 1280 1036 1279
f 1281 1041 1280
f 1285 1042 1284
f 1287 1043 1286
f 1286 1043 1285
f 1045 1287 1288
f 1282 1037 1281
f 1291 1047 1290
f 1290 1047 1289
f 1292 1048 1291
f 1051 1293 1294
f 1293 1049 1292
f 1295 1051 1294
f 1053 1295 1296
f 1297 1053 1296
f 1272 1028 1271
f 1023 1171 1263
f 1264 1023 1263
f 1022 1264 1265
f 1266 1022 1265
f 1025 1266 1267
f 1268 1025 1267
f 1269 1027 1268
f 1028 1269 1271
f 948 1297 1298
f 1273 1030 1272
f 1270 958 1299
f 1031 1273 1274
f 1275 1031 1274
f 1276 1033 1275
f 1277 1034 1276
f 1278 1035 1277
f 1036 1278 1279
f 1309 957 1310
f 971 1344 1349
f 972 1346 1345
f 1346 972 1352
f 974 1345 1344
f 970 1348 1347
f 1327 1303 951
f 953 1304 1305
f 1304 952 1303
f 1349 1348 971
f 1309 1308 957
f 954 1307 1311
f 1311 1310 954
f 1307 953 1306
f 1306 953 1305
f 1324 948 1302
f 950 1324 1325
f 950 1325 1326
f 1329 1328 963
f 1302 948 1298
f 1300 1299 958
f 1301 1300 984
f 1335 961 1336
f 1337 1336 961
f 1337 962 1338
f 1338 962 1328
f 1330 1329 963
f 1216 1198 1215
f 1331 1330 965
f 1332 1331 964
f 1339 1332 964
f 1342 1341 968
f 1340 1339 967
f 1341 1340 968
f 1343 1342 969
f 1347 1343 966
f 1326 1325 1300
f 1299 1294 1293
f 1295 1299 1296
f 1296 1299 1297
f 1297 1299 1298
f 1299 1300 1302
f 1298 1299 1302
f 1300 1301 1303
f 1302 1300 1324
f 1294 1299 1295
f 1325 1324 1300
f 1303 1327 1300
f 1326 1300 1327
f 1303 1301 1353
f 1304 1353 1305
f 1305 1353 1306
f 1353 1304 1303
f 1307 1353 1311
f 1285 1284 1299
f 1277 1276 1299
f 1278 1277 1299
f 1279 1278 1299
f 1280 1279 1299
f 1281 1280 1299
f 1283 1282 1299
f 1282 1281 1299
f 1284 1283 1299
f 1353 1307 1306
f 1286 1285 1299
f 1299 1288 1287
f 1287 1286 1299
f 1288 1299 1289
f 1290 1299 1291
f 1299 1290 1289
f 1291 1299 1292
f 1292 1299 1293
f 1320 1321 1353
f 1353 1348 1349
f 1353 1344 1345
f 1318 1319 1353
f 1323 1317 1353
f 1353 1317 1318
f 1308 1309 1353
f 1353 1309 1310
f 1353 1310 1311
f 1349 1344 1353
f 1321 1308 1353
f 1316 1320 1353
f 1319 1316 1353
f 1312 1313 1353
f 1353 1313 1322
f 1353 1314 1315
f 1353 1315 1312
f 1353 1322 1323
f 1351 1314 1353
f 1201 1328 1353
f 1353 1328 1329
f 1353 1329 1330
f 1353 1330 1331
f 1345 1346 1353
f 1346 1352 1353
f 1353 1352 1350
f 1350 1351 1353
f 1276 1275 1299
f 1331 1332 1353
f 1353 1332 1339
f 1339 1340 1353
f 1353 1340 1341
f 1347 1348 1353
f 1353 1343 1347
f 1353 1341 1342
f 1353 1342 1343
f 1201 1242 1243
f 1201 1235 1236
f 1235 1201 1234
f 1201 1236 1237
f 1201 1237 1238
f 1201 1239 1240
f 1239 1201 1238
f 1201 1240 1241
f 1201 1241 1242
f 1233 1201 1232
f 1201 1243 1244
f 1244 1245 1201
f 1201 1245 1246
f 1201 1246 1247
f 1201 1248 1249
f 1248 1201 1247
f 1250 1201 1249
f 1201 1250 1251
f 1200 1225 1226
f 1198 1218 1219
f 1218 1198 1217
f 1221 1198 1220
f 1220 1198 1219
f 1198 1221 1222
f 1198 1222 1223
f 1199 1224 1225
f 1197 1223 1224
f 1201 1251 1252
f 1226 1201 1200
f 1201 1226 1227
f 1201 1227 1228
f 1201 1228 1229
f 1201 1229 1230
f 1201 1230 1231
f 1201 1231 1232
f 1201 1233 1234
f 1270 1266 1265
f 1167 1270 1168
f 1168 1270 1169
f 1169 1270 1170
f 1170 1270 1171
f 1171 1270 1263
f 1263 1270 1264
f 1264 1270 1265
f 1267 1266 1270
f 1166 1270 1167
f 1268 1267 1270
f 1269 1268 1270
f 1271 1269 1270
f 1271 1270 1299
f 1272 1271 1299
f 1273 1272 1299
f 1274 1273 1299
f 1275 1274 1299
f 1201 1260 1262
f 1201 1252 1253
f 1201 1254 1255
f 1254 1201 1253
f 1201 1256 1257
f 1256 1201 1255
f 1201 1258 1259
f 1258 1201 1257
f 1201 1259 1260
f 1353 918 1201
f 1201 1261 1333
f 1261 1201 1262
f 1336 1201 1335
f 1201 1336 1337
f 1328 1201 1338
f 1338 1201 1337
f 1201 1333 1334
f 1335 1201 1334
f 1250 940 941
f 932 1236 931
f 932 934 1239
f 934 935 1241
f 935 936 1243
f 937 1244 936
f 937 938 1246
f 938 939 1248
f 939 940 1250
f 933 931 1235
f 941 942 1253
f 942 943 1255
f 943 944 1257
f 944 945 1259
f 945 946 1262
f 906 958 1270
f 996 1171 1023
f 1021 1023 1264
f 920 921 1225
f 909 910 1205
f 910 911 1206
f 911 912 1207
f 912 913 1210
f 1217 916 919
f 919 926 1219
f 926 927 1221
f 927 920 1223
f 1021 1264 1022
f 921 922 1226
f 922 923 1228
f 923 925 1229
f 925 924 1229
f 924 928 1231
f 1231 928 929
f 930 933 1234
f 929 930 1233
f 1051 1050 1293
f 1044 1287 1045
f 1287 1044 1043
f 1289 1046 1045
f 1047 1046 1289
f 1047 1291 1048
f 1048 1292 1049
f 1036 1280 1041
f 1037 1041 1281
f 1043 1042 1285
f 1052 1051 1295
f 1052 1295 1053
f 1050 1049 1293
f 947 1053 1297
f 947 1297 948
f 949 1324 950
f 1324 949 948
f 958 984 1300
f 1031 1275 1033
f 1022 1266 1024
f 1024 1266 1025
f 1025 1268 1026
f 1026 1268 1027
f 1027 1269 1028
f 1029 1272 1030
f 1272 1029 1028
f 1030 1273 1031
f 917 916 1217
f 1032 1033 1276
f 1032 1276 1034
f 1034 1277 1035
f 1035 1278 1036
f 1037 1282 1039
f 1038 1039 1282
f 1038 1284 1040
f 1040 1284 1042
f 1050 1051 1052
f 1042 1043 1040
f 1043 1038 1040
f 1046 1044 1045
f 1043 1044 1048
f 1048 1044 1047
f 1048 1049 1043
f 1049 948 1043
f 1044 1046 1047
f 1039 1035 1041
f 948 1049 1050
f 948 1050 1052
f 918 906 1158
f 1159 985 1020
f 1160 986 985
f 1161 987 986
f 1162 988 987
f 1163 990 988
f 1033 1029 1031
f 1024 1025 1027
f 1027 1025 1026
f 1024 1027 1029
f 1024 1029 1033
f 1029 1027 1028
f 992 1024 1039
f 1039 1024 1033
f 1029 1030 1031
f 1164 989 990
f 992 1039 1043
f 1033 1032 1034
f 1039 1033 1034
f 1039 1034 1035
f 1035 1036 1041
f 1043 942 992
f 1041 1037 1039
f 1039 1038 1043
f 1192 1016 907
f 1006 1181 1007
f 1007 1182 1008
f 1008 1183 1017
f 1006 1009 1184
f 1189 1015 1013
f 1190 1013 1014
f 1191 1014 1016
f 1188 1001 1015
f 1010 1012 1187
f 1193 907 908
f 908 909 1203
f 1017 1195 1018
f 1018 1194 1019
f 1019 1196 1020
f 913 914 1212
f 914 915 1213
f 915 917 1215
f 1173 998 999
f 1165 991 989
f 1166 992 991
f 1167 993 992
f 1168 994 993
f 1169 995 994
f 1170 996 995
f 1172 1012 997
f 1174 997 998
f 1333 946 959
f 1175 999 1000
f 1176 1000 1001
f 1005 1004 1180
f 1003 1179 1004
f 1177 1003 1002
f 1005 1178 1009
f 1011 1010 1185
f 1002 1011 1186
f 1219 1218 919
f 1208 912 1209
f 1212 914 1213
f 1214 1213 915
f 1214 915 1215
f 1216 1215 917
f 1217 1216 917
f 1212 1211 913
f 1210 913 1211
f 912 1210 1209
f 1218 1217 919
f 1221 1220 926
f 1220 1219 926
f 1222 1221 927
f 1223 1222 927
f 1224 1223 920
f 1225 1224 920
f 1226 1225 921
f 918 1198 1197
f 1016 1192 1191
f 907 1193 1192
f 908 1202 1193
f 1194 1018 1195
f 1196 1019 1194
f 1020 1196 1159
f 1158 1198 918
f 918 1199 1200
f 1227 1226 922
f 1199 918 1197
f 1201 918 1200
f 1203 909 1204
f 1202 908 1203
f 1205 910 1206
f 1205 1204 909
f 1206 911 1207
f 1207 912 1208
f 1254 1253 942
f 1246 1245 937
f 1248 1247 938
f 1247 1246 938
f 1249 1248 939
f 1250 1249 939
f 1251 1250 941
f 1253 1252 941
f 1252 1251 941
f 1245 1244 937
f 1255 1254 942
f 1256 1255 943
f 1257 1256 943
f 1258 1257 944
f 1259 1258 944
f 1260 1259 945
f 1262 1260 945
f 1262 946 1261
f 1236 1235 931
f 1228 1227 922
f 1229 1228 923
f 1230 1229 924
f 1231 1230 924
f 1233 1232 929
f 1232 1231 929
f 1234 1233 930
f 1235 1234 933
f 1001 1188 1176
f 1237 1236 932
f 1238 1237 932
f 1239 1238 932
f 1240 1239 934
f 1242 1241 935
f 1241 1240 934
f 1243 1242 935
f 1244 1243 936
f 1314 979 977
f 1308 956 957
f 1326 951 950
f 951 1303 952
f 952 1304 953
f 1351 975 976
f 1351 976 979
f 1322 978 980
f 1312 977 978
f 954 1310 957
f 1319 982 981
f 983 982 1317
f 1317 980 983
f 1320 981 956
f 1350 972 975
f 1353 984 918
f 918 1094 514
f 918 984 1094
f 968 969 1342
f 1333 959 960
f 1335 960 961
f 961 962 1337
f 962 963 1328
f 963 965 1330
f 964 1331 965
f 964 967 1339
f 968 1340 967
f 1094 1077 403
f 966 1343 969
f 1348 970 971
f 966 970 1347
f 1344 971 974
f 1345 973 972
f 1345 974 973
f 1307 955 953
f 955 1307 954
f 1183 1008 1182
f 998 1173 1174
f 999 1175 1173
f 1000 1176 1175
f 1178 1005 1180
f 1180 1004 1179
f 1179 1003 1177
f 1181 1006 1184
f 1195 1017 1183
f 997 1174 1172
f 1182 1007 1181
f 1184 1009 1178
f 1002 1186 1177
f 1186 1011 1185
f 1185 1010 1187
f 1015 1189 1188
f 1013 1190 1189
f 1014 1191 1190
f 988 1162 1163
f 889 1094 984
f 1094 889 1069
f 883 1054 1069
f 906 1270 1158
f 985 1159 1160
f 1160 1161 986
f 987 1161 1162
f 990 1163 1164
f 643 673 674
f 989 1164 1165
f 991 1165 1166
f 992 1166 1167
f 993 1167 1168
f 994 1168 1169
f 995 1169 1170
f 1171 996 1170
f 1012 1172 1187
f 229 146 228
f 157 156 239
f 156 155 238
f 155 154 237
f 154 152 236
f 244 236 117
f 152 235 236
f 152 234 235
f 234 151 233
f 233 150 232
f 232 149 231
f 231 148 230
f 230 147 229
f 158 157 240
f 228 145 227
f 235 116 236
f 234 116 235
f 233 116 234
f 232 116 233
f 227 144 226
f 226 143 220
f 232 231 116
f 231 230 116
f 230 229 116
f 229 228 116
f 238 244 239
f 294 279 246
f 279 264 246
f 246 244 294
f 159 245 246
f 159 242 245
f 245 244 246
f 242 244 245
f 243 244 242
f 243 241 244
f 241 240 244
f 239 244 240
f 227 116 228
f 237 244 238
f 236 244 237
f 158 243 242
f 158 241 243
f 240 241 158
f 240 157 239
f 239 156 238
f 238 155 237
f 237 154 236
f 264 159 246
f 242 159 158
f 122 203 204
f 215 214 127
f 127 213 215
f 213 126 212
f 126 211 212
f 125 210 211
f 124 209 210
f 124 208 209
f 124 207 208
f 123 206 207
f 123 205 206
f 123 204 205
f 201 120 193
f 128 214 216
f 122 202 203
f 120 201 202
f 208 116 209
f 207 116 208
f 206 116 207
f 205 116 206
f 204 116 205
f 203 116 204
f 202 116 203
f 116 202 201
f 193 116 201
f 210 116 211
f 226 116 227
f 220 116 226
f 219 116 220
f 218 116 219
f 217 116 218
f 217 216 116
f 216 214 116
f 215 116 214
f 213 116 215
f 212 116 213
f 211 116 212
f 126 248 247
f 209 116 210
f 138 225 224
f 137 224 223
f 130 223 221
f 222 132 221
f 194 131 222
f 195 129 194
f 220 142 219
f 141 218 219
f 140 217 218
f 128 216 217
f 294 276 277
f 291 290 286
f 286 290 285
f 289 287 285
f 289 288 287
f 288 284 287
f 286 282 291
f 292 286 287
f 287 286 285
f 287 283 292
f 284 283 287
f 292 282 286
f 294 277 278
f 290 289 285
f 278 281 294
f 281 280 294
f 280 279 294
f 264 280 281
f 264 279 280
f 273 276 294
f 270 269 268
f 271 270 267
f 272 271 267
f 274 272 267
f 293 292 269
f 294 272 274
f 298 295 572
f 296 300 563
f 297 296 562
f 296 299 300
f 404 295 298
f 106 402 401
f 103 401 403
f 106 295 402
f 294 275 273
f 294 274 275
f 294 269 270
f 263 276 273
f 294 271 272
f 270 271 294
f 294 293 269
f 294 289 290
f 294 291 293
f 294 290 291
f 294 288 289
f 294 284 288
f 283 284 294
f 282 293 291
f 282 292 293
f 253 249 250
f 258 252 257
f 258 256 252
f 256 255 252
f 255 251 252
f 259 260 192
f 258 259 192
f 255 254 250
f 254 253 250
f 251 257 252
f 257 249 260
f 250 251 255
f 251 249 257
f 259 258 257
f 249 251 250
f 249 247 292
f 249 179 247
f 247 248 292
f 244 153 294
f 268 155 263
f 159 264 261
f 155 261 263
f 155 268 248
f 192 294 153
f 247 179 111
f 268 265 267
f 275 274 265
f 275 266 273
f 278 261 281
f 261 278 277
f 262 277 276
f 292 268 269
f 268 267 270
f 267 265 274
f 265 266 275
f 276 263 262
f 266 263 273
f 116 193 198
f 277 262 261
f 266 265 263
f 281 261 264
f 268 263 265
f 292 248 268
f 263 261 262
f 294 192 283
f 283 249 292
f 260 249 283
f 260 283 192
f 260 259 257
f 120 136 119
f 129 137 132
f 131 129 132
f 137 129 133
f 137 130 132
f 126 140 141
f 140 127 128
f 126 127 140
f 126 124 125
f 120 124 126
f 124 122 123
f 120 122 124
f 120 121 122
f 135 134 129
f 136 118 119
f 133 136 120
f 153 244 117
f 151 234 152
f 150 233 151
f 149 232 150
f 148 231 149
f 147 230 148
f 146 229 147
f 145 228 146
f 144 227 145
f 148 144 146
f 155 152 154
f 192 153 109
f 248 126 155
f 247 111 120
f 247 120 126
f 155 148 152
f 152 150 151
f 152 149 150
f 148 149 152
f 126 148 155
f 148 146 147
f 143 226 144
f 144 145 146
f 148 141 144
f 144 142 143
f 506 109 153
f 295 109 506
f 126 141 148
f 141 142 144
f 111 137 120
f 138 137 108
f 137 133 120
f 129 134 133
f 108 107 139
f 134 197 133
f 133 197 136
f 103 116 198
f 153 117 773
f 172 115 111
f 109 104 192
f 113 115 114
f 111 115 113
f 113 112 111
f 110 108 111
f 401 105 106
f 108 137 111
f 118 136 199
f 139 138 108
f 401 103 105
f 102 109 295
f 107 108 163
f 107 163 139
f 104 103 165
f 106 102 295
f 102 104 109
f 102 103 104
f 103 101 105
f 101 103 102
f 218 141 140
f 116 117 236
f 142 220 143
f 138 139 225
f 224 137 138
f 135 200 134
f 131 132 222
f 223 130 137
f 130 221 132
f 131 194 129
f 129 195 135
f 219 142 141
f 155 156 157
f 217 140 128
f 214 128 127
f 127 126 213
f 126 125 211
f 121 120 202
f 125 124 210
f 124 123 207
f 123 122 204
f 122 121 202
f 119 193 120
f 118 193 119
f 186 185 176
f 191 249 253
f 190 179 191
f 178 190 189
f 188 178 189
f 178 188 187
f 192 184 185
f 192 183 184
f 192 182 183
f 192 181 182
f 192 180 181
f 179 249 191
f 187 186 176
f 192 185 186
f 178 179 190
f 187 177 178
f 185 184 174
f 184 183 173
f 183 182 172
f 182 181 171
f 181 180 171
f 180 175 171
f 176 177 187
f 179 178 177
f 174 176 185
f 197 103 199
f 200 135 195
f 200 196 134
f 197 134 196
f 199 136 197
f 193 118 198
f 198 118 199
f 103 194 222
f 195 194 103
f 103 200 195
f 200 103 196
f 199 103 198
f 173 174 184
f 103 197 196
f 256 258 192
f 255 256 192
f 254 255 192
f 253 254 192
f 191 253 192
f 192 190 191
f 189 190 192
f 192 188 189
f 192 187 188
f 192 186 187
f 225 139 163
f 168 114 169
f 161 112 162
f 166 111 161
f 192 104 160
f 115 169 114
f 114 168 113
f 112 113 162
f 110 111 166
f 164 108 110
f 111 112 161
f 164 167 108
f 167 163 108
f 162 113 168
f 104 165 160
f 165 103 167
f 163 103 225
f 103 224 225
f 103 163 167
f 103 223 224
f 223 103 221
f 222 221 103
f 261 155 159
f 159 157 158
f 155 157 159
f 175 170 115
f 177 174 179
f 174 177 176
f 172 173 183
f 171 172 182
f 172 174 173
f 175 115 171
f 174 111 179
f 111 174 172
f 115 172 171
f 175 180 160
f 180 192 160
f 585 465 586
f 115 170 169
f 160 170 175
f 167 164 165
f 160 169 170
f 169 160 168
f 161 162 160
f 160 162 168
f 160 165 164
f 164 166 160
f 160 166 161
f 164 110 166
f 473 406 593
f 463 462 579
f 468 465 585
f 466 586 465
f 468 584 467
f 467 587 458
f 471 590 469
f 471 472 591
f 466 470 588
f 470 469 589
f 473 592 472
f 482 464 581
f 405 514 714
f 477 475 595
f 475 474 594
f 476 477 596
f 480 476 597
f 479 478 598
f 483 479 602
f 481 480 600
f 478 481 601
f 482 582 474
f 499 500 501
f 489 490 492
f 492 490 491
f 489 492 496
f 492 493 494
f 496 492 494
f 499 489 496
f 496 494 495
f 499 496 497
f 476 499 534
f 499 497 498
f 484 483 602
f 502 499 501
f 499 502 505
f 502 501 503
f 505 502 504
f 457 577 461
f 457 458 576
f 462 459 578
f 459 460 583
f 460 461 575
f 464 463 580
f 584 468 585
f 406 407 626
f 407 409 628
f 409 408 630
f 408 410 632
f 410 411 634
f 412 413 638
f 638 413 414
f 414 415 639
f 416 641 415
f 586 466 588
f 424 405 644
f 580 463 579
f 582 482 581
f 581 464 580
f 579 462 578
f 583 460 575
f 583 578 459
f 577 457 576
f 576 458 587
f 575 461 577
f 573 574 405
f 495 494 614
f 486 484 603
f 485 486 604
f 487 485 605
f 488 487 606
f 489 488 607
f 490 489 608
f 491 490 609
f 492 491 610
f 493 492 611
f 494 493 612
f 528 463 476
f 496 495 615
f 497 496 616
f 498 497 616
f 499 498 618
f 500 499 618
f 503 501 620
f 501 500 620
f 502 503 622
f 504 502 623
f 505 504 623
f 435 428 446
f 422 425 423
f 424 538 404
f 425 427 426
f 428 431 429
f 430 429 431
f 428 435 431
f 415 454 428
f 432 435 433
f 431 435 432
f 433 435 434
f 427 415 428
f 435 437 436
f 437 435 440
f 439 440 438
f 437 440 439
f 440 444 441
f 440 435 446
f 454 415 528
f 442 456 443
f 456 454 526
f 456 526 443
f 412 414 413
f 295 404 402
f 404 298 405
f 424 404 405
f 407 473 409
f 473 407 406
f 473 408 409
f 408 411 410
f 463 528 415
f 534 528 476
f 411 415 412
f 446 428 454
f 414 412 415
f 411 408 415
f 415 417 416
f 417 415 418
f 418 415 422
f 418 422 419
f 419 421 420
f 421 419 422
f 425 422 415
f 427 425 415
f 481 478 479
f 468 458 466
f 473 461 463
f 461 473 469
f 471 473 472
f 473 471 469
f 473 463 408
f 408 463 415
f 463 474 476
f 476 474 475
f 476 475 477
f 461 470 466
f 476 481 489
f 481 479 486
f 476 480 481
f 479 483 484
f 486 479 484
f 486 485 487
f 489 481 486
f 489 486 487
f 489 487 488
f 476 489 499
f 458 457 461
f 444 440 445
f 445 440 446
f 446 449 447
f 447 449 448
f 454 449 446
f 449 452 450
f 449 454 452
f 452 453 451
f 453 452 454
f 454 456 455
f 417 418 645
f 461 462 463
f 462 460 459
f 461 460 462
f 474 463 482
f 482 463 464
f 465 468 466
f 461 469 470
f 458 468 467
f 466 458 461
f 509 298 713
f 518 515 516
f 515 518 560
f 518 534 552
f 514 405 918
f 405 298 918
f 511 510 712
f 713 506 509
f 701 508 513
f 510 507 703
f 507 508 702
f 534 518 517
f 711 300 511
f 706 295 506
f 512 297 561
f 508 297 513
f 297 512 513
f 298 509 918
f 403 1077 103
f 300 510 511
f 300 299 510
f 299 296 510
f 526 523 527
f 505 541 543
f 541 539 542
f 539 540 542
f 505 539 541
f 530 533 537
f 537 533 536
f 520 535 534
f 532 533 534
f 528 531 529
f 531 528 530
f 510 296 507
f 443 526 525
f 525 526 524
f 526 454 528
f 523 526 528
f 530 521 522
f 530 537 521
f 533 530 528
f 534 533 528
f 534 517 520
f 520 517 519
f 659 427 428
f 674 437 439
f 672 436 437
f 671 435 436
f 670 434 435
f 665 432 433
f 667 433 434
f 665 431 432
f 663 430 431
f 429 430 660
f 660 428 429
f 675 439 438
f 657 426 427
f 655 425 426
f 423 425 653
f 651 422 423
f 421 422 651
f 648 420 421
f 420 648 419
f 412 636 411
f 418 419 646
f 416 417 642
f 689 450 452
f 296 508 507
f 296 297 508
f 538 424 772
f 443 697 442
f 456 442 699
f 694 455 456
f 454 455 694
f 454 693 453
f 453 692 451
f 452 451 691
f 564 570 572
f 525 698 443
f 685 449 450
f 684 448 449
f 684 447 448
f 681 446 447
f 681 445 446
f 680 444 445
f 679 441 444
f 678 440 441
f 675 438 440
f 756 537 536
f 763 529 531
f 764 528 529
f 764 523 528
f 527 523 760
f 760 526 527
f 769 524 526
f 524 769 525
f 535 520 746
f 521 537 753
f 536 533 755
f 530 522 762
f 749 534 535
f 533 532 752
f 534 757 532
f 519 517 744
f 745 520 519
f 742 517 518
f 518 516 740
f 516 515 739
f 761 522 521
f 736 515 560
f 570 300 571
f 572 570 571
f 570 564 569
f 564 568 569
f 564 567 568
f 567 563 568
f 565 563 567
f 564 565 567
f 566 565 564
f 566 561 565
f 561 563 565
f 505 543 552
f 569 300 570
f 568 300 569
f 572 295 564
f 563 300 568
f 561 562 563
f 562 296 563
f 561 297 562
f 772 514 538
f 762 531 530
f 552 553 557
f 538 514 1094
f 1094 404 538
f 1094 403 404
f 560 518 557
f 558 559 560
f 558 560 557
f 552 557 518
f 557 553 556
f 552 550 555
f 550 554 555
f 557 556 733
f 552 534 505
f 550 545 551
f 552 543 550
f 543 548 549
f 543 541 548
f 548 546 547
f 541 546 548
f 543 545 550
f 543 544 545
f 499 505 534
f 544 543 723
f 560 559 736
f 559 558 734
f 558 557 734
f 553 552 731
f 556 553 731
f 730 552 555
f 555 554 728
f 549 548 721
f 548 547 721
f 547 546 719
f 541 542 717
f 546 541 719
f 545 544 724
f 551 545 726
f 550 551 727
f 554 550 727
f 540 539 715
f 539 505 715
f 542 540 717
f 543 549 723
f 92 88 98
f 93 83 92
f 91 83 93
f 90 82 91
f 89 86 94
f 86 85 96
f 85 84 95
f 83 88 92
f 83 91 82
f 90 81 82
f 98 87 89
f 88 87 98
f 105 101 77
f 88 79 87
f 87 78 89
f 86 77 85
f 96 85 95
f 86 96 97
f 98 89 94
f 94 86 97
f 106 100 91
f 106 91 93
f 106 93 92
f 96 106 97
f 97 106 94
f 106 96 102
f 106 92 98
f 94 106 98
f 106 99 100
f 105 99 106
f 89 80 86
f 1 99 5
f 25 99 26
f 29 30 38
f 28 29 37
f 27 28 36
f 26 27 35
f 25 26 34
f 24 25 33
f 29 99 30
f 28 99 29
f 27 99 28
f 26 99 27
f 30 31 39
f 24 99 25
f 6 99 24
f 5 99 6
f 99 1 100
f 64 15 23
f 23 14 21
f 21 10 22
f 10 17 22
f 19 13 40
f 18 12 19
f 100 19 40
f 37 44 36
f 43 35 36
f 34 35 43
f 34 41 33
f 40 32 33
f 100 44 45
f 100 43 44
f 100 42 43
f 100 41 42
f 100 40 41
f 17 9 20
f 99 105 30
f 39 31 81
f 38 30 39
f 37 29 38
f 36 28 37
f 35 27 36
f 34 26 35
f 33 25 34
f 32 24 33
f 31 72 81
f 3 4 11
f 9 2 12
f 12 5 13
f 11 4 9
f 10 3 11
f 48 8 15
f 8 7 14
f 7 3 10
f 6 24 32
f 5 6 13
f 5 12 2
f 13 6 32
f 4 2 9
f 49 50 1
f 48 49 1
f 8 48 1
f 7 8 1
f 3 1 4
f 3 7 1
f 2 4 1
f 1 5 2
f 101 16 1
f 23 21 16
f 20 12 18
f 10 11 17
f 11 9 17
f 56 15 64
f 15 14 23
f 14 10 21
f 13 32 40
f 12 13 19
f 12 20 9
f 16 102 23
f 85 76 84
f 22 16 21
f 19 16 18
f 20 18 16
f 100 16 19
f 100 1 16
f 22 17 16
f 16 17 20
f 56 48 15
f 15 8 14
f 14 7 10
f 58 65 66
f 82 73 83
f 83 74 88
f 102 69 68
f 67 102 68
f 95 63 71
f 71 62 70
f 62 69 70
f 69 60 68
f 68 59 67
f 67 58 66
f 81 72 82
f 65 57 64
f 84 63 95
f 63 62 71
f 62 61 69
f 61 60 69
f 60 59 68
f 59 58 67
f 58 57 65
f 57 56 64
f 66 102 67
f 80 77 86
f 38 45 37
f 102 70 69
f 102 71 70
f 102 95 71
f 102 96 95
f 72 73 82
f 73 74 83
f 79 88 74
f 76 75 84
f 77 76 85
f 38 39 47
f 79 78 87
f 78 80 89
f 30 105 31
f 31 105 72
f 72 105 73
f 73 105 74
f 79 105 78
f 74 105 79
f 105 80 78
f 105 77 80
f 100 45 46
f 54 53 61
f 53 52 60
f 52 51 59
f 51 50 58
f 50 49 57
f 49 48 56
f 101 1 50
f 100 90 91
f 100 47 90
f 100 46 47
f 64 102 65
f 47 39 90
f 46 38 47
f 45 38 46
f 44 37 45
f 43 36 44
f 42 34 43
f 41 34 42
f 40 33 41
f 39 81 90
f 65 102 66
f 75 55 63
f 55 54 62
f 23 102 64
f 16 101 102
f 84 75 63
f 63 55 62
f 62 54 61
f 61 53 60
f 60 52 59
f 59 51 58
f 58 50 57
f 77 101 76
f 76 101 75
f 75 101 55
f 55 101 54
f 54 101 53
f 53 101 52
f 101 51 52
f 101 50 51
f 57 49 56
f 806 807 815
f 807 808 816
f 823 816 824
f 808 809 817
f 809 810 818
f 810 811 819
f 811 812 820
f 812 813 821
f 813 856 865
f 814 806 815
f 815 807 816
f 883 812 811
f 883 811 810
f 809 883 810
f 808 883 809
f 807 883 808
f 806 883 807
f 788 883 806
f 787 883 788
f 847 797 805
f 805 796 803
f 803 792 804
f 792 799 804
f 884 825 826
f 843 835 842
f 822 815 823
f 821 865 874
f 820 821 829
f 820 827 819
f 819 826 818
f 825 817 818
f 816 817 825
f 816 823 815
f 822 814 815
f 827 884 826
f 816 808 817
f 884 824 825
f 884 823 824
f 884 822 823
f 884 801 822
f 883 885 812
f 821 813 865
f 820 812 821
f 819 811 820
f 818 810 819
f 817 809 818
f 786 784 791
f 791 784 794
f 794 787 795
f 793 786 791
f 792 785 793
f 830 790 797
f 790 789 796
f 789 785 792
f 788 806 814
f 787 788 795
f 787 794 784
f 785 786 793
f 795 788 814
f 832 783 831
f 831 783 830
f 830 783 790
f 790 783 789
f 785 783 786
f 789 783 785
f 783 784 786
f 783 787 784
f 783 846 798
f 787 783 883
f 798 855 805
f 800 794 801
f 799 791 802
f 802 794 800
f 792 793 799
f 793 791 799
f 838 797 847
f 797 796 805
f 796 792 803
f 795 814 822
f 794 795 801
f 794 802 791
f 801 795 822
f 798 805 803
f 798 803 804
f 801 798 800
f 800 798 802
f 884 798 801
f 798 804 799
f 802 798 799
f 838 830 797
f 797 790 796
f 796 789 792
f 813 885 856
f 872 863 871
f 871 862 873
f 870 861 869
f 873 864 870
f 869 860 868
f 867 858 872
f 866 857 867
f 865 856 866
f 861 864 885
f 862 885 864
f 885 863 858
f 862 863 885
f 857 885 858
f 856 885 857
f 861 885 846
f 812 885 813
f 862 864 873
f 863 862 871
f 864 861 870
f 861 860 869
f 860 859 868
f 863 872 858
f 857 858 867
f 856 857 866
f 880 879 855
f 879 854 855
f 854 853 855
f 853 852 855
f 870 880 881
f 883 886 885
f 886 883 884
f 882 878 886
f 886 876 882
f 880 855 886
f 878 881 886
f 881 880 886
f 855 885 886
f 877 876 886
f 886 875 877
f 886 884 875
f 878 870 881
f 882 873 878
f 825 818 826
f 880 869 879
f 876 872 882
f 877 867 876
f 875 867 877
f 874 866 875
f 873 870 878
f 870 869 880
f 869 868 879
f 867 872 876
f 867 875 866
f 874 865 866
f 882 871 873
f 872 871 882
f 834 833 841
f 840 832 839
f 839 831 838
f 860 861 846
f 859 860 846
f 846 837 859
f 846 836 837
f 846 835 836
f 846 834 835
f 846 833 834
f 846 832 833
f 859 837 845
f 837 836 844
f 836 835 843
f 835 834 842
f 851 850 855
f 833 832 840
f 832 831 839
f 831 830 838
f 846 783 832
f 875 884 874
f 874 884 829
f 829 884 828
f 828 884 827
f 829 821 874
f 828 820 829
f 827 820 828
f 826 819 827
f 824 816 825
f 842 834 841
f 852 851 855
f 879 845 854
f 854 844 853
f 844 852 853
f 852 842 851
f 851 841 850
f 850 840 849
f 840 848 849
f 848 839 847
f 868 845 879
f 845 844 854
f 844 843 852
f 843 842 852
f 842 841 851
f 841 840 850
f 840 839 848
f 839 838 847
f 850 849 855
f 849 848 855
f 848 847 855
f 847 805 855
f 798 846 855
f 846 885 855
f 868 859 845
f 845 837 844
f 844 836 843
f 841 833 840
f 380 382 391
f 313 306 333
f 316 402 323
f 323 321 316
f 322 316 321
f 319 316 318
f 320 318 316
f 341 316 319
f 341 301 316
f 322 317 316
f 316 317 320
f 358 350 315
f 315 308 314
f 314 307 310
f 312 320 309
f 309 302 312
f 312 305 313
f 311 304 309
f 310 303 311
f 350 308 315
f 308 307 314
f 307 303 310
f 306 325 333
f 305 306 313
f 305 312 302
f 303 304 311
f 304 302 309
f 321 310 322
f 325 326 334
f 330 324 331
f 329 324 330
f 328 324 329
f 327 324 328
f 326 324 327
f 325 324 326
f 306 324 325
f 305 324 306
f 324 301 341
f 366 315 323
f 323 314 321
f 351 352 301
f 310 317 322
f 319 313 342
f 318 312 319
f 317 309 320
f 320 312 318
f 310 311 317
f 311 309 317
f 358 315 366
f 315 314 323
f 314 310 321
f 313 333 342
f 312 313 319
f 394 390 400
f 401 379 403
f 390 389 400
f 400 389 391
f 392 383 384
f 385 393 384
f 385 390 394
f 387 386 397
f 388 387 398
f 391 388 396
f 392 384 393
f 393 385 395
f 395 385 394
f 403 324 404
f 398 387 397
f 388 398 399
f 400 391 396
f 396 388 399
f 404 341 393
f 404 393 395
f 404 395 394
f 398 404 399
f 399 404 396
f 402 404 398
f 404 394 400
f 396 404 400
f 381 403 380
f 350 351 301
f 308 350 301
f 307 308 301
f 303 301 304
f 303 307 301
f 302 304 301
f 301 305 302
f 401 316 301
f 301 324 305
f 332 403 374
f 374 403 375
f 375 403 376
f 326 327 335
f 376 403 381
f 403 382 380
f 403 379 382
f 383 374 384
f 384 375 385
f 385 376 390
f 387 378 386
f 391 382 388
f 388 379 387
f 389 380 391
f 390 381 389
f 363 355 362
f 362 361 370
f 361 360 369
f 360 359 367
f 359 358 366
f 368 402 369
f 367 402 368
f 366 402 367
f 323 402 366
f 316 401 402
f 386 377 365
f 365 357 364
f 364 356 363
f 363 362 371
f 362 354 361
f 361 353 360
f 360 352 359
f 359 351 358
f 379 401 378
f 378 401 377
f 377 401 357
f 357 401 356
f 356 401 355
f 355 401 354
f 401 353 354
f 401 352 353
f 402 371 370
f 331 403 332
f 381 380 389
f 382 379 388
f 379 378 387
f 378 377 386
f 381 390 376
f 375 376 385
f 374 375 384
f 402 398 397
f 402 397 373
f 402 373 372
f 402 372 371
f 377 357 365
f 369 402 370
f 397 365 373
f 373 364 372
f 364 371 372
f 371 362 370
f 370 361 369
f 369 360 368
f 360 367 368
f 367 359 366
f 386 365 397
f 365 364 373
f 364 363 371
f 339 331 340
f 345 336 337
f 335 336 345
f 335 343 334
f 342 333 334
f 346 347 341
f 345 346 341
f 344 345 341
f 341 343 344
f 341 342 343
f 341 319 342
f 324 403 331
f 340 332 383
f 338 346 337
f 338 330 339
f 337 329 338
f 336 328 337
f 335 327 336
f 334 326 335
f 333 325 334
f 332 374 383
f 331 332 340
f 330 331 339
f 329 330 338
f 328 329 337
f 327 328 336
f 404 324 341
f 357 356 364
f 356 355 363
f 355 354 362
f 354 353 361
f 353 352 360
f 352 351 359
f 351 350 358
f 401 301 352
f 392 393 341
f 349 392 341
f 348 349 341
f 347 348 341
f 349 340 392
f 348 339 349
f 347 339 348
f 346 338 347
f 345 337 346
f 344 335 345
f 343 335 344
f 342 334 343
f 340 383 392
f 339 340 349
f 339 347 338
f 1058 1054 1077
f 1121 1112 1120
f 1120 1076 1128
f 1121 1120 1128
f 1122 1121 1128
f 1123 1122 1128
f 1112 1111 1120
f 1113 1112 1121
f 1114 1113 1123
f 1115 1114 1124
f 1116 1115 1125
f 1117 1116 1125
f 1118 1117 1127
f 1141 1118 1153
f 1069 1119 1128
f 1113 1121 1122
f 1123 1113 1122
f 1124 1114 1123
f 1125 1115 1124
f 1117 1125 1126
f 1127 1117 1126
f 1153 1118 1127
f 1124 1123 1128
f 1125 1124 1128
f 1126 1125 1128
f 1127 1126 1128
f 1153 1127 1128
f 1119 1109 1110
f 1104 1103 1111
f 1105 1104 1112
f 1106 1105 1113
f 1107 1106 1114
f 1108 1107 1115
f 1109 1108 1116
f 1110 1109 1117
f 1132 1110 1118
f 1119 1105 1106
f 1119 1106 1107
f 1119 1107 1108
f 1119 1108 1109
f 1154 1153 1128
f 1119 1110 1132
f 1132 1133 1119
f 1133 1134 1119
f 1112 1104 1111
f 1113 1105 1112
f 1114 1106 1113
f 1115 1107 1114
f 1116 1108 1115
f 1117 1109 1116
f 1118 1110 1117
f 1141 1132 1118
f 1119 1147 1128
f 1128 1147 1157
f 1134 1147 1119
f 1145 1144 1156
f 1156 1144 1146
f 1148 1138 1139
f 1140 1149 1139
f 1140 1145 1150
f 1142 1141 1153
f 1156 1152 1157
f 1157 1150 1156
f 1154 1128 1157
f 1152 1155 1157
f 1155 1154 1157
f 1077 1157 1147
f 1151 1150 1157
f 1157 1149 1151
f 1157 1094 1149
f 1152 1143 1155
f 1156 1146 1152
f 1143 1154 1155
f 1154 1142 1153
f 1150 1145 1156
f 1151 1140 1150
f 1149 1140 1151
f 1148 1139 1149
f 1146 1143 1152
f 1135 1136 1147
f 1129 1130 1139
f 1130 1131 1140
f 1136 1145 1131
f 1133 1132 1141
f 1134 1133 1142
f 1137 1134 1143
f 1136 1135 1144
f 1135 1137 1146
f 1084 1147 1085
f 1085 1147 1129
f 1129 1147 1130
f 1130 1147 1131
f 1119 1054 1105
f 1147 1136 1131
f 1135 1147 1137
f 1134 1137 1147
f 1138 1129 1139
f 1139 1130 1140
f 1140 1131 1145
f 1142 1133 1141
f 1146 1137 1143
f 1143 1134 1142
f 1144 1135 1146
f 1145 1136 1144
f 1068 1067 1076
f 1073 1069 1070
f 1069 1075 1070
f 1069 1072 1094
f 1071 1069 1073
f 1072 1069 1071
f 1069 1074 1075
f 1069 1076 1074
f 1069 1128 1076
f 1065 1073 1062
f 1065 1066 1072
f 1066 1086 1095
f 1067 1063 1074
f 1111 1103 1068
f 1111 1068 1120
f 1064 1062 1070
f 1063 1064 1070
f 1073 1065 1071
f 1070 1062 1073
f 1071 1065 1072
f 1072 1066 1095
f 1063 1070 1075
f 1074 1063 1075
f 1076 1067 1074
f 1120 1068 1076
f 1058 1077 1059
f 1058 1059 1066
f 1054 1119 1069
f 1054 1058 1055
f 1054 1055 1057
f 1060 1054 1056
f 1056 1054 1057
f 1061 1054 1060
f 1103 1054 1061
f 1104 1054 1103
f 1105 1054 1104
f 1057 1055 1062
f 1056 1057 1064
f 1058 1065 1055
f 1059 1077 1078
f 1059 1078 1086
f 1060 1056 1063
f 1061 1060 1067
f 1103 1061 1068
f 1063 1056 1064
f 1064 1057 1062
f 1065 1058 1066
f 1062 1055 1065
f 1066 1059 1086
f 1067 1060 1063
f 1068 1061 1067
f 1095 1087 1096
f 1094 1096 1097
f 1094 1097 1098
f 1094 1098 1099
f 1100 1094 1099
f 1095 1086 1087
f 1088 1096 1087
f 1088 1089 1098
f 1098 1089 1090
f 1091 1099 1090
f 1092 1100 1091
f 1092 1093 1102
f 1093 1138 1148
f 1094 1095 1096
f 1096 1088 1097
f 1097 1088 1098
f 1098 1090 1099
f 1099 1091 1100
f 1100 1092 1101
f 1101 1092 1102
f 1102 1093 1148
f 1157 1077 1094
f 1101 1094 1100
f 1102 1094 1101
f 1148 1094 1102
f 1149 1094 1148
f 1084 1085 1093
f 1078 1077 1079
f 1079 1077 1080
f 1080 1077 1081
f 1081 1077 1082
f 1077 1083 1082
f 1077 1084 1083
f 1078 1079 1087
f 1079 1080 1088
f 1080 1081 1089
f 1081 1082 1090
f 1082 1083 1091
f 1083 1084 1092
f 1143 1142 1154
f 1085 1129 1138
f 1086 1078 1087
f 1087 1079 1088
f 1088 1080 1089
f 1089 1081 1090
f 1090 1082 1091
f 1091 1083 1092
f 1092 1084 1093
f 1093 1085 1138
f 1077 1147 1084
f 1094 1072 1095

