# Intel RealSense D405 collision box from pdz_gripper.urdf.
# Units: centimetres. Vertices are baked into the PDZ flange frame.
o pdz_d405_collision
v -2.100000000 -10.978623179 4.384041490
v -2.100000000 -7.538184593 1.975020458
v 2.100000000 -10.978623179 4.384041490
v 2.100000000 -7.538184593 1.975020458
v -2.100000000 -9.659397376 6.268091192
v -2.100000000 -6.218958790 3.859070159
v 2.100000000 -9.659397376 6.268091192
v 2.100000000 -6.218958790 3.859070159
f 2 4 1
f 5 2 1
f 1 4 3
f 3 5 1
f 2 8 4
f 6 2 5
f 6 8 2
f 4 8 3
f 7 5 3
f 3 8 7
f 7 6 5
f 8 6 7
